<?xml version="1.0" encoding="UTF-8" standalone="no"?>
<!-- Created with Inkscape (http://www.inkscape.org/) -->

<svg
   xmlns:dc="http://purl.org/dc/elements/1.1/"
   xmlns:cc="http://creativecommons.org/ns#"
   xmlns:rdf="http://www.w3.org/1999/02/22-rdf-syntax-ns#"
   xmlns:svg="http://www.w3.org/2000/svg"
   xmlns="http://www.w3.org/2000/svg"
   xmlns:sodipodi="http://sodipodi.sourceforge.net/DTD/sodipodi-0.dtd"
   xmlns:inkscape="http://www.inkscape.org/namespaces/inkscape"
   id="svg2"
   version="1.1"
   inkscape:version="0.48.4 r9939"
   width="376.39443"
   height="220.11715"
   xml:space="preserve"
   sodipodi:docname="cuartiles.pdf"><metadata
     id="metadata8"><rdf:RDF><cc:Work
         rdf:about=""><dc:format>image/svg+xml</dc:format><dc:type
           rdf:resource="http://purl.org/dc/dcmitype/StillImage" /><dc:title></dc:title></cc:Work></rdf:RDF></metadata><defs
     id="defs6"><clipPath
       clipPathUnits="userSpaceOnUse"
       id="clipPath30"><path
         d="m 51,59.093719 4,0 0,4 -4,0 0,-4 z"
         id="path32" /></clipPath><mask
       maskUnits="userSpaceOnUse"
       x="0"
       y="0"
       width="1"
       height="1"
       id="mask34"><g
         id="g36"><g
           clip-path="url(#clipPath30)"
           id="g38"><path
             d="m 51,59.093719 4,0 0,4 -4,0 0,-4 z"
             style="fill:#000000;fill-opacity:0.751852;fill-rule:nonzero;stroke:none"
             id="path40" /></g></g></mask><clipPath
       clipPathUnits="userSpaceOnUse"
       id="clipPath46"><path
         d="m 51,59.093719 4,0 0,4 -4,0 0,-4 z"
         id="path48" /></clipPath><clipPath
       clipPathUnits="userSpaceOnUse"
       id="clipPath50"><path
         d="m 51,60 4,0 0,4 -4,0 0,-4 z"
         id="path52" /></clipPath><clipPath
       clipPathUnits="userSpaceOnUse"
       id="clipPath74"><path
         d="m 82,59.093719 4,0 0,4 -4,0 0,-4 z"
         id="path76" /></clipPath><mask
       maskUnits="userSpaceOnUse"
       x="0"
       y="0"
       width="1"
       height="1"
       id="mask78"><g
         id="g80"><g
           clip-path="url(#clipPath74)"
           id="g82"><path
             d="m 82,59.093719 4,0 0,4 -4,0 0,-4 z"
             style="fill:#000000;fill-opacity:0.751852;fill-rule:nonzero;stroke:none"
             id="path84" /></g></g></mask><clipPath
       clipPathUnits="userSpaceOnUse"
       id="clipPath90"><path
         d="m 82,59.093719 4,0 0,4 -4,0 0,-4 z"
         id="path92" /></clipPath><clipPath
       clipPathUnits="userSpaceOnUse"
       id="clipPath94"><path
         d="m 82,60 4,0 0,4 -4,0 0,-4 z"
         id="path96" /></clipPath><clipPath
       clipPathUnits="userSpaceOnUse"
       id="clipPath122"><path
         d="m 85,37.093719 4,0 0,5 -4,0 0,-5 z"
         id="path124" /></clipPath><mask
       maskUnits="userSpaceOnUse"
       x="0"
       y="0"
       width="1"
       height="1"
       id="mask126"><g
         id="g128"><g
           clip-path="url(#clipPath122)"
           id="g130"><path
             d="m 85,37.093719 4,0 0,5 -4,0 0,-5 z"
             style="fill:#000000;fill-opacity:0.751852;fill-rule:nonzero;stroke:none"
             id="path132" /></g></g></mask><clipPath
       clipPathUnits="userSpaceOnUse"
       id="clipPath138"><path
         d="m 85,37.093719 4,0 0,5 -4,0 0,-5 z"
         id="path140" /></clipPath><clipPath
       clipPathUnits="userSpaceOnUse"
       id="clipPath142"><path
         d="m 85,38 4,0 0,5 -4,0 0,-5 z"
         id="path144" /></clipPath><clipPath
       clipPathUnits="userSpaceOnUse"
       id="clipPath166"><path
         d="m 143,37.093719 5,0 0,5 -5,0 0,-5 z"
         id="path168" /></clipPath><mask
       maskUnits="userSpaceOnUse"
       x="0"
       y="0"
       width="1"
       height="1"
       id="mask170"><g
         id="g172"><g
           clip-path="url(#clipPath166)"
           id="g174"><path
             d="m 143,37.093719 5,0 0,5 -5,0 0,-5 z"
             style="fill:#000000;fill-opacity:0.751852;fill-rule:nonzero;stroke:none"
             id="path176" /></g></g></mask><clipPath
       clipPathUnits="userSpaceOnUse"
       id="clipPath182"><path
         d="m 143,37.093719 5,0 0,5 -5,0 0,-5 z"
         id="path184" /></clipPath><clipPath
       clipPathUnits="userSpaceOnUse"
       id="clipPath186"><path
         d="m 143,38 5,0 0,5 -5,0 0,-5 z"
         id="path188" /></clipPath></defs><sodipodi:namedview
     pagecolor="#ffffff"
     bordercolor="#666666"
     borderopacity="1"
     objecttolerance="10"
     gridtolerance="10"
     guidetolerance="10"
     inkscape:pageopacity="0"
     inkscape:pageshadow="2"
     inkscape:window-width="1333"
     inkscape:window-height="744"
     id="namedview4"
     showgrid="false"
     inkscape:zoom="0.95378667"
     inkscape:cx="149.49477"
     inkscape:cy="-9.8125353"
     inkscape:window-x="33"
     inkscape:window-y="24"
     inkscape:window-maximized="1"
     inkscape:current-layer="g10"
     showguides="true"
     inkscape:guide-bbox="true"><sodipodi:guide
       orientation="1,0"
       position="107.12766,68.576527"
       id="guide3976" /></sodipodi:namedview><g
     id="g10"
     inkscape:groupmode="layer"
     inkscape:label="cuartiles"
     transform="matrix(1.25,0,0,-1.25,0,220.11715)"><path
       inkscape:connector-curvature="0"
       id="path14"
       style="fill:#0066cc;fill-opacity:1;fill-rule:nonzero;stroke:none"
       d="m 15.297,16.82 0,150.649 90.785,0 0,-91.114 90.457,0 0,-28.945 90.129,0 0,-30.59 -271.371,0 z" /><path
       inkscape:connector-curvature="0"
       id="path16"
       style="fill:none;stroke:#0066cc;stroke-width:0.798926;stroke-linecap:butt;stroke-linejoin:miter;stroke-miterlimit:4;stroke-opacity:1;stroke-dasharray:none"
       d="m 51.512,16.82 0,150.242 54.804,0 0,-90.867 40.559,0 0,-59.375 -95.363,0 z" /><path
       inkscape:connector-curvature="0"
       id="path18"
       style="fill:#3771c8;fill-opacity:0.620321;fill-rule:nonzero;stroke:none"
       d="m 51.746,16.82 0,150.188 54.805,0 0,-90.836 40.558,0 0,-59.352 -95.363,0 z" /><path
       inkscape:connector-curvature="0"
       id="path20"
       style="fill:none;stroke:#3771c8;stroke-width:0.79877198;stroke-linecap:butt;stroke-linejoin:miter;stroke-miterlimit:4;stroke-opacity:1;stroke-dasharray:none"
       d="m 51.746,16.82 0,150.188 54.805,0 0,-90.836 40.558,0 0,-59.352 -95.363,0 z" /><g
       transform="matrix(0.62636292,0,0,-1,25.52946,176.09372)"
       id="g22"><path
         inkscape:connector-curvature="0"
         id="path24"
         style="fill:none;stroke:#000000;stroke-width:0.80000001;stroke-linecap:butt;stroke-linejoin:miter;stroke-miterlimit:4;stroke-opacity:1;stroke-dasharray:none"
         d="m 51.512,114.961 34.191,0 -0.23,0" /></g><g
       id="g26"><g
         id="g28" /><g
         mask="url(#mask34)"
         id="g42"><g
           id="g44" /><g
           id="g54"><g
             id="g56"
             clip-path="url(#clipPath46)"><g
               id="g58"
               transform="translate(0,-0.906281)"><g
                 id="g60"><g
                   id="g62"
                   clip-path="url(#clipPath50)"><g
                     id="g64"><g
                       id="g66"
                       transform="matrix(0,1,-1,0,0,177)"><path
                         inkscape:connector-curvature="0"
                         id="path68"
                         style="fill:#000000;fill-opacity:1;fill-rule:nonzero;stroke:#0066cc;stroke-width:0.08;stroke-linecap:butt;stroke-linejoin:miter;stroke-miterlimit:4;stroke-opacity:1;stroke-dasharray:none"
                         d="m -115.078,-51.398 -1.762,-3.051 3.524,0 -1.762,3.051 z" /></g></g></g></g></g></g></g></g></g><g
       id="g70"><g
         id="g72" /><g
         mask="url(#mask78)"
         id="g86"><g
           id="g88" /><g
           id="g98"><g
             id="g100"
             clip-path="url(#clipPath90)"><g
               id="g102"
               transform="translate(0,-0.906281)"><g
                 id="g104"><g
                   id="g106"
                   clip-path="url(#clipPath94)"><g
                     id="g108"><g
                       id="g110"
                       transform="matrix(0,-1,1,0,0,177)"><path
                         inkscape:connector-curvature="0"
                         id="path112"
                         style="fill:#000000;fill-opacity:1;fill-rule:nonzero;stroke:#0066cc;stroke-width:0.08;stroke-linecap:butt;stroke-linejoin:miter;stroke-miterlimit:4;stroke-opacity:1;stroke-dasharray:none"
                         d="m 114.902,85.43 -1.761,-3.055 3.523,0 -1.762,3.055 z" /></g></g></g></g></g></g></g></g></g><g
       transform="matrix(0.79244275,0,0,-1,24.639852,176.09372)"
       id="g114"><path
         inkscape:connector-curvature="0"
         id="path116"
         style="fill:none;stroke:#000000;stroke-width:0.80000001;stroke-linecap:butt;stroke-linejoin:miter;stroke-miterlimit:4;stroke-opacity:1;stroke-dasharray:none"
         d="m 85.414,136.594 61.461,0" /></g><g
       id="g118"><g
         id="g120" /><g
         mask="url(#mask126)"
         id="g134"><g
           id="g136" /><g
           id="g146"><g
             id="g148"
             clip-path="url(#clipPath138)"><g
               id="g150"
               transform="translate(0,-0.906281)"><g
                 id="g152"><g
                   id="g154"
                   clip-path="url(#clipPath142)"><g
                     id="g156"><g
                       id="g158"
                       transform="matrix(0,1,-1,0,0,177)"><path
                         inkscape:connector-curvature="0"
                         id="path160"
                         style="fill:#000000;fill-opacity:1;fill-rule:nonzero;stroke:#0066cc;stroke-width:0.08;stroke-linecap:butt;stroke-linejoin:miter;stroke-miterlimit:4;stroke-opacity:1;stroke-dasharray:none"
                         d="m -136.594,-85.34 -1.761,-3.055 3.527,0 -1.766,3.055 z" /></g></g></g></g></g></g></g></g></g><g
       id="g162"><g
         id="g164" /><g
         mask="url(#mask170)"
         id="g178"><g
           id="g180" /><g
           id="g190"><g
             id="g192"
             clip-path="url(#clipPath182)"><g
               id="g194"
               transform="translate(0,-0.906281)"><g
                 id="g196"><g
                   id="g198"
                   clip-path="url(#clipPath186)"><g
                     id="g200"><g
                       id="g202"
                       transform="matrix(0,-1,1,0,0,177)"><path
                         inkscape:connector-curvature="0"
                         id="path204"
                         style="fill:#000000;fill-opacity:1;fill-rule:nonzero;stroke:#0066cc;stroke-width:0.08;stroke-linecap:butt;stroke-linejoin:miter;stroke-miterlimit:4;stroke-opacity:1;stroke-dasharray:none"
                         d="m 136.594,146.949 -1.766,-3.054 3.527,0 -1.761,3.054 z" /></g></g></g></g></g></g></g></g></g><g
       transform="matrix(1,0,0,-1,0,176.09372)"
       id="g206"><path
         inkscape:connector-curvature="0"
         id="path208"
         style="fill:none;stroke:#000000;stroke-width:0.80000001;stroke-linecap:butt;stroke-linejoin:miter;stroke-miterlimit:4;stroke-opacity:1;stroke-dasharray:none"
         d="m 0.398,0.398 0,158.875 300.317,0" /></g><text
       id="text210"
       transform="scale(1,-1)"
       x="45.00095"
       y="-4.3802419"><tspan
         id="tspan212"
         y="-4.3802419"
         x="45.00095"
         style="font-size:16px;font-variant:normal;font-weight:normal;writing-mode:lr-tb;fill:#000000;fill-opacity:1;fill-rule:nonzero;stroke:none;font-family:LM Roman 10;-inkscape-font-specification:LMRoman10-Regular">Q</tspan></text>
<text
       id="text214"
       transform="scale(1,-1)"
       x="152.45776"
       y="-0.193607"><tspan
         id="tspan216"
         y="-0.193607"
         x="152.45776"
         style="font-size:8.80000019px;font-variant:normal;font-weight:normal;writing-mode:lr-tb;fill:#000000;fill-opacity:1;fill-rule:nonzero;stroke:none;font-family:LM Roman 10;-inkscape-font-specification:LMRoman10-Regular">3</tspan></text>
<text
       id="text218"
       transform="scale(1,-1)"
       x="79.440285"
       y="-4.2462802"><tspan
         id="tspan220"
         y="-4.2462802"
         x="79.440285"
         style="font-size:16px;font-variant:normal;font-weight:normal;writing-mode:lr-tb;fill:#000000;fill-opacity:1;fill-rule:nonzero;stroke:none;font-family:LM Roman 10;-inkscape-font-specification:LMRoman10-Regular">Q</tspan><tspan
         id="tspan222"
         y="-4.1476502"
         x="140.37901"
         style="font-size:16px;font-variant:normal;font-weight:normal;writing-mode:lr-tb;fill:#000000;fill-opacity:1;fill-rule:nonzero;stroke:none;font-family:LM Roman 10;-inkscape-font-specification:LMRoman10-Regular">Q</tspan></text>
<text
       id="text224"
       transform="scale(1,-1)"
       x="57.186356"
       y="-0.51947802"><tspan
         id="tspan226"
         y="-0.51947802"
         x="57.186356"
         style="font-size:8.80000019px;font-variant:normal;font-weight:normal;writing-mode:lr-tb;fill:#000000;fill-opacity:1;fill-rule:nonzero;stroke:none;font-family:LM Roman 10;-inkscape-font-specification:LMRoman10-Regular">1</tspan><tspan
         id="tspan228"
         y="-0.42620063"
         x="91.609756"
         style="font-size:8.80000019px;font-variant:normal;font-weight:normal;writing-mode:lr-tb;fill:#000000;fill-opacity:1;fill-rule:nonzero;stroke:none;font-family:LM Roman 10;-inkscape-font-specification:LMRoman10-Regular">2</tspan></text>
<path
       sodipodi:type="star"
       style="opacity:0.75185188;fill:#000000;fill-opacity:1;stroke:none"
       id="path3159"
       sodipodi:sides="3"
       sodipodi:cx="166.80777"
       sodipodi:cy="36.999294"
       sodipodi:r1="4.818891"
       sodipodi:r2="2.4094455"
       sodipodi:arg1="1.5707963"
       sodipodi:arg2="2.6179939"
       inkscape:flatsided="true"
       inkscape:rounded="0"
       inkscape:randomized="0"
       d="m 166.80777,41.818185 -4.17328,-7.228336 8.34656,0 z"
       transform="matrix(0,-0.8,-0.8,0,85.697428,194.60905)"
       inkscape:transform-center-x="1.2047188" /><path
       sodipodi:type="star"
       style="opacity:0.75185188;fill:#000000;fill-opacity:1;stroke:none"
       id="path3159-2"
       sodipodi:sides="3"
       sodipodi:cx="166.80777"
       sodipodi:cy="36.999294"
       sodipodi:r1="4.818891"
       sodipodi:r2="2.4094455"
       sodipodi:arg1="1.5707963"
       sodipodi:arg2="2.6179939"
       inkscape:flatsided="true"
       inkscape:rounded="0"
       inkscape:randomized="0"
       d="m 166.80777,41.818185 -4.17328,-7.228336 8.34656,0 z"
       transform="matrix(0,-0.8,0.8,0,113.26215,172.96112)"
       inkscape:transform-center-x="-0.96377809" /><path
       sodipodi:type="star"
       style="opacity:0.75185188;fill:#000000;fill-opacity:1;stroke:none"
       id="path3159-21"
       sodipodi:sides="3"
       sodipodi:cx="166.80777"
       sodipodi:cy="36.999294"
       sodipodi:r1="4.818891"
       sodipodi:r2="2.4094455"
       sodipodi:arg1="1.5707963"
       sodipodi:arg2="2.6179939"
       inkscape:flatsided="true"
       inkscape:rounded="0"
       inkscape:randomized="0"
       d="m 166.80777,41.818185 -4.17328,-7.228336 8.34656,0 z"
       transform="matrix(0,-0.8,-0.8,0,120.14898,173.09668)"
       inkscape:transform-center-x="0.96377504" /><path
       sodipodi:type="star"
       style="opacity:0.75185188;fill:#000000;fill-opacity:1;stroke:none"
       id="path3159-0"
       sodipodi:sides="3"
       sodipodi:cx="166.80777"
       sodipodi:cy="36.999294"
       sodipodi:r1="4.818891"
       sodipodi:r2="2.4094455"
       sodipodi:arg1="1.5707963"
       sodipodi:arg2="2.6179939"
       inkscape:flatsided="true"
       inkscape:rounded="0"
       inkscape:randomized="0"
       d="m 166.80777,41.818185 -4.17328,-7.228336 8.34656,0 z"
       transform="matrix(0,-0.8,0.8,0,51.381486,194.53492)"
       inkscape:transform-center-x="-0.96377151" /><path
       style="fill:none;stroke:#000000;stroke-width:2.5;stroke-linecap:butt;stroke-linejoin:miter;stroke-opacity:1;stroke-miterlimit:4;stroke-dasharray:none"
       d="m 64.12832,198.24681 0,-187.566073 0,0"
       id="path3204"
       inkscape:connector-curvature="0"
       transform="matrix(0.8,0,0,-0.8,0,176.09372)" /><path
       style="fill:none;stroke:#000000;stroke-width:2.5;stroke-linecap:butt;stroke-linejoin:miter;stroke-opacity:1;stroke-miterlimit:4;stroke-dasharray:none"
       d="m 184.22991,198.61749 0,-74.50747 0,0"
       id="path3206"
       inkscape:connector-curvature="0"
       transform="matrix(0.8,0,0,-0.8,0,176.09372)" /><path
       style="fill:none;stroke:#000000;stroke-width:2.5;stroke-linecap:butt;stroke-linejoin:miter;stroke-opacity:1;stroke-miterlimit:4;stroke-dasharray:none"
       d="m 107.12766,199.35886 0,-187.936755"
       id="path3978"
       inkscape:connector-curvature="0"
       transform="matrix(0.8,0,0,-0.8,0,176.09372)" /></g></svg>