<?xml version="1.0" encoding="UTF-8" standalone="no"?>
<!-- Created with Inkscape (http://www.inkscape.org/) -->

<svg
   xmlns:dc="http://purl.org/dc/elements/1.1/"
   xmlns:cc="http://creativecommons.org/ns#"
   xmlns:rdf="http://www.w3.org/1999/02/22-rdf-syntax-ns#"
   xmlns:svg="http://www.w3.org/2000/svg"
   xmlns="http://www.w3.org/2000/svg"
   xmlns:sodipodi="http://sodipodi.sourceforge.net/DTD/sodipodi-0.dtd"
   xmlns:inkscape="http://www.inkscape.org/namespaces/inkscape"
   id="svg2"
   version="1.1"
   inkscape:version="0.48.4 r9939"
   width="95"
   height="47.5"
   xml:space="preserve"
   sodipodi:docname="ej418.pdf"><metadata
     id="metadata8"><rdf:RDF><cc:Work
         rdf:about=""><dc:format>image/svg+xml</dc:format><dc:type
           rdf:resource="http://purl.org/dc/dcmitype/StillImage" /><dc:title></dc:title></cc:Work></rdf:RDF></metadata><defs
     id="defs6"><clipPath
       clipPathUnits="userSpaceOnUse"
       id="clipPath20"><path
         d="m 6.39844,379.602 751.20356,0 0,-372.00044 -751.20356,0 0,372.00044 z"
         id="path22" /></clipPath><clipPath
       clipPathUnits="userSpaceOnUse"
       id="clipPath34"><path
         d="m 6.39844,379.602 751.20356,0 0,-372.00044 -751.20356,0 0,372.00044 z"
         id="path36" /></clipPath><clipPath
       clipPathUnits="userSpaceOnUse"
       id="clipPath54"><path
         d="m 66.3984,372.398 691.2036,0 0,-44.398 -691.2036,0 0,44.398 z"
         id="path56" /></clipPath><clipPath
       clipPathUnits="userSpaceOnUse"
       id="clipPath68"><path
         d="m 48.3984,347.199 709.2036,0 0,-25.199 -709.2036,0 0,25.199 z"
         id="path70" /></clipPath><clipPath
       clipPathUnits="userSpaceOnUse"
       id="clipPath82"><path
         d="m 10,347.199 747.602,0 0,-25.199 -747.602,0 0,25.199 z"
         id="path84" /></clipPath><clipPath
       clipPathUnits="userSpaceOnUse"
       id="clipPath104"><path
         d="m 22,373.602 735.602,0 0,-45.602 -735.602,0 0,45.602 z"
         id="path106" /></clipPath><clipPath
       clipPathUnits="userSpaceOnUse"
       id="clipPath118"><path
         d="m 6.39844,373.602 751.20356,0 0,-45.602 -751.20356,0 0,45.602 z"
         id="path120" /></clipPath><clipPath
       clipPathUnits="userSpaceOnUse"
       id="clipPath134"><path
         d="m 436,368.801 321.602,0 0,-46.801 -321.602,0 0,46.801 z"
         id="path136" /></clipPath><clipPath
       clipPathUnits="userSpaceOnUse"
       id="clipPath148"><path
         d="m 415.602,310 342,0 0,-26.398 -342,0 0,26.398 z"
         id="path150" /></clipPath><clipPath
       clipPathUnits="userSpaceOnUse"
       id="clipPath162"><path
         d="m 415.602,367.602 342,0 0,-26.403 -342,0 0,26.403 z"
         id="path164" /></clipPath><clipPath
       clipPathUnits="userSpaceOnUse"
       id="clipPath176"><path
         d="m 6.39844,379.602 751.20356,0 0,-372.00044 -751.20356,0 0,372.00044 z"
         id="path178" /></clipPath><clipPath
       clipPathUnits="userSpaceOnUse"
       id="clipPath190"><path
         d="m 395.199,337.602 362.403,0 0,-48 -362.403,0 0,48 z"
         id="path192" /></clipPath><clipPath
       clipPathUnits="userSpaceOnUse"
       id="clipPath204"><path
         d="m 391.602,379.602 366,0 0,-32.403 -366,0 0,32.403 z"
         id="path206" /></clipPath></defs><sodipodi:namedview
     pagecolor="#ffffff"
     bordercolor="#666666"
     borderopacity="1"
     objecttolerance="10"
     gridtolerance="10"
     guidetolerance="10"
     inkscape:pageopacity="0"
     inkscape:pageshadow="2"
     inkscape:window-width="1333"
     inkscape:window-height="744"
     id="namedview4"
     showgrid="false"
     inkscape:zoom="3.6105263"
     inkscape:cx="47.5"
     inkscape:cy="23.75"
     inkscape:window-x="33"
     inkscape:window-y="24"
     inkscape:window-maximized="1"
     inkscape:current-layer="g10" /><g
     id="g10"
     inkscape:groupmode="layer"
     inkscape:label="ej418"
     transform="matrix(1.25,0,0,-1.25,0,47.5)"><g
       id="g12"
       transform="scale(0.1,0.1)"><path
         d="m 0,0 759.996,0 0,379.598 L 0,379.598 0,0 z"
         style="fill:#ffffff;fill-opacity:1;fill-rule:nonzero;stroke:none"
         id="path14" /><g
         id="g16"><g
           id="g18"
           clip-path="url(#clipPath20)"><path
             d="m 691.602,24.3984 66,-15.59762"
             style="fill:none;stroke:#c2c7c9;stroke-opacity:1;stroke-width:2.4;stroke-linecap:round;stroke-linejoin:round;stroke-miterlimit:10;stroke-dasharray:none"
             id="path24" /></g></g><path
         d="m 35.1992,371.199 0,-31.199 3.6016,-27.602 4.8008,-27.597 7.1992,-24 L 60.3984,238 71.1992,216.398 84.3984,197.199 98.8008,178 l 15.5972,-16.801 18,-14.398 18,-14.403 19.204,-13.199 L 190,108.398 211.602,97.6016 233.199,89.1992 256,80.8008 l 24,-7.1992 24,-7.2032 22.801,-6 L 352,55.6016 376,52 l 24,-3.6016 24,-3.5976 22.801,-2.4024 24,-2.3984 21.597,-2.3984 22.801,-1.2032 L 535.602,34 556,32.8008 l 19.199,-1.1992 18,-1.2032 16.801,-1.1992 18,-2.3984 15.602,-1.1992 14.398,-1.2032 12,-1.1992 16.801,0 2.398,1.1992 2.403,0 0,1.2032"
         style="fill:none;stroke:#2f3c41;stroke-opacity:1;stroke-width:2.4;stroke-linecap:round;stroke-linejoin:round;stroke-miterlimit:10;stroke-dasharray:none"
         id="path26" /><path
         d="m 647.199,12.3984 105.602,0"
         style="fill:none;stroke:#2a3235;stroke-opacity:1;stroke-width:2.4;stroke-linecap:round;stroke-linejoin:round;stroke-miterlimit:10;stroke-dasharray:none"
         id="path28" /><g
         id="g30"><g
           id="g32"
           clip-path="url(#clipPath34)"><path
             d="M 7.60156,13.6016 647.199,12.3984"
             style="fill:none;stroke:#2f3c41;stroke-opacity:1;stroke-width:2.4;stroke-linecap:round;stroke-linejoin:round;stroke-miterlimit:10;stroke-dasharray:none"
             id="path38" /><path
             d="M 7.60156,13.6016 443.199,302.801"
             style="fill:none;stroke:#2f3c41;stroke-opacity:1;stroke-width:2.4;stroke-linecap:round;stroke-linejoin:round;stroke-miterlimit:10;stroke-dasharray:none"
             id="path40" /><path
             d="M 7.60156,13.6016 29.1992,29.1992"
             style="fill:none;stroke:#242728;stroke-opacity:1;stroke-width:2.4;stroke-linecap:round;stroke-linejoin:round;stroke-miterlimit:10;stroke-dasharray:none"
             id="path42" /><path
             d="m 7.60156,379.602 0,-366.0004"
             style="fill:none;stroke:#2f3c41;stroke-opacity:1;stroke-width:2.4;stroke-linecap:round;stroke-linejoin:round;stroke-miterlimit:10;stroke-dasharray:none"
             id="path44" /></g></g><path
         d="m 648.398,22 2.403,2.3984"
         style="fill:none;stroke:#2f3c41;stroke-opacity:1;stroke-width:2.4;stroke-linecap:round;stroke-linejoin:round;stroke-miterlimit:10;stroke-dasharray:none"
         id="path46" /><path
         d="m 150.398,77.1992 30,0 -3.597,-10.8008 -1.199,0 0,2.4024 1.199,1.1992 0,1.1992 -1.199,0 0,2.4024 -1.204,0 0,1.1992 -7.199,0 -8.398,-26.4024 0,-2.3984 -1.199,-1.1992 0,-4.8008 1.199,0 1.199,-1.1992 3.602,0 -1.204,-1.1992 -16.796,0 0,1.1992 3.597,0 0,1.1992 2.403,0 0,2.3984 1.199,0 0,2.4024 L 154,46 l 0,1.1992 8.398,27.6016 -6,0 -1.199,-1.1992 -2.398,0 -1.199,-1.2032 0,-1.1992 -1.204,0 0,-1.1992 -1.199,-1.1992 0,-2.4024 -1.199,0 2.398,10.8008"
         style="fill:#2a373b;fill-opacity:1;fill-rule:evenodd;stroke:none"
         id="path48" /><g
         id="g50"><g
           id="g52"
           clip-path="url(#clipPath54)"><g
             id="g58"
             transform="scale(10,10)"><text
               transform="matrix(0.757576,0,0,-1,16.9602,33.759)"
               id="text60"><tspan
                 style="fill:#000000;fill-opacity:1;fill-rule:nonzero;stroke:none;font-family:Times New Roman;font-variant:normal;font-weight:normal;font-size:3.96;writing-mode:lr;-inkscape-font-specification:Times-Roman"
                 x="0"
                 y="0"
                 id="tspan62">1</tspan></text>
</g></g></g><g
         id="g64"><g
           id="g66"
           clip-path="url(#clipPath68)"><g
             id="g72"
             transform="scale(10,10)"><text
               transform="matrix(0.842105,0,0,-1,10.7199,32.7158)"
               id="text74"><tspan
                 style="fill:#000000;fill-opacity:1;fill-rule:nonzero;stroke:none;font-family:Times New Roman;font-variant:normal;font-weight:normal;font-size:2.28;writing-mode:lr;-inkscape-font-specification:Times-Roman"
                 x="0"
                 y="0"
                 id="tspan76">2</tspan></text>
</g></g></g><g
         id="g78"><g
           id="g80"
           clip-path="url(#clipPath82)"><g
             id="g86"
             transform="scale(10,10)"><text
               transform="matrix(0.842105,0,0,-1,6.88008,32.7158)"
               id="text88"><tspan
                 style="fill:#000000;fill-opacity:1;fill-rule:nonzero;stroke:none;font-family:Times New Roman;font-variant:normal;font-weight:normal;font-size:2.28;writing-mode:lr;-inkscape-font-specification:Times-Roman"
                 x="0"
                 y="0"
                 id="tspan90">1</tspan></text>
</g></g></g><path
         d="m 137.199,350.199 20.4023,0 0,1.19922 -20.4023,0 0,-1.19922 z"
         style="fill:#2a373b;fill-opacity:1;fill-rule:evenodd;stroke:none"
         id="path92" /><path
         d="m 137.199,349 20.4023,0 0,1.19922 -20.4023,0 0,-1.19922 z"
         style="fill:#2a373b;fill-opacity:1;fill-rule:evenodd;stroke:none"
         id="path94" /><path
         d="m 137.199,343 20.4023,0 0,1.19922 -20.4023,0 0,-1.19922 z"
         style="fill:#2a373b;fill-opacity:1;fill-rule:evenodd;stroke:none"
         id="path96" /><path
         d="m 137.199,341.801 20.4023,0 0,1.19922 -20.4023,0 0,-1.19922 z"
         style="fill:#2a373b;fill-opacity:1;fill-rule:evenodd;stroke:none"
         id="path98" /><g
         id="g100"><g
           id="g102"
           clip-path="url(#clipPath104)"><g
             id="g108"
             transform="scale(10,10)"><text
               transform="matrix(0.757576,0,0,-1,8.56016,33.7605)"
               id="text110"><tspan
                 style="fill:#000000;fill-opacity:1;fill-rule:nonzero;stroke:none;font-family:Times New Roman;font-style:italic;font-variant:normal;font-size:3.96;writing-mode:lr;-inkscape-font-specification:Times-Italic"
                 x="0"
                 y="0"
                 id="tspan112">y</tspan></text>
</g></g></g><g
         id="g114"><g
           id="g116"
           clip-path="url(#clipPath118)"><g
             id="g122"
             transform="scale(10,10)"><text
               transform="matrix(0.757576,0,0,-1,4.96016,33.7605)"
               id="text124"><tspan
                 style="fill:#000000;fill-opacity:1;fill-rule:nonzero;stroke:none;font-family:Times New Roman;font-style:italic;font-variant:normal;font-size:3.96;writing-mode:lr;-inkscape-font-specification:Times-Italic"
                 x="0"
                 y="0"
                 id="tspan126">y</tspan></text>
</g></g></g><path
         d="m 450.398,341.199 48,0"
         style="fill:none;stroke:#2a373b;stroke-opacity:1;stroke-width:2.4;stroke-linecap:round;stroke-linejoin:round;stroke-miterlimit:10;stroke-dasharray:none"
         id="path128" /><g
         id="g130"><g
           id="g132"
           clip-path="url(#clipPath134)"><g
             id="g138"
             transform="scale(10,10)"><text
               transform="matrix(0.794118,0,0,-1,54.1602,33.2938)"
               id="text140"><tspan
                 style="fill:#000000;fill-opacity:1;fill-rule:nonzero;stroke:none;font-family:Times New Roman;font-variant:normal;font-weight:normal;font-size:4.08;writing-mode:lr;-inkscape-font-specification:Times-Roman"
                 x="0"
                 y="0"
                 id="tspan142">1</tspan></text>
</g></g></g><g
         id="g144"><g
           id="g146"
           clip-path="url(#clipPath148)"><g
             id="g152"
             transform="scale(10,10)"><text
               transform="matrix(0.8,0,0,-1,47.8,28.8904)"
               id="text154"><tspan
                 style="fill:#000000;fill-opacity:1;fill-rule:nonzero;stroke:none;font-family:Times New Roman;font-variant:normal;font-weight:normal;font-size:2.4;writing-mode:lr;-inkscape-font-specification:Times-Roman"
                 x="0"
                 y="0"
                 id="tspan156">1</tspan></text>
</g></g></g><g
         id="g158"><g
           id="g160"
           clip-path="url(#clipPath162)"><g
             id="g166"
             transform="scale(10,10)"><text
               transform="matrix(0.8,0,0,-1,47.8,34.6506)"
               id="text168"><tspan
                 style="fill:#000000;fill-opacity:1;fill-rule:nonzero;stroke:none;font-family:Times New Roman;font-variant:normal;font-weight:normal;font-size:2.4;writing-mode:lr;-inkscape-font-specification:Times-Roman"
                 x="0"
                 y="0"
                 id="tspan170">2</tspan></text>
</g></g></g><g
         id="g172"><g
           id="g174"
           clip-path="url(#clipPath176)"><g
             id="g180"
             transform="scale(10,10)"><text
               transform="matrix(1,0,0,-0.87179398,51.0398,33.1598)"
               id="text182"><tspan
                 style="fill:#000000;fill-opacity:1;fill-rule:nonzero;stroke:none;font-family:Symbol;font-variant:normal;font-weight:normal;font-size:4.6800048;writing-mode:lr;-inkscape-font-specification:Symbol"
                 x="0"
                 y="0"
                 id="tspan184">=</tspan></text>
</g></g></g><g
         id="g186"><g
           id="g188"
           clip-path="url(#clipPath190)"><g
             id="g194"
             transform="scale(10,10)"><text
               transform="matrix(0.794118,0,0,-1,46.1199,30.0514)"
               id="text196"><tspan
                 style="fill:#000000;fill-opacity:1;fill-rule:nonzero;stroke:none;font-family:Times New Roman;font-style:italic;font-variant:normal;font-size:4.08;writing-mode:lr;-inkscape-font-specification:Times-Italic"
                 x="0"
                 y="0"
                 id="tspan198">y</tspan></text>
</g></g></g><g
         id="g200"><g
           id="g202"
           clip-path="url(#clipPath204)"><g
             id="g208"
             transform="scale(10,10)"><text
               transform="matrix(0.794118,0,0,-1,45.7602,35.8112)"
               id="text210"><tspan
                 style="fill:#000000;fill-opacity:1;fill-rule:nonzero;stroke:none;font-family:Times New Roman;font-style:italic;font-variant:normal;font-size:4.08;writing-mode:lr;-inkscape-font-specification:Times-Italic"
                 x="0"
                 y="0"
                 id="tspan212">y</tspan></text>
</g></g></g></g></g></svg>