<?xml version="1.0" encoding="UTF-8" standalone="no"?>
<!-- Created with Inkscape (http://www.inkscape.org/) -->

<svg
   xmlns:dc="http://purl.org/dc/elements/1.1/"
   xmlns:cc="http://creativecommons.org/ns#"
   xmlns:rdf="http://www.w3.org/1999/02/22-rdf-syntax-ns#"
   xmlns:svg="http://www.w3.org/2000/svg"
   xmlns="http://www.w3.org/2000/svg"
   xmlns:sodipodi="http://sodipodi.sourceforge.net/DTD/sodipodi-0.dtd"
   xmlns:inkscape="http://www.inkscape.org/namespaces/inkscape"
   id="svg2"
   version="1.1"
   inkscape:version="0.48.4 r9939"
   width="485"
   height="512.5"
   xml:space="preserve"
   sodipodi:docname="ej429.pdf"><metadata
     id="metadata8"><rdf:RDF><cc:Work
         rdf:about=""><dc:format>image/svg+xml</dc:format><dc:type
           rdf:resource="http://purl.org/dc/dcmitype/StillImage" /><dc:title></dc:title></cc:Work></rdf:RDF></metadata><defs
     id="defs6"><clipPath
       clipPathUnits="userSpaceOnUse"
       id="clipPath32"><path
         d="m 6.39844,4099.6 3870.00156,0 0,-4093.19766 -3870.00156,0 0,4093.19766 z"
         id="path34" /></clipPath><clipPath
       clipPathUnits="userSpaceOnUse"
       id="clipPath56"><path
         d="m 6.39844,4099.6 3870.00156,0 0,-4093.19766 -3870.00156,0 0,4093.19766 z"
         id="path58" /></clipPath></defs><sodipodi:namedview
     pagecolor="#ffffff"
     bordercolor="#666666"
     borderopacity="1"
     objecttolerance="10"
     gridtolerance="10"
     guidetolerance="10"
     inkscape:pageopacity="0"
     inkscape:pageshadow="2"
     inkscape:window-width="1333"
     inkscape:window-height="744"
     id="namedview4"
     showgrid="false"
     inkscape:zoom="6.1707124"
     inkscape:cx="422.56945"
     inkscape:cy="22.600909"
     inkscape:window-x="33"
     inkscape:window-y="24"
     inkscape:window-maximized="1"
     inkscape:current-layer="g10" /><g
     id="g10"
     inkscape:groupmode="layer"
     inkscape:label="ej429"
     transform="matrix(1.25,0,0,-1.25,0,512.5)"><path
       style="fill:#0066cc;fill-opacity:1;stroke:#000000;stroke-width:1px;stroke-linecap:butt;stroke-linejoin:miter;stroke-opacity:1"
       d="M 4.1252683,371.32415 229.18157,283.31843 476.69768,505.16619 z"
       id="path3869"
       inkscape:connector-curvature="0"
       transform="matrix(0.8,0,0,-0.8,0,410)"
       sodipodi:nodetypes="cccc" /><path
       style="fill:#0066cc;fill-opacity:1;stroke:#0066cc;stroke-width:0.80000001px;stroke-linecap:butt;stroke-linejoin:miter;stroke-opacity:1"
       d="M 4.4002907,284.55184 181.87849,352.02289 379.158,131.2752 z"
       id="path3091"
       inkscape:connector-curvature="0"
       sodipodi:nodetypes="cccc" /><path
       inkscape:connector-curvature="0"
       id="path16"
       style="fill:#1f1a17;fill-opacity:1;fill-rule:nonzero;stroke:none"
       d="m 359.56,183.88 0,1.92 -176.76,0 0,-3.96 176.76,0 0,2.04" /><path
       inkscape:connector-curvature="0"
       id="path18"
       style="fill:#1f1a17;fill-opacity:1;fill-rule:evenodd;stroke:none"
       d="m 373.6,183.88 -27.96,12 0.24,-0.48 0.12,-0.36 0.12,-0.36 0.24,-0.36 0.12,-0.36 0.12,-0.36 0.24,-0.36 0.12,-0.36 0.12,-0.36 0.12,-0.48 0.12,-0.36 0.12,-0.36 0.12,-0.36 0.12,-0.36 0.12,-0.36 0.12,-0.36 0,-0.24 0.12,-0.12 0,-0.48 0.12,-0.12 0,-0.6 0.12,-0.24 0,-0.48 0.12,-0.24 0,-0.48 0.12,-0.24 0,-1.08 0.12,-0.24 0,-3 -0.12,-0.12 0,-1.2 -0.12,-0.12 0,-0.6 -0.12,-0.24 0,-0.48 -0.12,-0.24 0,-0.6 -0.12,-0.12 0,-0.36 -0.12,-0.24 0,-0.12 -0.12,-0.36 -0.12,-0.48 -0.12,-0.36 -0.12,-0.36 -0.12,-0.36 -0.12,-0.36 -0.12,-0.36 -0.12,-0.36 -0.12,-0.48 -0.24,-0.36 -0.12,-0.36 -0.12,-0.36 -0.24,-0.36 -0.12,-0.36 -0.12,-0.36 -0.24,-0.36 27.96,12" /><path
       inkscape:connector-curvature="0"
       id="path20"
       style="fill:#1f1a17;fill-opacity:1;fill-rule:nonzero;stroke:none"
       d="M 75.6398,31.7199 77.2,30.5199 184.48,182.68 181.24,184.96 73.9602,32.8 75.6398,31.7199" /><path
       inkscape:connector-curvature="0"
       id="path22"
       style="fill:#1f1a17;fill-opacity:1;fill-rule:evenodd;stroke:none"
       d="m 85.1199,27.0402 -19.4398,-9.48 2.4,21.4796 17.0398,-11.9996 -19.4398,-9.48 19.4398,9.48" /><path
       inkscape:connector-curvature="0"
       id="path24"
       style="fill:#1f1a17;fill-opacity:1;fill-rule:nonzero;stroke:none"
       d="m 9.51992,115.48 0.36016,-0.84 173.27992,68.28 -0.72,1.8 -173.27984,-68.28 0.35976,-0.96" /><path
       inkscape:connector-curvature="0"
       id="path26"
       style="fill:#1f1a17;fill-opacity:1;fill-rule:evenodd;stroke:none"
       d="m 2.91992,112.96 15.24028,-0.48 -0.1204,0.12 -0.2398,0.24 -0.1199,0.12 -0.1199,0.12 -0.1204,0.12 -0.1199,0.12 -0.2398,0.24 -0.1199,0.12 -0.1204,0.12 -0.1199,0.12 -0.1199,0.24 -0.1199,0.12 -0.1199,0.12 -0.1204,0.12 -0.1199,0.24 -0.1199,0.12 0,0.12 -0.1199,0 0,0.12 -0.1199,0.12 -0.1204,0.12 0,0.12 -0.1199,0.12 0,0.12 -0.1199,0 0,0.12 -0.1199,0.12 0,0.12 -0.1199,0.12 0,0.12 -0.1204,0.12 0,0.12 -0.1199,0.12 0,0.12 -0.1199,0.12 0,0.12 -0.1199,0.12 0,0.24 -0.1199,0 0,0.36 -0.1204,0 0,0.24 -0.1199,0.12 0,0.24 -0.1199,0 0,0.48 -0.1199,0 0,0.48 -0.1199,0.12 0,0.36 -0.1204,0.12 0,0.72 -0.1199,0.24 0,2.76 -10.79998,-10.68" /><g
       id="g30"
       clip-path="url(#clipPath32)"
       transform="scale(0.1,0.1)"><path
         d="m 1933.6,3911.2 -105.6,189.6 -104.4,-189.6 210,0 -105.6,189.6 105.6,-189.6"
         style="fill:#1f1a17;fill-opacity:1;fill-rule:evenodd;stroke:none"
         id="path36"
         inkscape:connector-curvature="0" /></g><path
       inkscape:connector-curvature="0"
       id="path38"
       style="fill:#1f1a17;fill-opacity:1;fill-rule:nonzero;stroke:none"
       d="m 182.8,183.88 2.04,0 0,208.8 -3.96,0 0,-208.8 1.92,0" /><path
       inkscape:connector-curvature="0"
       id="path40"
       style="fill:#1f1a17;fill-opacity:1;fill-rule:nonzero;stroke:none"
       d="m 376,135.76 0.84,0.72 -193.2,217.08 -1.56,-1.44 193.2,-216.96 0.72,0.6" /><path
       inkscape:connector-curvature="0"
       id="path42"
       style="fill:#1f1a17;fill-opacity:1;fill-rule:evenodd;stroke:none"
       d="m 379.36,139.84 2.4,-10.56 -10.2,3.72 7.8,6.84 2.4,-10.56 -2.4,10.56" /><path
       inkscape:connector-curvature="0"
       id="path44"
       style="fill:#1f1a17;fill-opacity:1;fill-rule:nonzero;stroke:none"
       d="m 381.41844,129.19143 0.35451,0.82652 L 3.2691114,285.64 2.56016,283.75081 381.06392,128.24683 l 0.35452,0.9446" /><path
       inkscape:connector-curvature="0"
       id="path46"
       style="fill:none;stroke:#1f1a17;stroke-width:0.82075584;stroke-linecap:round;stroke-linejoin:round;stroke-miterlimit:10;stroke-opacity:1;stroke-dasharray:none"
       d="m 4.2033368,284.68 0,-177.12" /><path
       inkscape:connector-curvature="0"
       id="path48"
       style="fill:#1f1a17;fill-opacity:1;fill-rule:nonzero;stroke:none"
       d="M 9.51992,287.2 9.88008,286.24 183.16,351.88 182.44,353.8 9.16016,288.16 9.51992,287.2" /><path
       inkscape:connector-curvature="0"
       id="path50"
       style="fill:#1f1a17;fill-opacity:1;fill-rule:evenodd;stroke:none"
       d="m 2.91992,284.68 15.24028,-0.6 -0.1204,0.12 -0.2398,0.12 -0.1199,0.12 -0.1199,0.12 -0.1204,0.24 -0.1199,0.12 -0.2398,0.12 -0.1199,0.12 -0.1204,0.24 -0.1199,0.12 -0.1199,0.12 -0.1199,0.12 -0.1199,0.24 -0.1204,0.12 -0.1199,0.12 -0.1199,0.24 -0.1199,0.12 0,0.12 -0.1199,0 0,0.24 -0.1204,0 0,0.12 -0.1199,0.12 -0.1199,0.12 0,0.24 -0.1199,0 0,0.12 -0.1199,0.12 0,0.12 -0.1204,0.12 0,0.24 -0.1199,0 0,0.24 -0.1199,0 0,0.24 -0.1199,0.12 0,0.12 -0.1199,0.12 0,0.24 -0.1204,0.12 0,0.36 -0.1199,0.12 0,0.24 -0.1199,0.12 0,0.36 -0.1199,0 0,0.6 -0.1199,0.12 0,0.48 -0.1204,0.12 0,3.24 -10.91988,-10.56" /><path
       inkscape:connector-curvature="0"
       id="path62"
       style="fill:#1f1a17;fill-opacity:1;fill-rule:evenodd;stroke:none"
       d="m 371.58633,8.4072067 10.56,-2.4 -3.6,10.1995703 -6.96,-7.7995703 10.56,-2.4 -10.56,2.4" /><path
       inkscape:connector-curvature="0"
       id="path64"
       style="fill:#1f1a17;fill-opacity:1;fill-rule:nonzero;stroke:none"
       d="M 182.79007,183.89332 182.2,183.06885 376.92164,9.4603747 378.21979,10.991287 183.49814,184.6 l -0.70807,-0.70668" /><path
       inkscape:connector-curvature="0"
       id="path66"
       style="fill:#1f1a17;fill-opacity:1;fill-rule:nonzero;stroke:none"
       d="M 381.70966,6.4144212 381.94595,7.3555498 6.2461644,114.27331 5.7735112,112.39137 381.47337,5.4732926 l 0.23629,0.9411286" /><path
       style="fill:none;stroke:#000000;stroke-width:1.12;stroke-linecap:butt;stroke-linejoin:miter;stroke-miterlimit:4;stroke-opacity:1;stroke-dasharray:none"
       d="M 381.38038,129.59364 382.11377,1.9853387"
       id="path3871"
       inkscape:connector-curvature="0"
       sodipodi:nodetypes="cc" /></g></svg>