<?xml version="1.0" encoding="UTF-8" standalone="no"?>
<!-- Created with Inkscape (http://www.inkscape.org/) -->

<svg
   xmlns:dc="http://purl.org/dc/elements/1.1/"
   xmlns:cc="http://creativecommons.org/ns#"
   xmlns:rdf="http://www.w3.org/1999/02/22-rdf-syntax-ns#"
   xmlns:svg="http://www.w3.org/2000/svg"
   xmlns="http://www.w3.org/2000/svg"
   xmlns:sodipodi="http://sodipodi.sourceforge.net/DTD/sodipodi-0.dtd"
   xmlns:inkscape="http://www.inkscape.org/namespaces/inkscape"
   id="svg2"
   version="1.1"
   inkscape:version="0.48.4 r9939"
   width="643.75"
   height="450"
   xml:space="preserve"
   sodipodi:docname="ej490.pdf"><metadata
     id="metadata8"><rdf:RDF><cc:Work
         rdf:about=""><dc:format>image/svg+xml</dc:format><dc:type
           rdf:resource="http://purl.org/dc/dcmitype/StillImage" /><dc:title></dc:title></cc:Work></rdf:RDF></metadata><defs
     id="defs6"><clipPath
       clipPathUnits="userSpaceOnUse"
       id="clipPath128"><path
         d="m 6.39844,581.199 1074.00156,0 0,-217.199 -1074.00156,0 0,217.199 z"
         id="path130" /></clipPath><clipPath
       clipPathUnits="userSpaceOnUse"
       id="clipPath142"><path
         d="m 6.39844,581.199 1183.20156,0 0,-217.199 -1183.20156,0 0,217.199 z"
         id="path144" /></clipPath><clipPath
       clipPathUnits="userSpaceOnUse"
       id="clipPath156"><path
         d="m 6.39844,581.199 1237.20156,0 0,-217.199 -1237.20156,0 0,217.199 z"
         id="path158" /></clipPath><clipPath
       clipPathUnits="userSpaceOnUse"
       id="clipPath170"><path
         d="m 6.39844,913.602 1074.00156,0 0,-217.2 -1074.00156,0 0,217.2 z"
         id="path172" /></clipPath><clipPath
       clipPathUnits="userSpaceOnUse"
       id="clipPath184"><path
         d="m 6.39844,913.602 1183.20156,0 0,-217.2 -1183.20156,0 0,217.2 z"
         id="path186" /></clipPath><clipPath
       clipPathUnits="userSpaceOnUse"
       id="clipPath198"><path
         d="m 6.39844,913.602 1237.20156,0 0,-217.2 -1237.20156,0 0,217.2 z"
         id="path200" /></clipPath><clipPath
       clipPathUnits="userSpaceOnUse"
       id="clipPath212"><path
         d="m 6.39844,1247.2 1074.00156,0 0,-217.2 -1074.00156,0 0,217.2 z"
         id="path214" /></clipPath><clipPath
       clipPathUnits="userSpaceOnUse"
       id="clipPath226"><path
         d="m 6.39844,1247.2 1183.20156,0 0,-217.2 -1183.20156,0 0,217.2 z"
         id="path228" /></clipPath><clipPath
       clipPathUnits="userSpaceOnUse"
       id="clipPath240"><path
         d="m 6.39844,1247.2 1237.20156,0 0,-217.2 -1237.20156,0 0,217.2 z"
         id="path242" /></clipPath><clipPath
       clipPathUnits="userSpaceOnUse"
       id="clipPath254"><path
         d="m 6.39844,1582 1074.00156,0 0,-217.2 -1074.00156,0 0,217.2 z"
         id="path256" /></clipPath><clipPath
       clipPathUnits="userSpaceOnUse"
       id="clipPath268"><path
         d="m 6.39844,1582 1183.20156,0 0,-217.2 -1183.20156,0 0,217.2 z"
         id="path270" /></clipPath><clipPath
       clipPathUnits="userSpaceOnUse"
       id="clipPath282"><path
         d="m 6.39844,1582 1237.20156,0 0,-217.2 -1237.20156,0 0,217.2 z"
         id="path284" /></clipPath><clipPath
       clipPathUnits="userSpaceOnUse"
       id="clipPath296"><path
         d="m 6.39844,1914.4 1074.00156,0 0,-217.2 -1074.00156,0 0,217.2 z"
         id="path298" /></clipPath><clipPath
       clipPathUnits="userSpaceOnUse"
       id="clipPath310"><path
         d="m 6.39844,1914.4 1183.20156,0 0,-217.2 -1183.20156,0 0,217.2 z"
         id="path312" /></clipPath><clipPath
       clipPathUnits="userSpaceOnUse"
       id="clipPath324"><path
         d="m 6.39844,1914.4 1237.20156,0 0,-217.2 -1237.20156,0 0,217.2 z"
         id="path326" /></clipPath><clipPath
       clipPathUnits="userSpaceOnUse"
       id="clipPath338"><path
         d="m 6.39844,2248 1074.00156,0 0,-217.2 -1074.00156,0 0,217.2 z"
         id="path340" /></clipPath><clipPath
       clipPathUnits="userSpaceOnUse"
       id="clipPath352"><path
         d="m 6.39844,2248 1183.20156,0 0,-217.2 -1183.20156,0 0,217.2 z"
         id="path354" /></clipPath><clipPath
       clipPathUnits="userSpaceOnUse"
       id="clipPath366"><path
         d="m 6.39844,2248 1237.20156,0 0,-217.2 -1237.20156,0 0,217.2 z"
         id="path368" /></clipPath><clipPath
       clipPathUnits="userSpaceOnUse"
       id="clipPath380"><path
         d="m 6.39844,2580.4 1074.00156,0 0,-217.2 -1074.00156,0 0,217.2 z"
         id="path382" /></clipPath><clipPath
       clipPathUnits="userSpaceOnUse"
       id="clipPath394"><path
         d="m 6.39844,2580.4 1183.20156,0 0,-217.2 -1183.20156,0 0,217.2 z"
         id="path396" /></clipPath><clipPath
       clipPathUnits="userSpaceOnUse"
       id="clipPath408"><path
         d="m 6.39844,2580.4 1237.20156,0 0,-217.2 -1237.20156,0 0,217.2 z"
         id="path410" /></clipPath><clipPath
       clipPathUnits="userSpaceOnUse"
       id="clipPath422"><path
         d="m 6.39844,2914 1074.00156,0 0,-217.2 -1074.00156,0 0,217.2 z"
         id="path424" /></clipPath><clipPath
       clipPathUnits="userSpaceOnUse"
       id="clipPath436"><path
         d="m 6.39844,2914 1183.20156,0 0,-217.2 -1183.20156,0 0,217.2 z"
         id="path438" /></clipPath><clipPath
       clipPathUnits="userSpaceOnUse"
       id="clipPath450"><path
         d="m 6.39844,2914 1237.20156,0 0,-217.2 -1237.20156,0 0,217.2 z"
         id="path452" /></clipPath><clipPath
       clipPathUnits="userSpaceOnUse"
       id="clipPath464"><path
         d="m 6.39844,3248.8 1074.00156,0 0,-217.2 -1074.00156,0 0,217.2 z"
         id="path466" /></clipPath><clipPath
       clipPathUnits="userSpaceOnUse"
       id="clipPath478"><path
         d="m 6.39844,3248.8 1183.20156,0 0,-217.2 -1183.20156,0 0,217.2 z"
         id="path480" /></clipPath><clipPath
       clipPathUnits="userSpaceOnUse"
       id="clipPath492"><path
         d="m 6.39844,3248.8 1237.20156,0 0,-217.2 -1237.20156,0 0,217.2 z"
         id="path494" /></clipPath><clipPath
       clipPathUnits="userSpaceOnUse"
       id="clipPath506"><path
         d="m 6.39844,3581.2 1074.00156,0 0,-217.2 -1074.00156,0 0,217.2 z"
         id="path508" /></clipPath><clipPath
       clipPathUnits="userSpaceOnUse"
       id="clipPath520"><path
         d="m 6.39844,3581.2 1183.20156,0 0,-217.2 -1183.20156,0 0,217.2 z"
         id="path522" /></clipPath><clipPath
       clipPathUnits="userSpaceOnUse"
       id="clipPath534"><path
         d="m 6.39844,3581.2 1237.20156,0 0,-217.2 -1237.20156,0 0,217.2 z"
         id="path536" /></clipPath><clipPath
       clipPathUnits="userSpaceOnUse"
       id="clipPath550"><path
         d="m 6.39844,445.602 1543.20156,0 0,-268.801 -1543.20156,0 0,268.801 z"
         id="path552" /></clipPath><clipPath
       clipPathUnits="userSpaceOnUse"
       id="clipPath564"><path
         d="m 6.39844,445.602 1623.60156,0 0,-268.801 -1623.60156,0 0,268.801 z"
         id="path566" /></clipPath><clipPath
       clipPathUnits="userSpaceOnUse"
       id="clipPath578"><path
         d="m 908.801,445.602 1947.599,0 0,-268.801 -1947.599,0 0,268.801 z"
         id="path580" /></clipPath><clipPath
       clipPathUnits="userSpaceOnUse"
       id="clipPath592"><path
         d="m 989.199,445.602 1947.601,0 0,-268.801 -1947.601,0 0,268.801 z"
         id="path594" /></clipPath><clipPath
       clipPathUnits="userSpaceOnUse"
       id="clipPath606"><path
         d="m 1892.8,445.602 1947.6,0 0,-268.801 -1947.6,0 0,268.801 z"
         id="path608" /></clipPath><clipPath
       clipPathUnits="userSpaceOnUse"
       id="clipPath620"><path
         d="m 2756.8,445.602 1947.6,0 0,-268.801 -1947.6,0 0,268.801 z"
         id="path622" /></clipPath><clipPath
       clipPathUnits="userSpaceOnUse"
       id="clipPath634"><path
         d="m 3629.2,445.602 1516.8,0 0,-268.801 -1516.8,0 0,268.801 z"
         id="path636" /></clipPath><clipPath
       clipPathUnits="userSpaceOnUse"
       id="clipPath652"><path
         d="m 3611.2,250 943.2,0 0,-242.39844 -943.2,0 0,242.39844 z"
         id="path654" /></clipPath><clipPath
       clipPathUnits="userSpaceOnUse"
       id="clipPath666"><path
         d="m 3724,250 943.2,0 0,-242.39844 -943.2,0 L 3724,250 z"
         id="path668" /></clipPath><clipPath
       clipPathUnits="userSpaceOnUse"
       id="clipPath680"><path
         d="m 3866.8,250 943.2,0 0,-242.39844 -943.2,0 0,242.39844 z"
         id="path682" /></clipPath><clipPath
       clipPathUnits="userSpaceOnUse"
       id="clipPath694"><path
         d="m 3986.8,250 943.2,0 0,-242.39844 -943.2,0 0,242.39844 z"
         id="path696" /></clipPath><clipPath
       clipPathUnits="userSpaceOnUse"
       id="clipPath708"><path
         d="m 4093.6,250 943.2,0 0,-242.39844 -943.2,0 0,242.39844 z"
         id="path710" /></clipPath><clipPath
       clipPathUnits="userSpaceOnUse"
       id="clipPath722"><path
         d="m 4222,250 924,0 0,-242.39844 -924,0 L 4222,250 z"
         id="path724" /></clipPath><clipPath
       clipPathUnits="userSpaceOnUse"
       id="clipPath736"><path
         d="m 4314.4,250 831.6,0 0,-242.39844 -831.6,0 0,242.39844 z"
         id="path738" /></clipPath><clipPath
       clipPathUnits="userSpaceOnUse"
       id="clipPath750"><path
         d="m 4442.8,250 703.2,0 0,-242.39844 -703.2,0 0,242.39844 z"
         id="path752" /></clipPath><clipPath
       clipPathUnits="userSpaceOnUse"
       id="clipPath764"><path
         d="m 4549.6,250 596.4,0 0,-242.39844 -596.4,0 0,242.39844 z"
         id="path766" /></clipPath></defs><sodipodi:namedview
     pagecolor="#ffffff"
     bordercolor="#666666"
     borderopacity="1"
     objecttolerance="10"
     gridtolerance="10"
     guidetolerance="10"
     inkscape:pageopacity="0"
     inkscape:pageshadow="2"
     inkscape:window-width="1333"
     inkscape:window-height="744"
     id="namedview4"
     showgrid="false"
     inkscape:zoom="1.2424983"
     inkscape:cx="414.13172"
     inkscape:cy="276.07677"
     inkscape:window-x="33"
     inkscape:window-y="24"
     inkscape:window-maximized="1"
     inkscape:current-layer="g10" /><g
     id="g10"
     inkscape:groupmode="layer"
     inkscape:label="ej490"
     transform="matrix(1.25,0,0,-1.25,0,450)"><path
       inkscape:connector-curvature="0"
       id="path14"
       style="fill:#ffffff;fill-opacity:1;fill-rule:nonzero;stroke:none"
       d="m 0,0 514.96,0 0,359.92 L 0,359.92 0,0 z" /><path
       inkscape:connector-curvature="0"
       id="path16"
       style="fill:#000000;fill-opacity:1;fill-rule:evenodd;stroke:none"
       d="m 37.6,45.8801 1.56016,0 0,7.56016 -1.56016,0 0,-7.56016 z" /><path
       inkscape:connector-curvature="0"
       id="path18"
       style="fill:#000000;fill-opacity:1;fill-rule:evenodd;stroke:none"
       d="m 125.56,45.8801 1.55977,0 0,7.56016 -1.55977,0 0,-7.56016 z" /><path
       inkscape:connector-curvature="0"
       id="path20"
       style="fill:#000000;fill-opacity:1;fill-rule:evenodd;stroke:none"
       d="m 213.4,45.8801 1.56016,0 0,7.56016 -1.56016,0 0,-7.56016 z" /><path
       inkscape:connector-curvature="0"
       id="path22"
       style="fill:#000000;fill-opacity:1;fill-rule:evenodd;stroke:none"
       d="m 301.24,45.8801 1.56016,0 0,7.56016 -1.56016,0 0,-7.56016 z" /><path
       inkscape:connector-curvature="0"
       id="path24"
       style="fill:#000000;fill-opacity:1;fill-rule:evenodd;stroke:none"
       d="m 389.08,45.8801 1.55977,0 0,7.56016 -1.55977,0 0,-7.56016 z" /><path
       inkscape:connector-curvature="0"
       id="path26"
       style="fill:#000000;fill-opacity:1;fill-rule:evenodd;stroke:none"
       d="m 477.04,45.8801 1.56016,0 0,7.56016 -1.56016,0 0,-7.56016 z" /><path
       inkscape:connector-curvature="0"
       id="path28"
       style="fill:#000000;fill-opacity:1;fill-rule:evenodd;stroke:none"
       d="m 38.4398,45.1602 439.44,0 0,1.43984 -439.44,0 0,-1.43984 z" /><path
       inkscape:connector-curvature="0"
       id="path30"
       style="fill:#000000;fill-opacity:1;fill-rule:evenodd;stroke:none"
       d="m 38.4398,45.4 7.44023,0 0,0.960156 -7.44023,0 0,-0.960156 z" /><path
       inkscape:connector-curvature="0"
       id="path32"
       style="fill:#000000;fill-opacity:1;fill-rule:evenodd;stroke:none"
       d="m 38.4398,78.7602 7.44023,0 0,0.959766 -7.44023,0 0,-0.959766 z" /><path
       inkscape:connector-curvature="0"
       id="path34"
       style="fill:#000000;fill-opacity:1;fill-rule:evenodd;stroke:none"
       d="m 38.4398,112 7.44023,0 0,1.08008 -7.44023,0 0,-1.08008 z" /><path
       inkscape:connector-curvature="0"
       id="path36"
       style="fill:#000000;fill-opacity:1;fill-rule:evenodd;stroke:none"
       d="m 38.4398,145.48 7.44023,0 0,0.96016 -7.44023,0 0,-0.96016 z" /><path
       inkscape:connector-curvature="0"
       id="path38"
       style="fill:#000000;fill-opacity:1;fill-rule:evenodd;stroke:none"
       d="m 38.4398,178.72 7.44023,0 0,1.08008 -7.44023,0 0,-1.08008 z" /><path
       inkscape:connector-curvature="0"
       id="path40"
       style="fill:#000000;fill-opacity:1;fill-rule:evenodd;stroke:none"
       d="m 38.4398,212.08 7.44023,0 0,0.95977 -7.44023,0 0,-0.95977 z" /><path
       inkscape:connector-curvature="0"
       id="path42"
       style="fill:#000000;fill-opacity:1;fill-rule:evenodd;stroke:none"
       d="m 38.4398,245.44 7.44023,0 0,0.96016 -7.44023,0 0,-0.96016 z" /><path
       inkscape:connector-curvature="0"
       id="path44"
       style="fill:#000000;fill-opacity:1;fill-rule:evenodd;stroke:none"
       d="m 38.4398,278.68 7.44023,0 0,1.08008 -7.44023,0 0,-1.08008 z" /><path
       inkscape:connector-curvature="0"
       id="path46"
       style="fill:#000000;fill-opacity:1;fill-rule:evenodd;stroke:none"
       d="m 38.4398,312.04 7.44023,0 0,0.96016 -7.44023,0 0,-0.96016 z" /><path
       inkscape:connector-curvature="0"
       id="path48"
       style="fill:#000000;fill-opacity:1;fill-rule:evenodd;stroke:none"
       d="m 38.4398,345.52 7.44023,0 0,0.96016 -7.44023,0 0,-0.96016 z" /><path
       inkscape:connector-curvature="0"
       id="path50"
       style="fill:#000000;fill-opacity:1;fill-rule:evenodd;stroke:none"
       d="m 37.9602,45.8801 0.959766,0 0,300.12 -0.959766,0 0,-300.12 z" /><path
       inkscape:connector-curvature="0"
       id="path52"
       style="fill:#000000;fill-opacity:1;fill-rule:evenodd;stroke:none"
       d="m 170.92,348.04 0.72,0 0,-300.1201 -0.72,0 0,300.1201" /><path
       inkscape:connector-curvature="0"
       id="path54"
       style="fill:#000000;fill-opacity:1;fill-rule:evenodd;stroke:none"
       d="m 170.92,346.96 0.71992,0 0,2.03984 -0.71992,0 0,-2.03984 z" /><path
       inkscape:connector-curvature="0"
       id="path56"
       style="fill:#000000;fill-opacity:1;fill-rule:evenodd;stroke:none"
       d="m 170.68,47.9199 2.03984,0 0,300.12 -2.03984,0 0,-300.12 z" /><path
       inkscape:connector-curvature="0"
       id="path58"
       style="fill:#000000;fill-opacity:1;fill-rule:nonzero;stroke:none"
       d="m 171.64,349 1.08,0 0,-0.96 -2.04,0 0.96,-1.08 0,2.04" /><path
       inkscape:connector-curvature="0"
       id="path60"
       style="fill:#000000;fill-opacity:1;fill-rule:evenodd;stroke:none"
       d="m 170.92,46.8398 0.71992,0 0,2.04023 -0.71992,0 0,-2.04023 z" /><path
       inkscape:connector-curvature="0"
       id="path62"
       style="fill:#000000;fill-opacity:1;fill-rule:nonzero;stroke:none"
       d="m 172.72,47.9199 0,-1.0797 -1.08,0 0,2.0399 -0.96,-0.9602 2.04,0" /><path
       inkscape:connector-curvature="0"
       id="path64"
       style="fill:#000000;fill-opacity:1;fill-rule:evenodd;stroke:#0066cc;stroke-opacity:1"
       d="m 169.96,47.9199 1.91992,0 0,300.12 -1.91992,0 0,-300.12 z" /><path
       inkscape:connector-curvature="0"
       id="path66"
       style="fill:#000000;fill-opacity:1;fill-rule:nonzero;stroke:none"
       d="m 170.92,46.8402 -0.96,0 0,1.0797 1.92,0 -0.96,0.9602 0,-2.0399" /><path
       inkscape:connector-curvature="0"
       id="path68"
       style="fill:#000000;fill-opacity:1;fill-rule:nonzero;stroke:none"
       d="m 169.96,348.04 0,0.96 0.96,0 0,-2.04 0.96,1.08 -1.92,0" /><path
       inkscape:connector-curvature="0"
       id="path70"
       style="fill:#000000;fill-opacity:1;fill-rule:evenodd;stroke:none"
       d="m 258.76,47.9199 0.71992,0 0,30 -0.71992,0 0,-30 z" /><path
       inkscape:connector-curvature="0"
       id="path72"
       style="fill:#000000;fill-opacity:1;fill-rule:evenodd;stroke:none"
       d="m 258.76,76.9602 0.71992,0 0,2.03984 -0.71992,0 0,-2.03984 z" /><path
       inkscape:connector-curvature="0"
       id="path74"
       style="fill:#000000;fill-opacity:1;fill-rule:evenodd;stroke:none"
       d="m 258.52,47.9199 2.04023,0 0,30 -2.04023,0 0,-30 z" /><path
       inkscape:connector-curvature="0"
       id="path76"
       style="fill:#000000;fill-opacity:1;fill-rule:nonzero;stroke:none"
       d="m 259.48,79 1.08,0 0,-1.0801 -2.04,0 0.96,-0.9597 0,2.0398" /><path
       inkscape:connector-curvature="0"
       id="path78"
       style="fill:#000000;fill-opacity:1;fill-rule:evenodd;stroke:none"
       d="m 258.76,46.8398 0.71992,0 0,2.04023 -0.71992,0 0,-2.04023 z" /><path
       inkscape:connector-curvature="0"
       id="path80"
       style="fill:#000000;fill-opacity:1;fill-rule:nonzero;stroke:none"
       d="m 260.56,47.9199 0,-1.0797 -1.08,0 0,2.0399 -0.96,-0.9602 2.04,0" /><path
       inkscape:connector-curvature="0"
       id="path82"
       style="fill:#000000;fill-opacity:1;fill-rule:evenodd;stroke:#0066cc;stroke-opacity:1"
       d="m 257.8,47.9199 1.91992,0 0,30 -1.91992,0 0,-30 z" /><path
       inkscape:connector-curvature="0"
       id="path84"
       style="fill:#000000;fill-opacity:1;fill-rule:nonzero;stroke:none"
       d="m 258.76,46.8402 -0.96,0 0,1.0797 1.92,0 -0.96,0.9602 0,-2.0399" /><path
       inkscape:connector-curvature="0"
       id="path86"
       style="fill:#000000;fill-opacity:1;fill-rule:nonzero;stroke:none"
       d="m 257.8,77.9199 0,1.0801 0.96,0 0,-2.0398 0.96,0.9597 -1.92,0" /><path
       inkscape:connector-curvature="0"
       id="path88"
       style="fill:#000000;fill-opacity:1;fill-rule:evenodd;stroke:none"
       d="m 346.6,167.92 0.72,0 0,-120.0001 -0.72,0 0,120.0001" /><path
       inkscape:connector-curvature="0"
       id="path90"
       style="fill:#000000;fill-opacity:1;fill-rule:evenodd;stroke:none"
       d="m 346.6,166.96 0.71992,0 0,2.03984 -0.71992,0 0,-2.03984 z" /><path
       inkscape:connector-curvature="0"
       id="path92"
       style="fill:#000000;fill-opacity:1;fill-rule:evenodd;stroke:none"
       d="m 346.36,47.9199 2.03984,0 0,120 -2.03984,0 0,-120 z" /><path
       inkscape:connector-curvature="0"
       id="path94"
       style="fill:#000000;fill-opacity:1;fill-rule:nonzero;stroke:none"
       d="m 347.32,169 1.08,0 0,-1.08 -2.04,0 0.96,-0.96 0,2.04" /><path
       inkscape:connector-curvature="0"
       id="path96"
       style="fill:#000000;fill-opacity:1;fill-rule:evenodd;stroke:none"
       d="m 346.6,46.8398 0.71992,0 0,2.04023 -0.71992,0 0,-2.04023 z" /><path
       inkscape:connector-curvature="0"
       id="path98"
       style="fill:#000000;fill-opacity:1;fill-rule:nonzero;stroke:none"
       d="m 348.4,47.9199 0,-1.0797 -1.08,0 0,2.0399 -0.96,-0.9602 2.04,0" /><path
       inkscape:connector-curvature="0"
       id="path100"
       style="fill:#000000;fill-opacity:1;fill-rule:evenodd;stroke:#0066cc;stroke-opacity:1"
       d="m 345.64,47.9199 1.92031,0 0,120 -1.92031,0 0,-120 z" /><path
       inkscape:connector-curvature="0"
       id="path102"
       style="fill:#000000;fill-opacity:1;fill-rule:nonzero;stroke:none"
       d="m 346.6,46.8402 -0.96,0 0,1.0797 1.92,0 -0.96,0.9602 0,-2.0399" /><path
       inkscape:connector-curvature="0"
       id="path104"
       style="fill:#000000;fill-opacity:1;fill-rule:nonzero;stroke:none"
       d="m 345.64,167.92 0,1.08 0.96,0 0,-2.04 0.96,0.96 -1.92,0" /><path
       inkscape:connector-curvature="0"
       id="path106"
       style="fill:#000000;fill-opacity:1;fill-rule:evenodd;stroke:none"
       d="m 434.56,47.9199 0.71992,0 0,60 -0.71992,0 0,-60 z" /><path
       inkscape:connector-curvature="0"
       id="path108"
       style="fill:#000000;fill-opacity:1;fill-rule:evenodd;stroke:none"
       d="m 434.56,106.84 0.71992,0 0,2.04023 -0.71992,0 0,-2.04023 z" /><path
       inkscape:connector-curvature="0"
       id="path110"
       style="fill:#000000;fill-opacity:1;fill-rule:evenodd;stroke:none"
       d="m 434.32,47.9199 2.04023,0 0,60 -2.04023,0 0,-60 z" /><path
       inkscape:connector-curvature="0"
       id="path112"
       style="fill:#000000;fill-opacity:1;fill-rule:nonzero;stroke:none"
       d="m 435.28,108.88 1.08,0 0,-0.96 -2.04,0 0.96,-1.08 0,2.04" /><path
       inkscape:connector-curvature="0"
       id="path114"
       style="fill:#000000;fill-opacity:1;fill-rule:evenodd;stroke:none"
       d="m 434.56,46.8398 0.71992,0 0,2.04023 -0.71992,0 0,-2.04023 z" /><path
       inkscape:connector-curvature="0"
       id="path116"
       style="fill:#000000;fill-opacity:1;fill-rule:nonzero;stroke:none"
       d="m 436.36,47.9199 0,-1.0797 -1.08,0 0,2.0399 -0.96,-0.9602 2.04,0" /><path
       inkscape:connector-curvature="0"
       id="path118"
       style="fill:#000000;fill-opacity:1;fill-rule:evenodd;stroke:#0066cc;stroke-opacity:1"
       d="m 433.6,47.9199 1.91992,0 0,60 -1.91992,0 0,-60 z" /><path
       inkscape:connector-curvature="0"
       id="path120"
       style="fill:#000000;fill-opacity:1;fill-rule:nonzero;stroke:none"
       d="m 434.56,46.8402 -0.96,0 0,1.0797 1.92,0 -0.96,0.9602 0,-2.0399" /><path
       inkscape:connector-curvature="0"
       id="path122"
       style="fill:#000000;fill-opacity:1;fill-rule:nonzero;stroke:none"
       d="m 433.6,107.92 0,0.96 0.96,0 0,-2.04 0.96,1.08 -1.92,0" /><g
       id="g126"
       clip-path="url(#clipPath128)"
       transform="scale(0.1,0.1)"><g
         id="g132"
         transform="scale(10,10)"><text
           transform="matrix(1,0,0,-1,2.68008,40.5942)"
           id="text134"><tspan
             style="font-size:19.55999947px;font-variant:normal;font-weight:normal;writing-mode:lr-tb;fill:#000000;fill-opacity:1;fill-rule:nonzero;stroke:none;font-family:Helvetica;-inkscape-font-specification:Helvetica"
             x="0"
             y="0"
             id="tspan136">0</tspan></text>
</g></g><g
       id="g140"
       clip-path="url(#clipPath142)"
       transform="scale(0.1,0.1)"><g
         id="g146"
         transform="scale(10,10)"><text
           transform="matrix(1,0,0,-1,13.6,40.5942)"
           id="text148"><tspan
             style="font-size:19.55999947px;font-variant:normal;font-weight:normal;writing-mode:lr-tb;fill:#000000;fill-opacity:1;fill-rule:nonzero;stroke:none;font-family:Helvetica;-inkscape-font-specification:Helvetica"
             x="0"
             y="0"
             id="tspan150">,</tspan></text>
</g></g><g
       id="g154"
       clip-path="url(#clipPath156)"
       transform="scale(0.1,0.1)"><g
         id="g160"
         transform="scale(10,10)"><text
           transform="matrix(1,0,0,-1,19,40.5942)"
           id="text162"><tspan
             style="font-size:19.55999947px;font-variant:normal;font-weight:normal;writing-mode:lr-tb;fill:#000000;fill-opacity:1;fill-rule:nonzero;stroke:none;font-family:Helvetica;-inkscape-font-specification:Helvetica"
             x="0"
             y="0"
             id="tspan164">0</tspan></text>
</g></g><g
       id="g168"
       clip-path="url(#clipPath170)"
       transform="scale(0.1,0.1)"><g
         id="g174"
         transform="scale(10,10)"><text
           transform="matrix(1,0,0,-1,2.68008,73.8344)"
           id="text176"><tspan
             style="font-size:19.55999947px;font-variant:normal;font-weight:normal;writing-mode:lr-tb;fill:#000000;fill-opacity:1;fill-rule:nonzero;stroke:none;font-family:Helvetica;-inkscape-font-specification:Helvetica"
             x="0"
             y="0"
             id="tspan178">0</tspan></text>
</g></g><g
       id="g182"
       clip-path="url(#clipPath184)"
       transform="scale(0.1,0.1)"><g
         id="g188"
         transform="scale(10,10)"><text
           transform="matrix(1,0,0,-1,13.6,73.8344)"
           id="text190"><tspan
             style="font-size:19.55999947px;font-variant:normal;font-weight:normal;writing-mode:lr-tb;fill:#000000;fill-opacity:1;fill-rule:nonzero;stroke:none;font-family:Helvetica;-inkscape-font-specification:Helvetica"
             x="0"
             y="0"
             id="tspan192">,</tspan></text>
</g></g><g
       id="g196"
       clip-path="url(#clipPath198)"
       transform="scale(0.1,0.1)"><g
         id="g202"
         transform="scale(10,10)"><text
           transform="matrix(1,0,0,-1,19,73.8344)"
           id="text204"><tspan
             style="font-size:19.55999947px;font-variant:normal;font-weight:normal;writing-mode:lr-tb;fill:#000000;fill-opacity:1;fill-rule:nonzero;stroke:none;font-family:Helvetica;-inkscape-font-specification:Helvetica"
             x="0"
             y="0"
             id="tspan206">1</tspan></text>
</g></g><g
       id="g210"
       clip-path="url(#clipPath212)"
       transform="scale(0.1,0.1)"><g
         id="g216"
         transform="scale(10,10)"><text
           transform="matrix(1,0,0,-1,2.68008,107.194)"
           id="text218"><tspan
             style="font-size:19.55999947px;font-variant:normal;font-weight:normal;writing-mode:lr-tb;fill:#000000;fill-opacity:1;fill-rule:nonzero;stroke:none;font-family:Helvetica;-inkscape-font-specification:Helvetica"
             x="0"
             y="0"
             id="tspan220">0</tspan></text>
</g></g><g
       id="g224"
       clip-path="url(#clipPath226)"
       transform="scale(0.1,0.1)"><g
         id="g230"
         transform="scale(10,10)"><text
           transform="matrix(1,0,0,-1,13.6,107.194)"
           id="text232"><tspan
             style="font-size:19.55999947px;font-variant:normal;font-weight:normal;writing-mode:lr-tb;fill:#000000;fill-opacity:1;fill-rule:nonzero;stroke:none;font-family:Helvetica;-inkscape-font-specification:Helvetica"
             x="0"
             y="0"
             id="tspan234">,</tspan></text>
</g></g><g
       id="g238"
       clip-path="url(#clipPath240)"
       transform="scale(0.1,0.1)"><g
         id="g244"
         transform="scale(10,10)"><text
           transform="matrix(1,0,0,-1,19,107.194)"
           id="text246"><tspan
             style="font-size:19.55999947px;font-variant:normal;font-weight:normal;writing-mode:lr-tb;fill:#000000;fill-opacity:1;fill-rule:nonzero;stroke:none;font-family:Helvetica;-inkscape-font-specification:Helvetica"
             x="0"
             y="0"
             id="tspan248">2</tspan></text>
</g></g><g
       id="g252"
       clip-path="url(#clipPath254)"
       transform="scale(0.1,0.1)"><g
         id="g258"
         transform="scale(10,10)"><text
           transform="matrix(1,0,0,-1,2.68008,140.674)"
           id="text260"><tspan
             style="font-size:19.55999947px;font-variant:normal;font-weight:normal;writing-mode:lr-tb;fill:#000000;fill-opacity:1;fill-rule:nonzero;stroke:none;font-family:Helvetica;-inkscape-font-specification:Helvetica"
             x="0"
             y="0"
             id="tspan262">0</tspan></text>
</g></g><g
       id="g266"
       clip-path="url(#clipPath268)"
       transform="scale(0.1,0.1)"><g
         id="g272"
         transform="scale(10,10)"><text
           transform="matrix(1,0,0,-1,13.6,140.674)"
           id="text274"><tspan
             style="font-size:19.55999947px;font-variant:normal;font-weight:normal;writing-mode:lr-tb;fill:#000000;fill-opacity:1;fill-rule:nonzero;stroke:none;font-family:Helvetica;-inkscape-font-specification:Helvetica"
             x="0"
             y="0"
             id="tspan276">,</tspan></text>
</g></g><g
       id="g280"
       clip-path="url(#clipPath282)"
       transform="scale(0.1,0.1)"><g
         id="g286"
         transform="scale(10,10)"><text
           transform="matrix(1,0,0,-1,19,140.674)"
           id="text288"><tspan
             style="font-size:19.55999947px;font-variant:normal;font-weight:normal;writing-mode:lr-tb;fill:#000000;fill-opacity:1;fill-rule:nonzero;stroke:none;font-family:Helvetica;-inkscape-font-specification:Helvetica"
             x="0"
             y="0"
             id="tspan290">3</tspan></text>
</g></g><g
       id="g294"
       clip-path="url(#clipPath296)"
       transform="scale(0.1,0.1)"><g
         id="g300"
         transform="scale(10,10)"><text
           transform="matrix(1,0,0,-1,2.68008,173.914)"
           id="text302"><tspan
             style="font-size:19.55999947px;font-variant:normal;font-weight:normal;writing-mode:lr-tb;fill:#000000;fill-opacity:1;fill-rule:nonzero;stroke:none;font-family:Helvetica;-inkscape-font-specification:Helvetica"
             x="0"
             y="0"
             id="tspan304">0</tspan></text>
</g></g><g
       id="g308"
       clip-path="url(#clipPath310)"
       transform="scale(0.1,0.1)"><g
         id="g314"
         transform="scale(10,10)"><text
           transform="matrix(1,0,0,-1,13.6,173.914)"
           id="text316"><tspan
             style="font-size:19.55999947px;font-variant:normal;font-weight:normal;writing-mode:lr-tb;fill:#000000;fill-opacity:1;fill-rule:nonzero;stroke:none;font-family:Helvetica;-inkscape-font-specification:Helvetica"
             x="0"
             y="0"
             id="tspan318">,</tspan></text>
</g></g><g
       id="g322"
       clip-path="url(#clipPath324)"
       transform="scale(0.1,0.1)"><g
         id="g328"
         transform="scale(10,10)"><text
           transform="matrix(1,0,0,-1,19,173.914)"
           id="text330"><tspan
             style="font-size:19.55999947px;font-variant:normal;font-weight:normal;writing-mode:lr-tb;fill:#000000;fill-opacity:1;fill-rule:nonzero;stroke:none;font-family:Helvetica;-inkscape-font-specification:Helvetica"
             x="0"
             y="0"
             id="tspan332">4</tspan></text>
</g></g><g
       id="g336"
       clip-path="url(#clipPath338)"
       transform="scale(0.1,0.1)"><g
         id="g342"
         transform="scale(10,10)"><text
           transform="matrix(1,0,0,-1,2.68008,207.274)"
           id="text344"><tspan
             style="font-size:19.55999947px;font-variant:normal;font-weight:normal;writing-mode:lr-tb;fill:#000000;fill-opacity:1;fill-rule:nonzero;stroke:none;font-family:Helvetica;-inkscape-font-specification:Helvetica"
             x="0"
             y="0"
             id="tspan346">0</tspan></text>
</g></g><g
       id="g350"
       clip-path="url(#clipPath352)"
       transform="scale(0.1,0.1)"><g
         id="g356"
         transform="scale(10,10)"><text
           transform="matrix(1,0,0,-1,13.6,207.274)"
           id="text358"><tspan
             style="font-size:19.55999947px;font-variant:normal;font-weight:normal;writing-mode:lr-tb;fill:#000000;fill-opacity:1;fill-rule:nonzero;stroke:none;font-family:Helvetica;-inkscape-font-specification:Helvetica"
             x="0"
             y="0"
             id="tspan360">,</tspan></text>
</g></g><g
       id="g364"
       clip-path="url(#clipPath366)"
       transform="scale(0.1,0.1)"><g
         id="g370"
         transform="scale(10,10)"><text
           transform="matrix(1,0,0,-1,19,207.274)"
           id="text372"><tspan
             style="font-size:19.55999947px;font-variant:normal;font-weight:normal;writing-mode:lr-tb;fill:#000000;fill-opacity:1;fill-rule:nonzero;stroke:none;font-family:Helvetica;-inkscape-font-specification:Helvetica"
             x="0"
             y="0"
             id="tspan374">5</tspan></text>
</g></g><g
       id="g378"
       clip-path="url(#clipPath380)"
       transform="scale(0.1,0.1)"><g
         id="g384"
         transform="scale(10,10)"><text
           transform="matrix(1,0,0,-1,2.68008,240.514)"
           id="text386"><tspan
             style="font-size:19.55999947px;font-variant:normal;font-weight:normal;writing-mode:lr-tb;fill:#000000;fill-opacity:1;fill-rule:nonzero;stroke:none;font-family:Helvetica;-inkscape-font-specification:Helvetica"
             x="0"
             y="0"
             id="tspan388">0</tspan></text>
</g></g><g
       id="g392"
       clip-path="url(#clipPath394)"
       transform="scale(0.1,0.1)"><g
         id="g398"
         transform="scale(10,10)"><text
           transform="matrix(1,0,0,-1,13.6,240.514)"
           id="text400"><tspan
             style="font-size:19.55999947px;font-variant:normal;font-weight:normal;writing-mode:lr-tb;fill:#000000;fill-opacity:1;fill-rule:nonzero;stroke:none;font-family:Helvetica;-inkscape-font-specification:Helvetica"
             x="0"
             y="0"
             id="tspan402">,</tspan></text>
</g></g><g
       id="g406"
       clip-path="url(#clipPath408)"
       transform="scale(0.1,0.1)"><g
         id="g412"
         transform="scale(10,10)"><text
           transform="matrix(1,0,0,-1,19,240.514)"
           id="text414"><tspan
             style="font-size:19.55999947px;font-variant:normal;font-weight:normal;writing-mode:lr-tb;fill:#000000;fill-opacity:1;fill-rule:nonzero;stroke:none;font-family:Helvetica;-inkscape-font-specification:Helvetica"
             x="0"
             y="0"
             id="tspan416">6</tspan></text>
</g></g><g
       id="g420"
       clip-path="url(#clipPath422)"
       transform="scale(0.1,0.1)"><g
         id="g426"
         transform="scale(10,10)"><text
           transform="matrix(1,0,0,-1,2.68008,273.874)"
           id="text428"><tspan
             style="font-size:19.55999947px;font-variant:normal;font-weight:normal;writing-mode:lr-tb;fill:#000000;fill-opacity:1;fill-rule:nonzero;stroke:none;font-family:Helvetica;-inkscape-font-specification:Helvetica"
             x="0"
             y="0"
             id="tspan430">0</tspan></text>
</g></g><g
       id="g434"
       clip-path="url(#clipPath436)"
       transform="scale(0.1,0.1)"><g
         id="g440"
         transform="scale(10,10)"><text
           transform="matrix(1,0,0,-1,13.6,273.874)"
           id="text442"><tspan
             style="font-size:19.55999947px;font-variant:normal;font-weight:normal;writing-mode:lr-tb;fill:#000000;fill-opacity:1;fill-rule:nonzero;stroke:none;font-family:Helvetica;-inkscape-font-specification:Helvetica"
             x="0"
             y="0"
             id="tspan444">,</tspan></text>
</g></g><g
       id="g448"
       clip-path="url(#clipPath450)"
       transform="scale(0.1,0.1)"><g
         id="g454"
         transform="scale(10,10)"><text
           transform="matrix(1,0,0,-1,19,273.874)"
           id="text456"><tspan
             style="font-size:19.55999947px;font-variant:normal;font-weight:normal;writing-mode:lr-tb;fill:#000000;fill-opacity:1;fill-rule:nonzero;stroke:none;font-family:Helvetica;-inkscape-font-specification:Helvetica"
             x="0"
             y="0"
             id="tspan458">7</tspan></text>
</g></g><g
       id="g462"
       clip-path="url(#clipPath464)"
       transform="scale(0.1,0.1)"><g
         id="g468"
         transform="scale(10,10)"><text
           transform="matrix(1,0,0,-1,2.68008,307.354)"
           id="text470"><tspan
             style="font-size:19.55999947px;font-variant:normal;font-weight:normal;writing-mode:lr-tb;fill:#000000;fill-opacity:1;fill-rule:nonzero;stroke:none;font-family:Helvetica;-inkscape-font-specification:Helvetica"
             x="0"
             y="0"
             id="tspan472">0</tspan></text>
</g></g><g
       id="g476"
       clip-path="url(#clipPath478)"
       transform="scale(0.1,0.1)"><g
         id="g482"
         transform="scale(10,10)"><text
           transform="matrix(1,0,0,-1,13.6,307.354)"
           id="text484"><tspan
             style="font-size:19.55999947px;font-variant:normal;font-weight:normal;writing-mode:lr-tb;fill:#000000;fill-opacity:1;fill-rule:nonzero;stroke:none;font-family:Helvetica;-inkscape-font-specification:Helvetica"
             x="0"
             y="0"
             id="tspan486">,</tspan></text>
</g></g><g
       id="g490"
       clip-path="url(#clipPath492)"
       transform="scale(0.1,0.1)"><g
         id="g496"
         transform="scale(10,10)"><text
           transform="matrix(1,0,0,-1,19,307.354)"
           id="text498"><tspan
             style="font-size:19.55999947px;font-variant:normal;font-weight:normal;writing-mode:lr-tb;fill:#000000;fill-opacity:1;fill-rule:nonzero;stroke:none;font-family:Helvetica;-inkscape-font-specification:Helvetica"
             x="0"
             y="0"
             id="tspan500">8</tspan></text>
</g></g><g
       id="g504"
       clip-path="url(#clipPath506)"
       transform="scale(0.1,0.1)"><g
         id="g510"
         transform="scale(10,10)"><text
           transform="matrix(1,0,0,-1,2.68008,340.594)"
           id="text512"><tspan
             style="font-size:19.55999947px;font-variant:normal;font-weight:normal;writing-mode:lr-tb;fill:#000000;fill-opacity:1;fill-rule:nonzero;stroke:none;font-family:Helvetica;-inkscape-font-specification:Helvetica"
             x="0"
             y="0"
             id="tspan514">0</tspan></text>
</g></g><g
       id="g518"
       clip-path="url(#clipPath520)"
       transform="scale(0.1,0.1)"><g
         id="g524"
         transform="scale(10,10)"><text
           transform="matrix(1,0,0,-1,13.6,340.594)"
           id="text526"><tspan
             style="font-size:19.55999947px;font-variant:normal;font-weight:normal;writing-mode:lr-tb;fill:#000000;fill-opacity:1;fill-rule:nonzero;stroke:none;font-family:Helvetica;-inkscape-font-specification:Helvetica"
             x="0"
             y="0"
             id="tspan528">,</tspan></text>
</g></g><g
       id="g532"
       clip-path="url(#clipPath534)"
       transform="scale(0.1,0.1)"><g
         id="g538"
         transform="scale(10,10)"><text
           transform="matrix(1,0,0,-1,19,340.594)"
           id="text540"><tspan
             style="font-size:19.55999947px;font-variant:normal;font-weight:normal;writing-mode:lr-tb;fill:#000000;fill-opacity:1;fill-rule:nonzero;stroke:none;font-family:Helvetica;-inkscape-font-specification:Helvetica"
             x="0"
             y="0"
             id="tspan542">9</tspan></text>
</g></g><g
       id="g548"
       clip-path="url(#clipPath550)"
       transform="scale(0.1,0.1)"><g
         id="g554"
         transform="scale(10,10)"><text
           transform="matrix(1,0,0,-1,25.1199,22.9486)"
           id="text556"><tspan
             style="font-size:24.12000084px;font-variant:normal;font-weight:normal;writing-mode:lr-tb;fill:#000000;fill-opacity:1;fill-rule:nonzero;stroke:none;font-family:Helvetica;-inkscape-font-specification:Helvetica"
             x="0"
             y="0"
             id="tspan558">-</tspan></text>
</g></g><g
       id="g562"
       clip-path="url(#clipPath564)"
       transform="scale(0.1,0.1)"><g
         id="g568"
         transform="scale(10,10)"><text
           transform="matrix(1,0,0,-1,33.1602,22.9486)"
           id="text570"><tspan
             style="font-size:24.12000084px;font-variant:normal;font-weight:normal;writing-mode:lr-tb;fill:#000000;fill-opacity:1;fill-rule:nonzero;stroke:none;font-family:Helvetica;-inkscape-font-specification:Helvetica"
             x="0"
             y="0"
             id="tspan572">3</tspan></text>
</g></g><g
       id="g576"
       clip-path="url(#clipPath578)"
       transform="scale(0.1,0.1)"><g
         id="g582"
         transform="scale(10,10)"><text
           transform="matrix(1,0,0,-1,155.8,22.9486)"
           id="text584"><tspan
             style="font-size:24.12000084px;font-variant:normal;font-weight:normal;writing-mode:lr-tb;fill:#000000;fill-opacity:1;fill-rule:nonzero;stroke:none;font-family:Helvetica;-inkscape-font-specification:Helvetica"
             x="0"
             y="0"
             id="tspan586">-</tspan></text>
</g></g><g
       id="g590"
       clip-path="url(#clipPath592)"
       transform="scale(0.1,0.1)"><g
         id="g596"
         transform="scale(10,10)"><text
           transform="matrix(1,0,0,-1,163.84,22.9486)"
           id="text598"><tspan
             style="font-size:24.12000084px;font-variant:normal;font-weight:normal;writing-mode:lr-tb;fill:#000000;fill-opacity:1;fill-rule:nonzero;stroke:none;font-family:Helvetica;-inkscape-font-specification:Helvetica"
             x="0"
             y="0"
             id="tspan600">1</tspan></text>
</g></g><g
       id="g604"
       clip-path="url(#clipPath606)"
       transform="scale(0.1,0.1)"><g
         id="g610"
         transform="scale(10,10)"><text
           transform="matrix(1,0,0,-1,254.2,22.9486)"
           id="text612"><tspan
             style="font-size:24.12000084px;font-variant:normal;font-weight:normal;writing-mode:lr-tb;fill:#000000;fill-opacity:1;fill-rule:nonzero;stroke:none;font-family:Helvetica;-inkscape-font-specification:Helvetica"
             x="0"
             y="0"
             id="tspan614">0</tspan></text>
</g></g><g
       id="g618"
       clip-path="url(#clipPath620)"
       transform="scale(0.1,0.1)"><g
         id="g624"
         transform="scale(10,10)"><text
           transform="matrix(1,0,0,-1,340.6,22.9486)"
           id="text626"><tspan
             style="font-size:24.12000084px;font-variant:normal;font-weight:normal;writing-mode:lr-tb;fill:#000000;fill-opacity:1;fill-rule:nonzero;stroke:none;font-family:Helvetica;-inkscape-font-specification:Helvetica"
             x="0"
             y="0"
             id="tspan628">1</tspan></text>
</g></g><g
       id="g632"
       clip-path="url(#clipPath634)"
       transform="scale(0.1,0.1)"><g
         id="g638"
         transform="scale(10,10)"><text
           transform="matrix(1,0,0,-1,427.84,22.9486)"
           id="text640"><tspan
             style="font-size:24.12000084px;font-variant:normal;font-weight:normal;writing-mode:lr-tb;fill:#000000;fill-opacity:1;fill-rule:nonzero;stroke:none;font-family:Helvetica;-inkscape-font-specification:Helvetica"
             x="0"
             y="0"
             id="tspan642">2</tspan></text>
</g></g><path
       inkscape:connector-curvature="0"
       id="path644"
       style="fill:#000000;fill-opacity:1;fill-rule:evenodd;stroke:none"
       d="m 472.84,45.2801 28.0801,0 0,2.03984 -28.0801,0 0,-2.03984 z" /><path
       inkscape:connector-curvature="0"
       id="path646"
       style="fill:#000000;fill-opacity:1;fill-rule:evenodd;stroke:none"
       d="m 500.2,46.2402 0,4.0797 9.96,-4.0797 -9.96,-3.9601 0,3.9601" /></g></svg>