<?xml version="1.0" encoding="utf-8"?>
<!-- Generator: Adobe Illustrator 16.0.0, SVG Export Plug-In . SVG Version: 6.00 Build 0)  -->
<!DOCTYPE svg PUBLIC "-//W3C//DTD SVG 1.1//EN" "http://www.w3.org/Graphics/SVG/1.1/DTD/svg11.dtd">
<svg version="1.1" id="Capa_1" xmlns="http://www.w3.org/2000/svg" xmlns:xlink="http://www.w3.org/1999/xlink" x="0px" y="0px"
	 width="1549.86px" height="1736.791px" viewBox="0 0 1549.86 1736.791" enable-background="new 0 0 1549.86 1736.791"
	 xml:space="preserve">
<g>
	<radialGradient id="SVGID_1_" cx="1074.418" cy="600.0005" r="535.4947" gradientUnits="userSpaceOnUse">
		<stop  offset="0" style="stop-color:#E6E6E6"/>
		<stop  offset="1" style="stop-color:#3FA9F5"/>
	</radialGradient>
	<path fill-rule="evenodd" clip-rule="evenodd" fill="url(#SVGID_1_)" d="M945.921,640.387c-3.226,14.556-6.384,28.152-9.194,41.82
		c-1.05,5.111-1.428,10.377-1.871,15.592c-1.682,19.814-5.769,38.852-15.718,56.453c-5.457,9.653-9.655,20.013-14.555,29.988
		c-4.812,9.794-9.894,19.456-14.676,29.263c-7.445,15.268-14.729,30.612-22.095,45.919c-5.846,12.148-11.989,24.162-17.485,36.465
		c-5.176,11.588-9.504,23.552-14.528,35.21c-4.573,10.61-5.637,21.647-6.165,33.065c-0.551,11.922-4.523,23.222-9.61,34.106
		c-6.271,13.42-11.334,27.32-14.836,41.738c-0.998,4.109-1.569,8.323-2.333,12.489c-0.119,0.648-0.036,1.419-0.364,1.93
		c-1.944,3.022-2.653,7.941-7.629,7.052c-4.859-0.868-4.349-5.302-3.943-8.808c1.314-11.361,2.931-22.688,4.432-34.028
		c0.162-1.223,0.323-2.444-0.633-4.218c-0.952,1.309-2.436,2.493-2.775,3.945c-3.813,16.318-7.426,32.684-11.166,49.02
		c-0.431,1.882-0.818,4.199-2.095,5.362c-1.898,1.729-4.596,3.652-6.905,3.595c-3.09-0.078-5.31-2.877-4.853-6.285
		c0.909-6.778,2.207-13.505,3.36-20.25c0.137-0.802,0.532-1.586,0.536-2.38c0.055-9.844-1.013-19.831,4.705-28.911
		c-0.607-0.365-1.215-0.73-1.823-1.096c-0.994,1.224-2.44,2.293-2.913,3.692c-5.399,15.997-10.641,32.048-15.955,48.074
		c-0.557,1.681-1.194,3.354-1.99,4.93c-1.578,3.125-3.535,5.721-7.703,4.241c-3.776-1.341-6.131-5.408-5.193-9.554
		c0.897-3.963,2.27-7.82,3.146-11.787c1.258-5.698,2.254-11.453,2.197-17.429c-1.141,4.129-2.143,8.305-3.484,12.366
		c-0.65,1.97-1.536,4.21-3.039,5.457c-1.779,1.476-4.894,3.3-6.422,2.64c-2.01-0.868-4.356-4.082-4.242-6.161
		c0.356-6.474,1.787-12.89,2.834-19.323c1.622-9.96,3.316-19.886,8.724-28.725c0.578-0.944,0.078-2.546,0.078-2.847
		c-5.632,0.228-10.977,0.691-16.298,0.5c-1.547-0.055-3.453-1.729-4.327-3.183c-0.353-0.586,1.314-3.12,2.585-3.837
		c13.567-7.646,20.229-21.312,29.272-32.939c4.66-5.992,9.89-11.605,15.333-16.908c8.166-7.956,15.279-16.226,18.769-27.583
		c3.745-12.184,9.355-23.782,13.438-35.876c6.079-18.006,12.292-36.026,17.059-54.4c5.84-22.506,9.816-45.492,15.471-68.051
		c2.504-9.987,6.918-19.535,10.885-29.107c5.412-13.061,11.594-25.813,16.744-38.972c3.821-9.765,6.875-19.874,9.594-30.011
		c1.556-5.802,2.103-11.945,2.509-17.974c1.186-17.586,1.966-35.2,3.111-52.79c0.812-12.48,2.162-24.927,2.894-37.411
		c0.63-10.749,0.797-21.527,1.042-32.296c0.38-16.684,2.034-33.229,6.585-49.306c2.188-7.729,4.799-15.516,8.522-22.59
		c4.713-8.955,13.179-14.112,22.554-17.5c14.069-5.084,28.58-9.135,42.222-15.165c19.326-8.541,38.386-17.84,56.892-28.029
		c14.756-8.124,16.773-20.434,14.54-36.237c-0.596-4.212-0.686-8.502-1.408-12.688c-0.359-2.082-1.622-4.008-2.759-6.666
		c-3.832,11.549-11.827,20.016-17.066,18.197c1.136-0.765,2.083-1.403,3.976-2.678c-8.344,1.321-16.093,3.57-21.642-5.104
		c1.438-2.146,3.275-4.899,5.124-7.646c6.734-9.999,9.733-20.84,7.579-32.904c-0.289-1.618-0.043-3.327-0.128-4.989
		c-0.203-3.952-0.943-7.467-3.877-10.708c-3.583-3.957-6.493-8.592-9.225-13.21c-0.988-1.67-0.813-4.138-0.841-6.246
		c-0.212-15.901,4.504-30.662,11.431-44.648c5.684-11.478,11.659-22.943,18.818-33.525c9.009-13.317,21.316-23.224,37.241-27.347
		c4.563-1.182,9.674-0.083,14.484-0.538c3.986-0.377,8.826-0.326,11.652-2.546c5.602-4.403,10.899-1.625,16.054-0.711
		c4.654,0.825,8.971,3.529,13.45,5.372c12.247,5.037,21.548,13.275,26.729,25.563c2.474,5.865,4.01,12.119,6.168,18.126
		c0.514,1.429,1.817,2.575,2.836,3.957c-0.053,0.631-0.428,1.715-0.169,2.618c1.121,3.911,2.552,7.734,3.638,11.653
		c1.779,6.417,3.321,12.9,5.071,19.326c1.787,6.562,3.798,13.065,5.532,19.64c1.158,4.388,1.978,8.864,3.006,13.287
		c0.453,1.947,1.143,3.84,1.566,5.792c1.636,7.535-0.881,14.339-3.983,21.442c-0.583-1.539-1.08-2.851-1.742-4.6
		c-3.481,4.02-8.876,5.767-7.399,12.756c0.59,2.799-2.889,6.296-3.996,9.647c-2.354,7.128-2.747,14.068,2.353,20.538
		c1.961,2.488,2.071,5.458-0.894,7.904c-0.834,0.688-1.506,2.26-1.368,3.311c0.434,3.291-0.778,3.404-3.24,2.172
		c-6.604-3.305-13.233-6.556-19.849-9.826c-3.388,15.177-2.136,30.364,9.382,43.704c7.784,9.014,18.008,14.407,28.149,19.966
		c12.605,6.91,25.148,13.964,38.022,20.341c8.288,4.106,17.172,6.996,25.702,10.635c11.27,4.809,21.479,10.969,27.104,22.845
		c1.856,3.653,9.021,32.332,10.011,42.181c0.797,7.939,0.626,16.057,0.042,24.034c-0.716,9.787-2.479,19.494-3.454,29.268
		c-0.514,5.133-0.241,10.341-0.459,15.509c-0.242,5.736-0.884,11.464-0.922,17.198c-0.121,18.603-0.153,37.208-0.017,55.812
		c0.158,21.403,2.771,42.328,10.533,62.575c6.441,16.798,12.201,33.907,17.251,51.174c3.598,12.303,5.708,25.059,8.13,37.682
		c2.398,12.499,4.018,25.152,6.593,37.61c3.162,15.285,6.648,30.52,10.588,45.623c3.07,11.766,7.14,23.268,10.587,34.94
		c1.934,6.547,3.801,13.14,5.166,19.821c1.809,8.852,5.183,17.216,11.52,23.313c14.559,14.008,22.761,32.013,32.877,48.864
		c1.789,2.979,4.956,5.102,7.265,7.809c1.099,1.288,1.68,3.02,2.495,4.55c-1.638,0.723-3.375,2.228-4.893,2.029
		c-5.6-0.73-11.529-0.942-15.664-5.805c-0.395-0.463-1.065-0.724-1.652-0.973c-0.271-0.115-0.65,0.023-1.815,0.107
		c0.399,3.427,0.243,7.029,1.296,10.233c3.826,11.641,4.602,23.707,5.681,35.75c0.352,3.928,0.75,7.856,0.976,11.793
		c0.193,3.358-1.516,6.138-4.738,6.129c-2.111-0.006-5.461-1.844-6.103-3.635c-2.509-6.991-4.257-14.266-6.106-21.481
		c-2.211-8.631-4.237-17.31-7.388-25.772c0.875,4.453,1.856,8.889,2.601,13.363c1.016,6.106,2.128,12.218,2.69,18.373
		c0.647,7.071,0.743,14.193,1.067,21.293c0.038,0.832,0.027,1.668,0,2.5c-0.182,5.701-2.868,9.915-6.517,10.237
		c-3.043,0.27-6.445-3.789-7.407-9.225c-1.448-8.191-2.711-16.416-4.066-24.625c-1.328-8.047-2.639-16.098-4.044-24.132
		c-0.238-1.359-0.915-2.642-1.39-3.96c-0.422,0.021-0.846,0.041-1.27,0.062c-0.075,1.626-0.364,3.277-0.186,4.876
		c0.486,4.366,1.56,8.699,1.692,13.066c0.295,9.673,0.029,19.36,0.257,29.035c0.091,3.877-1.263,6.585-5.016,7.222
		c-3.83,0.652-6.035-1.964-6.934-5.323c-0.964-3.604-1.594-7.323-2.067-11.029c-1.248-9.756-2.331-19.533-3.604-30.357
		c-2.325,4.564-1.457,8.491-0.997,12.349c0.464,3.887,1.724,7.841,1.296,11.613c-0.26,2.295-2.637,5.306-4.806,6.209
		c-3.354,1.396-5.101-2.011-5.759-4.643c-1.38-5.514-2.156-11.179-3.173-16.784c-1.743-9.612-3.061-19.327-5.325-28.816
		c-3.167-13.271-7.378-26.297-10.419-39.593c-1.031-4.509-0.141-9.551,0.357-14.298c0.797-7.604,0.579-15.065-1.959-22.322
		c-7.875-22.51-15.382-45.163-23.866-67.442c-6.025-15.821-13.618-31.037-20.106-46.69c-5.852-14.117-11.075-28.492-16.737-42.689
		c-2.145-5.379-4.737-10.58-7.127-15.861c-0.415,0.139-0.831,0.278-1.247,0.417c1.925,6.571,4.045,13.093,5.732,19.725
		c3.04,11.95,6.555,23.847,8.494,35.987c1.712,10.718,2.063,21.735,2.082,32.621c0.024,13.966-1.213,27.931-1.289,41.901
		c-0.063,11.708,1.155,23.425,1.067,35.132c-0.069,9.097-0.88,18.237-2.08,27.264c-1.462,10.985-3.429,21.921-5.652,32.781
		c-1.657,8.103-3.874,16.108-6.202,24.052c-2.28,7.779-4.989,15.433-7.558,23.126c-2.704,8.101-5.623,16.133-8.158,24.285
		c-3.469,11.151-6.757,22.363-9.944,33.601c-2.521,8.889-5.019,17.8-7.068,26.807c-1.694,7.444-2.392,15.117-4.123,22.551
		c-2.248,9.657-5.373,19.111-7.576,28.777c-1.844,8.094-3.439,16.315-4.198,24.568c-1.355,14.762-2.628,29.582-2.738,44.386
		c-0.086,11.456,1.612,22.931,2.596,34.39c0.97,11.295,2.263,22.566,2.979,33.877c0.445,7.021,0.697,14.16-0.053,21.13
		c-1.327,12.334-2.294,24.904-5.543,36.792c-6.755,24.706-14.303,49.239-22.645,73.457c-8.735,25.357-16.45,51.104-28.215,75.412
		c-3.343,6.907-3.829,15.523-4.262,23.43c-0.547,10.015,1.391,20.003-3.028,29.864c-4.537,10.125-1.524,20.688,1.345,30.729
		c2.471,8.649,5.795,17.087,9.237,25.413c1.761,4.261,4.836,7.959,6.902,12.116c2.481,4.99,2.806,10.189,0.799,15.599
		c-1.475,3.976-2.264,8.201-3.52,12.266c-0.221,0.716-1.268,1.152-1.873,1.776c-7.229,7.451-16.82,9.73-26.386,12.062
		c-0.476,0.115-1.226-0.163-1.461,0.095c-6.286,6.902-13.671,3.044-20.775,2.259c-1.592-0.177-3.456-0.077-4.859,0.597
		c-7.384,3.543-13.961,0.964-20.453-2.397c-1.875-0.971-3.59-2.245-4.113-2.577c-3.504,1.056-5.856,1.866-8.262,2.466
		c-3.846,0.959-7.728,2.483-11.594,2.479c-4.844-0.004-9.688-1.303-14.529-2.056c-3.797-0.592-7.581-1.289-11.391-1.778
		c-2.299-0.295-5.055,0.472-6.885-0.541c-7.159-3.96-14.161-8.245-20.927-12.844c-1.983-1.347-3.321-3.979-4.372-6.288
		c-1.907-4.185-4.517-8.501-4.785-12.887c-0.525-8.586,4.342-15.274,10.048-21.371c5.963-6.373,11.839-12.85,17.397-19.573
		c4.962-6.002,5.562-13.733,7.306-20.979c0.521-2.166,1.406-4.242,2.005-6.392c0.434-1.555,0.933-3.162,0.951-4.75
		c0.094-8.362-0.042-16.728,0.093-25.088c0.045-2.766,0.136-5.725,1.106-8.248c4.145-10.773-0.076-20.524-3.304-30.396
		c-1.757-5.369-4.145-10.542-5.739-15.955c-2.376-8.062-4.472-16.216-6.38-24.403c-3.204-13.751-6.133-27.564-9.241-41.337
		c-2.534-11.228-5.335-22.396-7.702-33.656c-3.413-16.24-7.043-32.461-9.658-48.837c-3.086-19.331,0.175-38.384,3.763-57.45
		c3.536-18.789,6.252-37.767,4.725-57.035c-0.555-7.001-1.233-14.001-1.453-21.015c-0.068-2.179,1.83-4.434,1.71-6.592
		c-0.277-5.025-1.087-10.037-1.943-15.01c-1.944-11.304-3.89-22.612-6.124-33.86c-2.791-14.055-5.693-28.095-8.908-42.059
		c-1.503-6.53-3.979-12.831-5.758-19.306c-0.728-2.649-0.893-5.476-1.104-8.236c-0.202-2.643,0.068-5.034-1.941-7.562
		c-1.616-2.034-1.975-5.518-1.919-8.337c0.122-6.09-3.522-10.666-5.484-15.915c-0.455-1.218,0.19-2.86-0.298-4.05
		c-3.335-8.127-4.38-16.943-7.802-25.066c-1.932-4.587-3.004-9.55-4.295-14.389c-2.595-9.729-5.595-19.392-7.463-29.265
		c-2.048-10.831-3.089-21.86-4.402-32.823c-0.516-4.311-0.812-8.678-0.794-13.017c0.024-6.058,0.347-12.118,0.7-18.168
		c0.793-13.614,1.738-27.218,2.477-40.834c0.112-2.074-0.528-4.193-0.862-6.284c-2.997-18.791-4.771-37.792-1.614-56.559
		c2.027-12.056,6.458-23.816,10.743-35.364c8.573-23.1,18.848-45.466,29.831-67.548c8.17-16.426,9.679-34.171,7.179-52.33
		c-1.052-7.639-1.393-15.374-2.107-23.062C946.688,643.674,946.315,642.383,945.921,640.387z M1059.738,1251.649
		c-7.366,20.45-6.778,41.96-8.716,63.088c-0.634,6.912,1.367,14.031,1.735,21.078c0.828,15.854,1.697,31.717,1.903,47.585
		c0.079,6.139-1.383,12.339-2.506,18.445c-3.004,16.349-6.84,32.573-9.146,49.016c-2.188,15.61-2.835,31.437-4.211,47.164
		c-0.329,3.757-0.624,7.542-1.343,11.235c-3.153,16.18-2.3,32.046,3.983,47.35c2.027,4.937,1.988,9.706,1.05,14.647
		c-1.736,9.147-0.273,17.755,4.602,26.059c1.739-8.597,3.577-17.275,3.298-25.885c-0.162-5.025-0.598-9.71,1.6-14.256
		c5.762-11.916,9.015-24.585,9.686-37.668c0.9-17.585,0.861-35.22,1.119-52.835c0.13-8.83,0.229-17.669-0.043-26.491
		c-0.193-6.29-0.904-12.573-1.603-18.834c-1.363-12.205-3.268-24.365-4.179-36.601c-0.512-6.87,0.371-13.866,0.887-20.786
		c0.536-7.204,1.052-14.438,2.167-21.565c2.48-15.847,6.242-31.461,3.931-47.809
		C1061.939,1280.344,1061.095,1265.935,1059.738,1251.649z M1188.37,667.081c-6.229,8.584-3.737,59.649,5.863,67.747
		C1192.296,712.441,1190.333,689.76,1188.37,667.081z M1059.566,1105.322c0,24.346,0,48.299,0,72.251
		c1.288-4.848,2.207-9.702,2.17-14.552c-0.134-17.552-0.563-35.101-0.969-52.649
		C1060.731,1108.824,1060.053,1107.291,1059.566,1105.322z"/>
</g>
<g>
	
		<radialGradient id="SVGID_2_" cx="285.3096" cy="1397.25" r="662.0322" gradientTransform="matrix(1 0 0 -1 202.2798 1944.8027)" gradientUnits="userSpaceOnUse">
		<stop  offset="0" style="stop-color:#E6E6E6"/>
		<stop  offset="1" style="stop-color:#3FA9F5"/>
	</radialGradient>
	<path fill="url(#SVGID_2_)" d="M710.915,1087.234c-1.372,7.342-12.396,15.816-13.955,2.887c-2.362-19.58-0.563-40.207-5.776-59.354
		c-5.325-19.564,3.304-40.283,6.654-59.457c3.197-18.293-0.895-35.342-6.605-52.902c-13.565-41.708-28.455-83.375-36.854-126.535
		c-9.551-49.081-9.593-97.663-24.312-145.874c-9.524,52.094,3.02,102.856,0.106,155.692c-3.199,58.065,13.604,115.143,1.503,173.03
		c-4.189,20.045-61.111,265.035-56.024,259.754c23.676,111.59-21.539,207.234-24.464,219.381
		c-6.794,28.227-20.83,60.221-18.697,89.586c2.02,27.891,2.521,53.912,12.401,81.049c5.377,14.762,12.947,24.229,9.329,53.355
		c12.529,18.543-85.349,12.24-98.009,12.416c-18.915,0.262-43.823,4.383-60.873-6.656c-10.525-6.816,22.396-60.705,27.369-74.844
		c1.122-3.213,0.173-15.863-2.219-17.641c1.802-14.109,3.425-28.648,3.957-42.873c1.204-32.209-15.166-65.375-21.092-96.842
		c-11.608-61.658-42.868-138.979-20.469-201.59c5.065-0.016,0.887-45.938-2.721-58.545c-7.44-26.002-9.797-54.492-16.972-81.119
		c-12.771-47.408-23.99-109.168-21.012-158.275c2.905-47.853,3.854-93.304,10.585-141.27c7.81-55.637-0.565-119.474-9.73-174.488
		c-14.212,10.372-23.058,54.439-26.604,71.122c-6.426,30.232-9.039,59.954-12.005,90.633c-2.224,22.996-9.578,47.057-15.676,69.263
		c-7.704,28.056-25.029,61.838-20.452,91.793c4.682,30.645,4.181,54.527,2.784,85.465c-0.456,10.092,1.526,24.879-2.667,34.389
		c-5.997,13.602-12.195,2.037-14.673,22.336c-2.138,17.486-24.786,16.693-31.479,4.557c-5.813-10.545-15.608-5.094-17.351-20.543
		c-1.99-17.658-2.716-35.473-5.961-52.955c-4.522-0.58-6.682,8.902-12.637,6.646c-6.857-2.602-3.25-27.738-2.838-31.424
		c1.931-17.242,3.111-23.645,13.521-38.053c4.197-5.813,26.477-28.426,19.986-37.75c-7.848-11.269,3.097-38.186,5.243-50.094
		c3.343-18.546,0.812-34.058,0.27-52.63c-1.251-42.89-3.334-81.102,12.23-121.811c12.188-31.873,23.704-63.937,32.412-96.949
		c5.737-21.75,11.34-43.68,15.14-65.862c3.087-18.02-9.296-32.717-1.969-50.643c9.022-22.074,4.688-66.836,27.634-78.545
		c17.663-9.014,35.103-11.895,53.057-19.187c13.884-5.64,72.144-17.378,86.369-37.922c13.255-19.138-26.064-50.536-30.106-135.188
		c-0.5-40-5.876-68.588,6.676-84.517c6.109-7.752,24.974-17.992,33.653-23.845c12.793-8.625,32.33-17.029,48.132-14.396
		c67.754,11.289,83.189,83.565,74.931,140.166c-4.392,24.093-14.861,32.772-23.8,51.462
		c-43.301,90.53,121.853,124.954,129.968,139.01c18.389,31.845,14.408,75.654,11.063,110.215
		c-0.896,9.337,16.158,33.36,18.392,44.805c4.78,24.514-4.722,48.183-1.654,72.49c3.173,25.132,15.674,46.646,22.033,70.785
		c7.288,27.668,6.702,51.726,8.069,80.032c0.968,19.99-2.771,39.399-2.249,59.313c0.604,23.061,10.858,44.856,11.09,67.966
		c0.205,20.777,0.482,27.678,11.047,45.488c10.263,17.309,15.076,25.852,14.875,46.807c-0.146,14.957-13.067,23.133-13.204,35.32
		c-0.146,13.068,5.388,46.771-13.771,49.777c-16.562,2.605-2.586,18.564-23.496,9.027
		C718.683,1117.959,710.67,1087.225,710.915,1087.234C710.771,1088.008,711.278,1087.248,710.915,1087.234z M478.887,1403.275
		c-13.225,22.406-24.483,117.066-0.634,136.338C500.757,1500.744,485.825,1445.098,478.887,1403.275
		C477.731,1405.234,480.962,1415.787,478.887,1403.275z M479.602,1254.277c-11.134,14.037-10.257,70.299,1.183,84.186
		C490.003,1310.283,495.135,1282.225,479.602,1254.277z M478.287,1557.139c-2.477-0.094-3.05,31.941-3.274,36.063
		C482.82,1593.584,478.105,1561.625,478.287,1557.139C477.85,1557.123,477.799,1569.188,478.287,1557.139z M731.068,1082.057
		c-3.983,7.996-2.313,22.486,2.957,25.938C733.039,1099.35,732.053,1090.703,731.068,1082.057z M237.585,1092.986
		c2.498,0.059,2.431-20.768,0-20.822C237.585,1079.105,237.585,1086.045,237.585,1092.986
		C238.054,1092.998,237.585,1086.047,237.585,1092.986z M729.381,1073.992c4.618,0.316,4.969-3.602,1.053-11.756
		C725.818,1061.934,725.466,1065.852,729.381,1073.992C729.732,1073.99,729.381,1070.078,729.381,1073.992z M238.205,1048.662
		c-5.008-0.301-5.389,3.547-1.14,11.535C241.655,1060.416,242.034,1056.57,238.205,1048.662
		C237.622,1048.695,238.205,1052.494,238.205,1048.662z"/>
</g>
</svg>
