<?xml version="1.0" encoding="utf-8" standalone="no"?>
<!DOCTYPE svg PUBLIC "-//W3C//DTD SVG 1.1//EN"
  "http://www.w3.org/Graphics/SVG/1.1/DTD/svg11.dtd">
<!-- Created with matplotlib (http://matplotlib.org/) -->
<svg height="432pt" version="1.1" viewBox="0 0 576 432" width="576pt" xmlns="http://www.w3.org/2000/svg" xmlns:xlink="http://www.w3.org/1999/xlink">
 <defs>
  <style type="text/css">
*{stroke-linecap:butt;stroke-linejoin:round;}
  </style>
 </defs>
 <g id="figure_1">
  <g id="patch_1">
   <path d="
M0 432
L576 432
L576 0
L0 0
z
" style="fill:#ffffff;"/>
  </g>
  <g id="axes_1">
   <g id="patch_2">
    <path d="
M72 388.8
L518.4 388.8
L518.4 43.2
L72 43.2
z
" style="fill:#ffffff;"/>
   </g>
   <g id="PolyCollection_1">
    <defs>
     <path d="
M72 -354.24
L72 -181.44
L74.996 -181.44
L77.9919 -181.44
L80.9879 -181.44
L83.9839 -181.44
L86.9799 -181.44
L89.9758 -181.44
L92.9718 -181.44
L95.9678 -181.44
L98.9638 -181.44
L101.96 -181.44
L104.956 -181.44
L107.952 -181.44
L110.948 -181.44
L113.944 -181.44
L116.94 -181.44
L119.936 -181.44
L122.932 -181.44
L125.928 -181.44
L128.923 -181.44
L131.919 -181.44
L134.915 -181.44
L137.911 -181.44
L140.907 -181.44
L143.903 -181.44
L146.899 -181.44
L149.895 -181.44
L152.891 -181.44
L155.887 -181.44
L158.883 -181.44
L161.879 -181.44
L164.875 -181.44
L167.871 -181.44
L170.867 -181.44
L173.863 -181.44
L176.859 -181.44
L179.855 -181.44
L182.851 -181.44
L185.847 -181.44
L188.843 -181.44
L191.839 -181.44
L194.835 -181.44
L197.831 -181.44
L200.827 -181.44
L203.823 -181.44
L206.819 -181.44
L209.815 -181.44
L212.811 -181.44
L215.807 -181.44
L218.803 -181.44
L221.799 -181.44
L224.795 -181.44
L227.791 -181.44
L230.787 -181.44
L233.783 -181.44
L236.779 -181.44
L239.774 -181.44
L242.77 -181.44
L245.766 -181.44
L248.762 -181.44
L251.758 -181.44
L254.754 -181.44
L257.75 -181.44
L260.746 -181.44
L263.742 -181.44
L266.738 -181.44
L269.734 -181.44
L272.73 -181.44
L275.726 -181.44
L278.722 -181.44
L281.718 -181.44
L284.714 -181.44
L287.71 -181.44
L290.706 -181.44
L293.702 -181.44
L296.698 -181.44
L299.694 -181.44
L302.69 -181.44
L305.686 -181.44
L308.682 -181.44
L311.678 -181.44
L314.674 -181.44
L317.67 -181.44
L320.666 -181.44
L323.662 -181.44
L326.658 -181.44
L329.654 -181.44
L332.65 -181.44
L335.646 -181.44
L338.642 -181.44
L341.638 -181.44
L344.634 -181.44
L347.63 -181.44
L350.626 -181.44
L353.621 -181.44
L356.617 -181.44
L359.613 -181.44
L362.609 -181.44
L365.605 -181.44
L368.601 -181.44
L371.597 -181.44
L374.593 -181.44
L377.589 -181.44
L380.585 -181.44
L383.581 -181.44
L386.577 -181.44
L389.573 -181.44
L392.569 -181.44
L395.565 -181.44
L398.561 -181.44
L401.557 -181.44
L404.553 -181.44
L407.549 -181.44
L410.545 -181.44
L413.541 -181.44
L416.537 -181.44
L419.533 -181.44
L422.529 -181.44
L425.525 -181.44
L428.521 -181.44
L431.517 -181.44
L434.513 -181.44
L437.509 -181.44
L440.505 -181.44
L443.501 -181.44
L446.497 -181.44
L449.493 -181.44
L452.489 -181.44
L455.485 -181.44
L458.481 -181.44
L461.477 -181.44
L464.472 -181.44
L467.468 -181.44
L470.464 -181.44
L473.46 -181.44
L476.456 -181.44
L479.452 -181.44
L482.448 -181.44
L485.444 -181.44
L488.44 -181.44
L491.436 -181.44
L494.432 -181.44
L497.428 -181.44
L500.424 -181.44
L503.42 -181.44
L506.416 -181.44
L509.412 -181.44
L512.408 -181.44
L515.404 -181.44
L518.4 -181.44
L518.4 -354.24
L518.4 -354.24
L515.404 -345.946
L512.408 -337.764
L509.412 -329.694
L506.416 -321.736
L503.42 -313.891
L500.424 -306.157
L497.428 -298.536
L494.432 -291.026
L491.436 -283.629
L488.44 -276.343
L485.444 -269.17
L482.448 -262.109
L479.452 -255.16
L476.456 -248.323
L473.46 -241.598
L470.464 -234.985
L467.468 -228.485
L464.472 -222.096
L461.477 -215.819
L458.481 -209.655
L455.485 -203.603
L452.489 -197.662
L449.493 -191.834
L446.497 -186.118
L443.501 -180.514
L440.505 -175.022
L437.509 -169.642
L434.513 -164.374
L431.517 -159.218
L428.521 -154.175
L425.525 -149.243
L422.529 -144.424
L419.533 -139.716
L416.537 -135.121
L413.541 -130.638
L410.545 -126.266
L407.549 -122.007
L404.553 -117.86
L401.557 -113.825
L398.561 -109.902
L395.565 -106.092
L392.569 -102.393
L389.573 -98.8064
L386.577 -95.3319
L383.581 -91.9694
L380.585 -88.7191
L377.589 -85.5808
L374.593 -82.5546
L371.597 -79.6405
L368.601 -76.8384
L365.605 -74.1485
L362.609 -71.5706
L359.613 -69.1048
L356.617 -66.7511
L353.621 -64.5095
L350.626 -62.3799
L347.63 -60.3625
L344.634 -58.4571
L341.638 -56.6638
L338.642 -54.9826
L335.646 -53.4134
L332.65 -51.9564
L329.654 -50.6114
L326.658 -49.3785
L323.662 -48.2577
L320.666 -47.2489
L317.67 -46.3523
L314.674 -45.5677
L311.678 -44.8952
L308.682 -44.3348
L305.686 -43.8865
L302.69 -43.5503
L299.694 -43.3261
L296.698 -43.214
L293.702 -43.214
L290.706 -43.3261
L287.71 -43.5503
L284.714 -43.8865
L281.718 -44.3348
L278.722 -44.8952
L275.726 -45.5677
L272.73 -46.3523
L269.734 -47.2489
L266.738 -48.2577
L263.742 -49.3785
L260.746 -50.6114
L257.75 -51.9564
L254.754 -53.4134
L251.758 -54.9826
L248.762 -56.6638
L245.766 -58.4571
L242.77 -60.3625
L239.774 -62.3799
L236.779 -64.5095
L233.783 -66.7511
L230.787 -69.1048
L227.791 -71.5706
L224.795 -74.1485
L221.799 -76.8384
L218.803 -79.6405
L215.807 -82.5546
L212.811 -85.5808
L209.815 -88.7191
L206.819 -91.9694
L203.823 -95.3319
L200.827 -98.8064
L197.831 -102.393
L194.835 -106.092
L191.839 -109.902
L188.843 -113.825
L185.847 -117.86
L182.851 -122.007
L179.855 -126.266
L176.859 -130.638
L173.863 -135.121
L170.867 -139.716
L167.871 -144.424
L164.875 -149.243
L161.879 -154.175
L158.883 -159.218
L155.887 -164.374
L152.891 -169.642
L149.895 -175.022
L146.899 -180.514
L143.903 -186.118
L140.907 -191.834
L137.911 -197.662
L134.915 -203.603
L131.919 -209.655
L128.923 -215.819
L125.928 -222.096
L122.932 -228.485
L119.936 -234.985
L116.94 -241.598
L113.944 -248.323
L110.948 -255.16
L107.952 -262.109
L104.956 -269.17
L101.96 -276.343
L98.9638 -283.629
L95.9678 -291.026
L92.9718 -298.536
L89.9758 -306.157
L86.9799 -313.891
L83.9839 -321.736
L80.9879 -329.694
L77.9919 -337.764
L74.996 -345.946
L72 -354.24
z
" id="C0_0_4c3aaa546d"/>
    </defs>
    <g clip-path="url(#p7ff5b81e1d)">
     <use style="fill:#bf00bf;fill-opacity:0.5;stroke:#bf00bf;stroke-opacity:0.5;" x="0.0" xlink:href="#C0_0_4c3aaa546d" y="432.0"/>
    </g>
   </g>
   <g id="line2d_1">
    <path clip-path="url(#p7ff5b81e1d)" d="
M72 77.76
L74.996 86.054
L77.9919 94.236
L83.9839 110.264
L89.9758 125.843
L95.9678 140.974
L101.96 155.657
L107.952 169.891
L113.944 183.677
L119.936 197.015
L125.928 209.904
L131.919 222.345
L137.911 234.338
L143.903 245.882
L149.895 256.978
L155.887 267.626
L161.879 277.825
L167.871 287.576
L173.863 296.879
L179.855 305.734
L185.847 314.14
L191.839 322.098
L197.831 329.607
L203.823 336.668
L209.815 343.281
L215.807 349.445
L221.799 355.162
L227.791 360.429
L233.783 365.249
L239.774 369.62
L245.766 373.543
L251.758 377.017
L257.75 380.044
L263.742 382.622
L269.734 384.751
L275.726 386.432
L281.718 387.665
L287.71 388.45
L290.706 388.674
L293.702 388.786
L296.698 388.786
L299.694 388.674
L302.69 388.45
L305.686 388.114
L311.678 387.105
L317.67 385.648
L323.662 383.742
L329.654 381.389
L335.646 378.587
L341.638 375.336
L347.63 371.638
L353.621 367.491
L359.613 362.895
L365.605 357.852
L371.597 352.36
L377.589 346.419
L383.581 340.031
L389.573 333.194
L395.565 325.908
L401.557 318.175
L407.549 309.993
L413.541 301.362
L419.533 292.284
L425.525 282.757
L431.517 272.782
L437.509 262.358
L443.501 251.486
L449.493 240.166
L455.485 228.397
L461.477 216.181
L467.468 203.515
L473.46 190.402
L479.452 176.84
L485.444 162.83
L491.436 148.371
L497.428 133.464
L503.42 118.109
L509.412 102.306
L515.404 86.054
L518.4 77.76
L518.4 77.76" style="fill:none;stroke:#0000ff;stroke-linecap:square;stroke-width:4;"/>
   </g>
   <g id="matplotlib.axis_1">
    <g id="xtick_1">
     <g id="line2d_2">
      <defs>
       <path d="
M0 0
L0 -4" id="m93b0483c22" style="stroke:#000000;stroke-width:0.5;"/>
      </defs>
      <g>
       <use style="stroke:#000000;stroke-width:0.5;" x="72.0" xlink:href="#m93b0483c22" y="388.8"/>
      </g>
     </g>
     <g id="line2d_3">
      <defs>
       <path d="
M0 0
L0 4" id="m741efc42ff" style="stroke:#000000;stroke-width:0.5;"/>
      </defs>
      <g>
       <use style="stroke:#000000;stroke-width:0.5;" x="72.0" xlink:href="#m741efc42ff" y="43.2"/>
      </g>
     </g>
     <g id="text_1">
      <!-- −1.5 -->
      <defs>
       <path d="
M37.25 0
L28.4688 0
L28.4688 56
Q25.2969 52.9844 20.1406 49.9531
Q14.9844 46.9219 10.8906 45.4062
L10.8906 53.9062
Q18.2656 57.375 23.7812 62.2969
Q29.2969 67.2344 31.5938 71.875
L37.25 71.875
z
" id="ArialMT-31"/>
       <path d="
M52.8281 31.2031
L5.5625 31.2031
L5.5625 39.4062
L52.8281 39.4062
z
" id="ArialMT-2212"/>
       <path d="
M9.07812 0
L9.07812 10.0156
L19.0938 10.0156
L19.0938 0
z
" id="ArialMT-2e"/>
       <path d="
M4.15625 18.75
L13.375 19.5312
Q14.4062 12.7969 18.1406 9.39062
Q21.875 6 27.1562 6
Q33.5 6 37.8906 10.7812
Q42.2812 15.5781 42.2812 23.4844
Q42.2812 31 38.0625 35.3438
Q33.8438 39.7031 27 39.7031
Q22.75 39.7031 19.3281 37.7656
Q15.9219 35.8438 13.9688 32.7656
L5.71875 33.8438
L12.6406 70.6094
L48.25 70.6094
L48.25 62.2031
L19.6719 62.2031
L15.8281 42.9688
Q22.2656 47.4688 29.3438 47.4688
Q38.7188 47.4688 45.1562 40.9688
Q51.6094 34.4688 51.6094 24.2656
Q51.6094 14.5469 45.9531 7.46875
Q39.0625 -1.21875 27.1562 -1.21875
Q17.3906 -1.21875 11.2031 4.25
Q5.03125 9.71875 4.15625 18.75" id="ArialMT-35"/>
      </defs>
      <g transform="translate(60.729375 401.389375)scale(0.12 -0.12)">
       <use xlink:href="#ArialMT-2212"/>
       <use x="58.3984375" xlink:href="#ArialMT-31"/>
       <use x="114.013671875" xlink:href="#ArialMT-2e"/>
       <use x="141.796875" xlink:href="#ArialMT-35"/>
      </g>
     </g>
    </g>
    <g id="xtick_2">
     <g id="line2d_4">
      <g>
       <use style="stroke:#000000;stroke-width:0.5;" x="146.4" xlink:href="#m93b0483c22" y="388.8"/>
      </g>
     </g>
     <g id="line2d_5">
      <g>
       <use style="stroke:#000000;stroke-width:0.5;" x="146.4" xlink:href="#m741efc42ff" y="43.2"/>
      </g>
     </g>
     <g id="text_2">
      <!-- −1.0 -->
      <defs>
       <path d="
M4.15625 35.2969
Q4.15625 48 6.76562 55.7344
Q9.375 63.4844 14.5156 67.6719
Q19.6719 71.875 27.4844 71.875
Q33.25 71.875 37.5938 69.5469
Q41.9375 67.2344 44.7656 62.8594
Q47.6094 58.5 49.2188 52.2188
Q50.8281 45.9531 50.8281 35.2969
Q50.8281 22.7031 48.2344 14.9688
Q45.6562 7.23438 40.5 3
Q35.3594 -1.21875 27.4844 -1.21875
Q17.1406 -1.21875 11.2344 6.20312
Q4.15625 15.1406 4.15625 35.2969
M13.1875 35.2969
Q13.1875 17.6719 17.3125 11.8281
Q21.4375 6 27.4844 6
Q33.5469 6 37.6719 11.8594
Q41.7969 17.7188 41.7969 35.2969
Q41.7969 52.9844 37.6719 58.7812
Q33.5469 64.5938 27.3906 64.5938
Q21.3438 64.5938 17.7188 59.4688
Q13.1875 52.9375 13.1875 35.2969" id="ArialMT-30"/>
      </defs>
      <g transform="translate(135.17625 401.389375)scale(0.12 -0.12)">
       <use xlink:href="#ArialMT-2212"/>
       <use x="58.3984375" xlink:href="#ArialMT-31"/>
       <use x="114.013671875" xlink:href="#ArialMT-2e"/>
       <use x="141.796875" xlink:href="#ArialMT-30"/>
      </g>
     </g>
    </g>
    <g id="xtick_3">
     <g id="line2d_6">
      <g>
       <use style="stroke:#000000;stroke-width:0.5;" x="220.8" xlink:href="#m93b0483c22" y="388.8"/>
      </g>
     </g>
     <g id="line2d_7">
      <g>
       <use style="stroke:#000000;stroke-width:0.5;" x="220.8" xlink:href="#m741efc42ff" y="43.2"/>
      </g>
     </g>
     <g id="text_3">
      <!-- −0.5 -->
      <g transform="translate(209.529375 401.389375)scale(0.12 -0.12)">
       <use xlink:href="#ArialMT-2212"/>
       <use x="58.3984375" xlink:href="#ArialMT-30"/>
       <use x="114.013671875" xlink:href="#ArialMT-2e"/>
       <use x="141.796875" xlink:href="#ArialMT-35"/>
      </g>
     </g>
    </g>
    <g id="xtick_4">
     <g id="line2d_8">
      <g>
       <use style="stroke:#000000;stroke-width:0.5;" x="295.2" xlink:href="#m93b0483c22" y="388.8"/>
      </g>
     </g>
     <g id="line2d_9">
      <g>
       <use style="stroke:#000000;stroke-width:0.5;" x="295.2" xlink:href="#m741efc42ff" y="43.2"/>
      </g>
     </g>
     <g id="text_4">
      <!-- 0.0 -->
      <g transform="translate(287.39625 401.389375)scale(0.12 -0.12)">
       <use xlink:href="#ArialMT-30"/>
       <use x="55.615234375" xlink:href="#ArialMT-2e"/>
       <use x="83.3984375" xlink:href="#ArialMT-30"/>
      </g>
     </g>
    </g>
    <g id="xtick_5">
     <g id="line2d_10">
      <g>
       <use style="stroke:#000000;stroke-width:0.5;" x="369.6" xlink:href="#m93b0483c22" y="388.8"/>
      </g>
     </g>
     <g id="line2d_11">
      <g>
       <use style="stroke:#000000;stroke-width:0.5;" x="369.6" xlink:href="#m741efc42ff" y="43.2"/>
      </g>
     </g>
     <g id="text_5">
      <!-- 0.5 -->
      <g transform="translate(361.749375 401.389375)scale(0.12 -0.12)">
       <use xlink:href="#ArialMT-30"/>
       <use x="55.615234375" xlink:href="#ArialMT-2e"/>
       <use x="83.3984375" xlink:href="#ArialMT-35"/>
      </g>
     </g>
    </g>
    <g id="xtick_6">
     <g id="line2d_12">
      <g>
       <use style="stroke:#000000;stroke-width:0.5;" x="444.0" xlink:href="#m93b0483c22" y="388.8"/>
      </g>
     </g>
     <g id="line2d_13">
      <g>
       <use style="stroke:#000000;stroke-width:0.5;" x="444.0" xlink:href="#m741efc42ff" y="43.2"/>
      </g>
     </g>
     <g id="text_6">
      <!-- 1.0 -->
      <g transform="translate(436.6003125 401.389375)scale(0.12 -0.12)">
       <use xlink:href="#ArialMT-31"/>
       <use x="55.615234375" xlink:href="#ArialMT-2e"/>
       <use x="83.3984375" xlink:href="#ArialMT-30"/>
      </g>
     </g>
    </g>
    <g id="xtick_7">
     <g id="line2d_14">
      <g>
       <use style="stroke:#000000;stroke-width:0.5;" x="518.4" xlink:href="#m93b0483c22" y="388.8"/>
      </g>
     </g>
     <g id="line2d_15">
      <g>
       <use style="stroke:#000000;stroke-width:0.5;" x="518.4" xlink:href="#m741efc42ff" y="43.2"/>
      </g>
     </g>
     <g id="text_7">
      <!-- 1.5 -->
      <g transform="translate(510.9534375 401.389375)scale(0.12 -0.12)">
       <use xlink:href="#ArialMT-31"/>
       <use x="55.615234375" xlink:href="#ArialMT-2e"/>
       <use x="83.3984375" xlink:href="#ArialMT-35"/>
      </g>
     </g>
    </g>
   </g>
   <g id="matplotlib.axis_2">
    <g id="ytick_1">
     <g id="line2d_16">
      <defs>
       <path d="
M0 0
L4 0" id="m728421d6d4" style="stroke:#000000;stroke-width:0.5;"/>
      </defs>
      <g>
       <use style="stroke:#000000;stroke-width:0.5;" x="72.0" xlink:href="#m728421d6d4" y="388.8"/>
      </g>
     </g>
     <g id="line2d_17">
      <defs>
       <path d="
M0 0
L-4 0" id="mcb0005524f" style="stroke:#000000;stroke-width:0.5;"/>
      </defs>
      <g>
       <use style="stroke:#000000;stroke-width:0.5;" x="518.4" xlink:href="#mcb0005524f" y="388.8"/>
      </g>
     </g>
     <g id="text_8">
      <!-- 0.0 -->
      <g transform="translate(52.3925 391.9021875)scale(0.12 -0.12)">
       <use xlink:href="#ArialMT-30"/>
       <use x="55.615234375" xlink:href="#ArialMT-2e"/>
       <use x="83.3984375" xlink:href="#ArialMT-30"/>
      </g>
     </g>
    </g>
    <g id="ytick_2">
     <g id="line2d_18">
      <g>
       <use style="stroke:#000000;stroke-width:0.5;" x="72.0" xlink:href="#m728421d6d4" y="319.68"/>
      </g>
     </g>
     <g id="line2d_19">
      <g>
       <use style="stroke:#000000;stroke-width:0.5;" x="518.4" xlink:href="#mcb0005524f" y="319.68"/>
      </g>
     </g>
     <g id="text_9">
      <!-- 0.5 -->
      <g transform="translate(52.29875 322.7821875)scale(0.12 -0.12)">
       <use xlink:href="#ArialMT-30"/>
       <use x="55.615234375" xlink:href="#ArialMT-2e"/>
       <use x="83.3984375" xlink:href="#ArialMT-35"/>
      </g>
     </g>
    </g>
    <g id="ytick_3">
     <g id="line2d_20">
      <g>
       <use style="stroke:#000000;stroke-width:0.5;" x="72.0" xlink:href="#m728421d6d4" y="250.56"/>
      </g>
     </g>
     <g id="line2d_21">
      <g>
       <use style="stroke:#000000;stroke-width:0.5;" x="518.4" xlink:href="#mcb0005524f" y="250.56"/>
      </g>
     </g>
     <g id="text_10">
      <!-- 1.0 -->
      <g transform="translate(53.200625 253.6621875)scale(0.12 -0.12)">
       <use xlink:href="#ArialMT-31"/>
       <use x="55.615234375" xlink:href="#ArialMT-2e"/>
       <use x="83.3984375" xlink:href="#ArialMT-30"/>
      </g>
     </g>
    </g>
    <g id="ytick_4">
     <g id="line2d_22">
      <g>
       <use style="stroke:#000000;stroke-width:0.5;" x="72.0" xlink:href="#m728421d6d4" y="181.44"/>
      </g>
     </g>
     <g id="line2d_23">
      <g>
       <use style="stroke:#000000;stroke-width:0.5;" x="518.4" xlink:href="#mcb0005524f" y="181.44"/>
      </g>
     </g>
     <g id="text_11">
      <!-- 1.5 -->
      <g transform="translate(53.106875 184.5421875)scale(0.12 -0.12)">
       <use xlink:href="#ArialMT-31"/>
       <use x="55.615234375" xlink:href="#ArialMT-2e"/>
       <use x="83.3984375" xlink:href="#ArialMT-35"/>
      </g>
     </g>
    </g>
    <g id="ytick_5">
     <g id="line2d_24">
      <g>
       <use style="stroke:#000000;stroke-width:0.5;" x="72.0" xlink:href="#m728421d6d4" y="112.32"/>
      </g>
     </g>
     <g id="line2d_25">
      <g>
       <use style="stroke:#000000;stroke-width:0.5;" x="518.4" xlink:href="#mcb0005524f" y="112.32"/>
      </g>
     </g>
     <g id="text_12">
      <!-- 2.0 -->
      <defs>
       <path d="
M50.3438 8.45312
L50.3438 0
L3.03125 0
Q2.9375 3.17188 4.04688 6.10938
Q5.85938 10.9375 9.82812 15.625
Q13.8125 20.3125 21.3438 26.4688
Q33.0156 36.0312 37.1094 41.625
Q41.2188 47.2188 41.2188 52.2031
Q41.2188 57.4219 37.4688 61
Q33.7344 64.5938 27.7344 64.5938
Q21.3906 64.5938 17.5781 60.7812
Q13.7656 56.9844 13.7188 50.25
L4.6875 51.1719
Q5.60938 61.2812 11.6562 66.5781
Q17.7188 71.875 27.9375 71.875
Q38.2344 71.875 44.2344 66.1562
Q50.25 60.4531 50.25 52
Q50.25 47.7031 48.4844 43.5469
Q46.7344 39.4062 42.6562 34.8125
Q38.5781 30.2188 29.1094 22.2188
Q21.1875 15.5781 18.9375 13.2031
Q16.7031 10.8438 15.2344 8.45312
z
" id="ArialMT-32"/>
      </defs>
      <g transform="translate(52.24625 115.4221875)scale(0.12 -0.12)">
       <use xlink:href="#ArialMT-32"/>
       <use x="55.615234375" xlink:href="#ArialMT-2e"/>
       <use x="83.3984375" xlink:href="#ArialMT-30"/>
      </g>
     </g>
    </g>
    <g id="ytick_6">
     <g id="line2d_26">
      <g>
       <use style="stroke:#000000;stroke-width:0.5;" x="72.0" xlink:href="#m728421d6d4" y="43.2"/>
      </g>
     </g>
     <g id="line2d_27">
      <g>
       <use style="stroke:#000000;stroke-width:0.5;" x="518.4" xlink:href="#mcb0005524f" y="43.2"/>
      </g>
     </g>
     <g id="text_13">
      <!-- 2.5 -->
      <g transform="translate(52.1525 46.3021875)scale(0.12 -0.12)">
       <use xlink:href="#ArialMT-32"/>
       <use x="55.615234375" xlink:href="#ArialMT-2e"/>
       <use x="83.3984375" xlink:href="#ArialMT-35"/>
      </g>
     </g>
    </g>
   </g>
   <g id="patch_3">
    <path d="
M72 43.2
L518.4 43.2" style="fill:none;stroke:#000000;"/>
   </g>
   <g id="patch_4">
    <path d="
M518.4 388.8
L518.4 43.2" style="fill:none;stroke:#000000;"/>
   </g>
   <g id="patch_5">
    <path d="
M72 388.8
L518.4 388.8" style="fill:none;stroke:#000000;"/>
   </g>
   <g id="patch_6">
    <path d="
M72 388.8
L72 43.2" style="fill:none;stroke:#000000;"/>
   </g>
  </g>
 </g>
 <defs>
  <clipPath id="p7ff5b81e1d">
   <rect height="345.6" width="446.4" x="72.0" y="43.2"/>
  </clipPath>
 </defs>
</svg>
