<?xml version="1.0" encoding="UTF-8" standalone="no"?>
<!-- Created with matplotlib (http://matplotlib.org/) -->

<svg
   xmlns:dc="http://purl.org/dc/elements/1.1/"
   xmlns:cc="http://creativecommons.org/ns#"
   xmlns:rdf="http://www.w3.org/1999/02/22-rdf-syntax-ns#"
   xmlns:svg="http://www.w3.org/2000/svg"
   xmlns="http://www.w3.org/2000/svg"
   xmlns:xlink="http://www.w3.org/1999/xlink"
   xmlns:sodipodi="http://sodipodi.sourceforge.net/DTD/sodipodi-0.dtd"
   xmlns:inkscape="http://www.inkscape.org/namespaces/inkscape"
   height="432pt"
   version="1.1"
   viewBox="0 0 576 432"
   width="576pt"
   id="svg2"
   inkscape:version="0.48.4 r9939"
   sodipodi:docname="geometrica.svg">
  <metadata
     id="metadata441">
    <rdf:RDF>
      <cc:Work
         rdf:about="">
        <dc:format>image/svg+xml</dc:format>
        <dc:type
           rdf:resource="http://purl.org/dc/dcmitype/StillImage" />
        <dc:title></dc:title>
      </cc:Work>
    </rdf:RDF>
  </metadata>
  <sodipodi:namedview
     pagecolor="#ffffff"
     bordercolor="#666666"
     borderopacity="1"
     objecttolerance="10"
     gridtolerance="10"
     guidetolerance="10"
     inkscape:pageopacity="0"
     inkscape:pageshadow="2"
     inkscape:window-width="1333"
     inkscape:window-height="744"
     id="namedview439"
     showgrid="false"
     inkscape:zoom="1.0351852"
     inkscape:cx="403.92837"
     inkscape:cy="423.42766"
     inkscape:window-x="33"
     inkscape:window-y="24"
     inkscape:window-maximized="1"
     inkscape:current-layer="svg2" />
  <defs
     id="defs4">
    <style
       type="text/css"
       id="style6">
*{stroke-linecap:butt;stroke-linejoin:round;}
  </style>
    <defs
       id="defs70">
      <path
         inkscape:connector-curvature="0"
         style="stroke:#000000;stroke-width:0.5;stroke-linecap:butt;stroke-linejoin:round"
         id="mf1e9a9e4ae"
         d="M 0,3 C 0.795609,3 1.55874,2.6839 2.12132,2.12132 2.6839,1.55874 3,0.795609 3,0 3,-0.795609 2.6839,-1.55874 2.12132,-2.12132 1.55874,-2.6839 0.795609,-3 0,-3 -0.795609,-3 -1.55874,-2.6839 -2.12132,-2.12132 -2.6839,-1.55874 -3,-0.795609 -3,0 -3,0.795609 -2.6839,1.55874 -2.12132,2.12132 -1.55874,2.6839 -0.795609,3 0,3 z" />
    </defs>
    <defs
       id="defs17">
      <path
         style="stroke-linecap:butt;stroke-linejoin:round"
         inkscape:connector-curvature="0"
         id="C0_0_9bba96957a"
         d="m 72,-43.2 0,0" />
      <path
         style="stroke-linecap:butt;stroke-linejoin:round"
         inkscape:connector-curvature="0"
         id="C0_1_bf750ebb37"
         d="m 121.6,-43.2 0,-345.6" />
      <path
         style="stroke-linecap:butt;stroke-linejoin:round"
         inkscape:connector-curvature="0"
         id="C0_2_3e1ae623d4"
         d="m 171.2,-43.2 0,-172.8" />
      <path
         style="stroke-linecap:butt;stroke-linejoin:round"
         inkscape:connector-curvature="0"
         id="C0_3_54ebc5537c"
         d="m 220.8,-43.2 0,-86.4" />
      <path
         style="stroke-linecap:butt;stroke-linejoin:round"
         inkscape:connector-curvature="0"
         id="C0_4_2140e000c7"
         d="m 270.4,-43.2 0,-43.2" />
      <path
         style="stroke-linecap:butt;stroke-linejoin:round"
         inkscape:connector-curvature="0"
         id="C0_5_8791741df9"
         d="m 320,-43.2 0,-21.6" />
      <path
         style="stroke-linecap:butt;stroke-linejoin:round"
         inkscape:connector-curvature="0"
         id="C0_6_e50b7c1ced"
         d="m 369.6,-43.2 0,-10.8" />
      <path
         style="stroke-linecap:butt;stroke-linejoin:round"
         inkscape:connector-curvature="0"
         id="C0_7_cdc4d84bb6"
         d="m 419.2,-43.2 0,-5.4" />
      <path
         style="stroke-linecap:butt;stroke-linejoin:round"
         inkscape:connector-curvature="0"
         id="C0_8_9673da0b62"
         d="m 468.8,-43.2 0,-2.7" />
      <path
         style="stroke-linecap:butt;stroke-linejoin:round"
         inkscape:connector-curvature="0"
         id="C0_9_0cfe437a58"
         d="m 518.4,-43.2 0,-1.35" />
    </defs>
  </defs>
  <g
     style="stroke-linecap:butt;stroke-linejoin:round"
     id="g29"
     clip-path="url(#p7ff5b81e1d)">
    <use
       height="432"
       width="576"
       id="use31"
       y="432"
       xlink:href="#C0_0_9bba96957a"
       x="0"
       style="fill:none;stroke:#000000;stroke-linecap:butt;stroke-linejoin:round" />
  </g>
  <g
     style="stroke:#0066cc;stroke-width:1.60000002;stroke-linecap:butt;stroke-linejoin:round;stroke-miterlimit:4;stroke-opacity:1;stroke-dasharray:none"
     id="g33"
     clip-path="url(#p7ff5b81e1d)">
    <use
       height="432"
       width="576"
       id="use35"
       y="432"
       xlink:href="#C0_1_bf750ebb37"
       x="0"
       style="fill:none;stroke:#0066cc;stroke-width:1.60000002;stroke-linecap:butt;stroke-linejoin:round;stroke-miterlimit:4;stroke-opacity:1;stroke-dasharray:none" />
  </g>
  <g
     style="stroke-linecap:butt;stroke-linejoin:round;stroke:#0066cc;stroke-opacity:1;stroke-width:1.6;stroke-miterlimit:4;stroke-dasharray:none"
     id="g37"
     clip-path="url(#p7ff5b81e1d)">
    <use
       height="432"
       width="576"
       id="use39"
       y="432"
       xlink:href="#C0_2_3e1ae623d4"
       x="0"
       style="fill:none;stroke:#0066cc;stroke-linecap:butt;stroke-linejoin:round;stroke-opacity:1;stroke-width:1.6;stroke-miterlimit:4;stroke-dasharray:none" />
  </g>
  <g
     style="stroke-linecap:butt;stroke-linejoin:round;stroke:#0066cc;stroke-opacity:1;stroke-width:1.6;stroke-miterlimit:4;stroke-dasharray:none"
     id="g41"
     clip-path="url(#p7ff5b81e1d)">
    <use
       height="432"
       width="576"
       id="use43"
       y="432"
       xlink:href="#C0_3_54ebc5537c"
       x="0"
       style="fill:none;stroke:#0066cc;stroke-linecap:butt;stroke-linejoin:round;stroke-opacity:1;stroke-width:1.6;stroke-miterlimit:4;stroke-dasharray:none" />
  </g>
  <g
     style="stroke-linecap:butt;stroke-linejoin:round;stroke:#0066cc;stroke-opacity:1;stroke-width:1.6;stroke-miterlimit:4;stroke-dasharray:none"
     id="g45"
     clip-path="url(#p7ff5b81e1d)">
    <use
       height="432"
       width="576"
       id="use47"
       y="432"
       xlink:href="#C0_4_2140e000c7"
       x="0"
       style="fill:none;stroke:#0066cc;stroke-linecap:butt;stroke-linejoin:round;stroke-opacity:1;stroke-width:1.6;stroke-miterlimit:4;stroke-dasharray:none" />
  </g>
  <g
     style="stroke-linecap:butt;stroke-linejoin:round"
     id="xtick_6">
    <g
       style="stroke-linecap:butt;stroke-linejoin:round"
       id="line2d_12">
      <g
         style="stroke-linecap:butt;stroke-linejoin:round"
         id="g199">
        <use
           height="432"
           width="576"
           id="use201"
           y="388.79999"
           xlink:href="#m93b0483c22"
           x="320"
           style="stroke:#000000;stroke-width:0.5;stroke-linecap:butt;stroke-linejoin:round" />
      </g>
    </g>
    <g
       style="stroke-linecap:butt;stroke-linejoin:round"
       id="line2d_13">
      <g
         style="stroke-linecap:butt;stroke-linejoin:round"
         id="g204">
        <use
           height="432"
           width="576"
           id="use206"
           y="43.200001"
           xlink:href="#m741efc42ff"
           x="320"
           style="stroke:#000000;stroke-width:0.5;stroke-linecap:butt;stroke-linejoin:round" />
      </g>
    </g>
    <g
       style="stroke-linecap:butt;stroke-linejoin:round"
       id="text_6">
      <!-- 5 -->
      <defs
         id="defs209">
        <path
           style="stroke-linecap:butt;stroke-linejoin:round"
           inkscape:connector-curvature="0"
           id="ArialMT-35"
           d="M 4.15625,18.75 13.375,19.5312 Q 14.4062,12.7969 18.1406,9.39062 21.875,6 27.1562,6 33.5,6 37.8906,10.7812 q 4.3906,4.7969 4.3906,12.7032 0,7.5156 -4.2187,11.8594 -4.2187,4.3593 -11.0625,4.3593 -4.25,0 -7.6719,-1.9375 -3.4062,-1.9218 -5.3593,-5 l -8.25005,1.0782 6.92185,36.7656 35.6094,0 0,-8.4063 -28.5781,0 -3.8438,-19.2343 q 6.4375,4.5 13.5157,4.5 9.375,0 15.8124,-6.5 6.4532,-6.5 6.4532,-16.7032 0,-9.7187 -5.6563,-16.79685 -6.8906,-8.6875 -18.7969,-8.6875 -9.7656,0 -15.9531,5.46875 -6.17185,5.46875 -7.04685,14.5" />
      </defs>
      <g
         style="stroke-linecap:butt;stroke-linejoin:round"
         id="g212"
         transform="matrix(0.12,0,0,-0.12,317.15281,401.38937)">
        <use
           height="432"
           width="576"
           y="0"
           x="0"
           style="stroke-linecap:butt;stroke-linejoin:round"
           id="use214"
           xlink:href="#ArialMT-35" />
      </g>
    </g>
  </g>
  <g
     style="stroke-linecap:butt;stroke-linejoin:round;stroke:#0066cc;stroke-opacity:1;stroke-width:1.6;stroke-miterlimit:4;stroke-dasharray:none"
     id="g49"
     clip-path="url(#p7ff5b81e1d)">
    <use
       height="432"
       width="576"
       id="use51"
       y="432"
       xlink:href="#C0_5_8791741df9"
       x="0"
       style="fill:none;stroke:#0066cc;stroke-linecap:butt;stroke-linejoin:round;stroke-opacity:1;stroke-width:1.6;stroke-miterlimit:4;stroke-dasharray:none" />
  </g>
  <g
     style="stroke-linecap:butt;stroke-linejoin:round"
     id="xtick_7">
    <g
       style="stroke-linecap:butt;stroke-linejoin:round"
       id="line2d_14">
      <g
         style="stroke-linecap:butt;stroke-linejoin:round"
         id="g218">
        <use
           height="432"
           width="576"
           id="use220"
           y="388.79999"
           xlink:href="#m93b0483c22"
           x="369.60001"
           style="stroke:#000000;stroke-width:0.5;stroke-linecap:butt;stroke-linejoin:round" />
      </g>
    </g>
    <g
       style="stroke-linecap:butt;stroke-linejoin:round"
       id="line2d_15">
      <g
         style="stroke-linecap:butt;stroke-linejoin:round"
         id="g223">
        <use
           height="432"
           width="576"
           id="use225"
           y="43.200001"
           xlink:href="#m741efc42ff"
           x="369.60001"
           style="stroke:#000000;stroke-width:0.5;stroke-linecap:butt;stroke-linejoin:round" />
      </g>
    </g>
    <g
       style="stroke-linecap:butt;stroke-linejoin:round"
       id="text_7">
      <!-- 6 -->
      <defs
         id="defs228">
        <path
           style="stroke-linecap:butt;stroke-linejoin:round"
           inkscape:connector-curvature="0"
           id="ArialMT-36"
           d="M 49.75,54.0469 41.0156,53.375 q -1.1718,5.1719 -3.3125,7.5156 -3.5781,3.7656 -8.7969,3.7656 -4.2031,0 -7.375,-2.3437 -4.1406,-3.0313 -6.5468,-8.8437 -2.3906,-5.8126 -2.4844,-16.5469 3.1719,4.8281 7.7656,7.1719 4.5938,2.3437 9.625,2.3437 8.7813,0 14.9532,-6.4687 Q 51.0312,33.5 51.0312,23.25 51.0312,16.5 48.125,10.7188 45.2188,4.9375 40.1406,1.85938 35.0625,-1.21875 28.6094,-1.21875 17.625,-1.21875 10.6875,6.85938 3.76562,14.9375 3.76562,33.5 q 0,20.75 7.65628,30.1719 6.6875,8.2031 18.0156,8.2031 8.4531,0 13.8437,-4.7344 5.4063,-4.7344 6.4688,-13.0937 M 13.875,23.1875 q 0,-4.5313 1.9219,-8.6875 1.9219,-4.1406 5.3906,-6.32812 Q 24.6562,6 28.4688,6 q 5.5624,0 9.5624,4.4844 4.0157,4.5 4.0157,12.2187 0,7.4219 -3.9688,11.6875 -3.9531,4.2813 -9.9531,4.2813 -5.9531,0 -10.1094,-4.2813 Q 13.875,30.125 13.875,23.1875" />
      </defs>
      <g
         style="stroke-linecap:butt;stroke-linejoin:round"
         id="g231"
         transform="matrix(0.12,0,0,-0.12,366.76406,401.38937)">
        <use
           height="432"
           width="576"
           y="0"
           x="0"
           style="stroke-linecap:butt;stroke-linejoin:round"
           id="use233"
           xlink:href="#ArialMT-36" />
      </g>
    </g>
  </g>
  <g
     style="stroke-linecap:butt;stroke-linejoin:round;stroke:#0066cc;stroke-opacity:1;stroke-width:1.6;stroke-miterlimit:4;stroke-dasharray:none"
     id="g53"
     clip-path="url(#p7ff5b81e1d)">
    <use
       height="432"
       width="576"
       id="use55"
       y="432"
       xlink:href="#C0_6_e50b7c1ced"
       x="0"
       style="fill:none;stroke:#0066cc;stroke-linecap:butt;stroke-linejoin:round;stroke-opacity:1;stroke-width:1.6;stroke-miterlimit:4;stroke-dasharray:none" />
  </g>
  <g
     style="stroke-linecap:butt;stroke-linejoin:round"
     id="xtick_8">
    <g
       style="stroke-linecap:butt;stroke-linejoin:round"
       id="line2d_16">
      <g
         style="stroke-linecap:butt;stroke-linejoin:round"
         id="g237">
        <use
           height="432"
           width="576"
           id="use239"
           y="388.79999"
           xlink:href="#m93b0483c22"
           x="419.20001"
           style="stroke:#000000;stroke-width:0.5;stroke-linecap:butt;stroke-linejoin:round" />
      </g>
    </g>
    <g
       style="stroke-linecap:butt;stroke-linejoin:round"
       id="line2d_17">
      <g
         style="stroke-linecap:butt;stroke-linejoin:round"
         id="g242">
        <use
           height="432"
           width="576"
           id="use244"
           y="43.200001"
           xlink:href="#m741efc42ff"
           x="419.20001"
           style="stroke:#000000;stroke-width:0.5;stroke-linecap:butt;stroke-linejoin:round" />
      </g>
    </g>
    <g
       style="stroke-linecap:butt;stroke-linejoin:round"
       id="text_8">
      <!-- 7 -->
      <defs
         id="defs247">
        <path
           style="stroke-linecap:butt;stroke-linejoin:round"
           inkscape:connector-curvature="0"
           id="ArialMT-37"
           d="m 4.73438,62.2031 0,8.4531 46.34372,0 0,-6.8437 Q 44.2344,56.5469 37.5156,44.4844 30.8125,32.4219 27.1562,19.6719 24.5156,10.6875 23.7812,0 L 14.75,0 q 0.1406,8.45312 3.3125,20.4062 3.1719,11.9688 9.1094,23.0782 5.9375,11.1094 12.625,18.7187 z" />
      </defs>
      <g
         style="stroke-linecap:butt;stroke-linejoin:round"
         id="g250"
         transform="matrix(0.12,0,0,-0.12,416.41937,401.38937)">
        <use
           height="432"
           width="576"
           y="0"
           x="0"
           style="stroke-linecap:butt;stroke-linejoin:round"
           id="use252"
           xlink:href="#ArialMT-37" />
      </g>
    </g>
  </g>
  <g
     style="stroke-linecap:butt;stroke-linejoin:round;stroke:#0066cc;stroke-opacity:1;stroke-width:1.6;stroke-miterlimit:4;stroke-dasharray:none"
     id="g57"
     clip-path="url(#p7ff5b81e1d)">
    <use
       height="432"
       width="576"
       id="use59"
       y="432"
       xlink:href="#C0_7_cdc4d84bb6"
       x="0"
       style="fill:none;stroke:#0066cc;stroke-linecap:butt;stroke-linejoin:round;stroke-opacity:1;stroke-width:1.6;stroke-miterlimit:4;stroke-dasharray:none" />
  </g>
  <g
     style="stroke-linecap:butt;stroke-linejoin:round"
     id="g61"
     clip-path="url(#p7ff5b81e1d)">
    <use
       height="432"
       width="576"
       id="use63"
       y="432"
       xlink:href="#C0_8_9673da0b62"
       x="0"
       style="fill:none;stroke:#000000;stroke-linecap:butt;stroke-linejoin:round" />
  </g>
  <g
     style="stroke-linecap:butt;stroke-linejoin:round"
     id="g65"
     clip-path="url(#p7ff5b81e1d)">
    <use
       height="432"
       width="576"
       id="use67"
       y="432"
       xlink:href="#C0_9_0cfe437a58"
       x="0"
       style="fill:none;stroke:#000000;stroke-linecap:butt;stroke-linejoin:round" />
  </g>
  <g
     style="stroke-linecap:butt;stroke-linejoin:round"
     id="g73"
     clip-path="url(#p7ff5b81e1d)">
    <use
       height="432"
       width="576"
       id="use75"
       y="388.79999"
       xlink:href="#mf1e9a9e4ae"
       x="72"
       style="fill:#0000ff;stroke:#000000;stroke-width:0.5;stroke-linecap:butt;stroke-linejoin:round" />
    <use
       height="432"
       width="576"
       id="use77"
       y="43.200001"
       xlink:href="#mf1e9a9e4ae"
       x="121.6"
       style="fill:#0000ff;stroke:#000000;stroke-width:0.5;stroke-linecap:butt;stroke-linejoin:round" />
    <use
       height="432"
       width="576"
       id="use79"
       y="216"
       xlink:href="#mf1e9a9e4ae"
       x="171.2"
       style="fill:#0000ff;stroke:#000000;stroke-width:0.5;stroke-linecap:butt;stroke-linejoin:round" />
    <use
       height="432"
       width="576"
       id="use81"
       y="302.39999"
       xlink:href="#mf1e9a9e4ae"
       x="220.8"
       style="fill:#0000ff;stroke:#000000;stroke-width:0.5;stroke-linecap:butt;stroke-linejoin:round" />
    <use
       height="432"
       width="576"
       id="use83"
       y="345.60001"
       xlink:href="#mf1e9a9e4ae"
       x="270.39999"
       style="fill:#0000ff;stroke:#000000;stroke-width:0.5;stroke-linecap:butt;stroke-linejoin:round" />
    <use
       height="432"
       width="576"
       id="use85"
       y="367.20001"
       xlink:href="#mf1e9a9e4ae"
       x="320"
       style="fill:#0000ff;stroke:#000000;stroke-width:0.5;stroke-linecap:butt;stroke-linejoin:round" />
    <use
       height="432"
       width="576"
       id="use87"
       y="378"
       xlink:href="#mf1e9a9e4ae"
       x="369.60001"
       style="fill:#0000ff;stroke:#000000;stroke-width:0.5;stroke-linecap:butt;stroke-linejoin:round" />
    <use
       height="432"
       width="576"
       id="use89"
       y="383.39999"
       xlink:href="#mf1e9a9e4ae"
       x="419.20001"
       style="fill:#0000ff;stroke:#000000;stroke-width:0.5;stroke-linecap:butt;stroke-linejoin:round" />
    <use
       height="432"
       width="576"
       id="use91"
       y="386.10001"
       xlink:href="#mf1e9a9e4ae"
       x="468.79999"
       style="fill:#0000ff;stroke:#000000;stroke-width:0.5;stroke-linecap:butt;stroke-linejoin:round" />
    <use
       height="432"
       width="576"
       id="use93"
       y="387.45001"
       xlink:href="#mf1e9a9e4ae"
       x="518.40002"
       style="fill:#0000ff;stroke:#000000;stroke-width:0.5;stroke-linecap:butt;stroke-linejoin:round" />
  </g>
  <g
     style="stroke-linecap:butt;stroke-linejoin:round"
     id="xtick_1">
    <g
       style="stroke-linecap:butt;stroke-linejoin:round"
       id="line2d_2">
      <defs
         id="defs98">
        <path
           inkscape:connector-curvature="0"
           style="stroke:#000000;stroke-width:0.5;stroke-linecap:butt;stroke-linejoin:round"
           id="m93b0483c22"
           d="M 0,0 0,-4" />
      </defs>
      <g
         style="stroke-linecap:butt;stroke-linejoin:round"
         id="g101">
        <use
           height="432"
           width="576"
           id="use103"
           y="388.79999"
           xlink:href="#m93b0483c22"
           x="72"
           style="stroke:#000000;stroke-width:0.5;stroke-linecap:butt;stroke-linejoin:round" />
      </g>
    </g>
    <g
       style="stroke-linecap:butt;stroke-linejoin:round"
       id="line2d_3">
      <defs
         id="defs106">
        <path
           inkscape:connector-curvature="0"
           style="stroke:#000000;stroke-width:0.5;stroke-linecap:butt;stroke-linejoin:round"
           id="m741efc42ff"
           d="M 0,0 0,4" />
      </defs>
      <g
         style="stroke-linecap:butt;stroke-linejoin:round"
         id="g109">
        <use
           height="432"
           width="576"
           id="use111"
           y="43.200001"
           xlink:href="#m741efc42ff"
           x="72"
           style="stroke:#000000;stroke-width:0.5;stroke-linecap:butt;stroke-linejoin:round" />
      </g>
    </g>
    <g
       style="stroke-linecap:butt;stroke-linejoin:round"
       id="text_1">
      <!-- 0 -->
      <defs
         id="defs114">
        <path
           style="stroke-linecap:butt;stroke-linejoin:round"
           inkscape:connector-curvature="0"
           id="ArialMT-30"
           d="m 4.15625,35.2969 q 0,12.7031 2.60937,20.4375 2.60938,7.75 7.74998,11.9375 5.1563,4.2031 12.9688,4.2031 5.7656,0 10.1094,-2.3281 4.3437,-2.3125 7.1718,-6.6875 2.8438,-4.3594 4.4532,-10.6406 1.6093,-6.2657 1.6093,-16.9219 0,-12.5938 -2.5937,-20.3281 Q 45.6562,7.23438 40.5,3 35.3594,-1.21875 27.4844,-1.21875 q -10.3438,0 -16.25,7.42187 Q 4.15625,15.1406 4.15625,35.2969 m 9.03125,0 q 0,-17.625 4.125,-23.4688 Q 21.4375,6 27.4844,6 q 6.0625,0 10.1875,5.8594 4.125,5.8594 4.125,23.4375 0,17.6875 -4.125,23.4843 -4.125,5.8126 -10.2813,5.8126 -6.0468,0 -9.6718,-5.125 -4.5313,-6.5313 -4.5313,-24.1719" />
      </defs>
      <g
         style="stroke-linecap:butt;stroke-linejoin:round"
         id="g117"
         transform="matrix(0.12,0,0,-0.12,69.199687,401.38937)">
        <use
           height="432"
           width="576"
           y="0"
           x="0"
           style="stroke-linecap:butt;stroke-linejoin:round"
           id="use119"
           xlink:href="#ArialMT-30" />
      </g>
    </g>
  </g>
  <g
     style="stroke-linecap:butt;stroke-linejoin:round"
     id="xtick_2">
    <g
       style="stroke-linecap:butt;stroke-linejoin:round"
       id="line2d_4">
      <g
         style="stroke-linecap:butt;stroke-linejoin:round"
         id="g123">
        <use
           height="432"
           width="576"
           id="use125"
           y="388.79999"
           xlink:href="#m93b0483c22"
           x="121.6"
           style="stroke:#000000;stroke-width:0.5;stroke-linecap:butt;stroke-linejoin:round" />
      </g>
    </g>
    <g
       style="stroke-linecap:butt;stroke-linejoin:round"
       id="line2d_5">
      <g
         style="stroke-linecap:butt;stroke-linejoin:round"
         id="g128">
        <use
           height="432"
           width="576"
           id="use130"
           y="43.200001"
           xlink:href="#m741efc42ff"
           x="121.6"
           style="stroke:#000000;stroke-width:0.5;stroke-linecap:butt;stroke-linejoin:round" />
      </g>
    </g>
    <g
       style="stroke-linecap:butt;stroke-linejoin:round"
       id="text_2">
      <!-- 1 -->
      <defs
         id="defs133">
        <path
           style="stroke-linecap:butt;stroke-linejoin:round"
           inkscape:connector-curvature="0"
           id="ArialMT-31"
           d="m 37.25,0 -8.7812,0 0,56 q -3.1719,-3.0156 -8.3282,-6.0469 -5.1562,-3.0312 -9.25,-4.5469 l 0,8.5 q 7.375,3.4688 12.8906,8.3907 5.5157,4.9375 7.8126,9.5781 l 5.6562,0 z" />
      </defs>
      <g
         style="stroke-linecap:butt;stroke-linejoin:round"
         id="g136"
         transform="matrix(0.12,0,0,-0.12,120.01844,401.38937)">
        <use
           height="432"
           width="576"
           y="0"
           x="0"
           style="stroke-linecap:butt;stroke-linejoin:round"
           id="use138"
           xlink:href="#ArialMT-31" />
      </g>
    </g>
  </g>
  <g
     style="stroke-linecap:butt;stroke-linejoin:round"
     id="xtick_3">
    <g
       style="stroke-linecap:butt;stroke-linejoin:round"
       id="line2d_6">
      <g
         style="stroke-linecap:butt;stroke-linejoin:round"
         id="g142">
        <use
           height="432"
           width="576"
           id="use144"
           y="388.79999"
           xlink:href="#m93b0483c22"
           x="171.2"
           style="stroke:#000000;stroke-width:0.5;stroke-linecap:butt;stroke-linejoin:round" />
      </g>
    </g>
    <g
       style="stroke-linecap:butt;stroke-linejoin:round"
       id="line2d_7">
      <g
         style="stroke-linecap:butt;stroke-linejoin:round"
         id="g147">
        <use
           height="432"
           width="576"
           id="use149"
           y="43.200001"
           xlink:href="#m741efc42ff"
           x="171.2"
           style="stroke:#000000;stroke-width:0.5;stroke-linecap:butt;stroke-linejoin:round" />
      </g>
    </g>
    <g
       style="stroke-linecap:butt;stroke-linejoin:round"
       id="text_3">
      <!-- 2 -->
      <defs
         id="defs152">
        <path
           style="stroke-linecap:butt;stroke-linejoin:round"
           inkscape:connector-curvature="0"
           id="ArialMT-32"
           d="M 50.3438,8.45312 50.3438,0 3.03125,0 q -0.09375,3.17188 1.01563,6.10938 1.8125,4.82812 5.78124,9.51562 3.98438,4.6875 11.51568,10.8438 11.6718,9.5624 15.7656,15.1562 4.1094,5.5938 4.1094,10.5781 0,5.2188 -3.75,8.7969 -3.7344,3.5938 -9.7344,3.5938 -6.3438,0 -10.1563,-3.8126 Q 13.7656,56.9844 13.7188,50.25 l -9.0313,0.9219 q 0.92188,10.1093 6.9687,15.4062 6.0626,5.2969 16.2813,5.2969 10.2969,0 16.2969,-5.7188 Q 50.25,60.4531 50.25,52 q 0,-4.2969 -1.7656,-8.4531 -1.75,-4.1407 -5.8282,-8.7344 Q 38.5781,30.2188 29.1094,22.2188 21.1875,15.5781 18.9375,13.2031 16.7031,10.8438 15.2344,8.45312 z" />
      </defs>
      <g
         style="stroke-linecap:butt;stroke-linejoin:round"
         id="g155"
         transform="matrix(0.12,0,0,-0.12,168.35562,401.38937)">
        <use
           height="432"
           width="576"
           y="0"
           x="0"
           style="stroke-linecap:butt;stroke-linejoin:round"
           id="use157"
           xlink:href="#ArialMT-32" />
      </g>
    </g>
  </g>
  <g
     style="stroke-linecap:butt;stroke-linejoin:round"
     id="xtick_4">
    <g
       style="stroke-linecap:butt;stroke-linejoin:round"
       id="line2d_8">
      <g
         style="stroke-linecap:butt;stroke-linejoin:round"
         id="g161">
        <use
           height="432"
           width="576"
           id="use163"
           y="388.79999"
           xlink:href="#m93b0483c22"
           x="220.8"
           style="stroke:#000000;stroke-width:0.5;stroke-linecap:butt;stroke-linejoin:round" />
      </g>
    </g>
    <g
       style="stroke-linecap:butt;stroke-linejoin:round"
       id="line2d_9">
      <g
         style="stroke-linecap:butt;stroke-linejoin:round"
         id="g166">
        <use
           height="432"
           width="576"
           id="use168"
           y="43.200001"
           xlink:href="#m741efc42ff"
           x="220.8"
           style="stroke:#000000;stroke-width:0.5;stroke-linecap:butt;stroke-linejoin:round" />
      </g>
    </g>
    <g
       style="stroke-linecap:butt;stroke-linejoin:round"
       id="text_4">
      <!-- 3 -->
      <defs
         id="defs171">
        <path
           style="stroke-linecap:butt;stroke-linejoin:round"
           inkscape:connector-curvature="0"
           id="ArialMT-33"
           d="m 4.20312,18.8906 8.78128,1.1719 Q 14.5,12.5938 18.1406,9.29688 21.7812,6 27,6 q 6.2031,0 10.4688,4.2969 4.2812,4.2969 4.2812,10.6562 0,6.0469 -3.9531,9.9688 -3.9531,3.9375 -10.0625,3.9375 -2.4844,0 -6.2032,-0.9688 l 0.9844,7.7188 Q 23.3906,41.5 23.9219,41.5 q 5.625,0 10.1093,2.9219 4.5,2.9375 4.5,9.0469 0,4.8281 -3.2812,8 -3.2656,3.1874 -8.4375,3.1874 -5.125,0 -8.5469,-3.2343 -3.4218,-3.2188 -4.3906,-9.6563 l -8.79688,1.5625 q 1.60938,8.8281 7.31248,13.6875 5.7188,4.8594 14.2188,4.8594 5.8594,0 10.7812,-2.5156 4.9375,-2.5156 7.5469,-6.8594 2.625,-4.3438 2.625,-9.2344 0,-4.625 -2.5,-8.4375 -2.4844,-3.8125 -7.3594,-6.0625 6.3438,-1.4531 9.8594,-6.0781 3.5156,-4.6094 3.5156,-11.5469 0,-9.375 -6.8437,-15.8906 -6.8282,-6.51562 -17.2813,-6.51562 -9.4219,0 -15.6562,5.60937 -6.21878,5.625 -7.09378,14.54685" />
      </defs>
      <g
         style="stroke-linecap:butt;stroke-linejoin:round"
         id="g174"
         transform="matrix(0.12,0,0,-0.12,217.9875,401.38937)">
        <use
           height="432"
           width="576"
           y="0"
           x="0"
           style="stroke-linecap:butt;stroke-linejoin:round"
           id="use176"
           xlink:href="#ArialMT-33" />
      </g>
    </g>
  </g>
  <g
     style="stroke-linecap:butt;stroke-linejoin:round"
     id="xtick_5">
    <g
       style="stroke-linecap:butt;stroke-linejoin:round"
       id="line2d_10">
      <g
         style="stroke-linecap:butt;stroke-linejoin:round"
         id="g180">
        <use
           height="432"
           width="576"
           id="use182"
           y="388.79999"
           xlink:href="#m93b0483c22"
           x="270.39999"
           style="stroke:#000000;stroke-width:0.5;stroke-linecap:butt;stroke-linejoin:round" />
      </g>
    </g>
    <g
       style="stroke-linecap:butt;stroke-linejoin:round"
       id="line2d_11">
      <g
         style="stroke-linecap:butt;stroke-linejoin:round"
         id="g185">
        <use
           height="432"
           width="576"
           id="use187"
           y="43.200001"
           xlink:href="#m741efc42ff"
           x="270.39999"
           style="stroke:#000000;stroke-width:0.5;stroke-linecap:butt;stroke-linejoin:round" />
      </g>
    </g>
    <g
       style="stroke-linecap:butt;stroke-linejoin:round"
       id="text_5">
      <!-- 4 -->
      <defs
         id="defs190">
        <path
           style="stroke-linecap:butt;stroke-linejoin:round"
           inkscape:connector-curvature="0"
           id="ArialMT-34"
           d="m 32.3281,0 0,17.1406 -31.06248,0 0,8.0625 32.67188,46.375 7.1719,0 0,-46.375 9.6718,0 0,-8.0625 -9.6718,0 0,-17.1406 z m 0,25.2031 0,32.2657 L 9.90625,25.2031 z" />
      </defs>
      <g
         style="stroke-linecap:butt;stroke-linejoin:round"
         id="g193"
         transform="matrix(0.12,0,0,-0.12,267.42906,401.38937)">
        <use
           height="432"
           width="576"
           y="0"
           x="0"
           style="stroke-linecap:butt;stroke-linejoin:round"
           id="use195"
           xlink:href="#ArialMT-34" />
      </g>
    </g>
  </g>
  <g
     style="stroke-linecap:butt;stroke-linejoin:round"
     id="xtick_9">
    <g
       style="stroke-linecap:butt;stroke-linejoin:round"
       id="line2d_18">
      <g
         style="stroke-linecap:butt;stroke-linejoin:round"
         id="g256">
        <use
           height="432"
           width="576"
           id="use258"
           y="388.79999"
           xlink:href="#m93b0483c22"
           x="468.79999"
           style="stroke:#000000;stroke-width:0.5;stroke-linecap:butt;stroke-linejoin:round" />
      </g>
    </g>
    <g
       style="stroke-linecap:butt;stroke-linejoin:round"
       id="line2d_19">
      <g
         style="stroke-linecap:butt;stroke-linejoin:round"
         id="g261">
        <use
           height="432"
           width="576"
           id="use263"
           y="43.200001"
           xlink:href="#m741efc42ff"
           x="468.79999"
           style="stroke:#000000;stroke-width:0.5;stroke-linecap:butt;stroke-linejoin:round" />
      </g>
    </g>
    <g
       style="stroke-linecap:butt;stroke-linejoin:round"
       id="text_9">
      <!-- 8 -->
      <defs
         id="defs266">
        <path
           style="stroke-linecap:butt;stroke-linejoin:round"
           inkscape:connector-curvature="0"
           id="ArialMT-38"
           d="m 17.6719,38.8125 q -5.4688,2.0156 -8.1094,5.7187 -2.625,3.7188 -2.625,8.8907 0,7.8125 5.6094,13.125 5.625,5.3281 14.9375,5.3281 9.375,0 15.0937,-5.4531 5.7188,-5.4375 5.7188,-13.25 0,-4.9844 -2.625,-8.6719 -2.6094,-3.6719 -7.9219,-5.6875 6.5938,-2.1406 10.0312,-6.9375 3.4376,-4.7812 3.4376,-11.4219 0,-9.1719 -6.5,-15.42185 -6.4844,-6.25 -17.0782,-6.25 -10.5937,0 -17.0937,6.26563 -6.50002,6.28122 -6.50002,15.65622 0,6.9844 3.54687,11.6875 3.54685,4.7188 10.07815,6.4219 m -1.75,14.9063 q 0,-5.0782 3.2656,-8.3126 3.2813,-3.2187 8.5,-3.2187 5.0781,0 8.3281,3.1875 3.25,3.2031 3.25,7.8438 0,4.8437 -3.3594,8.1406 -3.3437,3.2968 -8.3124,3.2968 -5.0313,0 -8.3594,-3.2343 -3.3125,-3.2188 -3.3125,-7.7031 M 13.0938,20.6562 q 0,-3.7656 1.7812,-7.2812 Q 16.6562,9.85938 20.1719,7.92188 23.6875,6 27.7344,6 q 6.2968,0 10.3906,4.0469 4.1094,4.0625 4.1094,10.3125 0,6.3437 -4.2188,10.5 -4.2187,4.1562 -10.5781,4.1562 -6.2031,0 -10.2813,-4.1094 -4.0624,-4.0937 -4.0624,-10.25" />
      </defs>
      <g
         style="stroke-linecap:butt;stroke-linejoin:round"
         id="g269"
         transform="matrix(0.12,0,0,-0.12,465.96969,401.38937)">
        <use
           height="432"
           width="576"
           y="0"
           x="0"
           style="stroke-linecap:butt;stroke-linejoin:round"
           id="use271"
           xlink:href="#ArialMT-38" />
      </g>
    </g>
  </g>
  <g
     style="stroke-linecap:butt;stroke-linejoin:round"
     id="xtick_10">
    <g
       style="stroke-linecap:butt;stroke-linejoin:round"
       id="line2d_20">
      <g
         style="stroke-linecap:butt;stroke-linejoin:round"
         id="g275">
        <use
           height="432"
           width="576"
           id="use277"
           y="388.79999"
           xlink:href="#m93b0483c22"
           x="518.40002"
           style="stroke:#000000;stroke-width:0.5;stroke-linecap:butt;stroke-linejoin:round" />
      </g>
    </g>
    <g
       style="stroke-linecap:butt;stroke-linejoin:round"
       id="line2d_21">
      <g
         style="stroke-linecap:butt;stroke-linejoin:round"
         id="g280">
        <use
           height="432"
           width="576"
           id="use282"
           y="43.200001"
           xlink:href="#m741efc42ff"
           x="518.40002"
           style="stroke:#000000;stroke-width:0.5;stroke-linecap:butt;stroke-linejoin:round" />
      </g>
    </g>
    <g
       style="stroke-linecap:butt;stroke-linejoin:round"
       id="text_10">
      <!-- 9 -->
      <defs
         id="defs285">
        <path
           style="stroke-linecap:butt;stroke-linejoin:round"
           inkscape:connector-curvature="0"
           id="ArialMT-39"
           d="m 5.46875,16.5469 8.45315,0.7812 Q 14.9844,11.375 18.0156,8.6875 21.0469,6 25.7812,6 q 4.0469,0 7.0938,1.85938 3.0625,1.85937 5.0156,4.95312 1.9532,3.1094 3.2656,8.375 1.3282,5.2813 1.3282,10.75 0,0.5781 -0.0469,1.75 -2.6406,-4.1875 -7.2031,-6.8125 -4.5625,-2.6094 -9.8906,-2.6094 -8.8907,0 -15.0469,6.4375 -6.14065,6.4531 -6.14065,17 0,10.8907 6.42185,17.5313 6.4219,6.6406 16.0781,6.6406 6.9844,0 12.7657,-3.7656 5.7969,-3.75 8.7969,-10.7188 3,-6.9531 3,-20.1406 0,-13.7188 -2.9844,-21.8438 -2.9688,-8.12495 -8.8594,-12.37495 -5.875,-4.25 -13.7812,-4.25 -8.4063,0 -13.7344,4.65625 Q 6.54688,8.10938 5.46875,16.5469 M 41.4531,48.1406 q 0,7.5782 -4.0312,12.0156 -4.0157,4.4376 -9.6875,4.4376 -5.8594,0 -10.2032,-4.7813 -4.3437,-4.7813 -4.3437,-12.4063 0,-6.8281 4.125,-11.1093 4.125,-4.2657 10.1719,-4.2657 6.1094,0 10.0312,4.2657 3.9375,4.2812 3.9375,11.8437" />
      </defs>
      <g
         style="stroke-linecap:butt;stroke-linejoin:round"
         id="g288"
         transform="matrix(0.12,0,0,-0.12,515.57625,401.38937)">
        <use
           height="432"
           width="576"
           y="0"
           x="0"
           style="stroke-linecap:butt;stroke-linejoin:round"
           id="use290"
           xlink:href="#ArialMT-39" />
      </g>
    </g>
  </g>
  <g
     style="stroke-linecap:butt;stroke-linejoin:round"
     id="ytick_1">
    <g
       style="stroke-linecap:butt;stroke-linejoin:round"
       id="line2d_22">
      <defs
         id="defs295">
        <path
           inkscape:connector-curvature="0"
           style="stroke:#000000;stroke-width:0.5;stroke-linecap:butt;stroke-linejoin:round"
           id="m728421d6d4"
           d="M 0,0 4,0" />
      </defs>
      <g
         style="stroke-linecap:butt;stroke-linejoin:round"
         id="g298">
        <use
           height="432"
           width="576"
           id="use300"
           y="388.79999"
           xlink:href="#m728421d6d4"
           x="72"
           style="stroke:#000000;stroke-width:0.5;stroke-linecap:butt;stroke-linejoin:round" />
      </g>
    </g>
    <g
       style="stroke-linecap:butt;stroke-linejoin:round"
       id="line2d_23">
      <defs
         id="defs303">
        <path
           inkscape:connector-curvature="0"
           style="stroke:#000000;stroke-width:0.5;stroke-linecap:butt;stroke-linejoin:round"
           id="mcb0005524f"
           d="M 0,0 -4,0" />
      </defs>
      <g
         style="stroke-linecap:butt;stroke-linejoin:round"
         id="g306">
        <use
           height="432"
           width="576"
           id="use308"
           y="388.79999"
           xlink:href="#mcb0005524f"
           x="518.40002"
           style="stroke:#000000;stroke-width:0.5;stroke-linecap:butt;stroke-linejoin:round" />
      </g>
    </g>
    <g
       style="stroke-linecap:butt;stroke-linejoin:round"
       id="text_11">
      <!-- 0.0 -->
      <defs
         id="defs311">
        <path
           style="stroke-linecap:butt;stroke-linejoin:round"
           inkscape:connector-curvature="0"
           id="ArialMT-2e"
           d="m 9.07812,0 0,10.0156 10.01568,0 0,-10.0156 z" />
      </defs>
      <g
         style="stroke-linecap:butt;stroke-linejoin:round"
         id="g314"
         transform="matrix(0.12,0,0,-0.12,52.3925,391.90219)">
        <use
           height="432"
           width="576"
           y="0"
           x="0"
           style="stroke-linecap:butt;stroke-linejoin:round"
           id="use316"
           xlink:href="#ArialMT-30" />
        <use
           height="432"
           width="576"
           y="0"
           style="stroke-linecap:butt;stroke-linejoin:round"
           id="use318"
           xlink:href="#ArialMT-2e"
           x="55.615234" />
        <use
           height="432"
           width="576"
           y="0"
           style="stroke-linecap:butt;stroke-linejoin:round"
           id="use320"
           xlink:href="#ArialMT-30"
           x="83.398438" />
      </g>
    </g>
  </g>
  <g
     style="stroke-linecap:butt;stroke-linejoin:round"
     id="ytick_2">
    <g
       style="stroke-linecap:butt;stroke-linejoin:round"
       id="line2d_24">
      <g
         style="stroke-linecap:butt;stroke-linejoin:round"
         id="g324">
        <use
           height="432"
           width="576"
           id="use326"
           y="319.67999"
           xlink:href="#m728421d6d4"
           x="72"
           style="stroke:#000000;stroke-width:0.5;stroke-linecap:butt;stroke-linejoin:round" />
      </g>
    </g>
    <g
       style="stroke-linecap:butt;stroke-linejoin:round"
       id="line2d_25">
      <g
         style="stroke-linecap:butt;stroke-linejoin:round"
         id="g329">
        <use
           height="432"
           width="576"
           id="use331"
           y="319.67999"
           xlink:href="#mcb0005524f"
           x="518.40002"
           style="stroke:#000000;stroke-width:0.5;stroke-linecap:butt;stroke-linejoin:round" />
      </g>
    </g>
    <g
       style="stroke-linecap:butt;stroke-linejoin:round"
       id="text_12">
      <!-- 0.1 -->
      <g
         style="stroke-linecap:butt;stroke-linejoin:round"
         id="g334"
         transform="matrix(0.12,0,0,-0.12,54.021875,322.78219)">
        <use
           height="432"
           width="576"
           y="0"
           x="0"
           style="stroke-linecap:butt;stroke-linejoin:round"
           id="use336"
           xlink:href="#ArialMT-30" />
        <use
           height="432"
           width="576"
           y="0"
           style="stroke-linecap:butt;stroke-linejoin:round"
           id="use338"
           xlink:href="#ArialMT-2e"
           x="55.615234" />
        <use
           height="432"
           width="576"
           y="0"
           style="stroke-linecap:butt;stroke-linejoin:round"
           id="use340"
           xlink:href="#ArialMT-31"
           x="83.398438" />
      </g>
    </g>
  </g>
  <g
     style="stroke-linecap:butt;stroke-linejoin:round"
     id="ytick_3">
    <g
       style="stroke-linecap:butt;stroke-linejoin:round"
       id="line2d_26">
      <g
         style="stroke-linecap:butt;stroke-linejoin:round"
         id="g344">
        <use
           height="432"
           width="576"
           id="use346"
           y="250.56"
           xlink:href="#m728421d6d4"
           x="72"
           style="stroke:#000000;stroke-width:0.5;stroke-linecap:butt;stroke-linejoin:round" />
      </g>
    </g>
    <g
       style="stroke-linecap:butt;stroke-linejoin:round"
       id="line2d_27">
      <g
         style="stroke-linecap:butt;stroke-linejoin:round"
         id="g349">
        <use
           height="432"
           width="576"
           id="use351"
           y="250.56"
           xlink:href="#mcb0005524f"
           x="518.40002"
           style="stroke:#000000;stroke-width:0.5;stroke-linecap:butt;stroke-linejoin:round" />
      </g>
    </g>
    <g
       style="stroke-linecap:butt;stroke-linejoin:round"
       id="text_13">
      <!-- 0.2 -->
      <g
         style="stroke-linecap:butt;stroke-linejoin:round"
         id="g354"
         transform="matrix(0.12,0,0,-0.12,52.450625,253.66219)">
        <use
           height="432"
           width="576"
           y="0"
           x="0"
           style="stroke-linecap:butt;stroke-linejoin:round"
           id="use356"
           xlink:href="#ArialMT-30" />
        <use
           height="432"
           width="576"
           y="0"
           style="stroke-linecap:butt;stroke-linejoin:round"
           id="use358"
           xlink:href="#ArialMT-2e"
           x="55.615234" />
        <use
           height="432"
           width="576"
           y="0"
           style="stroke-linecap:butt;stroke-linejoin:round"
           id="use360"
           xlink:href="#ArialMT-32"
           x="83.398438" />
      </g>
    </g>
  </g>
  <g
     style="stroke-linecap:butt;stroke-linejoin:round"
     id="ytick_4">
    <g
       style="stroke-linecap:butt;stroke-linejoin:round"
       id="line2d_28">
      <g
         style="stroke-linecap:butt;stroke-linejoin:round"
         id="g364">
        <use
           height="432"
           width="576"
           id="use366"
           y="181.44"
           xlink:href="#m728421d6d4"
           x="72"
           style="stroke:#000000;stroke-width:0.5;stroke-linecap:butt;stroke-linejoin:round" />
      </g>
    </g>
    <g
       style="stroke-linecap:butt;stroke-linejoin:round"
       id="line2d_29">
      <g
         style="stroke-linecap:butt;stroke-linejoin:round"
         id="g369">
        <use
           height="432"
           width="576"
           id="use371"
           y="181.44"
           xlink:href="#mcb0005524f"
           x="518.40002"
           style="stroke:#000000;stroke-width:0.5;stroke-linecap:butt;stroke-linejoin:round" />
      </g>
    </g>
    <g
       style="stroke-linecap:butt;stroke-linejoin:round"
       id="text_14">
      <!-- 0.3 -->
      <g
         style="stroke-linecap:butt;stroke-linejoin:round"
         id="g374"
         transform="matrix(0.12,0,0,-0.12,52.3625,184.54219)">
        <use
           height="432"
           width="576"
           y="0"
           x="0"
           style="stroke-linecap:butt;stroke-linejoin:round"
           id="use376"
           xlink:href="#ArialMT-30" />
        <use
           height="432"
           width="576"
           y="0"
           style="stroke-linecap:butt;stroke-linejoin:round"
           id="use378"
           xlink:href="#ArialMT-2e"
           x="55.615234" />
        <use
           height="432"
           width="576"
           y="0"
           style="stroke-linecap:butt;stroke-linejoin:round"
           id="use380"
           xlink:href="#ArialMT-33"
           x="83.398438" />
      </g>
    </g>
  </g>
  <g
     style="stroke-linecap:butt;stroke-linejoin:round"
     id="ytick_5">
    <g
       style="stroke-linecap:butt;stroke-linejoin:round"
       id="line2d_30">
      <g
         style="stroke-linecap:butt;stroke-linejoin:round"
         id="g384">
        <use
           height="432"
           width="576"
           id="use386"
           y="112.32"
           xlink:href="#m728421d6d4"
           x="72"
           style="stroke:#000000;stroke-width:0.5;stroke-linecap:butt;stroke-linejoin:round" />
      </g>
    </g>
    <g
       style="stroke-linecap:butt;stroke-linejoin:round"
       id="line2d_31">
      <g
         style="stroke-linecap:butt;stroke-linejoin:round"
         id="g389">
        <use
           height="432"
           width="576"
           id="use391"
           y="112.32"
           xlink:href="#mcb0005524f"
           x="518.40002"
           style="stroke:#000000;stroke-width:0.5;stroke-linecap:butt;stroke-linejoin:round" />
      </g>
    </g>
    <g
       style="stroke-linecap:butt;stroke-linejoin:round"
       id="text_15">
      <!-- 0.4 -->
      <g
         style="stroke-linecap:butt;stroke-linejoin:round"
         id="g394"
         transform="matrix(0.12,0,0,-0.12,52.398125,115.42219)">
        <use
           height="432"
           width="576"
           y="0"
           x="0"
           style="stroke-linecap:butt;stroke-linejoin:round"
           id="use396"
           xlink:href="#ArialMT-30" />
        <use
           height="432"
           width="576"
           y="0"
           style="stroke-linecap:butt;stroke-linejoin:round"
           id="use398"
           xlink:href="#ArialMT-2e"
           x="55.615234" />
        <use
           height="432"
           width="576"
           y="0"
           style="stroke-linecap:butt;stroke-linejoin:round"
           id="use400"
           xlink:href="#ArialMT-34"
           x="83.398438" />
      </g>
    </g>
  </g>
  <g
     style="stroke-linecap:butt;stroke-linejoin:round"
     id="ytick_6">
    <g
       style="stroke-linecap:butt;stroke-linejoin:round"
       id="line2d_32">
      <g
         style="stroke-linecap:butt;stroke-linejoin:round"
         id="g404">
        <use
           height="432"
           width="576"
           id="use406"
           y="43.200001"
           xlink:href="#m728421d6d4"
           x="72"
           style="stroke:#000000;stroke-width:0.5;stroke-linecap:butt;stroke-linejoin:round" />
      </g>
    </g>
    <g
       style="stroke-linecap:butt;stroke-linejoin:round"
       id="line2d_33">
      <g
         style="stroke-linecap:butt;stroke-linejoin:round"
         id="g409">
        <use
           height="432"
           width="576"
           id="use411"
           y="43.200001"
           xlink:href="#mcb0005524f"
           x="518.40002"
           style="stroke:#000000;stroke-width:0.5;stroke-linecap:butt;stroke-linejoin:round" />
      </g>
    </g>
    <g
       style="stroke-linecap:butt;stroke-linejoin:round"
       id="text_16">
      <!-- 0.5 -->
      <g
         style="stroke-linecap:butt;stroke-linejoin:round"
         id="g414"
         transform="matrix(0.12,0,0,-0.12,52.29875,46.302188)">
        <use
           height="432"
           width="576"
           y="0"
           x="0"
           style="stroke-linecap:butt;stroke-linejoin:round"
           id="use416"
           xlink:href="#ArialMT-30" />
        <use
           height="432"
           width="576"
           y="0"
           style="stroke-linecap:butt;stroke-linejoin:round"
           id="use418"
           xlink:href="#ArialMT-2e"
           x="55.615234" />
        <use
           height="432"
           width="576"
           y="0"
           style="stroke-linecap:butt;stroke-linejoin:round"
           id="use420"
           xlink:href="#ArialMT-35"
           x="83.398438" />
      </g>
    </g>
  </g>
  <path
     inkscape:connector-curvature="0"
     id="path423"
     style="fill:none;stroke:#000000;stroke-linecap:butt;stroke-linejoin:round"
     d="m 72,43.2 446.4,0" />
  <path
     inkscape:connector-curvature="0"
     id="path426"
     style="fill:none;stroke:#000000;stroke-linecap:butt;stroke-linejoin:round"
     d="m 518.4,388.8 0,-345.6" />
  <path
     inkscape:connector-curvature="0"
     id="path429"
     style="fill:none;stroke:#000000;stroke-linecap:butt;stroke-linejoin:round"
     d="m 72,388.8 446.4,0" />
  <path
     inkscape:connector-curvature="0"
     id="path432"
     style="fill:none;stroke:#000000;stroke-linecap:butt;stroke-linejoin:round"
     d="M 72,388.8 72,43.2" />
  <defs
     id="defs434">
    <clipPath
       id="p7ff5b81e1d">
      <rect
         height="345.6"
         width="446.4"
         x="72.0"
         y="43.2"
         id="rect437" />
    </clipPath>
  </defs>
</svg>
