<?xml version="1.0" encoding="UTF-8" standalone="no"?>
<!-- Created with Inkscape (http://www.inkscape.org/) -->

<svg
   xmlns:dc="http://purl.org/dc/elements/1.1/"
   xmlns:cc="http://creativecommons.org/ns#"
   xmlns:rdf="http://www.w3.org/1999/02/22-rdf-syntax-ns#"
   xmlns:svg="http://www.w3.org/2000/svg"
   xmlns="http://www.w3.org/2000/svg"
   xmlns:sodipodi="http://sodipodi.sourceforge.net/DTD/sodipodi-0.dtd"
   xmlns:inkscape="http://www.inkscape.org/namespaces/inkscape"
   id="svg2"
   version="1.1"
   inkscape:version="0.48.4 r9939"
   width="668.17572"
   height="472.15817"
   xml:space="preserve"
   sodipodi:docname="hisc.pdf"><metadata
     id="metadata8"><rdf:RDF><cc:Work
         rdf:about=""><dc:format>image/svg+xml</dc:format><dc:type
           rdf:resource="http://purl.org/dc/dcmitype/StillImage" /><dc:title></dc:title></cc:Work></rdf:RDF></metadata><defs
     id="defs6"><marker
       inkscape:stockid="Arrow1Mstart"
       orient="auto"
       refY="0"
       refX="0"
       id="Arrow1Mstart"
       style="overflow:visible"><path
         id="path4500"
         d="M 0,0 5,-5 -12.5,0 5,5 0,0 z"
         style="fill-rule:evenodd;stroke:#000000;stroke-width:1pt"
         transform="matrix(0.4,0,0,0.4,4,0)"
         inkscape:connector-curvature="0" /></marker><marker
       inkscape:stockid="Arrow1Mend"
       orient="auto"
       refY="0"
       refX="0"
       id="Arrow1Mend"
       style="overflow:visible"><path
         id="path4503"
         d="M 0,0 5,-5 -12.5,0 5,5 0,0 z"
         style="fill-rule:evenodd;stroke:#000000;stroke-width:1pt"
         transform="matrix(-0.4,0,0,-0.4,-4,0)"
         inkscape:connector-curvature="0" /></marker><marker
       inkscape:stockid="Arrow1Lend"
       orient="auto"
       refY="0"
       refX="0"
       id="Arrow1Lend"
       style="overflow:visible"><path
         id="path4497"
         d="M 0,0 5,-5 -12.5,0 5,5 0,0 z"
         style="fill-rule:evenodd;stroke:#000000;stroke-width:1pt"
         transform="matrix(-0.8,0,0,-0.8,-10,0)"
         inkscape:connector-curvature="0" /></marker><clipPath
       clipPathUnits="userSpaceOnUse"
       id="clipPath148"><path
         d="m 6.39844,856 1196.40156,0 0,-220.801 -1196.40156,0 0,220.801 z"
         id="path150"
         inkscape:connector-curvature="0" /></clipPath><clipPath
       clipPathUnits="userSpaceOnUse"
       id="clipPath162"><path
         d="m 6.39844,1158.4 1196.40156,0 0,-220.798 -1196.40156,0 0,220.798 z"
         id="path164"
         inkscape:connector-curvature="0" /></clipPath><clipPath
       clipPathUnits="userSpaceOnUse"
       id="clipPath176"><path
         d="m 6.39844,1460.8 1196.40156,0 0,-220.8 -1196.40156,0 0,220.8 z"
         id="path178"
         inkscape:connector-curvature="0" /></clipPath><clipPath
       clipPathUnits="userSpaceOnUse"
       id="clipPath190"><path
         d="m 6.39844,1765.6 1196.40156,0 0,-220.8 -1196.40156,0 0,220.8 z"
         id="path192"
         inkscape:connector-curvature="0" /></clipPath><clipPath
       clipPathUnits="userSpaceOnUse"
       id="clipPath204"><path
         d="m 6.39844,2068 1196.40156,0 0,-220.8 -1196.40156,0 0,220.8 z"
         id="path206"
         inkscape:connector-curvature="0" /></clipPath><clipPath
       clipPathUnits="userSpaceOnUse"
       id="clipPath218"><path
         d="m 6.39844,2370.4 1196.40156,0 0,-220.8 -1196.40156,0 0,220.8 z"
         id="path220"
         inkscape:connector-curvature="0" /></clipPath><clipPath
       clipPathUnits="userSpaceOnUse"
       id="clipPath232"><path
         d="m 6.39844,2675.2 1196.40156,0 0,-220.8 -1196.40156,0 0,220.8 z"
         id="path234"
         inkscape:connector-curvature="0" /></clipPath><clipPath
       clipPathUnits="userSpaceOnUse"
       id="clipPath246"><path
         d="m 6.39844,2977.6 1196.40156,0 0,-220.8 -1196.40156,0 0,220.8 z"
         id="path248"
         inkscape:connector-curvature="0" /></clipPath><clipPath
       clipPathUnits="userSpaceOnUse"
       id="clipPath260"><path
         d="m 6.39844,3281.2 1196.40156,0 0,-220.8 -1196.40156,0 0,220.8 z"
         id="path262"
         inkscape:connector-curvature="0" /></clipPath><clipPath
       clipPathUnits="userSpaceOnUse"
       id="clipPath274"><path
         d="m 6.39844,3584.8 1196.40156,0 0,-220.8 -1196.40156,0 0,220.8 z"
         id="path276"
         inkscape:connector-curvature="0" /></clipPath><clipPath
       clipPathUnits="userSpaceOnUse"
       id="clipPath288"><path
         d="m 6.39844,3887.2 1086.00156,0 0,-220.8 -1086.00156,0 0,220.8 z"
         id="path290"
         inkscape:connector-curvature="0" /></clipPath><clipPath
       clipPathUnits="userSpaceOnUse"
       id="clipPath302"><path
         d="m 6.39844,3887.2 1196.40156,0 0,-220.8 -1196.40156,0 0,220.8 z"
         id="path304"
         inkscape:connector-curvature="0" /></clipPath><clipPath
       clipPathUnits="userSpaceOnUse"
       id="clipPath316"><path
         d="m 4102,593.199 1094.4,0 0,-268.801 -1094.4,0 0,268.801 z"
         id="path318"
         inkscape:connector-curvature="0" /></clipPath><clipPath
       clipPathUnits="userSpaceOnUse"
       id="clipPath330"><path
         d="m 4236.4,593.199 960,0 0,-268.801 -960,0 0,268.801 z"
         id="path332"
         inkscape:connector-curvature="0" /></clipPath><clipPath
       clipPathUnits="userSpaceOnUse"
       id="clipPath344"><path
         d="m 463.602,512.801 1947.598,0 0,-268.801 -1947.598,0 0,268.801 z"
         id="path346"
         inkscape:connector-curvature="0" /></clipPath><clipPath
       clipPathUnits="userSpaceOnUse"
       id="clipPath358"><path
         d="m 1337.2,546.398 1947.6,0 0,-268.796 -1947.6,0 0,268.796 z"
         id="path360"
         inkscape:connector-curvature="0" /></clipPath><clipPath
       clipPathUnits="userSpaceOnUse"
       id="clipPath372"><path
         d="m 2164,546.398 1947.6,0 0,-268.796 -1947.6,0 0,268.796 z"
         id="path374"
         inkscape:connector-curvature="0" /></clipPath><clipPath
       clipPathUnits="userSpaceOnUse"
       id="clipPath386"><path
         d="m 3241.6,570.398 1947.6,0 0,-268.796 -1947.6,0 0,268.796 z"
         id="path388"
         inkscape:connector-curvature="0" /></clipPath></defs><sodipodi:namedview
     pagecolor="#ffffff"
     bordercolor="#666666"
     borderopacity="1"
     objecttolerance="10"
     gridtolerance="10"
     guidetolerance="10"
     inkscape:pageopacity="0"
     inkscape:pageshadow="2"
     inkscape:window-width="1333"
     inkscape:window-height="744"
     id="namedview4"
     showgrid="false"
     showguides="true"
     inkscape:guide-bbox="true"
     fit-margin-top="0"
     fit-margin-left="0"
     fit-margin-right="0"
     fit-margin-bottom="0"
     inkscape:zoom="0.68287345"
     inkscape:cx="169.16635"
     inkscape:cy="114.98999"
     inkscape:window-x="33"
     inkscape:window-y="24"
     inkscape:window-maximized="1"
     inkscape:current-layer="g10"><sodipodi:guide
       orientation="0,1"
       position="32.43843,223.8873"
       id="guide3371" /><sodipodi:guide
       orientation="1,0"
       position="-35.903731,459.9784"
       id="guide4228" /></sodipodi:namedview><g
     id="g10"
     inkscape:groupmode="layer"
     inkscape:label="hisc"
     transform="matrix(1.25,0,0,-1.25,-5.8745999,509.21369)"><path
       style="fill:none;stroke:#a94300;stroke-width:0.8097713;stroke-linecap:butt;stroke-linejoin:miter;stroke-miterlimit:4;stroke-opacity:1;stroke-dasharray:0.80977138, 0.80977138;stroke-dashoffset:0"
       d="m 33.236315,397.54703 499.913605,0 -0.4244,0"
       id="path3373-1-7"
       inkscape:connector-curvature="0" /><path
       style="fill:none;stroke:#a94300;stroke-width:0.82364208;stroke-linecap:butt;stroke-linejoin:miter;stroke-miterlimit:4;stroke-opacity:1;stroke-dasharray:0.82364209, 0.82364209;stroke-dashoffset:0"
       d="m 532.47775,397.65038 0,-324.887937"
       id="path4230-1-8"
       inkscape:connector-curvature="0" /><rect
       style="opacity:0.75185188;fill:#0066cc;fill-opacity:1;stroke:none"
       id="rect4441"
       width="91.122879"
       height="31.064621"
       x="394.52066"
       y="-104.06647"
       transform="scale(1,-1)" /><path
       style="fill:none;stroke:#a94300;stroke-width:0.8225286;stroke-linecap:butt;stroke-linejoin:miter;stroke-miterlimit:4;stroke-opacity:1;stroke-dasharray:0.82252857, 0.82252857;stroke-dashoffset:0"
       d="m 485.50307,397.67654 0,-324.010051"
       id="path4230-1"
       inkscape:connector-curvature="0" /><rect
       style="opacity:0.75185188;fill:#0066cc;fill-opacity:1;stroke:none"
       id="rect4439"
       width="91.329979"
       height="91.226433"
       x="304.12262"
       y="-164.02119"
       transform="scale(1,-1)" /><path
       style="fill:none;stroke:#a94300;stroke-width:0.82285625;stroke-linecap:butt;stroke-linejoin:miter;stroke-miterlimit:4;stroke-opacity:1;stroke-dasharray:0.82285623, 0.82285623;stroke-dashoffset:0"
       d="m 395.05561,73.282821 0,324.268259"
       id="path4230-2"
       inkscape:connector-curvature="0" /><rect
       style="opacity:0.75185188;fill:#0066cc;fill-opacity:1;stroke:none"
       id="rect4437"
       width="93.400955"
       height="303.60486"
       x="211.75714"
       y="-376.81381"
       transform="scale(1,-1)" /><path
       style="fill:none;stroke:#a94300;stroke-width:0.82390392;stroke-linecap:butt;stroke-linejoin:miter;stroke-miterlimit:4;stroke-opacity:1;stroke-dasharray:0.82390388, 0.82390388;stroke-dashoffset:0"
       d="m 304.76737,72.57468 0,325.09449"
       id="path4230-9"
       inkscape:connector-curvature="0" /><rect
       style="opacity:0.75185188;fill:#0066cc;fill-opacity:1;stroke:none"
       id="rect4435"
       width="91.226433"
       height="122.18751"
       x="121.46266"
       y="-194.77516"
       transform="scale(1,-1)" /><path
       style="fill:none;stroke:#a94300;stroke-width:0.82364219;stroke-linecap:butt;stroke-linejoin:miter;stroke-miterlimit:4;stroke-opacity:1;stroke-dasharray:0.82364215, 0.82364215;stroke-dashoffset:0"
       d="m 212.20169,72.938537 0,324.887983"
       id="path4230-5"
       inkscape:connector-curvature="0" /><path
       style="fill:none;stroke:#a94300;stroke-width:0.80960393;stroke-linecap:butt;stroke-linejoin:miter;stroke-miterlimit:4;stroke-opacity:1;stroke-dasharray:0.80960392, 0.80960392;stroke-dashoffset:0"
       d="m 33.285243,346.05329 499.706837,0 -0.42421,0"
       id="path3373-50"
       inkscape:connector-curvature="0" /><path
       style="fill:none;stroke:#a94300;stroke-width:0.80993885;stroke-linecap:butt;stroke-linejoin:miter;stroke-miterlimit:4;stroke-opacity:1;stroke-dasharray:0.80993883, 0.80993883;stroke-dashoffset:0"
       d="m 33.109314,315.78358 500.120336,0 -0.42455,0"
       id="path3373-6"
       inkscape:connector-curvature="0" /><path
       style="fill:none;stroke:#a94300;stroke-width:0.81002253;stroke-linecap:butt;stroke-linejoin:miter;stroke-miterlimit:4;stroke-opacity:1;stroke-dasharray:0.81002254, 0.81002254;stroke-dashoffset:0"
       d="m 33.01586,285.43035 500.22374,0 -0.42465,0"
       id="path3373-3"
       inkscape:connector-curvature="0" /><path
       style="fill:none;stroke:#a94300;stroke-width:0.80993885;stroke-linecap:butt;stroke-linejoin:miter;stroke-miterlimit:4;stroke-opacity:1;stroke-dasharray:0.80993882, 0.80993882;stroke-dashoffset:0"
       d="m 33.196132,255.04769 500.120348,0 -0.42456,0"
       id="path3373-5"
       inkscape:connector-curvature="0" /><path
       style="fill:none;stroke:#a94300;stroke-width:0.80977136;stroke-linecap:butt;stroke-linejoin:miter;stroke-miterlimit:4;stroke-opacity:1;stroke-dasharray:0.80977139, 0.80977139;stroke-dashoffset:0"
       d="m 33.199403,224.79444 499.913587,0 -0.42438,0"
       id="path3373-2"
       inkscape:connector-curvature="0" /><path
       style="fill:none;stroke:#a94300;stroke-width:0.80977142;stroke-linecap:butt;stroke-linejoin:miter;stroke-miterlimit:4;stroke-opacity:1;stroke-dasharray:0.80977138, 0.80977138;stroke-dashoffset:0"
       d="m 33.302005,164.10392 499.913585,0 -0.42438,0"
       id="path3373-32"
       inkscape:connector-curvature="0" /><path
       style="fill:none;stroke:#a94300;stroke-width:0.80952018;stroke-linecap:butt;stroke-linejoin:miter;stroke-miterlimit:4;stroke-opacity:1;stroke-dasharray:0.80952016, 0.80952016;stroke-dashoffset:0"
       d="m 33.497612,133.82991 499.603448,0 -0.42412,0"
       id="path3373-8"
       inkscape:connector-curvature="0" /><rect
       style="opacity:0.75185188;fill:#0066cc;fill-opacity:1;stroke:none"
       id="rect4433"
       width="89.051903"
       height="31.271717"
       x="33.046764"
       y="-103.86906"
       transform="scale(1,-1)" /><path
       style="fill:none;stroke:#a94300;stroke-width:1.06885183;stroke-linecap:butt;stroke-linejoin:miter;stroke-miterlimit:4;stroke-opacity:1;stroke-dasharray:1.06885178, 1.06885178;stroke-dashoffset:0"
       d="m 33.909239,103.43298 498.986011,0 -0.42359,0"
       id="path3373-9"
       inkscape:connector-curvature="0" /><path
       style="fill:none;stroke:#a94300;stroke-width:0.81010622;stroke-linecap:butt;stroke-linejoin:miter;stroke-miterlimit:4;stroke-opacity:1;stroke-dasharray:0.81010623, 0.81010623;stroke-dashoffset:0"
       d="m 33.180715,376.3832 500.327125,0 -0.42475,0"
       id="path3373-1"
       inkscape:connector-curvature="0" /><path
       style="fill:none;stroke:#a94300;stroke-width:0.80926883;stroke-linecap:butt;stroke-linejoin:miter;stroke-miterlimit:4;stroke-opacity:1;stroke-dasharray:0.80926885, 0.80926885;stroke-dashoffset:0"
       d="m 33.662678,194.46452 499.293292,0 -0.42386,0"
       id="path3373"
       inkscape:connector-curvature="0" /><path
       style="fill:none;stroke:#a94300;stroke-width:0.82220078;stroke-linecap:butt;stroke-linejoin:miter;stroke-miterlimit:4;stroke-opacity:1;stroke-dasharray:0.82220077, 0.82220077;stroke-dashoffset:0"
       d="m 121.7733,73.692421 0,323.751859"
       id="path4230"
       inkscape:connector-curvature="0" /><path
       inkscape:connector-curvature="0"
       id="path16"
       style="fill:#000000;fill-opacity:1;fill-rule:evenodd;stroke:none"
       d="m 32.9199,73.1199 0.960156,0 0,7.56016 -0.960156,0 0,-7.56016 z" /><path
       inkscape:connector-curvature="0"
       id="path18"
       style="fill:#000000;fill-opacity:1;fill-rule:evenodd;stroke:none"
       d="m 121.31258,72.809254 0.95977,0 0,7.56016 -0.95977,0 0,-7.56016 z" /><path
       inkscape:connector-curvature="0"
       id="path20"
       style="fill:#000000;fill-opacity:1;fill-rule:evenodd;stroke:none"
       d="m 211.68903,72.912803 0.95977,0 0,7.56016 -0.95977,0 0,-7.56016 z" /><path
       inkscape:connector-curvature="0"
       id="path22"
       style="fill:#000000;fill-opacity:1;fill-rule:evenodd;stroke:none"
       d="m 304.24,73.1199 0.96016,0 0,7.56016 -0.96016,0 0,-7.56016 z" /><path
       inkscape:connector-curvature="0"
       id="path24"
       style="fill:#000000;fill-opacity:1;fill-rule:evenodd;stroke:none"
       d="m 394.48,73.1199 1.08008,0 0,7.56016 -1.08008,0 0,-7.56016 z" /><path
       inkscape:connector-curvature="0"
       id="path26"
       style="fill:#000000;fill-opacity:1;fill-rule:evenodd;stroke:none"
       d="m 484.96,73.1199 1.07969,0 0,7.56016 -1.07969,0 0,-7.56016 z" /><path
       inkscape:connector-curvature="0"
       id="path28"
       style="fill:#000000;fill-opacity:1;fill-rule:evenodd;stroke:none;marker-start:none;marker-end:none"
       d="m 33.4,72.6398 501.24209,0 0,0.960156 -501.24209,0 0,-0.960156 z" /><path
       inkscape:connector-curvature="0"
       id="path30"
       style="fill:#000000;fill-opacity:1;fill-rule:evenodd;stroke:none"
       d="m 32.882256,72.6398 8.077904,0 0,0.960156 -8.077904,0 0,-0.960156 z" /><path
       inkscape:connector-curvature="0"
       id="path34"
       style="fill:#000000;fill-opacity:1;fill-rule:evenodd;stroke:none"
       d="m 33.4,133.36 7.56016,0 0,0.95977 -7.56016,0 0,-0.95977 z" /><path
       inkscape:connector-curvature="0"
       id="path36"
       style="fill:#000000;fill-opacity:1;fill-rule:evenodd;stroke:none"
       d="m 33.4,163.6 7.56016,0 0,0.96016 -7.56016,0 0,-0.96016 z" /><path
       inkscape:connector-curvature="0"
       id="path38"
       style="fill:#000000;fill-opacity:1;fill-rule:evenodd;stroke:none"
       d="m 33.4,193.84 7.56016,0 0,1.08008 -7.56016,0 0,-1.08008 z" /><path
       inkscape:connector-curvature="0"
       id="path40"
       style="fill:#000000;fill-opacity:1;fill-rule:evenodd;stroke:none"
       d="m 33.4,224.32 7.56016,0 0,0.96016 -7.56016,0 0,-0.96016 z" /><path
       inkscape:connector-curvature="0"
       id="path42"
       style="fill:#000000;fill-opacity:1;fill-rule:evenodd;stroke:none"
       d="m 33.4,254.56 7.56016,0 0,0.95977 -7.56016,0 0,-0.95977 z" /><path
       inkscape:connector-curvature="0"
       id="path44"
       style="fill:#000000;fill-opacity:1;fill-rule:evenodd;stroke:none"
       d="m 33.4,284.8 7.56016,0 0,1.08008 -7.56016,0 0,-1.08008 z" /><path
       inkscape:connector-curvature="0"
       id="path46"
       style="fill:#000000;fill-opacity:1;fill-rule:evenodd;stroke:none"
       d="m 33.4,315.28 7.56016,0 0,0.95977 -7.56016,0 0,-0.95977 z" /><path
       inkscape:connector-curvature="0"
       id="path48"
       style="fill:#000000;fill-opacity:1;fill-rule:evenodd;stroke:none"
       d="m 33.4,345.52 7.56016,0 0,0.96016 -7.56016,0 0,-0.96016 z" /><path
       inkscape:connector-curvature="0"
       id="path50"
       style="fill:#000000;fill-opacity:1;fill-rule:evenodd;stroke:none"
       d="m 33.4,375.76 7.56016,0 0,1.07969 -7.56016,0 0,-1.07969 z" /><path
       inkscape:connector-curvature="0"
       id="path52"
       style="fill:#000000;fill-opacity:1;fill-rule:evenodd;stroke:none;marker-end:none"
       d="m 32.9199,72.705705 0.960156,0 0,327.677505 -0.960156,0 0,-327.677505 z" /><path
       inkscape:connector-curvature="0"
       id="path60"
       style="fill:#000000;fill-opacity:1;fill-rule:nonzero;stroke:none"
       d="m 125.92,103.72 0.24,0 0,-0.36 -0.48,0 0.24,-0.24 0,0.6" /><path
       inkscape:connector-curvature="0"
       id="path64"
       style="fill:#000000;fill-opacity:1;fill-rule:nonzero;stroke:none"
       d="m 126.16,73.1199 0,-0.2398 -0.24,0 0,0.4801 -0.24,-0.2403 0.48,0" /><path
       inkscape:connector-curvature="0"
       id="path78"
       style="fill:#000000;fill-opacity:1;fill-rule:nonzero;stroke:none"
       d="m 216.28,194.68 0.24,0 0,-0.36 -0.6,0 0.36,-0.24 0,0.6" /><path
       inkscape:connector-curvature="0"
       id="path80"
       style="fill:#000000;fill-opacity:1;fill-rule:evenodd;stroke:none"
       d="m 121.72,72.8801 94.5602,0 0,0.480078 -94.5602,0 0,-0.480078 z" /><path
       inkscape:connector-curvature="0"
       id="path82"
       style="fill:#000000;fill-opacity:1;fill-rule:nonzero;stroke:none"
       d="m 216.52,73.1199 0,-0.2398 -0.24,0 0,0.4801 -0.36,-0.2403 0.6,0" /><path
       inkscape:connector-curvature="0"
       id="path86"
       style="fill:#000000;fill-opacity:1;fill-rule:nonzero;stroke:none"
       d="m 121.72,72.8801 -0.24,0 0,0.2398 0.48,0 -0.24,0.2403 0,-0.4801" /><path
       inkscape:connector-curvature="0"
       id="path88"
       style="fill:#000000;fill-opacity:1;fill-rule:nonzero;stroke:none"
       d="m 121.48,194.32 0,0.36 0.24,0 0,-0.6 0.24,0.24 -0.48,0" /><path
       inkscape:connector-curvature="0"
       id="path96"
       style="fill:#000000;fill-opacity:1;fill-rule:nonzero;stroke:none"
       d="m 306.64,376.6 0.36,0 0,-0.24 -0.6,0 0.24,-0.36 0,0.6" /><path
       inkscape:connector-curvature="0"
       id="path98"
       style="fill:#000000;fill-opacity:1;fill-rule:evenodd;stroke:none"
       d="m 212.2,72.8801 94.4398,0 0,0.480078 -94.4398,0 0,-0.480078 z" /><path
       inkscape:connector-curvature="0"
       id="path100"
       style="fill:#000000;fill-opacity:1;fill-rule:nonzero;stroke:none"
       d="m 307,73.1199 0,-0.2398 -0.36,0 0,0.4801 -0.24,-0.2403 0.6,0" /><path
       inkscape:connector-curvature="0"
       id="path104"
       style="fill:#000000;fill-opacity:1;fill-rule:nonzero;stroke:none"
       d="m 212.2,72.8801 -0.24,0 0,0.2398 0.48,0 -0.24,0.2403 0,-0.4801" /><path
       inkscape:connector-curvature="0"
       id="path106"
       style="fill:#000000;fill-opacity:1;fill-rule:nonzero;stroke:none"
       d="m 211.96,376.36 0,0.24 0.24,0 0,-0.6 0.24,0.36 -0.48,0" /><path
       inkscape:connector-curvature="0"
       id="path114"
       style="fill:#000000;fill-opacity:1;fill-rule:nonzero;stroke:none"
       d="m 397,164.32 0.24,0 0,-0.24 -0.48,0 0.24,-0.24 0,0.48" /><path
       inkscape:connector-curvature="0"
       id="path116"
       style="fill:#000000;fill-opacity:1;fill-rule:evenodd;stroke:none"
       d="m 302.56,72.8801 94.4398,0 0,0.480078 -94.4398,0 0,-0.480078 z" /><path
       inkscape:connector-curvature="0"
       id="path118"
       style="fill:#000000;fill-opacity:1;fill-rule:nonzero;stroke:none"
       d="m 397.24,73.1199 0,-0.2398 -0.24,0 0,0.4801 -0.24,-0.2403 0.48,0" /><path
       inkscape:connector-curvature="0"
       id="path122"
       style="fill:#000000;fill-opacity:1;fill-rule:nonzero;stroke:none"
       d="m 302.56,72.8801 -0.24,0 0,0.2398 0.48,0 -0.24,0.2403 0,-0.4801" /><path
       inkscape:connector-curvature="0"
       id="path124"
       style="fill:#000000;fill-opacity:1;fill-rule:nonzero;stroke:none"
       d="m 302.32,164.08 0,0.24 0.24,0 0,-0.48 0.24,0.24 -0.48,0" /><path
       inkscape:connector-curvature="0"
       id="path132"
       style="fill:#000000;fill-opacity:1;fill-rule:nonzero;stroke:none"
       d="m 487.48,103.72 0.24,0 0,-0.36 -0.48,0 0.24,-0.24 0,0.6" /><path
       inkscape:connector-curvature="0"
       id="path140"
       style="fill:#000000;fill-opacity:1;fill-rule:nonzero;stroke:none"
       d="m 393.04,72.8801 -0.24,0 0,0.2398 0.48,0 -0.24,0.2403 0,-0.4801" /><path
       inkscape:connector-curvature="0"
       id="path142"
       style="fill:#000000;fill-opacity:1;fill-rule:nonzero;stroke:none"
       d="m 392.8,103.36 0,0.36 0.24,0 0,-0.6 0.24,0.24 -0.48,0" /><g
       id="g144"
       transform="scale(0.1,0.1)"><g
         clip-path="url(#clipPath148)"
         id="g146"><g
           transform="scale(10,10)"
           id="g152"><text
             id="text154"
             transform="matrix(1,0,0,-1,13.7199,67.8394)"><tspan
               id="tspan156"
               y="0"
               x="0"
               style="font-size:19.79999924px;font-variant:normal;font-weight:normal;writing-mode:lr-tb;fill:#000000;fill-opacity:1;fill-rule:nonzero;stroke:none;font-family:Helvetica;-inkscape-font-specification:Helvetica">0</tspan></text>
</g></g></g><g
       id="g158"
       transform="scale(0.1,0.1)"><g
         clip-path="url(#clipPath162)"
         id="g160"><g
           transform="scale(10,10)"
           id="g166"><text
             id="text168"
             transform="matrix(1,0,0,-1,13.7199,98.0792)"><tspan
               id="tspan170"
               y="0"
               x="0"
               style="font-size:19.79999924px;font-variant:normal;font-weight:normal;writing-mode:lr-tb;fill:#000000;fill-opacity:1;fill-rule:nonzero;stroke:none;font-family:Helvetica;-inkscape-font-specification:Helvetica">1</tspan></text>
</g></g></g><g
       id="g172"
       transform="scale(0.1,0.1)"><g
         clip-path="url(#clipPath176)"
         id="g174"><g
           transform="scale(10,10)"
           id="g180"><text
             id="text182"
             transform="matrix(1,0,0,-1,13.7199,128.319)"><tspan
               id="tspan184"
               y="0"
               x="0"
               style="font-size:19.79999924px;font-variant:normal;font-weight:normal;writing-mode:lr-tb;fill:#000000;fill-opacity:1;fill-rule:nonzero;stroke:none;font-family:Helvetica;-inkscape-font-specification:Helvetica">2</tspan></text>
</g></g></g><g
       id="g186"
       transform="scale(0.1,0.1)"><g
         clip-path="url(#clipPath190)"
         id="g188"><g
           transform="scale(10,10)"
           id="g194"><text
             id="text196"
             transform="matrix(1,0,0,-1,13.7199,158.8)"><tspan
               id="tspan198"
               y="0"
               x="0"
               style="font-size:19.79999924px;font-variant:normal;font-weight:normal;writing-mode:lr-tb;fill:#000000;fill-opacity:1;fill-rule:nonzero;stroke:none;font-family:Helvetica;-inkscape-font-specification:Helvetica">3</tspan></text>
</g></g></g><g
       id="g200"
       transform="scale(0.1,0.1)"><g
         clip-path="url(#clipPath204)"
         id="g202"><g
           transform="scale(10,10)"
           id="g208"><text
             id="text210"
             transform="matrix(1,0,0,-1,13.7199,189.039)"><tspan
               id="tspan212"
               y="0"
               x="0"
               style="font-size:19.79999924px;font-variant:normal;font-weight:normal;writing-mode:lr-tb;fill:#000000;fill-opacity:1;fill-rule:nonzero;stroke:none;font-family:Helvetica;-inkscape-font-specification:Helvetica">4</tspan></text>
</g></g></g><g
       id="g214"
       transform="scale(0.1,0.1)"><g
         clip-path="url(#clipPath218)"
         id="g216"><g
           transform="scale(10,10)"
           id="g222"><text
             id="text224"
             transform="matrix(1,0,0,-1,13.7199,219.279)"><tspan
               id="tspan226"
               y="0"
               x="0"
               style="font-size:19.79999924px;font-variant:normal;font-weight:normal;writing-mode:lr-tb;fill:#000000;fill-opacity:1;fill-rule:nonzero;stroke:none;font-family:Helvetica;-inkscape-font-specification:Helvetica">5</tspan></text>
</g></g></g><g
       id="g228"
       transform="scale(0.1,0.1)"><g
         clip-path="url(#clipPath232)"
         id="g230"><g
           transform="scale(10,10)"
           id="g236"><text
             id="text238"
             transform="matrix(1,0,0,-1,13.7199,249.759)"><tspan
               id="tspan240"
               y="0"
               x="0"
               style="font-size:19.79999924px;font-variant:normal;font-weight:normal;writing-mode:lr-tb;fill:#000000;fill-opacity:1;fill-rule:nonzero;stroke:none;font-family:Helvetica;-inkscape-font-specification:Helvetica">6</tspan></text>
</g></g></g><g
       id="g242"
       transform="scale(0.1,0.1)"><g
         clip-path="url(#clipPath246)"
         id="g244"><g
           transform="scale(10,10)"
           id="g250"><text
             id="text252"
             transform="matrix(1,0,0,-1,13.7199,280)"><tspan
               id="tspan254"
               y="0"
               x="0"
               style="font-size:19.79999924px;font-variant:normal;font-weight:normal;writing-mode:lr-tb;fill:#000000;fill-opacity:1;fill-rule:nonzero;stroke:none;font-family:Helvetica;-inkscape-font-specification:Helvetica">7</tspan></text>
</g></g></g><g
       id="g256"
       transform="scale(0.1,0.1)"><g
         clip-path="url(#clipPath260)"
         id="g258"><g
           transform="scale(10,10)"
           id="g264"><text
             id="text266"
             transform="matrix(1,0,0,-1,13.7199,310.359)"><tspan
               id="tspan268"
               y="0"
               x="0"
               style="font-size:19.79999924px;font-variant:normal;font-weight:normal;writing-mode:lr-tb;fill:#000000;fill-opacity:1;fill-rule:nonzero;stroke:none;font-family:Helvetica;-inkscape-font-specification:Helvetica">8</tspan></text>
</g></g></g><g
       id="g270"
       transform="scale(0.1,0.1)"><g
         clip-path="url(#clipPath274)"
         id="g272"><g
           transform="scale(10,10)"
           id="g278"><text
             id="text280"
             transform="matrix(1,0,0,-1,13.7199,340.719)"><tspan
               id="tspan282"
               y="0"
               x="0"
               style="font-size:19.79999924px;font-variant:normal;font-weight:normal;writing-mode:lr-tb;fill:#000000;fill-opacity:1;fill-rule:nonzero;stroke:none;font-family:Helvetica;-inkscape-font-specification:Helvetica">9</tspan></text>
</g></g></g><g
       id="g284"
       transform="scale(0.1,0.1)"><g
         clip-path="url(#clipPath288)"
         id="g286"><g
           transform="scale(10,10)"
           id="g292"><text
             id="text294"
             transform="matrix(1,0,0,-1,2.68008,370.959)"><tspan
               id="tspan296"
               y="0"
               x="0"
               style="font-size:19.79999924px;font-variant:normal;font-weight:normal;writing-mode:lr-tb;fill:#000000;fill-opacity:1;fill-rule:nonzero;stroke:none;font-family:Helvetica;-inkscape-font-specification:Helvetica">1</tspan></text>
</g></g></g><g
       id="g298"
       transform="scale(0.1,0.1)"><g
         clip-path="url(#clipPath302)"
         id="g300"><g
           transform="scale(10,10)"
           id="g306"><text
             id="text308"
             transform="matrix(1,0,0,-1,13.7199,370.959)"><tspan
               id="tspan310"
               y="0"
               x="0"
               style="font-size:19.79999924px;font-variant:normal;font-weight:normal;writing-mode:lr-tb;fill:#000000;fill-opacity:1;fill-rule:nonzero;stroke:none;font-family:Helvetica;-inkscape-font-specification:Helvetica">0</tspan></text>
</g></g></g><g
       id="g312"
       transform="scale(0.1,0.1)"><g
         clip-path="url(#clipPath316)"
         id="g314"><g
           transform="scale(10,10)"
           id="g320"><text
             id="text322"
             transform="matrix(1,0,0,-1,475.12,37.6843)"><tspan
               id="tspan324"
               y="0"
               x="0"
               style="font-size:24.12000084px;font-variant:normal;font-weight:normal;writing-mode:lr-tb;fill:#000000;fill-opacity:1;fill-rule:nonzero;stroke:none;font-family:Helvetica;-inkscape-font-specification:Helvetica">1</tspan></text>
</g></g></g><g
       id="g326"
       transform="scale(0.1,0.1)"><g
         clip-path="url(#clipPath330)"
         id="g328"><g
           transform="scale(10,10)"
           id="g334"><text
             id="text336"
             transform="matrix(1,0,0,-1,488.56,37.6843)"><tspan
               id="tspan338"
               y="0"
               x="0"
               style="font-size:24.12000084px;font-variant:normal;font-weight:normal;writing-mode:lr-tb;fill:#000000;fill-opacity:1;fill-rule:nonzero;stroke:none;font-family:Helvetica;-inkscape-font-specification:Helvetica">0</tspan></text>
</g></g></g><g
       id="g340"
       transform="scale(0.1,0.1)"><g
         clip-path="url(#clipPath344)"
         id="g342"><g
           transform="scale(10,10)"
           id="g348"><text
             id="text350"
             transform="matrix(1,0,0,-1,111.28,29.6444)"><tspan
               id="tspan352"
               y="0"
               x="0"
               style="font-size:24.12000084px;font-variant:normal;font-weight:normal;writing-mode:lr-tb;fill:#000000;fill-opacity:1;fill-rule:nonzero;stroke:none;font-family:Helvetica;-inkscape-font-specification:Helvetica">2</tspan></text>
</g></g></g><g
       id="g354"
       transform="scale(0.1,0.1)"><g
         clip-path="url(#clipPath358)"
         id="g356"><g
           transform="scale(10,10)"
           id="g362"><text
             id="text364"
             transform="matrix(1,0,0,-1,198.64,33.0042)"><tspan
               id="tspan366"
               y="0"
               x="0"
               style="font-size:24.12000084px;font-variant:normal;font-weight:normal;writing-mode:lr-tb;fill:#000000;fill-opacity:1;fill-rule:nonzero;stroke:none;font-family:Helvetica;-inkscape-font-specification:Helvetica">4</tspan></text>
</g></g></g><g
       id="g368"
       transform="scale(0.1,0.1)"><g
         clip-path="url(#clipPath372)"
         id="g370"><g
           transform="scale(10,10)"
           id="g376"><text
             id="text378"
             transform="matrix(1,0,0,-1,281.32,33.0042)"><tspan
               id="tspan380"
               y="0"
               x="0"
               style="font-size:24.12000084px;font-variant:normal;font-weight:normal;writing-mode:lr-tb;fill:#000000;fill-opacity:1;fill-rule:nonzero;stroke:none;font-family:Helvetica;-inkscape-font-specification:Helvetica">6</tspan></text>
</g></g></g><g
       id="g382"
       transform="scale(0.1,0.1)"><g
         clip-path="url(#clipPath386)"
         id="g384"><g
           transform="scale(10,10)"
           id="g390"><text
             id="text392"
             transform="matrix(1,0,0,-1,389.08,35.4042)"><tspan
               id="tspan394"
               y="0"
               x="0"
               style="font-size:24.12000084px;font-variant:normal;font-weight:normal;writing-mode:lr-tb;fill:#000000;fill-opacity:1;fill-rule:nonzero;stroke:none;font-family:Helvetica;-inkscape-font-specification:Helvetica">8</tspan></text>
</g></g></g><path
       inkscape:connector-curvature="0"
       id="path32"
       style="fill:#000000;fill-opacity:1;fill-rule:evenodd;stroke:none"
       d="m 33.4,102.88 7.56016,0 0,1.08008 -7.56016,0 0,-1.08008 z" /><path
       style="fill:none;stroke:#000000;stroke-width:0.80000001px;stroke-linecap:butt;stroke-linejoin:miter;stroke-opacity:1;marker-end:url(#Arrow1Mend)"
       d="m 33.461544,397.14533 -0.14644,9.22572"
       id="path4934"
       inkscape:connector-curvature="0" /><path
       style="fill:none;stroke:#000000;stroke-width:1px;stroke-linecap:butt;stroke-linejoin:miter;stroke-opacity:1;marker-start:none;marker-end:url(#Arrow1Mend)"
       d="m 662.0004,397.40804 10.79995,-0.0915 0,0"
       id="path6788"
       inkscape:connector-curvature="0"
       transform="matrix(0.8,0,0,-0.8,0,391)" /><text
       xml:space="preserve"
       style="font-size:25.60000038px;font-style:normal;font-variant:normal;font-weight:normal;font-stretch:normal;line-height:125%;letter-spacing:0px;word-spacing:0px;fill:#000000;fill-opacity:1;stroke:none;font-family:TG Termes Math;-inkscape-font-specification:TG Termes Math"
       x="520.64301"
       y="-51.567265"
       id="text7164"
       sodipodi:linespacing="125%"
       transform="scale(1,-1)"><tspan
         sodipodi:role="line"
         id="tspan7166"
         x="520.64301"
         y="-51.567265">X</tspan></text>
<text
       xml:space="preserve"
       style="font-size:16px;font-style:normal;font-variant:normal;font-weight:normal;font-stretch:normal;line-height:125%;letter-spacing:0px;word-spacing:0px;fill:#000000;fill-opacity:1;stroke:none;font-family:TG Termes Math;-inkscape-font-specification:TG Termes Math"
       x="15.325212"
       y="-394.52066"
       id="text7168"
       sodipodi:linespacing="125%"
       transform="scale(1,-1)"><tspan
         sodipodi:role="line"
         id="tspan7170"
         x="15.325212"
         y="-394.52066"
         style="font-size:25.60000038px;font-family:Latin Modern Roman;-inkscape-font-specification:Latin Modern Roman">n</tspan></text>
</g></svg>