<?xml version="1.0" encoding="UTF-8" standalone="no"?>
<!-- Created with matplotlib (http://matplotlib.org/) -->

<svg
   xmlns:dc="http://purl.org/dc/elements/1.1/"
   xmlns:cc="http://creativecommons.org/ns#"
   xmlns:rdf="http://www.w3.org/1999/02/22-rdf-syntax-ns#"
   xmlns:svg="http://www.w3.org/2000/svg"
   xmlns="http://www.w3.org/2000/svg"
   xmlns:xlink="http://www.w3.org/1999/xlink"
   xmlns:sodipodi="http://sodipodi.sourceforge.net/DTD/sodipodi-0.dtd"
   xmlns:inkscape="http://www.inkscape.org/namespaces/inkscape"
   height="448.23203"
   version="1.1"
   viewBox="0 0 458.00679 358.58562"
   width="572.50848"
   id="svg2"
   inkscape:version="0.48.4 r9939"
   sodipodi:docname="Imagen47.pdf">
  <metadata
     id="metadata403">
    <rdf:RDF>
      <cc:Work
         rdf:about="">
        <dc:format>image/svg+xml</dc:format>
        <dc:type
           rdf:resource="http://purl.org/dc/dcmitype/StillImage" />
        <dc:title></dc:title>
      </cc:Work>
    </rdf:RDF>
  </metadata>
  <sodipodi:namedview
     pagecolor="#ffffff"
     bordercolor="#666666"
     borderopacity="1"
     objecttolerance="10"
     gridtolerance="10"
     guidetolerance="10"
     inkscape:pageopacity="0"
     inkscape:pageshadow="2"
     inkscape:window-width="1333"
     inkscape:window-height="744"
     id="namedview401"
     showgrid="false"
     showguides="true"
     inkscape:guide-bbox="true"
     inkscape:zoom="1.0351852"
     inkscape:cx="448.21797"
     inkscape:cy="94.030014"
     inkscape:window-x="33"
     inkscape:window-y="24"
     inkscape:window-maximized="1"
     inkscape:current-layer="svg2"
     fit-margin-top="0"
     fit-margin-left="0"
     fit-margin-right="0"
     fit-margin-bottom="0">
    <sodipodi:guide
       orientation="1,0"
       position="545.2699,383.1002"
       id="guide4047" />
    <sodipodi:guide
       orientation="0,1"
       position="-167.64602,355.08589"
       id="guide5077" />
  </sodipodi:namedview>
  <defs
     id="defs4"
     style="stroke-linecap:butt;stroke-linejoin:round">
    <style
       type="text/css"
       id="style6">
*{stroke-linecap:butt;stroke-linejoin:round;}
  </style>
  </defs>
  <g
     id="line2d_1"
     style="stroke-linecap:butt;stroke-linejoin:round"
     transform="matrix(0.99229783,0,0,0.99091348,-58.510464,-39.32056)">
    <path
       clip-path="url(#p7ff5b81e1d)"
       d="m 135.771,388.8 7.062,-0.121 7.062,-0.363 7.062,-0.606 7.062,-0.847 7.062,-1.09 7.062,-1.332 7.062,-1.574 7.062,-1.817 7.062,-2.058 7.062,-2.301 7.062,-2.543 7.062,-2.785 7.062,-3.027 7.062,-3.269 7.061,-3.512 7.062,-3.754 7.062,-3.995 7.062,-4.239 7.062,-4.48 7.062,-4.722 7.062,-4.965 7.062,-5.207 7.062,-5.449 7.062,-5.691 7.062,-5.933 7.062,-6.175 7.062,-6.418 7.062,-6.66 7.062,-6.902 7.062,-7.144 7.061,-7.387 9.416,-10.225 9.416,-10.656 9.416,-11.086 9.416,-11.517 9.416,-11.947 9.416,-12.378 9.416,-12.808 9.416,-13.239 9.416,-13.67 9.416,-14.1 9.416,-14.53 9.415,-14.961 9.416,-15.392 9.416,-15.8221 0,0"
       style="fill:none;stroke:#0000ff;stroke-width:4;stroke-linecap:square;stroke-linejoin:round"
       id="path25"
       inkscape:connector-curvature="0" />
  </g>
  <path
     inkscape:connector-curvature="0"
     id="path28"
     style="fill:#000080;stroke:#00007f;stroke-width:4;stroke-linecap:square;stroke-linejoin:round"
     d="m 135.771,388.8 350.743,-271.543 0,0"
     clip-path="url(#p7ff5b81e1d)"
     transform="translate(-59.444189,-43.239804)" />
  <g
     id="line2d_3"
     style="stroke-linecap:butt;stroke-linejoin:round"
     transform="translate(-61.472812,-42.950001)">
    <defs
       id="defs33">
      <path
         d="M 0,0 0,-4"
         id="m93b0483c22"
         style="stroke:#000000;stroke-width:0.5;stroke-linecap:butt;stroke-linejoin:round"
         inkscape:connector-curvature="0" />
    </defs>
    <g
       id="g36"
       style="stroke-linecap:butt;stroke-linejoin:round">
      <use
         style="stroke:#000000;stroke-width:0.5;stroke-linecap:butt;stroke-linejoin:round"
         x="72"
         xlink:href="#m93b0483c22"
         y="388.79999"
         id="use38"
         width="576"
         height="432" />
    </g>
  </g>
  <g
     id="text_1"
     style="stroke-linecap:butt;stroke-linejoin:round"
     transform="translate(-61.472812,-42.950001)">
    <!-- −0.2 -->
    <defs
       id="defs49">
      <path
         d="m 4.15625,35.2969 q 0,12.7031 2.60937,20.4375 2.60938,7.75 7.74998,11.9375 5.1563,4.2031 12.9688,4.2031 5.7656,0 10.1094,-2.3281 4.3437,-2.3125 7.1718,-6.6875 2.8438,-4.3594 4.4532,-10.6406 1.6093,-6.2657 1.6093,-16.9219 0,-12.5938 -2.5937,-20.3281 Q 45.6562,7.23438 40.5,3 35.3594,-1.21875 27.4844,-1.21875 q -10.3438,0 -16.25,7.42187 Q 4.15625,15.1406 4.15625,35.2969 m 9.03125,0 q 0,-17.625 4.125,-23.4688 Q 21.4375,6 27.4844,6 q 6.0625,0 10.1875,5.8594 4.125,5.8594 4.125,23.4375 0,17.6875 -4.125,23.4843 -4.125,5.8126 -10.2813,5.8126 -6.0468,0 -9.6718,-5.125 -4.5313,-6.5313 -4.5313,-24.1719"
         id="ArialMT-30"
         inkscape:connector-curvature="0"
         style="stroke-linecap:butt;stroke-linejoin:round" />
      <path
         d="m 52.8281,31.2031 -47.2656,0 0,8.2031 47.2656,0 z"
         id="ArialMT-2212"
         inkscape:connector-curvature="0"
         style="stroke-linecap:butt;stroke-linejoin:round" />
      <path
         d="M 50.3438,8.45312 50.3438,0 3.03125,0 q -0.09375,3.17188 1.01563,6.10938 1.8125,4.82812 5.78124,9.51562 3.98438,4.6875 11.51568,10.8438 11.6718,9.5624 15.7656,15.1562 4.1094,5.5938 4.1094,10.5781 0,5.2188 -3.75,8.7969 -3.7344,3.5938 -9.7344,3.5938 -6.3438,0 -10.1563,-3.8126 Q 13.7656,56.9844 13.7188,50.25 l -9.0313,0.9219 q 0.92188,10.1093 6.9687,15.4062 6.0626,5.2969 16.2813,5.2969 10.2969,0 16.2969,-5.7188 Q 50.25,60.4531 50.25,52 q 0,-4.2969 -1.7656,-8.4531 -1.75,-4.1407 -5.8282,-8.7344 Q 38.5781,30.2188 29.1094,22.2188 21.1875,15.5781 18.9375,13.2031 16.7031,10.8438 15.2344,8.45312 z"
         id="ArialMT-32"
         inkscape:connector-curvature="0"
         style="stroke-linecap:butt;stroke-linejoin:round" />
      <path
         d="m 9.07812,0 0,10.0156 10.01568,0 0,-10.0156 z"
         id="ArialMT-2e"
         inkscape:connector-curvature="0"
         style="stroke-linecap:butt;stroke-linejoin:round" />
    </defs>
    <g
       transform="matrix(0.12,0,0,-0.12,60.805312,401.38937)"
       id="g55"
       style="stroke-linecap:butt;stroke-linejoin:round">
      <use
         xlink:href="#ArialMT-2212"
         id="use57"
         style="stroke-linecap:butt;stroke-linejoin:round"
         x="0"
         y="0"
         width="576"
         height="432" />
      <use
         x="58.398438"
         xlink:href="#ArialMT-30"
         id="use59"
         style="stroke-linecap:butt;stroke-linejoin:round"
         y="0"
         width="576"
         height="432" />
      <use
         x="114.01367"
         xlink:href="#ArialMT-2e"
         id="use61"
         style="stroke-linecap:butt;stroke-linejoin:round"
         y="0"
         width="576"
         height="432" />
      <use
         x="141.79688"
         xlink:href="#ArialMT-32"
         id="use63"
         style="stroke-linecap:butt;stroke-linejoin:round"
         y="0"
         width="576"
         height="432" />
    </g>
  </g>
  <g
     id="line2d_5"
     style="stroke-linecap:butt;stroke-linejoin:round"
     transform="translate(-61.472812,-42.950001)">
    <g
       id="g67"
       style="stroke-linecap:butt;stroke-linejoin:round">
      <use
         style="stroke:#000000;stroke-width:0.5;stroke-linecap:butt;stroke-linejoin:round"
         x="135.77142"
         xlink:href="#m93b0483c22"
         y="388.79999"
         id="use69"
         width="576"
         height="432" />
    </g>
  </g>
  <g
     id="line2d_6"
     style="stroke-linecap:butt;stroke-linejoin:round"
     transform="translate(-61.472812,-42.950001)">
    <g
       id="g72"
       style="stroke-linecap:butt;stroke-linejoin:round">
      <path
         inkscape:connector-curvature="0"
         style="stroke:#000000;stroke-width:0.5;stroke-linecap:butt;stroke-linejoin:round"
         id="use74"
         d="m 135.77142,43.200001 0,4" />
    </g>
  </g>
  <g
     id="text_2"
     style="stroke-linecap:butt;stroke-linejoin:round"
     transform="translate(-61.472812,-42.950001)">
    <!-- 0.0 -->
    <g
       transform="matrix(0.12,0,0,-0.12,127.96768,401.38937)"
       id="g77"
       style="stroke-linecap:butt;stroke-linejoin:round">
      <use
         xlink:href="#ArialMT-30"
         id="use79"
         style="stroke-linecap:butt;stroke-linejoin:round"
         x="0"
         y="0"
         width="576"
         height="432" />
      <use
         x="55.615234"
         xlink:href="#ArialMT-2e"
         id="use81"
         style="stroke-linecap:butt;stroke-linejoin:round"
         y="0"
         width="576"
         height="432" />
      <use
         x="83.398438"
         xlink:href="#ArialMT-30"
         id="use83"
         style="stroke-linecap:butt;stroke-linejoin:round"
         y="0"
         width="576"
         height="432" />
    </g>
  </g>
  <g
     id="line2d_7"
     style="stroke-linecap:butt;stroke-linejoin:round"
     transform="translate(-61.472812,-42.950001)">
    <g
       id="g87"
       style="stroke-linecap:butt;stroke-linejoin:round">
      <use
         style="stroke:#000000;stroke-width:0.5;stroke-linecap:butt;stroke-linejoin:round"
         x="199.54286"
         xlink:href="#m93b0483c22"
         y="388.79999"
         id="use89"
         width="576"
         height="432" />
    </g>
  </g>
  <g
     id="line2d_8"
     style="stroke-linecap:butt;stroke-linejoin:round"
     transform="translate(-61.472812,3.449999)">
    <g
       id="g92"
       style="stroke-linecap:butt;stroke-linejoin:round">
      <path
         inkscape:connector-curvature="0"
         style="stroke:#000000;stroke-width:0.5;stroke-linecap:butt;stroke-linejoin:round"
         id="use94"
         d="m 199.54286,43.200001 0,4" />
    </g>
  </g>
  <g
     id="text_3"
     style="stroke-linecap:butt;stroke-linejoin:round"
     transform="translate(-61.472812,-42.950001)">
    <!-- 0.2 -->
    <g
       transform="matrix(0.12,0,0,-0.12,191.76817,401.38937)"
       id="g97"
       style="stroke-linecap:butt;stroke-linejoin:round">
      <use
         xlink:href="#ArialMT-30"
         id="use99"
         style="stroke-linecap:butt;stroke-linejoin:round"
         x="0"
         y="0"
         width="576"
         height="432" />
      <use
         x="55.615234"
         xlink:href="#ArialMT-2e"
         id="use101"
         style="stroke-linecap:butt;stroke-linejoin:round"
         y="0"
         width="576"
         height="432" />
      <use
         x="83.398438"
         xlink:href="#ArialMT-32"
         id="use103"
         style="stroke-linecap:butt;stroke-linejoin:round"
         y="0"
         width="576"
         height="432" />
    </g>
  </g>
  <g
     id="line2d_9"
     style="stroke-linecap:butt;stroke-linejoin:round"
     transform="translate(-61.472812,-42.950001)">
    <g
       id="g107"
       style="stroke-linecap:butt;stroke-linejoin:round">
      <use
         style="stroke:#000000;stroke-width:0.5;stroke-linecap:butt;stroke-linejoin:round"
         x="263.3143"
         xlink:href="#m93b0483c22"
         y="388.79999"
         id="use109"
         width="576"
         height="432" />
    </g>
  </g>
  <g
     id="line2d_10"
     style="stroke-linecap:butt;stroke-linejoin:round"
     transform="translate(-61.472812,3.449999)">
    <g
       id="g112"
       style="stroke-linecap:butt;stroke-linejoin:round">
      <path
         inkscape:connector-curvature="0"
         style="stroke:#000000;stroke-width:0.5;stroke-linecap:butt;stroke-linejoin:round"
         id="use114"
         d="m 263.3143,43.200001 0,4" />
    </g>
  </g>
  <g
     id="text_4"
     style="stroke-linecap:butt;stroke-linejoin:round"
     transform="translate(-61.472812,-42.950001)">
    <!-- 0.4 -->
    <defs
       id="defs117">
      <path
         d="m 32.3281,0 0,17.1406 -31.06248,0 0,8.0625 32.67188,46.375 7.1719,0 0,-46.375 9.6718,0 0,-8.0625 -9.6718,0 0,-17.1406 z m 0,25.2031 0,32.2657 L 9.90625,25.2031 z"
         id="ArialMT-34"
         inkscape:connector-curvature="0"
         style="stroke-linecap:butt;stroke-linejoin:round" />
    </defs>
    <g
       transform="matrix(0.12,0,0,-0.12,255.51335,401.38937)"
       id="g120"
       style="stroke-linecap:butt;stroke-linejoin:round">
      <use
         xlink:href="#ArialMT-30"
         id="use122"
         style="stroke-linecap:butt;stroke-linejoin:round"
         x="0"
         y="0"
         width="576"
         height="432" />
      <use
         x="55.615234"
         xlink:href="#ArialMT-2e"
         id="use124"
         style="stroke-linecap:butt;stroke-linejoin:round"
         y="0"
         width="576"
         height="432" />
      <use
         x="83.398438"
         xlink:href="#ArialMT-34"
         id="use126"
         style="stroke-linecap:butt;stroke-linejoin:round"
         y="0"
         width="576"
         height="432" />
    </g>
  </g>
  <g
     id="line2d_11"
     style="stroke-linecap:butt;stroke-linejoin:round"
     transform="translate(-61.472812,-42.950001)">
    <g
       id="g130"
       style="stroke-linecap:butt;stroke-linejoin:round">
      <use
         style="stroke:#000000;stroke-width:0.5;stroke-linecap:butt;stroke-linejoin:round"
         x="327.08572"
         xlink:href="#m93b0483c22"
         y="388.79999"
         id="use132"
         width="576"
         height="432" />
    </g>
  </g>
  <g
     id="line2d_12"
     style="stroke-linecap:butt;stroke-linejoin:round"
     transform="translate(-61.472812,3.449999)">
    <g
       id="g135"
       style="stroke-linecap:butt;stroke-linejoin:round">
      <path
         inkscape:connector-curvature="0"
         style="stroke:#000000;stroke-width:0.5;stroke-linecap:butt;stroke-linejoin:round"
         id="use137"
         d="m 327.08572,43.200001 0,4" />
    </g>
  </g>
  <g
     id="text_5"
     style="stroke-linecap:butt;stroke-linejoin:round"
     transform="translate(-61.472812,-42.950001)">
    <!-- 0.6 -->
    <defs
       id="defs140">
      <path
         d="M 49.75,54.0469 41.0156,53.375 q -1.1718,5.1719 -3.3125,7.5156 -3.5781,3.7656 -8.7969,3.7656 -4.2031,0 -7.375,-2.3437 -4.1406,-3.0313 -6.5468,-8.8437 -2.3906,-5.8126 -2.4844,-16.5469 3.1719,4.8281 7.7656,7.1719 4.5938,2.3437 9.625,2.3437 8.7813,0 14.9532,-6.4687 Q 51.0312,33.5 51.0312,23.25 51.0312,16.5 48.125,10.7188 45.2188,4.9375 40.1406,1.85938 35.0625,-1.21875 28.6094,-1.21875 17.625,-1.21875 10.6875,6.85938 3.76562,14.9375 3.76562,33.5 q 0,20.75 7.65628,30.1719 6.6875,8.2031 18.0156,8.2031 8.4531,0 13.8437,-4.7344 5.4063,-4.7344 6.4688,-13.0937 M 13.875,23.1875 q 0,-4.5313 1.9219,-8.6875 1.9219,-4.1406 5.3906,-6.32812 Q 24.6562,6 28.4688,6 q 5.5624,0 9.5624,4.4844 4.0157,4.5 4.0157,12.2187 0,7.4219 -3.9688,11.6875 -3.9531,4.2813 -9.9531,4.2813 -5.9531,0 -10.1094,-4.2813 Q 13.875,30.125 13.875,23.1875"
         id="ArialMT-36"
         inkscape:connector-curvature="0"
         style="stroke-linecap:butt;stroke-linejoin:round" />
    </defs>
    <g
       transform="matrix(0.12,0,0,-0.12,319.26978,401.38937)"
       id="g143"
       style="stroke-linecap:butt;stroke-linejoin:round">
      <use
         xlink:href="#ArialMT-30"
         id="use145"
         style="stroke-linecap:butt;stroke-linejoin:round"
         x="0"
         y="0"
         width="576"
         height="432" />
      <use
         x="55.615234"
         xlink:href="#ArialMT-2e"
         id="use147"
         style="stroke-linecap:butt;stroke-linejoin:round"
         y="0"
         width="576"
         height="432" />
      <use
         x="83.398438"
         xlink:href="#ArialMT-36"
         id="use149"
         style="stroke-linecap:butt;stroke-linejoin:round"
         y="0"
         width="576"
         height="432" />
    </g>
  </g>
  <g
     id="line2d_13"
     style="stroke-linecap:butt;stroke-linejoin:round"
     transform="translate(-61.472812,-42.950001)">
    <g
       id="g153"
       style="stroke-linecap:butt;stroke-linejoin:round">
      <use
         style="stroke:#000000;stroke-width:0.5;stroke-linecap:butt;stroke-linejoin:round"
         x="390.85715"
         xlink:href="#m93b0483c22"
         y="388.79999"
         id="use155"
         width="576"
         height="432" />
    </g>
  </g>
  <g
     id="line2d_14"
     style="stroke-linecap:butt;stroke-linejoin:round"
     transform="translate(-61.472812,3.449999)">
    <g
       id="g158"
       style="stroke-linecap:butt;stroke-linejoin:round">
      <path
         inkscape:connector-curvature="0"
         style="stroke:#000000;stroke-width:0.5;stroke-linecap:butt;stroke-linejoin:round"
         id="use160"
         d="m 390.85715,43.200001 0,4" />
    </g>
  </g>
  <g
     id="text_6"
     style="stroke-linecap:butt;stroke-linejoin:round"
     transform="translate(-61.472812,-42.950001)">
    <!-- 0.8 -->
    <defs
       id="defs163">
      <path
         d="m 17.6719,38.8125 q -5.4688,2.0156 -8.1094,5.7187 -2.625,3.7188 -2.625,8.8907 0,7.8125 5.6094,13.125 5.625,5.3281 14.9375,5.3281 9.375,0 15.0937,-5.4531 5.7188,-5.4375 5.7188,-13.25 0,-4.9844 -2.625,-8.6719 -2.6094,-3.6719 -7.9219,-5.6875 6.5938,-2.1406 10.0312,-6.9375 3.4376,-4.7812 3.4376,-11.4219 0,-9.1719 -6.5,-15.42185 -6.4844,-6.25 -17.0782,-6.25 -10.5937,0 -17.0937,6.26563 -6.50002,6.28122 -6.50002,15.65622 0,6.9844 3.54687,11.6875 3.54685,4.7188 10.07815,6.4219 m -1.75,14.9063 q 0,-5.0782 3.2656,-8.3126 3.2813,-3.2187 8.5,-3.2187 5.0781,0 8.3281,3.1875 3.25,3.2031 3.25,7.8438 0,4.8437 -3.3594,8.1406 -3.3437,3.2968 -8.3124,3.2968 -5.0313,0 -8.3594,-3.2343 -3.3125,-3.2188 -3.3125,-7.7031 M 13.0938,20.6562 q 0,-3.7656 1.7812,-7.2812 Q 16.6562,9.85938 20.1719,7.92188 23.6875,6 27.7344,6 q 6.2968,0 10.3906,4.0469 4.1094,4.0625 4.1094,10.3125 0,6.3437 -4.2188,10.5 -4.2187,4.1562 -10.5781,4.1562 -6.2031,0 -10.2813,-4.1094 -4.0624,-4.0937 -4.0624,-10.25"
         id="ArialMT-38"
         inkscape:connector-curvature="0"
         style="stroke-linecap:butt;stroke-linejoin:round" />
    </defs>
    <g
       transform="matrix(0.12,0,0,-0.12,383.02996,401.38937)"
       id="g166"
       style="stroke-linecap:butt;stroke-linejoin:round">
      <use
         xlink:href="#ArialMT-30"
         id="use168"
         style="stroke-linecap:butt;stroke-linejoin:round"
         x="0"
         y="0"
         width="576"
         height="432" />
      <use
         x="55.615234"
         xlink:href="#ArialMT-2e"
         id="use170"
         style="stroke-linecap:butt;stroke-linejoin:round"
         y="0"
         width="576"
         height="432" />
      <use
         x="83.398438"
         xlink:href="#ArialMT-38"
         id="use172"
         style="stroke-linecap:butt;stroke-linejoin:round"
         y="0"
         width="576"
         height="432" />
    </g>
  </g>
  <g
     id="line2d_15"
     style="stroke-linecap:butt;stroke-linejoin:round"
     transform="translate(-61.472812,-42.950001)">
    <g
       id="g176"
       style="stroke-linecap:butt;stroke-linejoin:round">
      <use
         style="stroke:#000000;stroke-width:0.5;stroke-linecap:butt;stroke-linejoin:round"
         x="454.62857"
         xlink:href="#m93b0483c22"
         y="388.79999"
         id="use178"
         width="576"
         height="432" />
    </g>
  </g>
  <g
     id="line2d_16"
     style="stroke-linecap:butt;stroke-linejoin:round"
     transform="translate(-61.472812,3.449999)">
    <g
       id="g181"
       style="stroke-linecap:butt;stroke-linejoin:round">
      <path
         inkscape:connector-curvature="0"
         style="stroke:#000000;stroke-width:0.5;stroke-linecap:butt;stroke-linejoin:round"
         id="use183"
         d="m 454.62857,43.200001 0,4" />
    </g>
  </g>
  <g
     id="text_7"
     style="stroke-linecap:butt;stroke-linejoin:round"
     transform="translate(-61.472812,-42.950001)">
    <!-- 1.0 -->
    <defs
       id="defs186">
      <path
         d="m 37.25,0 -8.7812,0 0,56 q -3.1719,-3.0156 -8.3282,-6.0469 -5.1562,-3.0312 -9.25,-4.5469 l 0,8.5 q 7.375,3.4688 12.8906,8.3907 5.5157,4.9375 7.8126,9.5781 l 5.6562,0 z"
         id="ArialMT-31"
         inkscape:connector-curvature="0"
         style="stroke-linecap:butt;stroke-linejoin:round" />
    </defs>
    <g
       transform="matrix(0.12,0,0,-0.12,447.22888,401.38937)"
       id="g189"
       style="stroke-linecap:butt;stroke-linejoin:round">
      <use
         xlink:href="#ArialMT-31"
         id="use191"
         style="stroke-linecap:butt;stroke-linejoin:round"
         x="0"
         y="0"
         width="576"
         height="432" />
      <use
         x="55.615234"
         xlink:href="#ArialMT-2e"
         id="use193"
         style="stroke-linecap:butt;stroke-linejoin:round"
         y="0"
         width="576"
         height="432" />
      <use
         x="83.398438"
         xlink:href="#ArialMT-30"
         id="use195"
         style="stroke-linecap:butt;stroke-linejoin:round"
         y="0"
         width="576"
         height="432" />
    </g>
  </g>
  <g
     id="line2d_17"
     style="stroke-linecap:butt;stroke-linejoin:round"
     transform="translate(-61.472812,-42.950001)">
    <g
       id="g199"
       style="stroke-linecap:butt;stroke-linejoin:round">
      <use
         style="stroke:#000000;stroke-width:0.5;stroke-linecap:butt;stroke-linejoin:round"
         x="518.40002"
         xlink:href="#m93b0483c22"
         y="388.79999"
         id="use201"
         width="576"
         height="432" />
    </g>
  </g>
  <g
     id="line2d_19"
     style="stroke-linecap:butt;stroke-linejoin:round"
     transform="translate(-61.472812,-42.950001)">
    <defs
       id="defs220">
      <path
         d="M 0,0 4,0"
         id="m728421d6d4"
         style="stroke:#000000;stroke-width:0.5;stroke-linecap:butt;stroke-linejoin:round"
         inkscape:connector-curvature="0" />
    </defs>
    <g
       id="g223"
       style="stroke-linecap:butt;stroke-linejoin:round">
      <use
         style="stroke:#000000;stroke-width:0.5;stroke-linecap:butt;stroke-linejoin:round"
         x="72"
         xlink:href="#m728421d6d4"
         y="388.79999"
         id="use225"
         width="576"
         height="432" />
    </g>
  </g>
  <g
     id="line2d_20"
     style="stroke-linecap:butt;stroke-linejoin:round"
     transform="translate(-61.472812,-42.950001)">
    <defs
       id="defs228">
      <path
         d="M 0,0 -4,0"
         id="mcb0005524f"
         style="stroke:#000000;stroke-width:0.5;stroke-linecap:butt;stroke-linejoin:round"
         inkscape:connector-curvature="0" />
    </defs>
    <g
       id="g231"
       style="stroke-linecap:butt;stroke-linejoin:round">
      <use
         style="stroke:#000000;stroke-width:0.5;stroke-linecap:butt;stroke-linejoin:round"
         x="518.40002"
         xlink:href="#mcb0005524f"
         y="388.79999"
         id="use233"
         width="576"
         height="432" />
    </g>
  </g>
  <g
     id="text_9"
     style="stroke-linecap:butt;stroke-linejoin:round"
     transform="translate(1.796598,-48.166459)">
    <!-- 0.0 -->
    <g
       transform="matrix(0.12,0,0,-0.12,52.3925,391.90219)"
       id="g236"
       style="stroke-linecap:butt;stroke-linejoin:round">
      <use
         xlink:href="#ArialMT-30"
         id="use238"
         style="stroke-linecap:butt;stroke-linejoin:round"
         x="0"
         y="0"
         width="576"
         height="432" />
      <use
         x="55.615234"
         xlink:href="#ArialMT-2e"
         id="use240"
         style="stroke-linecap:butt;stroke-linejoin:round"
         y="0"
         width="576"
         height="432" />
      <use
         x="83.398438"
         xlink:href="#ArialMT-30"
         id="use242"
         style="stroke-linecap:butt;stroke-linejoin:round"
         y="0"
         width="576"
         height="432" />
    </g>
  </g>
  <g
     id="line2d_21"
     style="stroke-linecap:butt;stroke-linejoin:round"
     transform="translate(0.927188,-42.950001)">
    <g
       id="g246"
       style="stroke-linecap:butt;stroke-linejoin:round">
      <use
         style="stroke:#000000;stroke-width:0.5;stroke-linecap:butt;stroke-linejoin:round"
         x="72"
         xlink:href="#m728421d6d4"
         y="339.42856"
         id="use248"
         width="576"
         height="432" />
    </g>
  </g>
  <g
     id="line2d_22"
     style="stroke-linecap:butt;stroke-linejoin:round"
     transform="translate(-61.472812,-42.950001)">
    <g
       id="g251"
       style="stroke-linecap:butt;stroke-linejoin:round">
      <use
         style="stroke:#000000;stroke-width:0.5;stroke-linecap:butt;stroke-linejoin:round"
         x="518.40002"
         xlink:href="#mcb0005524f"
         y="339.42856"
         id="use253"
         width="576"
         height="432" />
    </g>
  </g>
  <g
     id="text_10"
     style="stroke-linecap:butt;stroke-linejoin:round"
     transform="translate(0.927188,-42.950001)">
    <!-- 0.2 -->
    <g
       transform="matrix(0.12,0,0,-0.12,52.450625,342.53076)"
       id="g256"
       style="stroke-linecap:butt;stroke-linejoin:round">
      <use
         xlink:href="#ArialMT-30"
         id="use258"
         style="stroke-linecap:butt;stroke-linejoin:round"
         x="0"
         y="0"
         width="576"
         height="432" />
      <use
         x="55.615234"
         xlink:href="#ArialMT-2e"
         id="use260"
         style="stroke-linecap:butt;stroke-linejoin:round"
         y="0"
         width="576"
         height="432" />
      <use
         x="83.398438"
         xlink:href="#ArialMT-32"
         id="use262"
         style="stroke-linecap:butt;stroke-linejoin:round"
         y="0"
         width="576"
         height="432" />
    </g>
  </g>
  <g
     id="line2d_23"
     style="stroke-linecap:butt;stroke-linejoin:round"
     transform="translate(0.927188,-42.950001)">
    <g
       id="g266"
       style="stroke-linecap:butt;stroke-linejoin:round">
      <use
         style="stroke:#000000;stroke-width:0.5;stroke-linecap:butt;stroke-linejoin:round"
         x="72"
         xlink:href="#m728421d6d4"
         y="290.05713"
         id="use268"
         width="576"
         height="432" />
    </g>
  </g>
  <g
     id="line2d_24"
     style="stroke-linecap:butt;stroke-linejoin:round"
     transform="translate(-61.472812,-42.950001)">
    <g
       id="g271"
       style="stroke-linecap:butt;stroke-linejoin:round">
      <use
         style="stroke:#000000;stroke-width:0.5;stroke-linecap:butt;stroke-linejoin:round"
         x="518.40002"
         xlink:href="#mcb0005524f"
         y="290.05713"
         id="use273"
         width="576"
         height="432" />
    </g>
  </g>
  <g
     id="text_11"
     style="stroke-linecap:butt;stroke-linejoin:round"
     transform="translate(0.927188,-42.950001)">
    <!-- 0.4 -->
    <g
       transform="matrix(0.12,0,0,-0.12,52.398125,293.15933)"
       id="g276"
       style="stroke-linecap:butt;stroke-linejoin:round">
      <use
         xlink:href="#ArialMT-30"
         id="use278"
         style="stroke-linecap:butt;stroke-linejoin:round"
         x="0"
         y="0"
         width="576"
         height="432" />
      <use
         x="55.615234"
         xlink:href="#ArialMT-2e"
         id="use280"
         style="stroke-linecap:butt;stroke-linejoin:round"
         y="0"
         width="576"
         height="432" />
      <use
         x="83.398438"
         xlink:href="#ArialMT-34"
         id="use282"
         style="stroke-linecap:butt;stroke-linejoin:round"
         y="0"
         width="576"
         height="432" />
    </g>
  </g>
  <g
     id="line2d_25"
     style="stroke-linecap:butt;stroke-linejoin:round"
     transform="translate(0.927188,-42.950001)">
    <g
       id="g286"
       style="stroke-linecap:butt;stroke-linejoin:round">
      <use
         style="stroke:#000000;stroke-width:0.5;stroke-linecap:butt;stroke-linejoin:round"
         x="72"
         xlink:href="#m728421d6d4"
         y="240.68571"
         id="use288"
         width="576"
         height="432" />
    </g>
  </g>
  <g
     id="line2d_26"
     style="stroke-linecap:butt;stroke-linejoin:round"
     transform="translate(-61.472812,-42.950001)">
    <g
       id="g291"
       style="stroke-linecap:butt;stroke-linejoin:round">
      <use
         style="stroke:#000000;stroke-width:0.5;stroke-linecap:butt;stroke-linejoin:round"
         x="518.40002"
         xlink:href="#mcb0005524f"
         y="240.68571"
         id="use293"
         width="576"
         height="432" />
    </g>
  </g>
  <g
     id="text_12"
     style="stroke-linecap:butt;stroke-linejoin:round"
     transform="translate(0.927188,-42.950001)">
    <!-- 0.6 -->
    <g
       transform="matrix(0.12,0,0,-0.12,52.368125,243.7879)"
       id="g296"
       style="stroke-linecap:butt;stroke-linejoin:round">
      <use
         xlink:href="#ArialMT-30"
         id="use298"
         style="stroke-linecap:butt;stroke-linejoin:round"
         x="0"
         y="0"
         width="576"
         height="432" />
      <use
         x="55.615234"
         xlink:href="#ArialMT-2e"
         id="use300"
         style="stroke-linecap:butt;stroke-linejoin:round"
         y="0"
         width="576"
         height="432" />
      <use
         x="83.398438"
         xlink:href="#ArialMT-36"
         id="use302"
         style="stroke-linecap:butt;stroke-linejoin:round"
         y="0"
         width="576"
         height="432" />
    </g>
  </g>
  <g
     id="line2d_27"
     style="stroke-linecap:butt;stroke-linejoin:round"
     transform="translate(0.927188,-42.950001)">
    <g
       id="g306"
       style="stroke-linecap:butt;stroke-linejoin:round">
      <use
         style="stroke:#000000;stroke-width:0.5;stroke-linecap:butt;stroke-linejoin:round"
         x="72"
         xlink:href="#m728421d6d4"
         y="191.31429"
         id="use308"
         width="576"
         height="432" />
    </g>
  </g>
  <g
     id="line2d_28"
     style="stroke-linecap:butt;stroke-linejoin:round"
     transform="translate(-61.472812,-42.950001)">
    <g
       id="g311"
       style="stroke-linecap:butt;stroke-linejoin:round">
      <use
         style="stroke:#000000;stroke-width:0.5;stroke-linecap:butt;stroke-linejoin:round"
         x="518.40002"
         xlink:href="#mcb0005524f"
         y="191.31429"
         id="use313"
         width="576"
         height="432" />
    </g>
  </g>
  <g
     id="text_13"
     style="stroke-linecap:butt;stroke-linejoin:round"
     transform="translate(0.927188,-42.950001)">
    <!-- 0.8 -->
    <g
       transform="matrix(0.12,0,0,-0.12,52.345625,194.41647)"
       id="g316"
       style="stroke-linecap:butt;stroke-linejoin:round">
      <use
         xlink:href="#ArialMT-30"
         id="use318"
         style="stroke-linecap:butt;stroke-linejoin:round"
         x="0"
         y="0"
         width="576"
         height="432" />
      <use
         x="55.615234"
         xlink:href="#ArialMT-2e"
         id="use320"
         style="stroke-linecap:butt;stroke-linejoin:round"
         y="0"
         width="576"
         height="432" />
      <use
         x="83.398438"
         xlink:href="#ArialMT-38"
         id="use322"
         style="stroke-linecap:butt;stroke-linejoin:round"
         y="0"
         width="576"
         height="432" />
    </g>
  </g>
  <g
     id="line2d_29"
     style="stroke-linecap:butt;stroke-linejoin:round"
     transform="translate(0.927188,-42.950001)">
    <g
       id="g326"
       style="stroke-linecap:butt;stroke-linejoin:round">
      <use
         style="stroke:#000000;stroke-width:0.5;stroke-linecap:butt;stroke-linejoin:round"
         x="72"
         xlink:href="#m728421d6d4"
         y="141.94286"
         id="use328"
         width="576"
         height="432" />
    </g>
  </g>
  <g
     id="line2d_30"
     style="stroke-linecap:butt;stroke-linejoin:round"
     transform="translate(-61.472812,-42.950001)">
    <g
       id="g331"
       style="stroke-linecap:butt;stroke-linejoin:round">
      <use
         style="stroke:#000000;stroke-width:0.5;stroke-linecap:butt;stroke-linejoin:round"
         x="518.40002"
         xlink:href="#mcb0005524f"
         y="141.94286"
         id="use333"
         width="576"
         height="432" />
    </g>
  </g>
  <g
     id="text_14"
     style="stroke-linecap:butt;stroke-linejoin:round"
     transform="translate(0.927188,-42.950001)">
    <!-- 1.0 -->
    <g
       transform="matrix(0.12,0,0,-0.12,53.200625,145.04504)"
       id="g336"
       style="stroke-linecap:butt;stroke-linejoin:round">
      <use
         xlink:href="#ArialMT-31"
         id="use338"
         style="stroke-linecap:butt;stroke-linejoin:round"
         x="0"
         y="0"
         width="576"
         height="432" />
      <use
         x="55.615234"
         xlink:href="#ArialMT-2e"
         id="use340"
         style="stroke-linecap:butt;stroke-linejoin:round"
         y="0"
         width="576"
         height="432" />
      <use
         x="83.398438"
         xlink:href="#ArialMT-30"
         id="use342"
         style="stroke-linecap:butt;stroke-linejoin:round"
         y="0"
         width="576"
         height="432" />
    </g>
  </g>
  <g
     id="line2d_31"
     style="stroke-linecap:butt;stroke-linejoin:round"
     transform="translate(0.927188,-42.950001)">
    <g
       id="g346"
       style="stroke-linecap:butt;stroke-linejoin:round">
      <use
         style="stroke:#000000;stroke-width:0.5;stroke-linecap:butt;stroke-linejoin:round"
         x="72"
         xlink:href="#m728421d6d4"
         y="92.571426"
         id="use348"
         width="576"
         height="432" />
    </g>
  </g>
  <g
     id="line2d_32"
     style="stroke-linecap:butt;stroke-linejoin:round"
     transform="translate(-61.472812,-42.950001)">
    <g
       id="g351"
       style="stroke-linecap:butt;stroke-linejoin:round">
      <use
         style="stroke:#000000;stroke-width:0.5;stroke-linecap:butt;stroke-linejoin:round"
         x="518.40002"
         xlink:href="#mcb0005524f"
         y="92.571426"
         id="use353"
         width="576"
         height="432" />
    </g>
  </g>
  <g
     id="text_15"
     style="stroke-linecap:butt;stroke-linejoin:round"
     transform="translate(0.927188,-42.950001)">
    <!-- 1.2 -->
    <g
       transform="matrix(0.12,0,0,-0.12,53.25875,95.673616)"
       id="g356"
       style="stroke-linecap:butt;stroke-linejoin:round">
      <use
         xlink:href="#ArialMT-31"
         id="use358"
         style="stroke-linecap:butt;stroke-linejoin:round"
         x="0"
         y="0"
         width="576"
         height="432" />
      <use
         x="55.615234"
         xlink:href="#ArialMT-2e"
         id="use360"
         style="stroke-linecap:butt;stroke-linejoin:round"
         y="0"
         width="576"
         height="432" />
      <use
         x="83.398438"
         xlink:href="#ArialMT-32"
         id="use362"
         style="stroke-linecap:butt;stroke-linejoin:round"
         y="0"
         width="576"
         height="432" />
    </g>
  </g>
  <g
     id="patch_3"
     style="stroke-linecap:butt;stroke-linejoin:round"
     transform="matrix(0.86198083,0,0,1,10.145334,5.684778)">
    <path
       d="m 72,43.2 446.4,0"
       style="fill:none;stroke:#000000;stroke-linecap:butt;stroke-linejoin:round"
       id="path385"
       inkscape:connector-curvature="0" />
  </g>
  <g
     id="patch_4"
     style="stroke-linecap:butt;stroke-linejoin:round"
     transform="matrix(1.5942956,0,0,0.8596768,-369.28242,11.677199)">
    <path
       d="m 518.4,388.8 0,-345.6"
       style="fill:none;stroke:#000000;stroke-linecap:butt;stroke-linejoin:round"
       id="path388"
       inkscape:connector-curvature="0" />
  </g>
  <g
     id="patch_5"
     style="stroke-linecap:butt;stroke-linejoin:round"
     transform="translate(-60.893206,-43.046602)">
    <path
       d="m 72,388.8 446.4,0"
       style="fill:none;stroke:#000000;stroke-linecap:butt;stroke-linejoin:round"
       id="path391"
       inkscape:connector-curvature="0" />
  </g>
  <g
     id="patch_6"
     style="stroke-linecap:butt;stroke-linejoin:round"
     transform="translate(2.140784,-42.660198)">
    <path
       d="M 72,388.8 72,43.2"
       style="fill:none;stroke:#000000;stroke-linecap:butt;stroke-linejoin:round"
       id="path394"
       inkscape:connector-curvature="0" />
  </g>
  <defs
     id="defs396">
    <clipPath
       id="p7ff5b81e1d">
      <rect
         height="345.60001"
         width="446.39999"
         x="72"
         y="43.200001"
         id="rect399"
         style="stroke-linecap:butt;stroke-linejoin:round" />
    </clipPath>
  </defs>
  <path
     style="opacity:0.97345132;fill:#0066cc;fill-opacity:1;fill-rule:evenodd;stroke:#0066cc;stroke-width:1.33439994;stroke-linecap:square;stroke-linejoin:round;stroke-miterlimit:4;stroke-opacity:1;stroke-dasharray:none;stroke-dashoffset:0"
     d="m 98.161948,331.59222 c 8.675772,-6.71821 76.299982,-59.08638 150.276002,-116.37371 73.97602,-57.28733 134.58965,-104.08565 134.69696,-103.99626 0.10731,0.0894 -3.19545,5.15679 -7.33945,11.26088 -77.44662,114.07858 -154.70906,183.95012 -231.96022,209.77094 -19.27257,6.44177 -34.04046,9.33968 -57.075772,11.20002 l -4.371664,0.35306 15.774144,-12.21493 0,0 z"
     id="path4283"
     inkscape:connector-curvature="0" />
  <g
     id="g4295"
     transform="translate(279.33578,25.057155)"
     style="stroke-linecap:butt;stroke-linejoin:round">
    <text
       transform="scale(0.8,0.8)"
       sodipodi:linespacing="125%"
       id="text4287"
       y="314.91949"
       x="-96.601074"
       style="font-size:32px;font-style:italic;font-variant:normal;font-weight:bold;font-stretch:normal;line-height:125%;letter-spacing:0px;word-spacing:0px;fill:#000000;fill-opacity:1;stroke:none;font-family:Latin Modern Roman;-inkscape-font-specification:Sans Italic"
       xml:space="preserve"><tspan
         y="314.91949"
         x="-96.601074"
         id="tspan4289"
         sodipodi:role="line">S</tspan></text>
    <text
       sodipodi:linespacing="125%"
       id="text4291"
       y="258.11807"
       x="-62.597496"
       style="font-size:25.60000038px;font-style:italic;font-variant:normal;font-weight:bold;font-stretch:normal;line-height:125%;letter-spacing:0px;word-spacing:0px;fill:#000000;fill-opacity:1;stroke:none;font-family:Latin Modern Roman;-inkscape-font-specification:Sans Italic"
       xml:space="preserve"><tspan
         style="font-size:16px"
         y="258.11807"
         x="-62.597496"
         id="tspan4293"
         sodipodi:role="line">0</tspan></text>
  </g>
  <path
     style="fill:none;stroke:#000000;stroke-width:0.80000001;stroke-linecap:butt;stroke-linejoin:miter;stroke-miterlimit:4;stroke-opacity:1;stroke-dasharray:0.8, 0.8;stroke-dashoffset:0"
     d="m 73.768692,98.473967 319.411708,0 0,0 0,246.525943 0,0"
     id="path5079"
     inkscape:connector-curvature="0" />
  <text
     xml:space="preserve"
     style="font-size:19.20000076px;font-style:italic;font-variant:normal;font-weight:bold;font-stretch:normal;line-height:125%;letter-spacing:0px;word-spacing:0px;fill:#000000;fill-opacity:1;stroke:none;font-family:Latin Modern Roman;-inkscape-font-specification:Sans Italic"
     x="58.312519"
     y="11.919415"
     id="text5081"
     sodipodi:linespacing="125%"><tspan
       sodipodi:role="line"
       id="tspan5083"
       x="58.312519"
       y="11.919415">y</tspan></text>
  <text
     xml:space="preserve"
     style="font-size:19.20000076px;font-style:italic;font-variant:normal;font-weight:bold;font-stretch:normal;line-height:125%;letter-spacing:0px;word-spacing:0px;fill:#000000;fill-opacity:1;stroke:none;font-family:Latin Modern Roman;-inkscape-font-specification:Sans Italic"
     x="443.944"
     y="356.59204"
     id="text5085"
     sodipodi:linespacing="125%"><tspan
       sodipodi:role="line"
       id="tspan5087"
       x="443.944"
       y="356.59204">x</tspan></text>
</svg>
