<?xml version="1.0" encoding="UTF-8" standalone="no"?>
<!-- Created with Inkscape (http://www.inkscape.org/) -->

<svg
   xmlns:dc="http://purl.org/dc/elements/1.1/"
   xmlns:cc="http://creativecommons.org/ns#"
   xmlns:rdf="http://www.w3.org/1999/02/22-rdf-syntax-ns#"
   xmlns:svg="http://www.w3.org/2000/svg"
   xmlns="http://www.w3.org/2000/svg"
   xmlns:sodipodi="http://sodipodi.sourceforge.net/DTD/sodipodi-0.dtd"
   xmlns:inkscape="http://www.inkscape.org/namespaces/inkscape"
   id="svg2"
   version="1.1"
   inkscape:version="0.48.4 r9939"
   width="578.55121"
   height="194.34097"
   xml:space="preserve"
   sodipodi:docname="img180.pdf"><sodipodi:namedview
     pagecolor="#ffffff"
     bordercolor="#666666"
     borderopacity="1"
     objecttolerance="10"
     gridtolerance="10"
     guidetolerance="10"
     inkscape:pageopacity="0"
     inkscape:pageshadow="2"
     inkscape:window-width="1333"
     inkscape:window-height="744"
     id="namedview4"
     showgrid="false"
     showguides="true"
     inkscape:guide-bbox="true"
     inkscape:zoom="1.7263159"
     inkscape:cx="220.39045"
     inkscape:cy="120.28911"
     inkscape:window-x="33"
     inkscape:window-y="24"
     inkscape:window-maximized="1"
     inkscape:current-layer="g10"
     fit-margin-top="0"
     fit-margin-left="0"
     fit-margin-right="0"
     fit-margin-bottom="0"><sodipodi:guide
       orientation="0,1"
       position="535.40455,28.170252"
       id="guide3541" /><sodipodi:guide
       orientation="1,0"
       position="25.648476,168.35317"
       id="guide3545" /><sodipodi:guide
       orientation="1,0"
       position="239.97774,147.49951"
       id="guide4317" /><sodipodi:guide
       orientation="1,0"
       position="338.45334,95.944642"
       id="guide4319" /><sodipodi:guide
       orientation="1,0"
       position="319.91676,-0.21389349"
       id="guide4325" /><sodipodi:guide
       id="guide4826"
       position="197.69115,-0.21389349"
       orientation="0,1" /><sodipodi:guide
       id="guide4828"
       position="223.75822,-11.219991"
       orientation="0,1" /><sodipodi:guide
       orientation="0,1"
       position="345.98383,15.42635"
       id="guide4905" /><sodipodi:guide
       orientation="0,1"
       position="73.727742,193.26171"
       id="guide7566" /></sodipodi:namedview><metadata
     id="metadata8"><rdf:RDF><cc:Work
         rdf:about=""><dc:format>image/svg+xml</dc:format><dc:type
           rdf:resource="http://purl.org/dc/dcmitype/StillImage" /><dc:title></dc:title></cc:Work></rdf:RDF></metadata><defs
     id="defs6"><marker
       inkscape:stockid="Arrow2Lend"
       orient="auto"
       refY="0"
       refX="0"
       id="Arrow2Lend"
       style="overflow:visible"><path
         id="path4354"
         style="fill-rule:evenodd;stroke-width:0.625;stroke-linejoin:round"
         d="M 8.7185878,4.0337352 -2.2072895,0.01601326 8.7185884,-4.0017078 c -1.7454984,2.3720609 -1.7354408,5.6174519 -6e-7,8.035443 z"
         transform="matrix(-1.1,0,0,-1.1,-1.1,0)"
         inkscape:connector-curvature="0" /></marker><marker
       inkscape:stockid="Arrow1Lend"
       orient="auto"
       refY="0"
       refX="0"
       id="Arrow1Lend"
       style="overflow:visible"><path
         id="path4336"
         d="M 0,0 5,-5 -12.5,0 5,5 0,0 z"
         style="fill-rule:evenodd;stroke:#000000;stroke-width:1pt"
         transform="matrix(-0.8,0,0,-0.8,-10,0)"
         inkscape:connector-curvature="0" /></marker><marker
       inkscape:stockid="TriangleOutL"
       orient="auto"
       refY="0"
       refX="0"
       id="TriangleOutL"
       style="overflow:visible"><path
         id="path4475"
         d="m 5.77,0 -8.65,5 0,-10 8.65,5 z"
         style="fill-rule:evenodd;stroke:#000000;stroke-width:1pt"
         transform="scale(0.8,0.8)"
         inkscape:connector-curvature="0" /></marker><marker
       inkscape:stockid="Arrow2Mend"
       orient="auto"
       refY="0"
       refX="0"
       id="Arrow2Mend"
       style="overflow:visible"><path
         id="path4360"
         style="fill-rule:evenodd;stroke-width:0.625;stroke-linejoin:round"
         d="M 8.7185878,4.0337352 -2.2072895,0.01601326 8.7185884,-4.0017078 c -1.7454984,2.3720609 -1.7354408,5.6174519 -6e-7,8.035443 z"
         transform="scale(-0.6,-0.6)"
         inkscape:connector-curvature="0" /></marker><marker
       inkscape:stockid="Arrow2Lstart"
       orient="auto"
       refY="0"
       refX="0"
       id="Arrow2Lstart"
       style="overflow:visible"><path
         id="path4351"
         style="fill-rule:evenodd;stroke-width:0.625;stroke-linejoin:round"
         d="M 8.7185878,4.0337352 -2.2072895,0.01601326 8.7185884,-4.0017078 c -1.7454984,2.3720609 -1.7354408,5.6174519 -6e-7,8.035443 z"
         transform="matrix(1.1,0,0,1.1,1.1,0)"
         inkscape:connector-curvature="0" /></marker><marker
       inkscape:stockid="Arrow1Mend"
       orient="auto"
       refY="0"
       refX="0"
       id="Arrow1Mend"
       style="overflow:visible"><path
         id="path4342"
         d="M 0,0 5,-5 -12.5,0 5,5 0,0 z"
         style="fill-rule:evenodd;stroke:#000000;stroke-width:1pt"
         transform="matrix(-0.4,0,0,-0.4,-4,0)"
         inkscape:connector-curvature="0" /></marker></defs><g
     id="g10"
     inkscape:groupmode="layer"
     inkscape:label="img180"
     transform="matrix(1.25,0,0,-1.25,1.319209,213.09146)"><rect
       style="opacity:0.75185188;fill:#3771c8;fill-opacity:1;stroke:#3771c8;stroke-opacity:1"
       id="rect3531"
       width="76.734871"
       height="28.770258"
       x="37.728535"
       y="-66.731705"
       transform="scale(1,-1)" /><rect
       style="opacity:0.75185188;fill:#3771c8;fill-opacity:1;stroke:#3771c8;stroke-opacity:1"
       id="rect3533"
       width="77.390244"
       height="45.061249"
       x="114.46342"
       y="-83.007439"
       transform="scale(1,-1)" /><rect
       style="opacity:0.75185188;fill:#3771c8;fill-opacity:1;stroke:#3771c8;stroke-opacity:1"
       id="rect3535"
       width="78.780487"
       height="120.44685"
       x="191.39023"
       y="-158.43399"
       transform="scale(1,-1)" /><rect
       style="opacity:0.75185188;fill:#3771c8;fill-opacity:1;stroke:none"
       id="rect3537"
       width="82.951218"
       height="100.0309"
       x="269.70731"
       y="-138.01804"
       transform="scale(1,-1)" /><rect
       style="opacity:0.75185188;fill:#3771c8;fill-opacity:1;stroke:#3771c8;stroke-opacity:1"
       id="rect3539"
       width="84.804886"
       height="55.814556"
       x="352.19513"
       y="-93.829819"
       transform="scale(1,-1)" /><path
       style="fill:none;stroke:#000000;stroke-width:1px;stroke-linecap:butt;stroke-linejoin:miter;stroke-opacity:1;marker-end:url(#Arrow2Lend)"
       d="m -0.81920904,248.75 577.54236904,0 -0.8192,0 0,0"
       id="path3543"
       inkscape:connector-curvature="0"
       transform="matrix(0.8,0,0,-0.8,0,237)" /><path
       style="fill:none;stroke:#000000;stroke-width:0.65847039px;stroke-linecap:butt;stroke-linejoin:miter;stroke-opacity:1;marker-start:none;marker-end:url(#Arrow2Lstart)"
       d="m 19.463598,37.929235 0,132.214695 0,-0.92029"
       id="path3547"
       inkscape:connector-curvature="0" /><path
       style="fill:none;stroke:#a94300;stroke-width:1px;stroke-linecap:butt;stroke-linejoin:miter;stroke-opacity:1"
       d="m 238.65853,193.14025 98.4756,-94.999997 0,0"
       id="path4321"
       inkscape:connector-curvature="0"
       transform="matrix(0.8,0,0,-0.8,0,237)" /><path
       style="fill:none;stroke:#d45400;stroke-width:1px;stroke-linecap:butt;stroke-linejoin:miter;stroke-opacity:1"
       d="m 238.65853,98.719521 98.4756,24.329269"
       id="path4323"
       inkscape:connector-curvature="0"
       transform="matrix(0.8,0,0,-0.8,0,237)" /><path
       style="fill:none;stroke:#d45400;stroke-width:1.24263442;stroke-linecap:butt;stroke-linejoin:miter;stroke-miterlimit:4;stroke-opacity:1;stroke-dasharray:1.24263439, 2.48526879;stroke-dashoffset:0;marker-end:url(#Arrow1Mend)"
       d="m 253.02438,142.24697 0,-112.955546"
       id="path4327"
       inkscape:connector-curvature="0"
       sodipodi:nodetypes="cc" /><g
       transform="matrix(0.62655704,0,0,-0.559006,171.98597,162.06947)"
       id="g4795"><g
         style="font-style:normal;font-variant:normal;font-weight:normal;font-stretch:normal;letter-spacing:normal;word-spacing:normal;text-anchor:start;fill:none;stroke:#000000;stroke-linecap:butt;stroke-linejoin:miter;stroke-miterlimit:10.43299961;stroke-opacity:1;stroke-dasharray:none;stroke-dashoffset:0"
         id="content"
         transform="matrix(0.42321429,0,0,-0.42321429,-74.0625,435)"
         xml:space="preserve"
         stroke-miterlimit="10.433"
         font-style="normal"
         font-variant="normal"
         font-weight="normal"
         font-stretch="normal"
         font-size-adjust="none"
         letter-spacing="normal"
         word-spacing="normal"><polygon
           style="fill:#000000;stroke-width:0"
           points="482.32,455.86 468.23,447.89 468.78,446.8 482.28,452.93 495.84,446.8 496.43,447.89 "
           id="polygon4798" /><path
           style="fill:#000000;stroke-width:0"
           inkscape:connector-curvature="0"
           d="m 479.68,426.68 -4.18,9.91 c -0.15,0.41 -0.25,0.59 -0.25,0.64 0,0.31 0.85,1.25 2.94,1.45 0.5,0.05 1,0.1 1,0.96 0,0.59 -0.61,0.59 -0.75,0.59 -2.05,0 -4.19,-0.16 -6.28,-0.16 -1.25,0 -4.33,0.16 -5.58,0.16 -0.29,0 -0.9,0 -0.9,-1 0,-0.55 0.5,-0.55 1.15,-0.55 2.99,0 3.28,-0.5 3.74,-1.59 l 5.87,-13.91 -10.51,-11.31 -0.64,-0.55 c -2.44,-2.64 -4.79,-3.43 -7.33,-3.57 -0.64,-0.05 -1.1,-0.05 -1.1,-1 0,-0.05 0,-0.55 0.66,-0.55 1.48,0 3.12,0.16 4.67,0.16 1.85,0 3.8,-0.16 5.58,-0.16 0.31,0 0.91,0 0.91,1 0,0.5 -0.5,0.55 -0.6,0.55 -0.45,0.04 -2,0.14 -2,1.54 0,0.8 0.75,1.6 1.35,2.24 l 5.07,5.39 4.49,4.87 5.03,-11.9 c 0.2,-0.55 0.25,-0.6 0.25,-0.71 0,-0.39 -0.94,-1.23 -2.89,-1.43 -0.55,-0.05 -0.99,-0.11 -0.99,-0.96 0,-0.59 0.55,-0.59 0.74,-0.59 1.41,0 4.89,0.16 6.28,0.16 1.25,0 4.28,-0.16 5.53,-0.16 0.35,0 0.95,0 0.95,0.95 0,0.6 -0.5,0.6 -0.9,0.6 -3.33,0.04 -3.44,0.2 -4.28,2.18 -1.94,4.64 -5.28,12.41 -6.42,15.39 3.39,3.5 8.6,9.43 10.2,10.82 1.45,1.2 3.34,2.39 6.33,2.54 0.65,0.05 1.09,0.05 1.09,1 0,0.05 0,0.55 -0.64,0.55 -1.5,0 -3.14,-0.16 -4.69,-0.16 -1.84,0 -3.73,0.16 -5.53,0.16 -0.3,0 -0.94,0 -0.94,-1 0,-0.34 0.25,-0.5 0.6,-0.55 0.45,-0.04 2,-0.15 2,-1.54 0,-0.71 -0.55,-1.35 -0.96,-1.8 z"
           id="path4800" /></g></g><path
       id="path4862"
       d="m 189.35514,31.8075 -1.12042,2.436603 c -0.0402,0.100808 -0.067,0.145065 -0.067,0.157359 0,0.07622 0.22784,0.307341 0.78805,0.356516 0.13402,0.01229 0.26804,0.02459 0.26804,0.236038 0,0.145065 -0.16351,0.145065 -0.20103,0.145065 -0.54949,0 -1.1231,-0.03934 -1.68331,-0.03934 -0.33506,0 -1.16063,0.03934 -1.49568,0.03934 -0.0777,0 -0.24124,0 -0.24124,-0.245873 0,-0.13523 0.13402,-0.13523 0.30825,-0.13523 0.80145,0 0.87918,-0.122937 1.00248,-0.390939 l 1.57341,-3.420095 -2.81713,-2.780825 -0.17155,-0.13523 c -0.65402,-0.649105 -1.28392,-0.843345 -1.96475,-0.877767 -0.17155,-0.01229 -0.29485,-0.01229 -0.29485,-0.245873 0,-0.01229 0,-0.135231 0.17691,-0.135231 0.3967,0 0.83629,0.03934 1.25176,0.03934 0.49588,0 1.01856,-0.03934 1.49568,-0.03934 0.0831,0 0.24392,0 0.24392,0.245874 0,0.122936 -0.13402,0.13523 -0.16083,0.13523 -0.12062,0.0098 -0.53609,0.03442 -0.53609,0.378644 0,0.196699 0.20104,0.393397 0.36186,0.550756 l 1.35898,1.325256 1.20351,1.197403 1.34826,-2.925891 c 0.0536,-0.13523 0.067,-0.147524 0.067,-0.17457 0,-0.09589 -0.25196,-0.302424 -0.77464,-0.351598 -0.14743,-0.01229 -0.26537,-0.02705 -0.26537,-0.236038 0,-0.145066 0.14743,-0.145066 0.19836,-0.145066 0.37794,0 1.31073,0.03934 1.68331,0.03934 0.33505,0 1.14722,-0.03934 1.48227,-0.03934 0.0938,0 0.25464,0 0.25464,0.23358 0,0.147524 -0.13402,0.147524 -0.24124,0.147524 -0.89258,0.0098 -0.92206,0.04917 -1.14722,0.536003 -0.52,1.140852 -1.41527,3.051286 -1.72083,3.783988 0.90866,0.860556 2.30516,2.318583 2.73403,2.660347 0.38867,0.295048 0.89527,0.587637 1.69672,0.624518 0.17422,0.01229 0.29216,0.01229 0.29216,0.245873 0,0.01229 0,0.13523 -0.17155,0.13523 -0.40206,0 -0.84165,-0.03934 -1.25712,-0.03934 -0.4932,0 -0.9998,0.03934 -1.48227,0.03934 -0.0804,0 -0.25196,0 -0.25196,-0.245873 0,-0.0836 0.067,-0.122937 0.16082,-0.13523 0.12062,-0.0098 0.53609,-0.03688 0.53609,-0.378645 0,-0.17457 -0.14743,-0.331929 -0.25732,-0.442572 z"
       inkscape:connector-curvature="0"
       style="font-style:normal;font-variant:normal;font-weight:normal;font-stretch:normal;letter-spacing:normal;word-spacing:normal;text-anchor:start;fill:#000000;stroke:#000000;stroke-width:0;stroke-linecap:butt;stroke-linejoin:miter;stroke-miterlimit:10.43299961;stroke-opacity:1;stroke-dasharray:none;stroke-dashoffset:0" /><path
       id="path4864"
       d="m 196.97292,30.297839 0,0.01229 -0.003,0.01475 0,0.01229 -0.003,0.01475 -0.003,0.01229 -0.005,0.01475 -0.003,0.01229 -0.005,0.01475 -0.008,0.01475 -0.005,0.01229 -0.008,0.01475 -0.008,0.01229 -0.008,0.01475 -0.0107,0.01229 -0.008,0.01229 -0.0134,0.01229 -0.0107,0.01229 -0.0134,0.01229 -0.0134,0.0098 -0.0134,0.01229 -0.0161,0.0098 -0.0161,0.0074 -0.0161,0.0098 -0.0161,0.0074 -0.0188,0.0074 -0.0188,0.0074 -0.0214,0.0049 -0.0214,0.0049 -0.0214,0.0025 -0.0214,0.0025 -0.0241,0.0025 -0.0241,0 c -0.25196,0 -0.52268,-0.223744 -0.52268,-0.472076 0,-0.145065 0.12061,-0.327011 0.37526,-0.327011 0.26804,0 0.52536,0.243414 0.52536,0.472076 z"
       inkscape:connector-curvature="0"
       style="font-style:normal;font-variant:normal;font-weight:normal;font-stretch:normal;letter-spacing:normal;word-spacing:normal;text-anchor:start;fill:#000000;stroke:#000000;stroke-width:0;stroke-linecap:butt;stroke-linejoin:miter;stroke-miterlimit:10.43299961;stroke-opacity:1;stroke-dasharray:none;stroke-dashoffset:0" /><path
       id="path4866"
       d="m 195.06713,25.945885 -0.0161,-0.0418 -0.0134,-0.0418 -0.008,-0.01967 -0.005,-0.02213 -0.008,-0.01967 -0.005,-0.02213 -0.005,-0.02213 -0.005,-0.02213 -0.005,-0.02459 -0.003,-0.02213 -0.005,-0.02459 0,-0.01229 -0.003,-0.01229 0,-0.01475 0,-0.01229 0,-0.01229 0,-0.01475 c 0,-0.403232 0.37258,-0.725326 0.88186,-0.725326 0.93547,0 1.34826,1.177733 1.34826,1.310504 0,0.110643 -0.12062,0.110643 -0.15011,0.110643 -0.12866,0 -0.14206,-0.04917 -0.17958,-0.145065 -0.21444,-0.685986 -0.62454,-1.037585 -0.98908,-1.037585 -0.18763,0 -0.2332,0.110643 -0.2332,0.299966 0,0.194239 0.067,0.358974 0.1501,0.548297 0.0911,0.23112 0.19568,0.459782 0.29753,0.683527 0.0831,0.206533 0.42351,0.98841 0.46104,1.091677 0.0241,0.0836 0.0536,0.186863 0.0536,0.272919 0,0.403232 -0.37258,0.725326 -0.88722,0.725326 -0.92475,0 -1.35362,-1.16298 -1.35362,-1.310504 0,-0.110643 0.13135,-0.110643 0.16083,-0.110643 0.12866,0 0.1367,0.0418 0.16619,0.137689 0.24392,0.737619 0.65402,1.044961 0.99712,1.044961 0.1501,0 0.23319,-0.06884 0.23319,-0.299966 0,-0.194239 -0.0536,-0.324552 -0.2868,-0.855638 z"
       inkscape:connector-curvature="0"
       style="font-style:normal;font-variant:normal;font-weight:normal;font-stretch:normal;letter-spacing:normal;word-spacing:normal;text-anchor:start;fill:#000000;stroke:#000000;stroke-width:0;stroke-linecap:butt;stroke-linejoin:miter;stroke-miterlimit:10.43299961;stroke-opacity:1;stroke-dasharray:none;stroke-dashoffset:0" /><path
       id="path4868"
       d="m 204.65503,26.880203 0.0161,0 0.0134,0 0.0295,0 0.0322,0 0.0161,0.0025 0.0161,0 0.0134,0.0025 0.0161,0 0.0161,0.0025 0.0161,0.0025 0.0161,0.0025 0.0134,0.0049 0.0134,0.0025 0.0161,0.0049 0.0134,0.0049 0.0134,0.0074 0.0134,0.0049 0.0107,0.0074 0.0107,0.0098 0.0107,0.0074 0.0107,0.0098 0.005,0.0049 0.003,0.0049 0.005,0.0074 0.003,0.0049 0.005,0.0049 0.003,0.0074 0.003,0.0074 0.005,0.0049 0.003,0.0074 0.003,0.0074 0,0.0074 0.003,0.0074 0.003,0.0098 0,0.0074 0.003,0.0098 0,0.0074 0,0.0098 0,0.0098 c 0,0.211451 -0.21443,0.211451 -0.37258,0.211451 h -5.56457 c -0.15279,0 -0.37526,0 -0.37526,-0.204075 0,-0.213909 0.21443,-0.213909 0.37526,-0.213909 z"
       inkscape:connector-curvature="0"
       style="font-style:normal;font-variant:normal;font-weight:normal;font-stretch:normal;letter-spacing:normal;word-spacing:normal;text-anchor:start;fill:#000000;stroke:#000000;stroke-width:0;stroke-linecap:butt;stroke-linejoin:miter;stroke-miterlimit:10.43299961;stroke-opacity:1;stroke-dasharray:none;stroke-dashoffset:0" /><path
       id="path4870"
       d="m 209.16619,30.391271 0,0.0098 0,0.0098 0,0.01229 0,0.0098 0,0.0074 0,0.0098 0,0.0098 0,0.0074 -0.003,0.0098 0,0.0074 0,0.0074 0,0.0074 0,0.0074 -0.003,0.0074 0,0.0074 -0.003,0.0049 0,0.0074 0,0.0049 -0.003,0.0074 0,0.0049 -0.005,0.0098 -0.003,0.0098 -0.005,0.0074 -0.005,0.0074 -0.005,0.0074 -0.005,0.0074 -0.008,0.0049 -0.008,0.0049 -0.0107,0.0049 -0.008,0.0025 -0.0107,0.0025 -0.0134,0.0049 -0.005,0 -0.008,0 -0.005,0.0025 -0.008,0 -0.008,0.0025 -0.005,0 -0.008,0 -0.008,0 -0.0107,0 -0.008,0.0025 -0.008,0 -0.0107,0 -0.0107,0 -0.008,0 -0.0107,0 -0.0107,0 -0.0107,0 -0.0134,0 -0.0107,0 -0.0134,0 C 208.28701,30.091306 207.44,30.083929 207.0567,30.083929 v -0.307341 c 0.22515,0 0.83897,0 1.35093,0.238497 v -4.369166 c 0,-0.285212 0,-0.395855 -0.93279,-0.395855 h -0.35113 v -0.307342 c 0.16618,0.0074 1.31341,0.03442 1.66186,0.03442 0.28949,0 1.4662,-0.02705 1.66991,-0.03442 v 0.307342 h -0.3565 c -0.93279,0 -0.93279,0.110643 -0.93279,0.395855 z"
       inkscape:connector-curvature="0"
       style="font-style:normal;font-variant:normal;font-weight:normal;font-stretch:normal;letter-spacing:normal;word-spacing:normal;text-anchor:start;fill:#000000;stroke:#000000;stroke-width:0;stroke-linecap:butt;stroke-linejoin:miter;stroke-miterlimit:10.43299961;stroke-opacity:1;stroke-dasharray:none;stroke-dashoffset:0" /><g
       inkscape:transform-center-y="-15.360014"
       inkscape:transform-center-x="-32.473673"
       transform="matrix(0.57998155,0,0,-0.58096604,195.615,179.61858)"
       id="g4943"><g
         style="font-style:normal;font-variant:normal;font-weight:normal;font-stretch:normal;letter-spacing:normal;word-spacing:normal;text-anchor:start;fill:none;stroke:#000000;stroke-linecap:butt;stroke-linejoin:miter;stroke-miterlimit:10.43299961;stroke-opacity:1;stroke-dasharray:none;stroke-dashoffset:0"
         id="g4945"
         transform="matrix(0.42321429,0,0,-0.42321429,-74.0625,435)"
         xml:space="preserve"
         stroke-miterlimit="10.433"
         font-style="normal"
         font-variant="normal"
         font-weight="normal"
         font-stretch="normal"
         font-size-adjust="none"
         letter-spacing="normal"
         word-spacing="normal"><path
           style="fill:#000000;stroke-width:0"
           inkscape:connector-curvature="0"
           d="m 479.68,426.68 -4.18,9.91 c -0.15,0.41 -0.25,0.59 -0.25,0.64 0,0.31 0.85,1.25 2.94,1.45 0.5,0.05 1,0.1 1,0.96 0,0.59 -0.61,0.59 -0.75,0.59 -2.05,0 -4.19,-0.16 -6.28,-0.16 -1.25,0 -4.33,0.16 -5.58,0.16 -0.29,0 -0.9,0 -0.9,-1 0,-0.55 0.5,-0.55 1.15,-0.55 2.99,0 3.28,-0.5 3.74,-1.59 l 5.87,-13.91 -10.51,-11.31 -0.64,-0.55 c -2.44,-2.64 -4.79,-3.43 -7.33,-3.57 -0.64,-0.05 -1.1,-0.05 -1.1,-1 0,-0.05 0,-0.55 0.66,-0.55 1.48,0 3.12,0.16 4.67,0.16 1.85,0 3.8,-0.16 5.58,-0.16 0.31,0 0.91,0 0.91,1 0,0.5 -0.5,0.55 -0.6,0.55 -0.45,0.04 -2,0.14 -2,1.54 0,0.8 0.75,1.6 1.35,2.24 l 5.07,5.39 4.49,4.87 5.03,-11.9 c 0.2,-0.55 0.25,-0.6 0.25,-0.71 0,-0.39 -0.94,-1.23 -2.89,-1.43 -0.55,-0.05 -0.99,-0.11 -0.99,-0.96 0,-0.59 0.55,-0.59 0.74,-0.59 1.41,0 4.89,0.16 6.28,0.16 1.25,0 4.28,-0.16 5.53,-0.16 0.35,0 0.95,0 0.95,0.95 0,0.6 -0.5,0.6 -0.9,0.6 -3.33,0.04 -3.44,0.2 -4.28,2.18 -1.94,4.64 -5.28,12.41 -6.42,15.39 3.39,3.5 8.6,9.43 10.2,10.82 1.45,1.2 3.34,2.39 6.33,2.54 0.65,0.05 1.09,0.05 1.09,1 0,0.05 0,0.55 -0.64,0.55 -1.5,0 -3.14,-0.16 -4.69,-0.16 -1.84,0 -3.73,0.16 -5.53,0.16 -0.3,0 -0.94,0 -0.94,-1 0,-0.34 0.25,-0.5 0.6,-0.55 0.45,-0.04 2,-0.15 2,-1.54 0,-0.71 -0.55,-1.35 -0.96,-1.8 z"
           id="path4947" /><path
           style="fill:#000000;stroke-width:0"
           inkscape:connector-curvature="0"
           d="m 508.1,420.54 0,0.05 -0.01,0.06 0,0.05 -0.01,0.06 -0.01,0.05 -0.02,0.06 -0.01,0.05 -0.02,0.06 -0.03,0.06 -0.02,0.05 -0.03,0.06 -0.03,0.05 -0.03,0.06 -0.04,0.05 -0.03,0.05 -0.05,0.05 -0.04,0.05 -0.05,0.05 -0.05,0.04 -0.05,0.05 -0.06,0.04 -0.06,0.03 -0.06,0.04 -0.06,0.03 -0.07,0.03 -0.07,0.03 -0.08,0.02 -0.08,0.02 -0.08,0.01 -0.08,0.01 -0.09,0.01 -0.09,0 c -0.94,0 -1.95,-0.91 -1.95,-1.92 0,-0.59 0.45,-1.33 1.4,-1.33 1,0 1.96,0.99 1.96,1.92 z"
           id="path4949" /><path
           style="fill:#000000;stroke-width:0"
           inkscape:connector-curvature="0"
           d="m 500.99,402.84 -0.06,-0.17 -0.05,-0.17 -0.03,-0.08 -0.02,-0.09 -0.03,-0.08 -0.02,-0.09 -0.02,-0.09 -0.02,-0.09 -0.02,-0.1 -0.01,-0.09 -0.02,-0.1 0,-0.05 -0.01,-0.05 0,-0.06 0,-0.05 0,-0.05 0,-0.06 c 0,-1.64 1.39,-2.95 3.29,-2.95 3.49,0 5.03,4.79 5.03,5.33 0,0.45 -0.45,0.45 -0.56,0.45 -0.48,0 -0.53,-0.2 -0.67,-0.59 -0.8,-2.79 -2.33,-4.22 -3.69,-4.22 -0.7,0 -0.87,0.45 -0.87,1.22 0,0.79 0.25,1.46 0.56,2.23 0.34,0.94 0.73,1.87 1.11,2.78 0.31,0.84 1.58,4.02 1.72,4.44 0.09,0.34 0.2,0.76 0.2,1.11 0,1.64 -1.39,2.95 -3.31,2.95 -3.45,0 -5.05,-4.73 -5.05,-5.33 0,-0.45 0.49,-0.45 0.6,-0.45 0.48,0 0.51,0.17 0.62,0.56 0.91,3 2.44,4.25 3.72,4.25 0.56,0 0.87,-0.28 0.87,-1.22 0,-0.79 -0.2,-1.32 -1.07,-3.48 z"
           id="path4951" /></g></g><path
       id="path4862-5"
       d="m 446.46392,32.364145 -1.12042,2.4366 c -0.0402,0.10081 -0.067,0.14507 -0.067,0.15736 0,0.0762 0.22784,0.30734 0.78805,0.35652 0.13402,0.0123 0.26804,0.0246 0.26804,0.23603 0,0.14507 -0.16351,0.14507 -0.20103,0.14507 -0.54949,0 -1.1231,-0.0393 -1.68331,-0.0393 -0.33506,0 -1.16063,0.0393 -1.49568,0.0393 -0.0777,0 -0.24124,0 -0.24124,-0.24587 0,-0.13523 0.13402,-0.13523 0.30825,-0.13523 0.80145,0 0.87918,-0.12294 1.00248,-0.39094 l 1.57341,-3.4201 -2.81713,-2.78082 -0.17155,-0.13523 c -0.65402,-0.64911 -1.28392,-0.84335 -1.96475,-0.87777 -0.17155,-0.01229 -0.29485,-0.01229 -0.29485,-0.24587 0,-0.0123 0,-0.13523 0.17691,-0.13523 0.3967,0 0.83629,0.0393 1.25176,0.0393 0.49588,0 1.01856,-0.0393 1.49568,-0.0393 0.0831,0 0.24392,0 0.24392,0.24587 0,0.12294 -0.13402,0.13523 -0.16083,0.13523 -0.12062,0.01 -0.53609,0.0344 -0.53609,0.37865 0,0.19669 0.20104,0.39339 0.36186,0.55075 l 1.35898,1.32526 1.20351,1.1974 1.34826,-2.92589 c 0.0536,-0.13523 0.067,-0.14752 0.067,-0.17457 0,-0.0959 -0.25196,-0.30242 -0.77464,-0.3516 -0.14743,-0.0123 -0.26537,-0.0271 -0.26537,-0.23604 0,-0.14506 0.14743,-0.14506 0.19836,-0.14506 0.37794,0 1.31073,0.0393 1.68331,0.0393 0.33505,0 1.14722,-0.0393 1.48227,-0.0393 0.0938,0 0.25464,0 0.25464,0.23358 0,0.14752 -0.13402,0.14752 -0.24124,0.14752 -0.89258,0.01 -0.92206,0.0492 -1.14722,0.536 -0.52,1.14086 -1.41527,3.05129 -1.72083,3.78399 0.90866,0.86056 2.30516,2.31859 2.73403,2.66035 0.38867,0.29505 0.89527,0.58764 1.69672,0.62452 0.17422,0.0123 0.29216,0.0123 0.29216,0.24587 0,0.0123 0,0.13523 -0.17155,0.13523 -0.40206,0 -0.84165,-0.0393 -1.25712,-0.0393 -0.4932,0 -0.9998,0.0393 -1.48227,0.0393 -0.0804,0 -0.25196,0 -0.25196,-0.24587 0,-0.0836 0.067,-0.12294 0.16082,-0.13523 0.12062,-0.01 0.53609,-0.0369 0.53609,-0.37865 0,-0.17457 -0.14743,-0.33193 -0.25732,-0.44257 z"
       inkscape:connector-curvature="0"
       style="font-style:normal;font-variant:normal;font-weight:normal;font-stretch:normal;letter-spacing:normal;word-spacing:normal;text-anchor:start;fill:#000000;stroke:#000000;stroke-width:0;stroke-linecap:butt;stroke-linejoin:miter;stroke-miterlimit:10.43299961;stroke-opacity:1;stroke-dasharray:none;stroke-dashoffset:0" /><g
       id="g5075"
       transform="matrix(1,0,0,-1,-115.85365,421.63512)"><g
         word-spacing="normal"
         letter-spacing="normal"
         font-size-adjust="none"
         font-stretch="normal"
         font-weight="normal"
         font-variant="normal"
         font-style="normal"
         stroke-miterlimit="10.433"
         xml:space="preserve"
         transform="matrix(0.42321429,0,0,-0.42321429,-74.0625,435)"
         id="g5077"
         style="font-style:normal;font-variant:normal;font-weight:normal;font-stretch:normal;letter-spacing:normal;word-spacing:normal;text-anchor:start;fill:none;stroke:#000000;stroke-linecap:butt;stroke-linejoin:miter;stroke-miterlimit:10.43299961;stroke-opacity:1;stroke-dasharray:none;stroke-dashoffset:0"><path
           id="path5079"
           d="m 459.91,409.14 -0.02,-0.07 -0.01,-0.08 -0.02,-0.07 -0.01,-0.08 -0.04,-0.16 -0.04,-0.16 -0.03,-0.16 -0.04,-0.16 -0.04,-0.16 -0.04,-0.16 -0.01,-0.08 -0.02,-0.07 -0.02,-0.07 -0.01,-0.07 -0.02,-0.07 -0.01,-0.07 -0.01,-0.06 -0.01,-0.06 -0.01,-0.06 -0.01,-0.05 -0.01,-0.05 -0.01,-0.04 -0.01,-0.04 0,-0.04 0,-0.03 0,-0.02 c 0,-0.89 0.7,-1.35 1.43,-1.35 0.61,0 1.5,0.39 1.85,1.39 0.06,0.11 0.65,2.44 0.95,3.69 l 1.1,4.48 c 0.29,1.1 0.59,2.19 0.84,3.35 0.2,0.84 0.61,2.28 0.66,2.48 0.75,1.55 3.39,6.08 8.1,6.08 2.25,0 2.71,-1.84 2.71,-3.48 0,-3.1 -2.46,-9.47 -3.25,-11.61 -0.44,-1.14 -0.49,-1.75 -0.49,-2.3 0,-2.33 1.74,-4.08 4.08,-4.08 4.69,0 6.53,7.27 6.53,7.67 0,0.5 -0.45,0.5 -0.61,0.5 -0.48,0 -0.48,-0.15 -0.73,-0.9 -1,-3.38 -2.64,-6.17 -5.09,-6.17 -0.85,0 -1.19,0.5 -1.19,1.64 0,1.25 0.45,2.45 0.89,3.54 0.95,2.64 3.05,8.11 3.05,10.96 0,3.34 -2.15,5.32 -5.74,5.32 -4.48,0 -6.92,-3.18 -7.76,-4.32 -0.25,2.79 -2.3,4.32 -4.6,4.32 -2.28,0 -3.23,-1.93 -3.73,-2.82 -0.8,-1.71 -1.5,-4.64 -1.5,-4.85 0,-0.5 0.5,-0.5 0.61,-0.5 0.5,0 0.54,0.07 0.84,1.16 0.84,3.53 1.84,5.92 3.64,5.92 0.99,0 1.55,-0.64 1.55,-2.28 0,-1.05 -0.16,-1.61 -0.8,-4.19 z"
           inkscape:connector-curvature="0"
           style="fill:#000000;stroke-width:0" /></g></g></g></svg>