<?xml version="1.0" encoding="UTF-8" standalone="no"?>
<!-- Created with Inkscape (http://www.inkscape.org/) -->

<svg
   xmlns:dc="http://purl.org/dc/elements/1.1/"
   xmlns:cc="http://creativecommons.org/ns#"
   xmlns:rdf="http://www.w3.org/1999/02/22-rdf-syntax-ns#"
   xmlns:svg="http://www.w3.org/2000/svg"
   xmlns="http://www.w3.org/2000/svg"
   xmlns:sodipodi="http://sodipodi.sourceforge.net/DTD/sodipodi-0.dtd"
   xmlns:inkscape="http://www.inkscape.org/namespaces/inkscape"
   id="svg2"
   version="1.1"
   inkscape:version="0.48.4 r9939"
   width="644.02695"
   height="569.3626"
   xml:space="preserve"
   sodipodi:docname="img179.pdf"><metadata
     id="metadata8"><rdf:RDF><cc:Work
         rdf:about=""><dc:format>image/svg+xml</dc:format><dc:type
           rdf:resource="http://purl.org/dc/dcmitype/StillImage" /><dc:title></dc:title></cc:Work></rdf:RDF></metadata><defs
     id="defs6"><clipPath
       clipPathUnits="userSpaceOnUse"
       id="clipPath138"><path
         d="m 34,22.490082 41,0 0,295.999998 -41,0 0,-295.999998 z"
         id="path140" /></clipPath><mask
       maskUnits="userSpaceOnUse"
       x="0"
       y="0"
       width="1"
       height="1"
       id="mask142"><g
         id="g144"><g
           clip-path="url(#clipPath138)"
           id="g146"><path
             d="m 34,22.490082 41,0 0,295.999998 -41,0 0,-295.999998 z"
             style="fill:#000000;fill-opacity:0.751852;fill-rule:nonzero;stroke:none"
             id="path148" /></g></g></mask><clipPath
       clipPathUnits="userSpaceOnUse"
       id="clipPath154"><path
         d="m 34,22.490082 41,0 0,295.999998 -41,0 0,-295.999998 z"
         id="path156" /></clipPath><clipPath
       clipPathUnits="userSpaceOnUse"
       id="clipPath158"><path
         d="m 34,23 41,0 0,296 -41,0 0,-296 z"
         id="path160" /></clipPath><clipPath
       clipPathUnits="userSpaceOnUse"
       id="clipPath180"><path
         d="m 73,23.490082 50,0 0,218.999998 -50,0 0,-218.999998 z"
         id="path182" /></clipPath><mask
       maskUnits="userSpaceOnUse"
       x="0"
       y="0"
       width="1"
       height="1"
       id="mask184"><g
         id="g186"><g
           clip-path="url(#clipPath180)"
           id="g188"><path
             d="m 73,23.490082 50,0 0,218.999998 -50,0 0,-218.999998 z"
             style="fill:#000000;fill-opacity:0.751852;fill-rule:nonzero;stroke:none"
             id="path190" /></g></g></mask><clipPath
       clipPathUnits="userSpaceOnUse"
       id="clipPath196"><path
         d="m 73,23.490082 50,0 0,218.999998 -50,0 0,-218.999998 z"
         id="path198" /></clipPath><clipPath
       clipPathUnits="userSpaceOnUse"
       id="clipPath200"><path
         d="m 73,24 50,0 0,219 -50,0 0,-219 z"
         id="path202" /></clipPath><clipPath
       clipPathUnits="userSpaceOnUse"
       id="clipPath222"><path
         d="m 122,22.490082 42,0 0,123.999998 -42,0 0,-123.999998 z"
         id="path224" /></clipPath><mask
       maskUnits="userSpaceOnUse"
       x="0"
       y="0"
       width="1"
       height="1"
       id="mask226"><g
         id="g228"><g
           clip-path="url(#clipPath222)"
           id="g230"><path
             d="m 122,22.490082 42,0 0,123.999998 -42,0 0,-123.999998 z"
             style="fill:#000000;fill-opacity:0.751852;fill-rule:nonzero;stroke:none"
             id="path232" /></g></g></mask><clipPath
       clipPathUnits="userSpaceOnUse"
       id="clipPath238"><path
         d="m 122,22.490082 42,0 0,123.999998 -42,0 0,-123.999998 z"
         id="path240" /></clipPath><clipPath
       clipPathUnits="userSpaceOnUse"
       id="clipPath242"><path
         d="m 122,23 42,0 0,124 -42,0 0,-124 z"
         id="path244" /></clipPath><clipPath
       clipPathUnits="userSpaceOnUse"
       id="clipPath264"><path
         d="m 162,23.490082 300,0 0,35 -300,0 0,-35 z"
         id="path266" /></clipPath><mask
       maskUnits="userSpaceOnUse"
       x="0"
       y="0"
       width="1"
       height="1"
       id="mask268"><g
         id="g270"><g
           clip-path="url(#clipPath264)"
           id="g272"><path
             d="m 162,23.490082 300,0 0,35 -300,0 0,-35 z"
             style="fill:#000000;fill-opacity:0.751852;fill-rule:nonzero;stroke:none"
             id="path274" /></g></g></mask><clipPath
       clipPathUnits="userSpaceOnUse"
       id="clipPath280"><path
         d="m 162,23.490082 300,0 0,35 -300,0 0,-35 z"
         id="path282" /></clipPath><clipPath
       clipPathUnits="userSpaceOnUse"
       id="clipPath284"><path
         d="m 162,24 300,0 0,35 -300,0 0,-35 z"
         id="path286" /></clipPath></defs><sodipodi:namedview
     pagecolor="#ffffff"
     bordercolor="#666666"
     borderopacity="1"
     objecttolerance="10"
     gridtolerance="10"
     guidetolerance="10"
     inkscape:pageopacity="0"
     inkscape:pageshadow="2"
     inkscape:window-width="1333"
     inkscape:window-height="744"
     id="namedview4"
     showgrid="false"
     showguides="true"
     inkscape:guide-bbox="true"
     inkscape:zoom="1.1723791"
     inkscape:cx="214.26108"
     inkscape:cy="200.54711"
     inkscape:window-x="33"
     inkscape:window-y="24"
     inkscape:window-maximized="1"
     inkscape:current-layer="g10"><sodipodi:guide
       orientation="0,1"
       position="-49.472054,302.80309"
       id="guide3473" /><sodipodi:guide
       orientation="0,1"
       position="288.30266,182.53482"
       id="guide3477" /><sodipodi:guide
       orientation="0,1"
       position="245.65434,72.502148"
       id="guide3481" /></sodipodi:namedview><g
     id="g10"
     inkscape:groupmode="layer"
     inkscape:label="img179"
     transform="matrix(1.25,0,0,-1.25,0,569.3626)"><rect
       style="opacity:0.75185188;fill:#3771c8;fill-opacity:1;stroke:none"
       id="rect4251"
       width="298.87946"
       height="34.801033"
       x="163.76956"
       y="-58.001701"
       transform="scale(1,-1)" /><rect
       style="opacity:0.75185188;fill:#3771c8;fill-opacity:1;stroke:none"
       id="rect3479"
       width="41.624763"
       height="121.46243"
       x="122.82717"
       y="-146.02785"
       transform="scale(1,-1)" /><rect
       style="opacity:0.75185188;fill:#3771c8;fill-opacity:1;stroke:none"
       id="rect3475"
       width="49.81324"
       height="218.35941"
       x="73.013931"
       y="-242.24248"
       transform="scale(1,-1)" /><rect
       style="opacity:0.75185188;fill:#3771c8;fill-opacity:1;stroke:none"
       id="rect3471"
       width="38.895271"
       height="294.78522"
       x="34.801033"
       y="-318.66824"
       transform="scale(1,-1)" /><path
       inkscape:connector-curvature="0"
       id="path14"
       style="fill:none;stroke:#000000;stroke-width:0.8416;stroke-linecap:butt;stroke-linejoin:miter;stroke-miterlimit:4;stroke-opacity:1;stroke-dasharray:none"
       d="M 508.242,23.787 33.965,24.197 37.41,451.146" /><g
       transform="matrix(1,-8.63033e-4,8.63033e-4,1,0,455.49008)"
       id="g16"><path
         inkscape:connector-curvature="0"
         id="path18"
         style="fill:#000000;fill-opacity:1;fill-rule:evenodd;stroke:#000000;stroke-width:0.8416;stroke-linecap:butt;stroke-linejoin:miter;stroke-miterlimit:4;stroke-opacity:1;stroke-dasharray:none"
         d="m 512.501,-431.261 -5.823,3.366 -0.002,-6.734 5.825,3.368 z" /></g><g
       transform="matrix(0.00806921,1,-1,0.00806921,0,455.49008)"
       id="g20"><path
         inkscape:connector-curvature="0"
         id="path22"
         style="fill:#000000;fill-opacity:1;fill-rule:evenodd;stroke:#000000;stroke-width:0.841573;stroke-linecap:butt;stroke-linejoin:miter;stroke-miterlimit:4;stroke-opacity:1;stroke-dasharray:none"
         d="m -0.159,-37.443 -5.82,3.367 0,-6.73 5.82,3.363 z" /></g><text
       id="text24"
       transform="scale(1,-1)"
       x="449.11771"
       y="-0.51111001"><tspan
         id="tspan26"
         sodipodi:role="line"
         y="-0.51111001"
         x="449.11771 457.11771 465.11771 156.25546 164.25546 65.231438 73.231438"
         style="font-size:16px;font-variant:normal;font-weight:normal;writing-mode:lr-tb;fill:#000000;fill-opacity:1;fill-rule:nonzero;stroke:none;font-family:TG Termes Math;-inkscape-font-specification:TGTermesMath-Regular">1003010</tspan></text>
<path
       inkscape:connector-curvature="0"
       id="path38"
       style="fill:none;stroke:#1f1a17;stroke-width:0.23999999;stroke-linecap:round;stroke-linejoin:round;stroke-miterlimit:10;stroke-opacity:1;stroke-dasharray:none"
       d="m 363.043,383.959 0,-1.801" /><path
       inkscape:connector-curvature="0"
       id="path302"
       style="fill:none;stroke:#000000;stroke-width:0.80000001;stroke-linecap:butt;stroke-linejoin:miter;stroke-miterlimit:4;stroke-opacity:1;stroke-dasharray:none"
       d="m 26.906,318.209 21.25,0.144" /><path
       inkscape:connector-curvature="0"
       id="path304"
       style="fill:none;stroke:#000000;stroke-width:0.80000001;stroke-linecap:butt;stroke-linejoin:miter;stroke-miterlimit:4;stroke-opacity:1;stroke-dasharray:none"
       d="m 20.973,241.869 21.246,0.141" /><path
       inkscape:connector-curvature="0"
       id="path306"
       style="fill:none;stroke:#000000;stroke-width:0.80000001;stroke-linecap:butt;stroke-linejoin:miter;stroke-miterlimit:4;stroke-opacity:1;stroke-dasharray:none"
       d="m 20.305,145.889 21.246,-0.145" /><path
       inkscape:connector-curvature="0"
       id="path308"
       style="fill:none;stroke:#000000;stroke-width:0.80000001;stroke-linecap:butt;stroke-linejoin:miter;stroke-miterlimit:4;stroke-opacity:1;stroke-dasharray:none"
       d="m 20.16,57.174 21.246,0.144" /><path
       inkscape:connector-curvature="0"
       id="path310"
       style="fill:none;stroke:#000000;stroke-width:0.80000001;stroke-linecap:butt;stroke-linejoin:miter;stroke-miterlimit:4;stroke-opacity:1;stroke-dasharray:none"
       d="M 73.121,33.748 73.262,12.502" /><path
       inkscape:connector-curvature="0"
       id="path312"
       style="fill:none;stroke:#000000;stroke-width:0.80000001;stroke-linecap:butt;stroke-linejoin:miter;stroke-miterlimit:4;stroke-opacity:1;stroke-dasharray:none"
       d="M 122.355,13.498 122.5,34.744" /><path
       inkscape:connector-curvature="0"
       id="path314"
       style="fill:none;stroke:#000000;stroke-width:0.80000001;stroke-linecap:butt;stroke-linejoin:miter;stroke-miterlimit:4;stroke-opacity:1;stroke-dasharray:none"
       d="m 163.715,13.721 0.144,21.246" /><path
       inkscape:connector-curvature="0"
       id="path316"
       style="fill:none;stroke:#000000;stroke-width:0.80000001;stroke-linecap:butt;stroke-linejoin:miter;stroke-miterlimit:4;stroke-opacity:1;stroke-dasharray:none"
       d="m 461.508,13.447 0.14,21.25" /><text
       id="text318"
       transform="scale(1,-1)"
       x="29.922705"
       y="-0.22400101"><tspan
         id="tspan320"
         y="-0.22400101"
         x="29.922705"
         style="font-size:16px;font-variant:normal;font-weight:normal;writing-mode:lr-tb;fill:#000000;fill-opacity:1;fill-rule:nonzero;stroke:none;font-family:TG Termes Math;-inkscape-font-specification:TGTermesMath-Regular">0</tspan><tspan
         id="tspan322"
         sodipodi:role="line"
         y="-0.51110983"
         x="114.33594 122.33594"
         style="font-size:16px;font-variant:normal;font-weight:normal;writing-mode:lr-tb;fill:#000000;fill-opacity:1;fill-rule:nonzero;stroke:none;font-family:TG Termes Math;-inkscape-font-specification:TGTermesMath-Regular">20</tspan><tspan
         id="tspan324"
         y="-6.8277497"
         x="503.95758"
         style="font-size:16px;font-variant:normal;font-weight:normal;writing-mode:lr-tb;fill:#000000;fill-opacity:1;fill-rule:nonzero;stroke:none;font-family:TG Termes Math;-inkscape-font-specification:TGTermesMath-Regular">X</tspan><tspan
         id="tspan326"
         y="-53.341175"
         x="-0.51199985"
         style="font-size:16px;font-variant:normal;font-weight:normal;writing-mode:lr-tb;fill:#000000;fill-opacity:1;fill-rule:nonzero;stroke:none;font-family:TG Termes Math;-inkscape-font-specification:TGTermesMath-Regular">5</tspan><tspan
         id="tspan328"
         sodipodi:role="line"
         y="-140.05136"
         x="-0.51199985 7.4880004"
         style="font-size:16px;font-variant:normal;font-weight:normal;writing-mode:lr-tb;fill:#000000;fill-opacity:1;fill-rule:nonzero;stroke:none;font-family:TG Termes Math;-inkscape-font-specification:TGTermesMath-Regular">30</tspan><tspan
         id="tspan330"
         sodipodi:role="line"
         y="-237.38501"
         x="-0.51199985 7.4880004"
         style="font-size:16px;font-variant:normal;font-weight:normal;writing-mode:lr-tb;fill:#000000;fill-opacity:1;fill-rule:nonzero;stroke:none;font-family:TG Termes Math;-inkscape-font-specification:TGTermesMath-Regular">60</tspan><tspan
         id="tspan332"
         sodipodi:role="line"
         y="-314.90735"
         x="-0.51199985 7.4880004"
         style="font-size:16px;font-variant:normal;font-weight:normal;writing-mode:lr-tb;fill:#000000;fill-opacity:1;fill-rule:nonzero;stroke:none;font-family:TG Termes Math;-inkscape-font-specification:TGTermesMath-Regular">80</tspan></text>
<text
       id="text334"
       transform="scale(1.0277291,-0.97301906)"
       x="15.141711"
       y="-457.31134"
       style="font-size:11.67622852px"><tspan
         id="tspan336"
         y="-457.31134"
         x="15.141711"
         style="font-size:24.45492554px;font-variant:normal;font-weight:normal;writing-mode:lr-tb;fill:#000000;fill-opacity:1;fill-rule:nonzero;stroke:none;font-family:LM Roman 10;-inkscape-font-specification:LMRoman10-Regular">n</tspan></text>
<g
       transform="matrix(1,0,0,-1,0,455.49008)"
       id="g338"><path
         inkscape:connector-curvature="0"
         id="path340"
         style="fill:none;stroke:#ff6600;stroke-width:0.80000001;stroke-linecap:butt;stroke-linejoin:miter;stroke-miterlimit:4;stroke-opacity:1;stroke-dasharray:0.8, 1.6;stroke-dashoffset:0"
         d="M 77.523,431.371 132.648,291.832" /></g><g
       transform="matrix(0.395062,1,1,-0.395062,0,455.49008)"
       id="g342"><path
         inkscape:connector-curvature="0"
         id="path344"
         style="fill:#000000;fill-opacity:1;fill-rule:evenodd;stroke:#000000;stroke-width:0.74404198;stroke-linecap:butt;stroke-linejoin:miter;stroke-miterlimit:4;stroke-opacity:1;stroke-dasharray:none"
         d="m -203.67,214.47 -5.148,2.975 -10e-4,-5.953 5.149,2.978 z" /></g><g
       transform="matrix(1,0,0,-1,0,455.49008)"
       id="g346"><path
         inkscape:connector-curvature="0"
         id="path348"
         style="fill:none;stroke:#ff6600;stroke-width:0.80000001;stroke-linecap:butt;stroke-linejoin:miter;stroke-miterlimit:4;stroke-opacity:1;stroke-dasharray:0.8, 0.8;stroke-dashoffset:0"
         d="M 130.926,430.223 178.59,279.199" /></g><g
       transform="matrix(0.315589,1,1,-0.315589,0,455.49008)"
       id="g350"><path
         inkscape:connector-curvature="0"
         id="path352"
         style="fill:#000000;fill-opacity:1;fill-rule:evenodd;stroke:#000000;stroke-width:0.76291001;stroke-linecap:butt;stroke-linejoin:miter;stroke-miterlimit:4;stroke-opacity:1;stroke-dasharray:none"
         d="m -199.132,242.543 -5.279,3.053 -0.001,-6.105 5.28,3.052 z" /></g><path
       inkscape:connector-curvature="0"
       id="path354"
       style="fill:#000000;fill-opacity:1;fill-rule:nonzero;stroke:none"
       d="m 172.918,194.654 14.402,0 0,0.652 -14.402,0" /><path
       inkscape:connector-curvature="0"
       id="path356"
       style="fill:#000000;fill-opacity:1;fill-rule:nonzero;stroke:none"
       d="m 180.457,188.506 -1.328,3.156 c -0.051,0.129 -0.082,0.187 -0.082,0.203 0,0.098 0.269,0.399 0.937,0.461 0.157,0.016 0.317,0.031 0.317,0.305 0,0.187 -0.192,0.187 -0.239,0.187 -0.652,0 -1.332,-0.051 -2,-0.051 -0.398,0 -1.378,0.051 -1.773,0.051 -0.094,0 -0.289,0 -0.289,-0.316 0,-0.176 0.16,-0.176 0.367,-0.176 0.953,0 1.043,-0.16 1.192,-0.508 l 1.867,-4.426 -3.344,-3.601 -0.207,-0.176 c -0.773,-0.84 -1.523,-1.09 -2.332,-1.137 -0.203,-0.015 -0.352,-0.015 -0.352,-0.316 0,-0.016 0,-0.176 0.211,-0.176 0.473,0 0.996,0.051 1.489,0.051 0.589,0 1.211,-0.051 1.777,-0.051 0.098,0 0.289,0 0.289,0.317 0,0.16 -0.16,0.175 -0.191,0.175 -0.145,0.016 -0.637,0.047 -0.637,0.493 0,0.253 0.238,0.507 0.43,0.71 l 1.613,1.719 1.43,1.547 1.601,-3.785 c 0.063,-0.176 0.078,-0.191 0.078,-0.227 0,-0.125 -0.297,-0.39 -0.918,-0.457 -0.175,-0.015 -0.316,-0.035 -0.316,-0.304 0,-0.188 0.176,-0.188 0.234,-0.188 0.449,0 1.559,0.051 2,0.051 0.399,0 1.364,-0.051 1.762,-0.051 0.109,0 0.301,0 0.301,0.301 0,0.191 -0.16,0.191 -0.285,0.191 -1.059,0.016 -1.094,0.067 -1.364,0.696 -0.617,1.476 -1.679,3.949 -2.043,4.898 1.078,1.113 2.739,3.004 3.246,3.445 0.461,0.383 1.063,0.762 2.016,0.809 0.207,0.016 0.348,0.016 0.348,0.316 0,0.016 0,0.176 -0.203,0.176 -0.481,0 -1,-0.051 -1.497,-0.051 -0.582,0 -1.187,0.051 -1.757,0.051 -0.098,0 -0.301,0 -0.301,-0.316 0,-0.11 0.082,-0.16 0.191,-0.176 0.145,-0.012 0.637,-0.047 0.637,-0.492 0,-0.223 -0.176,-0.43 -0.305,-0.57 l -2.57,-2.758 z" /><path
       inkscape:connector-curvature="0"
       id="path358"
       style="fill:#000000;fill-opacity:1;fill-rule:nonzero;stroke:none"
       d="m 139.996,184.689 -0.273,0.231 c 0,-0.012 -0.653,-0.735 -1.407,-0.735 -0.394,0 -0.824,0.231 -1.113,0.383 -0.465,0.246 -0.777,0.352 -1.066,0.352 -0.653,0 -0.985,-0.336 -1.856,-1.192 l 0.278,-0.23 c 0,0.016 0.652,0.73 1.406,0.73 0.39,0 0.824,-0.222 1.113,-0.375 0.461,-0.246 0.774,-0.355 1.067,-0.355 0.652,0 0.98,0.34 1.851,1.191 z" /><path
       inkscape:connector-curvature="0"
       id="path360"
       style="fill:#000000;fill-opacity:1;fill-rule:nonzero;stroke:none"
       d="m 136.262,177.135 -1.442,3.035 c -0.05,0.129 -0.086,0.183 -0.086,0.199 0,0.094 0.293,0.383 1.012,0.441 0.172,0.016 0.344,0.032 0.344,0.297 0,0.18 -0.207,0.18 -0.258,0.18 -0.707,0 -1.445,-0.051 -2.164,-0.051 -0.43,0 -1.492,0.051 -1.922,0.051 -0.101,0 -0.312,0 -0.312,-0.305 0,-0.172 0.171,-0.172 0.398,-0.172 1.027,0 1.129,-0.152 1.289,-0.484 l 2.024,-4.266 -3.625,-3.464 -0.219,-0.168 c -0.844,-0.809 -1.653,-1.051 -2.528,-1.094 -0.222,-0.016 -0.378,-0.016 -0.378,-0.309 0,-0.015 0,-0.168 0.226,-0.168 0.512,0 1.074,0.051 1.609,0.051 0.637,0 1.309,-0.051 1.926,-0.051 0.106,0 0.313,0 0.313,0.309 0,0.152 -0.172,0.168 -0.207,0.168 -0.157,0.012 -0.692,0.043 -0.692,0.472 0,0.243 0.262,0.489 0.469,0.684 l 1.746,1.652 1.547,1.493 1.734,-3.645 c 0.071,-0.172 0.086,-0.184 0.086,-0.219 0,-0.121 -0.324,-0.379 -0.996,-0.437 -0.187,-0.016 -0.34,-0.035 -0.34,-0.297 0,-0.18 0.188,-0.18 0.254,-0.18 0.489,0 1.688,0.051 2.164,0.051 0.434,0 1.477,-0.051 1.907,-0.051 0.121,0 0.328,0 0.328,0.293 0,0.184 -0.172,0.184 -0.309,0.184 -1.148,0.012 -1.187,0.058 -1.476,0.668 -0.668,1.422 -1.821,3.801 -2.211,4.715 1.168,1.074 2.965,2.89 3.515,3.316 0.5,0.367 1.153,0.734 2.18,0.777 0.227,0.016 0.379,0.016 0.379,0.309 0,0.016 0,0.168 -0.223,0.168 -0.515,0 -1.082,-0.051 -1.617,-0.051 -0.633,0 -1.285,0.051 -1.906,0.051 -0.102,0 -0.324,0 -0.324,-0.305 0,-0.105 0.085,-0.156 0.207,-0.172 0.156,-0.011 0.691,-0.043 0.691,-0.468 0,-0.219 -0.191,-0.414 -0.332,-0.555 l -2.781,-2.652 z" /></g></svg>