<?xml version="1.0" encoding="UTF-8" standalone="no"?>
<!-- Created with Inkscape (http://www.inkscape.org/) -->

<svg
   xmlns:dc="http://purl.org/dc/elements/1.1/"
   xmlns:cc="http://creativecommons.org/ns#"
   xmlns:rdf="http://www.w3.org/1999/02/22-rdf-syntax-ns#"
   xmlns:svg="http://www.w3.org/2000/svg"
   xmlns="http://www.w3.org/2000/svg"
   xmlns:sodipodi="http://sodipodi.sourceforge.net/DTD/sodipodi-0.dtd"
   xmlns:inkscape="http://www.inkscape.org/namespaces/inkscape"
   id="svg2"
   version="1.1"
   inkscape:version="0.48.4 r9939"
   width="969.83185"
   height="411.96924"
   xml:space="preserve"
   sodipodi:docname="Img304.svg"><sodipodi:namedview
     pagecolor="#ffffff"
     bordercolor="#666666"
     borderopacity="1"
     objecttolerance="10"
     gridtolerance="10"
     guidetolerance="10"
     inkscape:pageopacity="0"
     inkscape:pageshadow="2"
     inkscape:window-width="1333"
     inkscape:window-height="744"
     id="namedview4"
     showgrid="false"
     showguides="true"
     inkscape:guide-bbox="true"
     inkscape:zoom="0.75620828"
     inkscape:cx="521.51596"
     inkscape:cy="245.46327"
     inkscape:window-x="33"
     inkscape:window-y="24"
     inkscape:window-maximized="1"
     inkscape:current-layer="g10"
     fit-margin-top="0"
     fit-margin-left="0"
     fit-margin-right="0"
     fit-margin-bottom="0"><sodipodi:guide
       id="guide3351"
       position="310.39948,352.01888"
       orientation="0,1" /><sodipodi:guide
       id="guide3353"
       position="313.20468,317.42133"
       orientation="0,1" /><sodipodi:guide
       id="guide3355"
       position="304.78906,287.49913"
       orientation="0,1" /><sodipodi:guide
       id="guide3357"
       position="355.28278,275.34323"
       orientation="0,1" /><sodipodi:guide
       id="guide3359"
       position="430.08829,237.94048"
       orientation="0,1" /><sodipodi:guide
       id="guide3361"
       position="430.08829,193.05718"
       orientation="0,1" /><sodipodi:guide
       id="guide3363"
       position="918.58935,158.73212"
       orientation="0,1" /><sodipodi:guide
       id="guide3365"
       position="925.20129,117.73813"
       orientation="0,1" /><sodipodi:guide
       id="guide3367"
       position="123.83476,439.07817"
       orientation="1,0" /><sodipodi:guide
       id="guide3369"
       position="232.2705,158.73212"
       orientation="1,0" /><sodipodi:guide
       id="guide3371"
       position="368.47636,140.21871"
       orientation="1,0" /><sodipodi:guide
       id="guide3373"
       position="553.61054,68.809806"
       orientation="1,0" /><sodipodi:guide
       id="guide3375"
       position="635.80343,61.212473"
       orientation="1,0" /><sodipodi:guide
       id="guide3377"
       position="724.63496,81.783988"
       orientation="1,0" /><sodipodi:guide
       id="guide3379"
       position="809.72623,28.485065"
       orientation="1,0" /><sodipodi:guide
       id="guide3381"
       position="618.97219,46.251372"
       orientation="0,1" /><sodipodi:guide
       id="guide4155"
       position="291.6981,157.52456"
       orientation="1,0" /><sodipodi:guide
       id="guide4157"
       position="382.39978,94.874951"
       orientation="1,0" /><sodipodi:guide
       id="guide4159"
       position="466.55597,46.251372"
       orientation="1,0" /><sodipodi:guide
       id="guide4173"
       position="205.82276,133.60677"
       orientation="1,0" /></sodipodi:namedview><metadata
     id="metadata8"><rdf:RDF><cc:Work
         rdf:about=""><dc:format>image/svg+xml</dc:format><dc:type
           rdf:resource="http://purl.org/dc/dcmitype/StillImage" /><dc:title /></cc:Work></rdf:RDF></metadata><defs
     id="defs6"><clipPath
       id="clipPath96"
       clipPathUnits="userSpaceOnUse"><path
         id="path98"
         d="m 6.39844,3216.4 869.99956,0 0,-242.4 -869.99956,0 0,242.4 z"
         inkscape:connector-curvature="0" /></clipPath><clipPath
       id="clipPath126"
       clipPathUnits="userSpaceOnUse"><path
         id="path128"
         d="m 199.602,3138.4 684,0 0,-174 -684,0 0,174 z"
         inkscape:connector-curvature="0" /></clipPath><clipPath
       id="clipPath156"
       clipPathUnits="userSpaceOnUse"><path
         id="path158"
         d="m 7135.6,180.398 350.4,0 0,-172.79644 -350.4,0 0,172.79644 z"
         inkscape:connector-curvature="0" /></clipPath><clipPath
       id="clipPath186"
       clipPathUnits="userSpaceOnUse"><path
         id="path188"
         d="m 6893.2,307.602 592.8,0 0,-242.4028 -592.8,0 0,242.4028 z"
         inkscape:connector-curvature="0" /></clipPath><clipPath
       id="clipPath216"
       clipPathUnits="userSpaceOnUse"><path
         id="path218"
         d="m 1489.6,258.398 943.2,0 0,-242.398 -943.2,0 0,242.398 z"
         inkscape:connector-curvature="0" /></clipPath><clipPath
       id="clipPath246"
       clipPathUnits="userSpaceOnUse"><path
         id="path248"
         d="m 3875.2,258.398 943.2,0 0,-242.398 -943.2,0 0,242.398 z"
         inkscape:connector-curvature="0" /></clipPath><clipPath
       id="clipPath276"
       clipPathUnits="userSpaceOnUse"><path
         id="path278"
         d="m 2351.2,258.398 943.2,0 0,-242.398 -943.2,0 0,242.398 z"
         inkscape:connector-curvature="0" /></clipPath><clipPath
       id="clipPath306"
       clipPathUnits="userSpaceOnUse"><path
         id="path308"
         d="m 1171.6,342.398 1947.6,0 0,-268.7964 -1947.6,0 0,268.7964 z"
         inkscape:connector-curvature="0" /></clipPath><clipPath
       id="clipPath336"
       clipPathUnits="userSpaceOnUse"><path
         id="path338"
         d="m 3545.2,476.801 1947.6,0 0,-268.801 -1947.6,0 0,268.801 z"
         inkscape:connector-curvature="0" /></clipPath><clipPath
       id="clipPath366"
       clipPathUnits="userSpaceOnUse"><path
         id="path368"
         d="m 2041.6,376 1947.6,0 0,-268.801 -1947.6,0 0,268.801 z"
         inkscape:connector-curvature="0" /></clipPath></defs><g
     transform="matrix(1.25,0,0,-1.25,23.333353,410.60117)"
     inkscape:label="Img304"
     inkscape:groupmode="layer"
     id="g10"><path
       sodipodi:nodetypes="ccccccccccccccccccc"
       transform="matrix(0.8,0,0,-0.8,0,328)"
       inkscape:connector-curvature="0"
       id="path4161"
       d="m 100.05236,365.1167 0,-241.24776 82.43705,0 0,-64.51975 85.87534,0 0,34.59755 90.70168,0 0,42.0781 84.15619,0 0,37.40275 87.89647,0 0,44.8833 81.35099,0 0,34.32506 88.83153,0 0,40.99399 85.09127,0 0,71.48676 z"
       style="fill:#0066cc;fill-opacity:1;stroke:none" /><path
       transform="matrix(0.8,0,0,-0.8,0,328)"
       inkscape:connector-curvature="0"
       id="path4163"
       d="m 18.513418,17.251059 1.322387,347.865641 0,0 908.479875,0 1.32239,0"
       style="fill:none;stroke:#000000;stroke-width:2.5;stroke-linecap:butt;stroke-linejoin:miter;stroke-miterlimit:4;stroke-opacity:1;stroke-dasharray:none" /><path
       sodipodi:nodetypes="cc"
       inkscape:connector-curvature="0"
       id="path4165"
       d="m 190.42373,280.52065 0,-244.61401"
       style="fill:none;stroke:#000000;stroke-width:2;stroke-linecap:butt;stroke-linejoin:miter;stroke-miterlimit:4;stroke-opacity:1;stroke-dasharray:none" /><path
       transform="matrix(0.8,0,0,-0.8,0,328)"
       inkscape:connector-curvature="0"
       id="path4167"
       d="m 346.91053,93.94674 0,271.16996 0,0"
       style="fill:none;stroke:#000000;stroke-width:2.5;stroke-linecap:butt;stroke-linejoin:miter;stroke-miterlimit:4;stroke-opacity:1;stroke-dasharray:none" /><path
       sodipodi:nodetypes="cc"
       transform="matrix(0.8,0,0,-0.8,0,328)"
       inkscape:connector-curvature="0"
       id="path4169"
       d="m 530.27719,173.42759 0,191.68911"
       style="fill:none;stroke:#000000;stroke-width:2.5;stroke-linecap:butt;stroke-linejoin:miter;stroke-miterlimit:4;stroke-opacity:1;stroke-dasharray:none" /><path
       inkscape:connector-curvature="0"
       id="path4194"
       d="m 204.68697,125.71862 57.56092,0 0,0"
       style="fill:none;stroke:#000000;stroke-width:1.3033247;stroke-linecap:butt;stroke-linejoin:miter;stroke-miterlimit:4;stroke-opacity:1;stroke-dasharray:none" /><path
       inkscape:connector-curvature="0"
       id="path4196"
       d="m 292.86251,92.758824 116.06576,0"
       style="fill:none;stroke:#000000;stroke-width:1.41639292;stroke-linecap:butt;stroke-linejoin:miter;stroke-miterlimit:4;stroke-opacity:1;stroke-dasharray:none" /><path
       inkscape:transform-center-y="-2.9753712"
       transform="matrix(0.8,0,0,0.8,-16.939689,388.73376)"
       d="m 39.671612,-75.316031 -10.306987,-17.852224 20.613973,-10e-7 z"
       inkscape:randomized="0"
       inkscape:rounded="0"
       inkscape:flatsided="true"
       sodipodi:arg2="2.6179939"
       sodipodi:arg1="1.5707963"
       sodipodi:r2="5.9507413"
       sodipodi:r1="11.901483"
       sodipodi:cy="-87.217514"
       sodipodi:cx="39.671612"
       sodipodi:sides="3"
       id="path4198"
       style="opacity:0.75185188;fill:#000000;fill-opacity:1;stroke:none"
       sodipodi:type="star" /><path
       inkscape:transform-center-x="1.9042419"
       transform="matrix(0,-0.8,0.8,0,817.45163,67.441737)"
       d="m 39.671612,-75.316031 -10.306987,-17.852224 20.613973,-10e-7 z"
       inkscape:randomized="0"
       inkscape:rounded="0"
       inkscape:flatsided="true"
       sodipodi:arg2="2.6179939"
       sodipodi:arg1="1.5707963"
       sodipodi:r2="5.9507413"
       sodipodi:r1="11.901483"
       sodipodi:cy="-87.217514"
       sodipodi:cx="39.671612"
       sodipodi:sides="3"
       id="path4198-6-7"
       style="opacity:0.75185188;fill:#000000;fill-opacity:1;stroke:none"
       sodipodi:type="star" /><path
       inkscape:transform-center-x="1.9042419"
       transform="matrix(0,-0.8,0.8,0,336.76394,157.49629)"
       d="m 39.671612,-75.316031 -10.306987,-17.852224 20.613973,-10e-7 z"
       inkscape:randomized="0"
       inkscape:rounded="0"
       inkscape:flatsided="true"
       sodipodi:arg2="2.6179939"
       sodipodi:arg1="1.5707963"
       sodipodi:r2="5.9507413"
       sodipodi:r1="11.901483"
       sodipodi:cy="-87.217514"
       sodipodi:cx="39.671612"
       sodipodi:sides="3"
       id="path4198-6-9"
       style="opacity:0.75185188;fill:#000000;fill-opacity:1;stroke:none"
       sodipodi:type="star" /><path
       inkscape:transform-center-x="1.9042419"
       transform="matrix(0,-0.8,0.8,0,483.33786,124.83334)"
       d="m 39.671612,-75.316031 -10.306987,-17.852224 20.613973,-10e-7 z"
       inkscape:randomized="0"
       inkscape:rounded="0"
       inkscape:flatsided="true"
       sodipodi:arg2="2.6179939"
       sodipodi:arg1="1.5707963"
       sodipodi:r2="5.9507413"
       sodipodi:r1="11.901483"
       sodipodi:cy="-87.217514"
       sodipodi:cx="39.671612"
       sodipodi:sides="3"
       id="path4198-6-1"
       style="opacity:0.75185188;fill:#000000;fill-opacity:1;stroke:none"
       sodipodi:type="star" /><path
       inkscape:transform-center-x="-1.9042456"
       transform="matrix(0,-0.8,-0.8,0,130.17091,157.62853)"
       d="m 39.671612,-75.316031 -10.306987,-17.852224 20.613973,-10e-7 z"
       inkscape:randomized="0"
       inkscape:rounded="0"
       inkscape:flatsided="true"
       sodipodi:arg2="2.6179939"
       sodipodi:arg1="1.5707963"
       sodipodi:r2="5.9507413"
       sodipodi:r1="11.901483"
       sodipodi:cy="-87.217514"
       sodipodi:cx="39.671612"
       sodipodi:sides="3"
       id="path4198-6-3"
       style="opacity:0.75185188;fill:#000000;fill-opacity:1;stroke:none"
       sodipodi:type="star" /><path
       inkscape:transform-center-x="-1.9042456"
       transform="matrix(0,-0.8,-0.8,0,218.37412,124.70109)"
       d="m 39.671612,-75.316031 -10.306987,-17.852224 20.613973,-10e-7 z"
       inkscape:randomized="0"
       inkscape:rounded="0"
       inkscape:flatsided="true"
       sodipodi:arg2="2.6179939"
       sodipodi:arg1="1.5707963"
       sodipodi:r2="5.9507413"
       sodipodi:r1="11.901483"
       sodipodi:cy="-87.217514"
       sodipodi:cx="39.671612"
       sodipodi:sides="3"
       id="path4198-6-32"
       style="opacity:0.75185188;fill:#000000;fill-opacity:1;stroke:none"
       sodipodi:type="star" /><path
       transform="matrix(0.8,0,0,-0.8,0,328)"
       inkscape:connector-curvature="0"
       id="path4275"
       d="M 182.48941,123.86894 268.36475,59.34919"
       style="fill:none;stroke:#000000;stroke-width:1.5;stroke-linecap:butt;stroke-linejoin:miter;stroke-miterlimit:4;stroke-opacity:1;stroke-dasharray:none" /><path
       transform="matrix(0.8,0,0,-0.8,0,328)"
       inkscape:connector-curvature="0"
       id="path4277"
       d="m 182.48941,59.34919 85.87534,34.59755"
       style="fill:none;stroke:#000000;stroke-width:1.5;stroke-linecap:butt;stroke-linejoin:miter;stroke-miterlimit:4;stroke-opacity:1;stroke-dasharray:none" /><g
       id="g4339"
       transform="matrix(1,0,0,-1,10.579096,464.6533)"><g
         word-spacing="normal"
         letter-spacing="normal"
         font-size-adjust="none"
         font-stretch="normal"
         font-weight="normal"
         font-variant="normal"
         font-style="normal"
         stroke-miterlimit="10.433"
         xml:space="preserve"
         transform="matrix(0.58571429,0,0,-0.58571429,-102.5,702.1875)"
         id="content"
         style="font-style:normal;font-variant:normal;font-weight:normal;font-stretch:normal;letter-spacing:normal;word-spacing:normal;text-anchor:start;fill:none;stroke:#000000;stroke-linecap:butt;stroke-linejoin:miter;stroke-miterlimit:10.43299961;stroke-opacity:1;stroke-dasharray:none;stroke-dashoffset:0"><polygon
           id="polygon4342"
           points="482.28,452.93 495.84,446.8 496.43,447.89 482.32,455.86 468.23,447.89 468.78,446.8 "
           style="fill:#000000;stroke-width:0" /><path
           id="path4344"
           d="m 479.68,426.68 -4.18,9.91 c -0.15,0.41 -0.25,0.59 -0.25,0.64 0,0.31 0.85,1.25 2.94,1.45 0.5,0.05 1,0.1 1,0.96 0,0.59 -0.61,0.59 -0.75,0.59 -2.05,0 -4.19,-0.16 -6.28,-0.16 -1.25,0 -4.33,0.16 -5.58,0.16 -0.29,0 -0.9,0 -0.9,-1 0,-0.55 0.5,-0.55 1.15,-0.55 2.99,0 3.28,-0.5 3.74,-1.59 l 5.87,-13.91 -10.51,-11.31 -0.64,-0.55 c -2.44,-2.64 -4.79,-3.43 -7.33,-3.57 -0.64,-0.05 -1.1,-0.05 -1.1,-1 0,-0.05 0,-0.55 0.66,-0.55 1.48,0 3.12,0.16 4.67,0.16 1.85,0 3.8,-0.16 5.58,-0.16 0.31,0 0.91,0 0.91,1 0,0.5 -0.5,0.55 -0.6,0.55 -0.45,0.04 -2,0.14 -2,1.54 0,0.8 0.75,1.6 1.35,2.24 l 5.07,5.39 4.49,4.87 5.03,-11.9 c 0.2,-0.55 0.25,-0.6 0.25,-0.71 0,-0.39 -0.94,-1.23 -2.89,-1.43 -0.55,-0.05 -0.99,-0.11 -0.99,-0.96 0,-0.59 0.55,-0.59 0.74,-0.59 1.41,0 4.89,0.16 6.28,0.16 1.25,0 4.28,-0.16 5.53,-0.16 0.35,0 0.95,0 0.95,0.95 0,0.6 -0.5,0.6 -0.9,0.6 -3.33,0.04 -3.44,0.2 -4.28,2.18 -1.94,4.64 -5.28,12.41 -6.42,15.39 3.39,3.5 8.6,9.43 10.2,10.82 1.45,1.2 3.34,2.39 6.33,2.54 0.65,0.05 1.09,0.05 1.09,1 0,0.05 0,0.55 -0.64,0.55 -1.5,0 -3.14,-0.16 -4.69,-0.16 -1.84,0 -3.73,0.16 -5.53,0.16 -0.3,0 -0.94,0 -0.94,-1 0,-0.34 0.25,-0.5 0.6,-0.55 0.45,-0.04 2,-0.15 2,-1.54 0,-0.71 -0.55,-1.35 -0.96,-1.8 z"
           inkscape:connector-curvature="0"
           style="fill:#000000;stroke-width:0" /></g></g><g
       id="g4472"
       transform="matrix(1,0,0,-1,98.385593,463.1759)"><g
         id="g4474"
         transform="matrix(0.58571429,0,0,-0.58571429,-102.5,702.1875)"
         xml:space="preserve"
         stroke-miterlimit="10.433"
         font-style="normal"
         font-variant="normal"
         font-weight="normal"
         font-stretch="normal"
         font-size-adjust="none"
         letter-spacing="normal"
         word-spacing="normal"
         style="font-style:normal;font-variant:normal;font-weight:normal;font-stretch:normal;letter-spacing:normal;word-spacing:normal;text-anchor:start;fill:none;stroke:#000000;stroke-linecap:butt;stroke-linejoin:miter;stroke-miterlimit:10.43299961;stroke-opacity:1;stroke-dasharray:none;stroke-dashoffset:0"><path
           d="m 495.43,454.77 -0.46,-0.38 -0.46,-0.36 -0.47,-0.35 -0.47,-0.33 -0.47,-0.31 -0.48,-0.29 -0.48,-0.27 -0.48,-0.24 -0.24,-0.12 -0.24,-0.11 -0.24,-0.1 -0.24,-0.09 -0.24,-0.09 -0.25,-0.09 -0.24,-0.07 -0.24,-0.07 -0.24,-0.06 -0.24,-0.05 -0.24,-0.05 -0.24,-0.03 -0.24,-0.03 -0.24,-0.02 -0.24,-0.02 -0.24,0 c -1.99,0 -3.44,0.84 -5.17,1.84 -1.46,0.85 -3,1.69 -4.99,1.69 -1.25,0 -2.54,-0.39 -3.64,-0.89 -1,-0.5 -2,-1.05 -2.84,-1.75 l -2.69,-2.19 0.7,-0.84 c 2.44,2.03 5.08,3.53 7.61,3.53 2,0 3.46,-0.84 5.19,-1.84 1.45,-0.85 2.98,-1.69 4.98,-1.69 1.25,0 2.55,0.39 3.65,0.89 0.98,0.5 1.98,1.05 2.82,1.75 l 2.71,2.19 z"
           id="path4476"
           inkscape:connector-curvature="0"
           style="fill:#000000;stroke-width:0" /><path
           d="m 479.68,426.68 -4.18,9.91 c -0.15,0.41 -0.25,0.59 -0.25,0.64 0,0.31 0.85,1.25 2.94,1.45 0.5,0.05 1,0.1 1,0.96 0,0.59 -0.61,0.59 -0.75,0.59 -2.05,0 -4.19,-0.16 -6.28,-0.16 -1.25,0 -4.33,0.16 -5.58,0.16 -0.29,0 -0.9,0 -0.9,-1 0,-0.55 0.5,-0.55 1.15,-0.55 2.99,0 3.28,-0.5 3.74,-1.59 l 5.87,-13.91 -10.51,-11.31 -0.64,-0.55 c -2.44,-2.64 -4.79,-3.43 -7.33,-3.57 -0.64,-0.05 -1.1,-0.05 -1.1,-1 0,-0.05 0,-0.55 0.66,-0.55 1.48,0 3.12,0.16 4.67,0.16 1.85,0 3.8,-0.16 5.58,-0.16 0.31,0 0.91,0 0.91,1 0,0.5 -0.5,0.55 -0.6,0.55 -0.45,0.04 -2,0.14 -2,1.54 0,0.8 0.75,1.6 1.35,2.24 l 5.07,5.39 4.49,4.87 5.03,-11.9 c 0.2,-0.55 0.25,-0.6 0.25,-0.71 0,-0.39 -0.94,-1.23 -2.89,-1.43 -0.55,-0.05 -0.99,-0.11 -0.99,-0.96 0,-0.59 0.55,-0.59 0.74,-0.59 1.41,0 4.89,0.16 6.28,0.16 1.25,0 4.28,-0.16 5.53,-0.16 0.35,0 0.95,0 0.95,0.95 0,0.6 -0.5,0.6 -0.9,0.6 -3.33,0.04 -3.44,0.2 -4.28,2.18 -1.94,4.64 -5.28,12.41 -6.42,15.39 3.39,3.5 8.6,9.43 10.2,10.82 1.45,1.2 3.34,2.39 6.33,2.54 0.65,0.05 1.09,0.05 1.09,1 0,0.05 0,0.55 -0.64,0.55 -1.5,0 -3.14,-0.16 -4.69,-0.16 -1.84,0 -3.73,0.16 -5.53,0.16 -0.3,0 -0.94,0 -0.94,-1 0,-0.34 0.25,-0.5 0.6,-0.55 0.45,-0.04 2,-0.15 2,-1.54 0,-0.71 -0.55,-1.35 -0.96,-1.8 z"
           id="path4478"
           inkscape:connector-curvature="0"
           style="fill:#000000;stroke-width:0" /></g></g><polyline
       id="polyline4618"
       points="456,446 501.24,446 501.24,448.04 456,448.04 "
       style="font-style:normal;font-variant:normal;font-weight:normal;font-stretch:normal;letter-spacing:normal;word-spacing:normal;text-anchor:start;fill:#000000;fill-rule:nonzero;stroke:#000000;stroke-width:0;stroke-linecap:butt;stroke-linejoin:miter;stroke-miterlimit:10.43299961;stroke-opacity:1;stroke-dasharray:none;stroke-dashoffset:0"
       transform="matrix(0.58571429,0,0,0.58571429,145.05085,-237.18556)" /><path
       id="path4620"
       d="m 426.00628,12.727013 -2.44829,5.804429 c -0.0879,0.240143 -0.14642,0.345571 -0.14642,0.374857 0,0.181571 0.49785,0.732143 1.722,0.849286 0.29285,0.02929 0.58571,0.05857 0.58571,0.562285 0,0.345572 -0.35729,0.345572 -0.43929,0.345572 -1.20071,0 -2.45414,-0.09371 -3.67828,-0.09371 -0.73214,0 -2.53614,0.09371 -3.26829,0.09371 -0.16985,0 -0.52714,0 -0.52714,-0.585714 0,-0.322143 0.29286,-0.322143 0.67357,-0.322143 1.75129,0 1.92114,-0.292857 2.19057,-0.931286 l 3.43815,-8.147286 -6.15586,-6.6244284 -0.37486,-0.3221428 c -1.42914,-1.5462858 -2.80557,-2.0090001 -4.29328,-2.0910001 -0.37486,-0.029286 -0.64429,-0.029286 -0.64429,-0.5857142 0,-0.029286 0,-0.3221429 0.38657,-0.3221429 0.86686,0 1.82743,0.0937143 2.73529,0.0937143 1.08357,0 2.22571,-0.0937143 3.26828,-0.0937143 0.18157,0 0.533,0 0.533,0.5857143 0,0.2928571 -0.29285,0.3221428 -0.35143,0.3221428 -0.26357,0.023429 -1.17142,0.082 -1.17142,0.9020001 0,0.4685714 0.43928,0.9371428 0.79071,1.312 l 2.96957,3.157 2.62986,2.8524286 2.94614,-6.9700001 c 0.11714,-0.3221428 0.14643,-0.3514285 0.14643,-0.4158571 0,-0.2284286 -0.55057,-0.7204286 -1.69271,-0.8375715 -0.32215,-0.029286 -0.57986,-0.064429 -0.57986,-0.5622857 0,-0.3455714 0.32214,-0.3455714 0.43343,-0.3455714 0.82585,0 2.86414,0.0937143 3.67828,0.0937143 0.73215,0 2.50686,-0.0937143 3.239,-0.0937143 0.205,0 0.55643,0 0.55643,0.5564286 0,0.3514285 -0.29286,0.3514285 -0.52714,0.3514285 -1.95043,0.023429 -2.01486,0.1171429 -2.50686,1.2768572 -1.13628,2.7177143 -3.09257,7.2687141 -3.76028,9.0141431 1.98557,2.05 5.03714,5.523286 5.97428,6.337428 0.84929,0.702858 1.95629,1.399858 3.70757,1.487715 0.38072,0.02929 0.63843,0.02929 0.63843,0.585714 0,0.02929 0,0.322143 -0.37486,0.322143 -0.87857,0 -1.83914,-0.09371 -2.747,-0.09371 -1.07771,0 -2.18471,0.09371 -3.239,0.09371 -0.17571,0 -0.55057,0 -0.55057,-0.585714 0,-0.199143 0.14643,-0.292858 0.35143,-0.322143 0.26357,-0.02343 1.17143,-0.08786 1.17143,-0.902 0,-0.415857 -0.32214,-0.790715 -0.56229,-1.054286 z"
       inkscape:connector-curvature="0"
       style="font-style:normal;font-variant:normal;font-weight:normal;font-stretch:normal;letter-spacing:normal;word-spacing:normal;text-anchor:start;fill:#000000;stroke:#000000;stroke-width:0;stroke-linecap:butt;stroke-linejoin:miter;stroke-miterlimit:10.43299961;stroke-opacity:1;stroke-dasharray:none;stroke-dashoffset:0" /><path
       id="path4620-7"
       d="m 727.07021,23.187692 -2.44829,5.80443 c -0.0879,0.24014 -0.14642,0.34557 -0.14642,0.37486 0,0.18157 0.49785,0.73214 1.722,0.84928 0.29285,0.0293 0.58571,0.0586 0.58571,0.56229 0,0.34557 -0.35729,0.34557 -0.43929,0.34557 -1.20071,0 -2.45414,-0.09371 -3.67828,-0.09371 -0.73214,0 -2.53614,0.09371 -3.26829,0.09371 -0.16985,0 -0.52714,0 -0.52714,-0.58571 0,-0.32215 0.29286,-0.32215 0.67357,-0.32215 1.75129,0 1.92114,-0.29285 2.19057,-0.93128 l 3.43815,-8.14729 -6.15586,-6.62443 -0.37486,-0.32214 c -1.42914,-1.54629 -2.80557,-2.009 -4.29328,-2.091 -0.37486,-0.02929 -0.64429,-0.02929 -0.64429,-0.58571 0,-0.0293 0,-0.32215 0.38657,-0.32215 0.86686,0 1.82743,0.0937 2.73529,0.0937 1.08357,0 2.22571,-0.0937 3.26828,-0.0937 0.18157,0 0.533,0 0.533,0.58572 0,0.29285 -0.29285,0.32214 -0.35143,0.32214 -0.26357,0.0234 -1.17142,0.082 -1.17142,0.902 0,0.46857 0.43928,0.93714 0.79071,1.312 l 2.96957,3.157 2.62986,2.85243 2.94614,-6.97 c 0.11714,-0.32214 0.14643,-0.35143 0.14643,-0.41586 0,-0.22843 -0.55057,-0.72043 -1.69271,-0.83757 -0.32215,-0.0293 -0.57986,-0.0644 -0.57986,-0.56229 0,-0.34557 0.32214,-0.34557 0.43343,-0.34557 0.82585,0 2.86414,0.0937 3.67828,0.0937 0.73215,0 2.50686,-0.0937 3.239,-0.0937 0.205,0 0.55643,0 0.55643,0.55643 0,0.35143 -0.29286,0.35143 -0.52714,0.35143 -1.95043,0.0234 -2.01486,0.11714 -2.50686,1.27686 -1.13628,2.71771 -3.09257,7.26871 -3.76028,9.01414 1.98557,2.05 5.03714,5.52329 5.97428,6.33743 0.84929,0.70286 1.95629,1.39986 3.70757,1.48771 0.38072,0.0293 0.63843,0.0293 0.63843,0.58572 0,0.0293 0,0.32214 -0.37486,0.32214 -0.87857,0 -1.83914,-0.0937 -2.747,-0.0937 -1.07771,0 -2.18471,0.0937 -3.239,0.0937 -0.17571,0 -0.55057,0 -0.55057,-0.58571 0,-0.19915 0.14643,-0.29286 0.35143,-0.32215 0.26357,-0.0234 1.17143,-0.0879 1.17143,-0.902 0,-0.41585 -0.32214,-0.79071 -0.56229,-1.05428 z"
       inkscape:connector-curvature="0"
       style="font-style:normal;font-variant:normal;font-weight:normal;font-stretch:normal;letter-spacing:normal;word-spacing:normal;text-anchor:start;fill:#000000;stroke:#000000;stroke-width:0;stroke-linecap:butt;stroke-linejoin:miter;stroke-miterlimit:10.43299961;stroke-opacity:1;stroke-dasharray:none;stroke-dashoffset:0" /><text
       xml:space="preserve"
       style="font-size:16px;font-style:normal;font-variant:normal;font-weight:normal;font-stretch:normal;line-height:125%;letter-spacing:0px;word-spacing:0px;fill:#000000;fill-opacity:1;stroke:none;font-family:TG Termes Math;-inkscape-font-specification:TG Termes Math"
       x="-20.100283"
       y="-306.79379"
       id="text4722"
       sodipodi:linespacing="125%"
       transform="scale(1,-1)"><tspan
         sodipodi:role="line"
         id="tspan4724"
         x="-20.100283"
         y="-306.79379"
         style="font-size:44.79999924px;font-family:Latin Modern Roman;-inkscape-font-specification:Latin Modern Roman">n</tspan></text>
</g></svg>