<?xml version="1.0" encoding="UTF-8" standalone="no"?>
<!-- Created with Inkscape (http://www.inkscape.org/) -->

<svg
   xmlns:dc="http://purl.org/dc/elements/1.1/"
   xmlns:cc="http://creativecommons.org/ns#"
   xmlns:rdf="http://www.w3.org/1999/02/22-rdf-syntax-ns#"
   xmlns:svg="http://www.w3.org/2000/svg"
   xmlns="http://www.w3.org/2000/svg"
   xmlns:sodipodi="http://sodipodi.sourceforge.net/DTD/sodipodi-0.dtd"
   xmlns:inkscape="http://www.inkscape.org/namespaces/inkscape"
   id="svg2"
   version="1.1"
   inkscape:version="0.48.4 r9939"
   width="240.49196"
   height="135.46207"
   xml:space="preserve"
   sodipodi:docname="mezclag.pdf"><metadata
     id="metadata8"><rdf:RDF><cc:Work
         rdf:about=""><dc:format>image/svg+xml</dc:format><dc:type
           rdf:resource="http://purl.org/dc/dcmitype/StillImage" /><dc:title></dc:title></cc:Work></rdf:RDF></metadata><defs
     id="defs6"><marker
       inkscape:stockid="TriangleOutM"
       orient="auto"
       refY="0"
       refX="0"
       id="TriangleOutM"
       style="overflow:visible"><path
         id="path4601"
         d="m 5.77,0 -8.65,5 0,-10 8.65,5 z"
         style="fill-rule:evenodd;stroke:#000000;stroke-width:1pt"
         transform="scale(0.4,0.4)"
         inkscape:connector-curvature="0" /></marker><marker
       inkscape:stockid="TriangleInM"
       orient="auto"
       refY="0"
       refX="0"
       id="TriangleInM"
       style="overflow:visible"><path
         id="path4592"
         d="m 5.77,0 -8.65,5 0,-10 8.65,5 z"
         style="fill-rule:evenodd;stroke:#000000;stroke-width:1pt"
         transform="scale(-0.4,-0.4)"
         inkscape:connector-curvature="0" /></marker><marker
       inkscape:stockid="Arrow1Sstart"
       orient="auto"
       refY="0"
       refX="0"
       id="Arrow1Sstart"
       style="overflow:visible"><path
         id="path4468"
         d="M 0,0 5,-5 -12.5,0 5,5 0,0 z"
         style="fill-rule:evenodd;stroke:#000000;stroke-width:1pt"
         transform="matrix(0.2,0,0,0.2,1.2,0)"
         inkscape:connector-curvature="0" /></marker><clipPath
       clipPathUnits="userSpaceOnUse"
       id="clipPath16"><path
         d="M 0,0 221,0 221,177 0,177 0,0 z"
         id="path18"
         inkscape:connector-curvature="0" /></clipPath><clipPath
       clipPathUnits="userSpaceOnUse"
       id="clipPath28"><path
         d="M 0,0 0,177 221,177 221,0 0,0 z"
         id="path30"
         inkscape:connector-curvature="0" /></clipPath><clipPath
       clipPathUnits="userSpaceOnUse"
       id="clipPath38"><path
         d="M 0,0 394,0 394,315 0,315 0,0 z"
         id="path40"
         inkscape:connector-curvature="0" /></clipPath><clipPath
       clipPathUnits="userSpaceOnUse"
       id="clipPath106"><path
         d="M 0,0 598,0 598,593 0,593 0,0 z"
         id="path108"
         inkscape:connector-curvature="0" /></clipPath><clipPath
       clipPathUnits="userSpaceOnUse"
       id="clipPath180"><path
         d="m 176,70 0,315 394,0 0,-315 -394,0 z"
         id="path182"
         inkscape:connector-curvature="0" /></clipPath><marker
       inkscape:stockid="TriangleInM"
       orient="auto"
       refY="0"
       refX="0"
       id="TriangleInM-4"
       style="overflow:visible"><path
         inkscape:connector-curvature="0"
         id="path4592-7"
         d="m 5.77,0 -8.65,5 0,-10 8.65,5 z"
         style="fill-rule:evenodd;stroke:#000000;stroke-width:1pt"
         transform="scale(-0.4,-0.4)" /></marker><marker
       inkscape:stockid="TriangleOutM"
       orient="auto"
       refY="0"
       refX="0"
       id="TriangleOutM-6"
       style="overflow:visible"><path
         inkscape:connector-curvature="0"
         id="path4601-4"
         d="m 5.77,0 -8.65,5 0,-10 8.65,5 z"
         style="fill-rule:evenodd;stroke:#000000;stroke-width:1pt"
         transform="scale(0.4,0.4)" /></marker></defs><sodipodi:namedview
     pagecolor="#ffffff"
     bordercolor="#666666"
     borderopacity="1"
     objecttolerance="10"
     gridtolerance="10"
     guidetolerance="10"
     inkscape:pageopacity="0"
     inkscape:pageshadow="2"
     inkscape:window-width="1328"
     inkscape:window-height="744"
     id="namedview4"
     showgrid="false"
     inkscape:zoom="2.6313331"
     inkscape:cx="32.998784"
     inkscape:cy="73.942801"
     inkscape:window-x="38"
     inkscape:window-y="24"
     inkscape:window-maximized="1"
     inkscape:current-layer="g10"
     showguides="true"
     inkscape:guide-bbox="true"
     fit-margin-top="0"
     fit-margin-left="0"
     fit-margin-right="0"
     fit-margin-bottom="0"><sodipodi:guide
       orientation="1,0"
       position="-32.918238,164.66661"
       id="guide5632" /><sodipodi:guide
       orientation="1,0"
       position="-22.80213,134.15253"
       id="guide5634" /></sodipodi:namedview><g
     id="g10"
     inkscape:groupmode="layer"
     inkscape:label="mezclag"
     transform="matrix(0.9675125,0,0,0.9675125,3.6172591,-20.99545)"><g
       id="g20"><g
         id="g22" /></g><g
       id="g24"><g
         id="g26"
         clip-path="url(#clipPath28)"><g
           id="g32"
           transform="scale(0.56305,0.56305)" /></g></g><g
       id="g3501"
       transform="matrix(0.73273047,0,0,0.39960637,70.726613,44.036956)"
       style="stroke-width:3.64846492;stroke-miterlimit:10;stroke-dasharray:none"><path
         d="m -99.0968,-39.4135 336.7039,0 0,333.88865 -336.7039,0 0,-333.88865 z"
         style="fill:#ffffff;fill-opacity:1;fill-rule:nonzero;stroke:none"
         id="path44"
         inkscape:connector-curvature="0" /></g><path
       style="fill:none;stroke:#666666;stroke-width:1;stroke-linecap:butt;stroke-linejoin:miter;stroke-miterlimit:4;stroke-opacity:1;stroke-dasharray:0.99999998, 2.99999993;stroke-dashoffset:0;marker-start:none"
       d="m 42.563976,51.754166 0,121.231324 0.380036,-0.38003 -0.760071,-0.38004"
       id="path5636"
       inkscape:connector-curvature="0"
       transform="matrix(1.0335784,0,0,1.0335784,-32.263149,-25.839459)" /><g
       id="g5524"><path
         d="m -1.4033753,151.42667 237.9669653,0"
         style="fill:none;stroke:#000000;stroke-width:0.679061;stroke-linecap:butt;stroke-linejoin:miter;stroke-miterlimit:10;stroke-opacity:1;stroke-dasharray:none;marker-start:url(#TriangleInM);marker-end:url(#TriangleOutM)"
         id="path48"
         inkscape:connector-curvature="0" /><path
         d="m 237.04405,151.70819 -1.68915,-1.97067"
         style="fill:none;stroke:#000000;stroke-width:0.56304997;stroke-linecap:butt;stroke-linejoin:miter;stroke-miterlimit:10;stroke-opacity:1;stroke-dasharray:none"
         id="path50"
         inkscape:connector-curvature="0" /><path
         d="m 237.04405,151.14514 -1.68915,1.97068"
         style="fill:none;stroke:#000000;stroke-width:0.56304997;stroke-linecap:butt;stroke-linejoin:miter;stroke-miterlimit:10;stroke-opacity:1;stroke-dasharray:none"
         id="path52"
         inkscape:connector-curvature="0" /><path
         d="m 10.089856,158.31277 1.936892,0 0,0.46733 -2.6069215,0 0,-0.46733 c 0.213959,-0.21396 0.5011145,-0.50675 0.8670965,-0.87836 0.360352,-0.37161 0.591203,-0.60809 0.681291,-0.71507 0.180176,-0.19707 0.304047,-0.36599 0.371613,-0.50112 0.0732,-0.14076 0.106979,-0.27589 0.106979,-0.41102 0,-0.21959 -0.07883,-0.39414 -0.23085,-0.5349 -0.152024,-0.13513 -0.349091,-0.2027 -0.596833,-0.2027 -0.174546,0 -0.360352,0.0281 -0.551789,0.0901 -0.191437,0.0619 -0.394135,0.15202 -0.619355,0.27589 l 0,-0.56305 c 0.22522,-0.0845 0.4335485,-0.15202 0.624986,-0.20269 0.191437,-0.0451 0.371613,-0.0676 0.534897,-0.0676 0.422288,0 0.765748,0.10698 1.019121,0.31531 0.253372,0.21396 0.382874,0.49548 0.382874,0.85583 0,0.16892 -0.03378,0.32657 -0.09572,0.4786 -0.06757,0.14639 -0.180176,0.32656 -0.34346,0.52926 -0.05067,0.0563 -0.197068,0.20833 -0.439179,0.4617 -0.247742,0.25901 -0.596833,0.61373 -1.041643,1.0698 z m 4.284811,-3.27132 c -0.281525,0 -0.489854,0.14076 -0.636247,0.42229 -0.140762,0.28152 -0.213959,0.70381 -0.213959,1.26686 0,0.56305 0.0732,0.98534 0.213959,1.26686 0.146393,0.28153 0.354722,0.42229 0.636247,0.42229 0.298416,0 0.512375,-0.14076 0.658768,-0.42229 0.140763,-0.28152 0.213959,-0.70381 0.213959,-1.26686 0,-0.56305 -0.0732,-0.98534 -0.213959,-1.26686 -0.146393,-0.28153 -0.360352,-0.42229 -0.658768,-0.42229 z m 0,-0.43918 c 0.467331,0 0.816422,0.18018 1.064164,0.54616 0.242112,0.36035 0.365983,0.88962 0.365983,1.58217 0,0.69255 -0.123871,1.22182 -0.365983,1.58217 -0.247742,0.36598 -0.596833,0.54616 -1.064164,0.54616 -0.456071,0 -0.805162,-0.18018 -1.047273,-0.54616 -0.247742,-0.36035 -0.365983,-0.88962 -0.365983,-1.58217 0,-0.69255 0.118241,-1.22182 0.365983,-1.58217 0.242111,-0.36598 0.591202,-0.54616 1.047273,-0.54616 z"
         style="fill:#000000;fill-opacity:1;fill-rule:nonzero;stroke:none"
         id="path66"
         inkscape:connector-curvature="0" /><path
         d="m 11.784637,151.42667 0,2.2522"
         style="fill:none;stroke:#000000;stroke-width:0.56304997;stroke-linecap:butt;stroke-linejoin:miter;stroke-miterlimit:10;stroke-opacity:1;stroke-dasharray:none"
         id="path68"
         inkscape:connector-curvature="0" /><path
         d="m 38.805406,158.31277 1.936892,0 0,0.46733 -2.606921,0 0,-0.46733 c 0.213959,-0.21396 0.501114,-0.50675 0.867096,-0.87836 0.360352,-0.37161 0.591203,-0.60809 0.681291,-0.71507 0.180176,-0.19707 0.304047,-0.36599 0.371613,-0.50112 0.0732,-0.14076 0.10698,-0.27589 0.10698,-0.41102 0,-0.21959 -0.07883,-0.39414 -0.230851,-0.5349 -0.152024,-0.13513 -0.349091,-0.2027 -0.596833,-0.2027 -0.174545,0 -0.360352,0.0281 -0.551789,0.0901 -0.191437,0.0619 -0.394135,0.15202 -0.619355,0.27589 l 0,-0.56305 c 0.22522,-0.0845 0.433549,-0.15202 0.624986,-0.20269 0.191437,-0.0451 0.371613,-0.0676 0.534897,-0.0676 0.422288,0 0.765748,0.10698 1.019121,0.31531 0.253372,0.21396 0.382874,0.49548 0.382874,0.85583 0,0.16892 -0.03378,0.32657 -0.09572,0.4786 -0.06757,0.14639 -0.180176,0.32656 -0.34346,0.52926 -0.05067,0.0563 -0.197068,0.20833 -0.439179,0.4617 -0.247742,0.25901 -0.596833,0.61373 -1.041643,1.0698 z m 3.198124,0 0.912141,0 0,-3.13056 -0.990968,0.19144 0,-0.50112 0.985338,-0.2027 0.551789,0 0,3.64294 0.90651,0 0,0.46733 -2.36481,0 0,-0.46733 z"
         style="fill:#000000;fill-opacity:1;fill-rule:nonzero;stroke:none"
         id="path70"
         inkscape:connector-curvature="0" /><path
         d="m 40.128574,151.42667 0,2.2522"
         style="fill:none;stroke:#000000;stroke-width:0.56304997;stroke-linecap:butt;stroke-linejoin:miter;stroke-miterlimit:10;stroke-opacity:1;stroke-dasharray:none"
         id="path72"
         inkscape:connector-curvature="0" /><path
         d="m 66.957906,158.31277 1.936892,0 0,0.46733 -2.606921,0 0,-0.46733 c 0.213959,-0.21396 0.501114,-0.50675 0.867097,-0.87836 0.360352,-0.37161 0.591202,-0.60809 0.68129,-0.71507 0.180176,-0.19707 0.304047,-0.36599 0.371613,-0.50112 0.0732,-0.14076 0.10698,-0.27589 0.10698,-0.41102 0,-0.21959 -0.07883,-0.39414 -0.230851,-0.5349 -0.152023,-0.13513 -0.349091,-0.2027 -0.596833,-0.2027 -0.174545,0 -0.360352,0.0281 -0.551789,0.0901 -0.191437,0.0619 -0.394135,0.15202 -0.619355,0.27589 l 0,-0.56305 c 0.22522,-0.0845 0.433548,-0.15202 0.624986,-0.20269 0.191436,-0.0451 0.371613,-0.0676 0.534897,-0.0676 0.422288,0 0.765748,0.10698 1.01912,0.31531 0.253373,0.21396 0.382875,0.49548 0.382875,0.85583 0,0.16892 -0.03378,0.32657 -0.09572,0.4786 -0.06757,0.14639 -0.180176,0.32656 -0.343461,0.52926 -0.05067,0.0563 -0.197067,0.20833 -0.439178,0.4617 -0.247743,0.25901 -0.596834,0.61373 -1.041643,1.0698 z m 3.580998,0 1.936892,0 0,0.46733 -2.601291,0 0,-0.46733 c 0.208329,-0.21396 0.495484,-0.50675 0.861467,-0.87836 0.360351,-0.37161 0.591202,-0.60809 0.686921,-0.71507 0.174545,-0.19707 0.298416,-0.36599 0.365982,-0.50112 0.0732,-0.14076 0.10698,-0.27589 0.10698,-0.41102 0,-0.21959 -0.0732,-0.39414 -0.230851,-0.5349 -0.152023,-0.13513 -0.349091,-0.2027 -0.596833,-0.2027 -0.174546,0 -0.360352,0.0281 -0.546159,0.0901 -0.191437,0.0619 -0.399765,0.15202 -0.624985,0.27589 l 0,-0.56305 c 0.22522,-0.0845 0.433548,-0.15202 0.624985,-0.20269 0.197068,-0.0451 0.371613,-0.0676 0.540528,-0.0676 0.422288,0 0.760118,0.10698 1.01349,0.31531 0.253373,0.21396 0.382874,0.49548 0.382874,0.85583 0,0.16892 -0.03378,0.32657 -0.09572,0.4786 -0.06757,0.14639 -0.180176,0.32656 -0.343461,0.52926 -0.04504,0.0563 -0.191437,0.20833 -0.439179,0.4617 -0.247742,0.25901 -0.591202,0.61373 -1.041642,1.0698 z"
         style="fill:#000000;fill-opacity:1;fill-rule:nonzero;stroke:none"
         id="path74"
         inkscape:connector-curvature="0" /><path
         d="m 68.478141,151.42667 0,2.2522"
         style="fill:none;stroke:#000000;stroke-width:0.56304997;stroke-linecap:butt;stroke-linejoin:miter;stroke-miterlimit:10;stroke-opacity:1;stroke-dasharray:none"
         id="path76"
         inkscape:connector-curvature="0" /><path
         d="m 95.110406,158.31277 1.936892,0 0,0.46733 -2.606921,0 0,-0.46733 c 0.213959,-0.21396 0.501114,-0.50675 0.867097,-0.87836 0.360352,-0.37161 0.591202,-0.60809 0.68129,-0.71507 0.180176,-0.19707 0.304047,-0.36599 0.371613,-0.50112 0.0732,-0.14076 0.10698,-0.27589 0.10698,-0.41102 0,-0.21959 -0.07883,-0.39414 -0.230851,-0.5349 -0.152023,-0.13513 -0.349091,-0.2027 -0.596833,-0.2027 -0.174545,0 -0.360352,0.0281 -0.551789,0.0901 -0.191437,0.0619 -0.394135,0.15202 -0.619355,0.27589 l 0,-0.56305 c 0.22522,-0.0845 0.433548,-0.15202 0.624986,-0.20269 0.191436,-0.0451 0.371613,-0.0676 0.534897,-0.0676 0.422288,0 0.765748,0.10698 1.01912,0.31531 0.253373,0.21396 0.382875,0.49548 0.382875,0.85583 0,0.16892 -0.03378,0.32657 -0.09572,0.4786 -0.06757,0.14639 -0.180176,0.32656 -0.343461,0.52926 -0.05067,0.0563 -0.197067,0.20833 -0.439178,0.4617 -0.247742,0.25901 -0.596833,0.61373 -1.041643,1.0698 z m 4.785925,-1.75109 c 0.264629,0.0619 0.472959,0.18018 0.624989,0.36036 0.14639,0.17454 0.21959,0.39976 0.21959,0.66439 0,0.39977 -0.13514,0.71508 -0.41666,0.9403 -0.2759,0.21959 -0.675661,0.3322 -1.188036,0.3322 -0.174546,0 -0.349091,-0.0169 -0.529267,-0.0507 -0.180176,-0.0394 -0.371614,-0.0844 -0.56305,-0.15202 l 0,-0.5349 c 0.152023,0.0845 0.320938,0.15203 0.506744,0.2027 0.180176,0.045 0.377244,0.0676 0.574311,0.0676 0.343461,0 0.608094,-0.0676 0.793901,-0.2027 0.180177,-0.14076 0.270267,-0.34346 0.270267,-0.60247 0,-0.24211 -0.0845,-0.43354 -0.253375,-0.56305 -0.168915,-0.13513 -0.405396,-0.20269 -0.703813,-0.20269 l -0.484223,0 0,-0.4617 0.501114,0 c 0.275895,0 0.484224,-0.0563 0.630617,-0.16329 0.14076,-0.11261 0.21396,-0.27026 0.21396,-0.47859 0,-0.2027 -0.0732,-0.36598 -0.225221,-0.47859 -0.152024,-0.11261 -0.360352,-0.16892 -0.636247,-0.16892 -0.152023,0 -0.320938,0.0113 -0.495484,0.045 -0.174545,0.0338 -0.365982,0.0845 -0.56868,0.15766 l 0,-0.49549 c 0.208328,-0.0563 0.405396,-0.10134 0.591202,-0.1295 0.185807,-0.0338 0.354722,-0.045 0.518006,-0.045 0.422288,0 0.754484,0.0957 1.002234,0.28715 0.24211,0.18581 0.36598,0.45044 0.36598,0.77701 0,0.23085 -0.0619,0.42229 -0.19144,0.57431 -0.1295,0.15766 -0.31531,0.26464 -0.557419,0.32094 z"
         style="fill:#000000;fill-opacity:1;fill-rule:nonzero;stroke:none"
         id="path78"
         inkscape:connector-curvature="0" /><path
         d="m 96.822078,151.42667 0,2.2522"
         style="fill:none;stroke:#000000;stroke-width:0.56304997;stroke-linecap:butt;stroke-linejoin:miter;stroke-miterlimit:10;stroke-opacity:1;stroke-dasharray:none"
         id="path80"
         inkscape:connector-curvature="0" /><path
         d="m 123.82596,158.31277 1.93689,0 0,0.46733 -2.60692,0 0,-0.46733 c 0.21396,-0.21396 0.50111,-0.50675 0.86709,-0.87836 0.36036,-0.37161 0.59121,-0.60809 0.68129,-0.71507 0.18018,-0.19707 0.30405,-0.36599 0.37162,-0.50112 0.0732,-0.14076 0.10698,-0.27589 0.10698,-0.41102 0,-0.21959 -0.0788,-0.39414 -0.23085,-0.5349 -0.15203,-0.13513 -0.34909,-0.2027 -0.59684,-0.2027 -0.17454,0 -0.36035,0.0281 -0.55179,0.0901 -0.19143,0.0619 -0.39413,0.15202 -0.61935,0.27589 l 0,-0.56305 c 0.22522,-0.0845 0.43355,-0.15202 0.62498,-0.20269 0.19144,-0.0451 0.37162,-0.0676 0.5349,-0.0676 0.42229,0 0.76575,0.10698 1.01912,0.31531 0.25338,0.21396 0.38288,0.49548 0.38288,0.85583 0,0.16892 -0.0338,0.32657 -0.0957,0.4786 -0.0676,0.14639 -0.18018,0.32656 -0.34346,0.52926 -0.0507,0.0563 -0.19707,0.20833 -0.43918,0.4617 -0.24774,0.25901 -0.59683,0.61373 -1.04164,1.0698 z m 4.62827,-3.15871 -1.39637,2.19026 1.39637,0 0,-2.19026 z m -0.1464,-0.48423 0.70382,0 0,2.67449 0.57994,0 0,0.46733 -0.57994,0 0,0.96845 -0.55742,0 0,-0.96845 -1.85244,0 0,-0.53489 1.70604,-2.60693 z"
         style="fill:#000000;fill-opacity:1;fill-rule:nonzero;stroke:none"
         id="path82"
         inkscape:connector-curvature="0" /><path
         d="m 125.17165,151.42667 0,2.2522"
         style="fill:none;stroke:#000000;stroke-width:0.56304997;stroke-linecap:butt;stroke-linejoin:miter;stroke-miterlimit:10;stroke-opacity:1;stroke-dasharray:none"
         id="path84"
         inkscape:connector-curvature="0" /><path
         d="m 151.97846,158.31277 1.93689,0 0,0.46733 -2.60692,0 0,-0.46733 c 0.21396,-0.21396 0.50111,-0.50675 0.86709,-0.87836 0.36036,-0.37161 0.59121,-0.60809 0.68129,-0.71507 0.18018,-0.19707 0.30405,-0.36599 0.37162,-0.50112 0.0732,-0.14076 0.10698,-0.27589 0.10698,-0.41102 0,-0.21959 -0.0788,-0.39414 -0.23085,-0.5349 -0.15203,-0.13513 -0.34909,-0.2027 -0.59684,-0.2027 -0.17454,0 -0.36035,0.0281 -0.55179,0.0901 -0.19143,0.0619 -0.39413,0.15202 -0.61935,0.27589 l 0,-0.56305 c 0.22522,-0.0845 0.43355,-0.15202 0.62498,-0.20269 0.19144,-0.0451 0.37162,-0.0676 0.5349,-0.0676 0.42229,0 0.76575,0.10698 1.01912,0.31531 0.25337,0.21396 0.38288,0.49548 0.38288,0.85583 0,0.16892 -0.0338,0.32657 -0.0957,0.4786 -0.0676,0.14639 -0.18018,0.32656 -0.34346,0.52926 -0.0507,0.0563 -0.19707,0.20833 -0.43918,0.4617 -0.24774,0.25901 -0.59683,0.61373 -1.04164,1.0698 z m 3.10803,-3.64294 2.18464,0 0,0.4786 -1.67226,0 0,1.00223 c 0.0788,-0.0282 0.16328,-0.0507 0.24211,-0.0619 0.0788,-0.0113 0.15765,-0.0169 0.24211,-0.0169 0.45607,0 0.81642,0.12387 1.08669,0.37161 0.26463,0.24774 0.39976,0.59121 0.39976,1.01912 0,0.44481 -0.14076,0.78827 -0.41102,1.03038 -0.27027,0.24212 -0.65877,0.36599 -1.16552,0.36599 -0.16891,0 -0.34346,-0.0169 -0.52363,-0.045 -0.18018,-0.0282 -0.36599,-0.0732 -0.55742,-0.1295 l 0,-0.55742 c 0.16891,0.0901 0.34346,0.15766 0.518,0.2027 0.17455,0.0394 0.36035,0.0619 0.55179,0.0619 0.32094,0 0.56868,-0.0845 0.75449,-0.24775 0.1858,-0.16891 0.27589,-0.39413 0.27589,-0.68129 0,-0.28152 -0.0901,-0.50674 -0.27589,-0.67566 -0.18581,-0.16891 -0.43355,-0.24774 -0.75449,-0.24774 -0.14639,0 -0.29278,0.0113 -0.43918,0.0451 -0.15202,0.0338 -0.30404,0.0844 -0.45607,0.15765 l 0,-2.07203 z"
         style="fill:#000000;fill-opacity:1;fill-rule:nonzero;stroke:none"
         id="path86"
         inkscape:connector-curvature="0" /><path
         d="m 153.51558,151.42667 0,2.2522"
         style="fill:none;stroke:#000000;stroke-width:0.56304997;stroke-linecap:butt;stroke-linejoin:miter;stroke-miterlimit:10;stroke-opacity:1;stroke-dasharray:none"
         id="path88"
         inkscape:connector-curvature="0" /><path
         d="m 180.13096,158.31277 1.93689,0 0,0.46733 -2.60692,0 0,-0.46733 c 0.21396,-0.21396 0.50111,-0.50675 0.86709,-0.87836 0.36036,-0.37161 0.59121,-0.60809 0.68129,-0.71507 0.18018,-0.19707 0.30405,-0.36599 0.37162,-0.50112 0.0732,-0.14076 0.10698,-0.27589 0.10698,-0.41102 0,-0.21959 -0.0788,-0.39414 -0.23085,-0.5349 -0.15203,-0.13513 -0.34909,-0.2027 -0.59684,-0.2027 -0.17454,0 -0.36035,0.0281 -0.55179,0.0901 -0.19143,0.0619 -0.39413,0.15202 -0.61935,0.27589 l 0,-0.56305 c 0.22522,-0.0845 0.43355,-0.15202 0.62498,-0.20269 0.19144,-0.0451 0.37162,-0.0676 0.5349,-0.0676 0.42229,0 0.76575,0.10698 1.01912,0.31531 0.25337,0.21396 0.38288,0.49548 0.38288,0.85583 0,0.16892 -0.0338,0.32657 -0.0957,0.4786 -0.0676,0.14639 -0.18018,0.32656 -0.34346,0.52926 -0.0507,0.0563 -0.19707,0.20833 -0.43918,0.4617 -0.24774,0.25901 -0.59683,0.61373 -1.04164,1.0698 z m 4.358,-1.80176 c -0.24774,0 -0.44481,0.0845 -0.5912,0.25337 -0.14639,0.16892 -0.21959,0.4054 -0.21959,0.69818 0,0.29842 0.0732,0.52927 0.21959,0.70382 0.14639,0.16891 0.34346,0.25337 0.5912,0.25337 0.25338,0 0.45044,-0.0845 0.59121,-0.25337 0.14639,-0.17455 0.21959,-0.4054 0.21959,-0.70382 0,-0.29278 -0.0732,-0.52926 -0.21959,-0.69818 -0.14077,-0.16891 -0.33783,-0.25337 -0.59121,-0.25337 z m 1.10921,-1.73983 0,0.50112 c -0.14076,-0.0676 -0.28152,-0.11824 -0.42792,-0.15202 -0.14639,-0.0338 -0.28152,-0.0507 -0.41665,-0.0507 -0.37162,0 -0.65314,0.11824 -0.84458,0.36598 -0.19707,0.24775 -0.30405,0.62499 -0.32657,1.1261 0.10698,-0.15765 0.24211,-0.27589 0.4054,-0.36598 0.16328,-0.0845 0.34346,-0.12387 0.5349,-0.12387 0.41102,0 0.73759,0.12387 0.9797,0.37161 0.23648,0.24774 0.36036,0.59121 0.36036,1.01912 0,0.42229 -0.12388,0.76012 -0.37725,1.01349 -0.24774,0.25338 -0.57994,0.38288 -0.9966,0.38288 -0.47296,0 -0.83894,-0.18018 -1.08668,-0.54616 -0.24775,-0.36035 -0.37162,-0.88962 -0.37162,-1.58217 0,-0.64751 0.15203,-1.15988 0.4617,-1.54839 0.30405,-0.3885 0.71508,-0.57994 1.23308,-0.57994 0.14077,0 0.28153,0.0113 0.42229,0.0394 0.14076,0.0282 0.29279,0.0676 0.45044,0.1295 z"
         style="fill:#000000;fill-opacity:1;fill-rule:nonzero;stroke:none"
         id="path90"
         inkscape:connector-curvature="0" /><path
         d="m 181.86515,151.42667 0,2.2522"
         style="fill:none;stroke:#000000;stroke-width:0.56304997;stroke-linecap:butt;stroke-linejoin:miter;stroke-miterlimit:10;stroke-opacity:1;stroke-dasharray:none"
         id="path92"
         inkscape:connector-curvature="0" /><path
         d="m 208.84651,158.31277 1.93689,0 0,0.46733 -2.60692,0 0,-0.46733 c 0.21396,-0.21396 0.50111,-0.50675 0.86709,-0.87836 0.36036,-0.37161 0.59121,-0.60809 0.68129,-0.71507 0.18018,-0.19707 0.30405,-0.36599 0.37162,-0.50112 0.0732,-0.14076 0.10698,-0.27589 0.10698,-0.41102 0,-0.21959 -0.0788,-0.39414 -0.23085,-0.5349 -0.15203,-0.13513 -0.34909,-0.2027 -0.59684,-0.2027 -0.17454,0 -0.36035,0.0281 -0.55179,0.0901 -0.19143,0.0619 -0.39413,0.15202 -0.61935,0.27589 l 0,-0.56305 c 0.22522,-0.0845 0.43355,-0.15202 0.62498,-0.20269 0.19144,-0.0451 0.37162,-0.0676 0.5349,-0.0676 0.42229,0 0.76575,0.10698 1.01912,0.31531 0.25338,0.21396 0.38288,0.49548 0.38288,0.85583 0,0.16892 -0.0338,0.32657 -0.0957,0.4786 -0.0676,0.14639 -0.18018,0.32656 -0.34346,0.52926 -0.0507,0.0563 -0.19707,0.20833 -0.43918,0.4617 -0.24774,0.25901 -0.59683,0.61373 -1.04164,1.0698 z m 2.96727,-3.64294 2.6407,0 0,0.23649 -1.49771,3.87378 -0.57994,0 1.40762,-3.63167 -1.97067,0 0,-0.4786 z"
         style="fill:#000000;fill-opacity:1;fill-rule:nonzero;stroke:none"
         id="path94"
         inkscape:connector-curvature="0" /><path
         d="m 210.20909,151.42667 0,2.2522"
         style="fill:none;stroke:#000000;stroke-width:0.56304997;stroke-linecap:butt;stroke-linejoin:miter;stroke-miterlimit:10;stroke-opacity:1;stroke-dasharray:none"
         id="path96"
         inkscape:connector-curvature="0" /></g><path
       style="fill:none;stroke:#666666;stroke-width:1;stroke-linecap:butt;stroke-linejoin:miter;stroke-miterlimit:4;stroke-opacity:1;stroke-dasharray:0.99999998, 2.99999993;stroke-dashoffset:0;marker-start:none"
       d="m 69.166461,51.37413 0.760071,120.85129 0.380036,-0.38004"
       id="path5638"
       inkscape:connector-curvature="0"
       transform="matrix(1.0335784,0,0,1.0335784,-32.263149,-25.839459)" /><path
       d="m 21.136697,146.85158 0,-25.2528 m 0,12.62358 21.260768,0 0,-12.62358 36.423705,0 0,25.2528 -36.423705,0 0,-12.62922 m 36.423705,0 2.409854,0 m 0,-12.62358 0,25.2528 m -16.153905,-25.2528 0,25.2528 m 76.833801,-14.88142 4.5044,4.5044 m -4.5044,0 4.5044,-4.5044"
       style="fill:#ff7f00;fill-opacity:0.3;fill-rule:evenodd;stroke:none"
       id="path184"
       inkscape:connector-curvature="0" /><path
       style="fill:none;stroke:#666666;stroke-width:1;stroke-linecap:butt;stroke-linejoin:miter;stroke-miterlimit:4;stroke-opacity:1;stroke-dasharray:0.99999998, 2.99999993;stroke-dashoffset:0;marker-start:none"
       d="M 97.289089,52.514237 97.669124,173.36553"
       id="path5640"
       inkscape:connector-curvature="0"
       transform="matrix(1.0335784,0,0,1.0335784,-32.263149,-25.839459)" /><path
       d="m 21.136697,146.85158 0,-25.2528 m 0,12.62358 21.260768,0 0,-12.62358 36.423705,0 0,25.2528 -36.423705,0 0,-12.62922 m 36.423705,0 2.409854,0 m 0,-12.62358 0,25.2528 m -16.153905,-25.2528 0,25.2528 m 76.833801,-14.88142 4.5044,4.5044 m -4.5044,0 4.5044,-4.5044"
       style="fill:none;stroke:#ff7f00;stroke-width:0.56304997;stroke-linecap:round;stroke-linejoin:miter;stroke-miterlimit:10;stroke-opacity:1;stroke-dasharray:none"
       id="path186"
       inkscape:connector-curvature="0" /><path
       style="fill:none;stroke:#4c4c4c;stroke-width:1;stroke-linecap:butt;stroke-linejoin:miter;stroke-miterlimit:4;stroke-opacity:1;stroke-dasharray:0.99999998, 2.99999993;stroke-dashoffset:0;marker-start:none"
       d="m 124.65164,51.37413 0.38004,121.23133 0,0"
       id="path5642"
       inkscape:connector-curvature="0"
       transform="matrix(1.0335784,0,0,1.0335784,-32.263149,-25.839459)" /><path
       d="m 56.175871,116.73233 2.33102,0 0,0.56305 -3.13056,0 0,-0.56305 c 0.24775,-0.259 0.59121,-0.60809 1.03039,-1.0529 0.43917,-0.43918 0.70944,-0.72634 0.82205,-0.85584 0.21959,-0.23648 0.37161,-0.43355 0.45607,-0.60246 0.0845,-0.16892 0.12387,-0.3322 0.12387,-0.48986 0,-0.26463 -0.0901,-0.47859 -0.27589,-0.64187 -0.18581,-0.16329 -0.42229,-0.24775 -0.71508,-0.24775 -0.21396,0 -0.43355,0.0394 -0.6644,0.10698 -0.23085,0.0732 -0.47859,0.18018 -0.74322,0.33783 l 0,-0.68129 c 0.27026,-0.10698 0.518,-0.1858 0.74885,-0.24211 0.23085,-0.0563 0.44481,-0.0845 0.64188,-0.0845 0.50675,0 0.91777,0.12951 1.22182,0.38288 0.30405,0.259 0.45607,0.59683 0.45607,1.02475 0,0.2027 -0.0394,0.39413 -0.11261,0.57431 -0.0788,0.18018 -0.21396,0.39414 -0.41666,0.64188 -0.0563,0.0619 -0.23085,0.24774 -0.52363,0.55179 -0.29842,0.30967 -0.70945,0.73196 -1.24998,1.27812 z m 3.84,0 1.09231,0 0,-3.75554 -1.18803,0.23648 0,-0.6081 1.17677,-0.23648 0.67003,0 0,4.36364 1.09232,0 0,0.56305 -2.8434,0 0,-0.56305 z m 4.18346,-0.27026 0.69818,0 0,0.83331 -0.69818,0 0,-0.83331 z m 3.57537,-1.50898 c -0.32094,0 -0.56869,0.0845 -0.74886,0.259 -0.18018,0.16892 -0.2759,0.39977 -0.2759,0.69256 0,0.29841 0.0957,0.53489 0.2759,0.70381 0.18017,0.16891 0.42792,0.25337 0.74886,0.25337 0.3153,0 0.56305,-0.0845 0.74322,-0.25337 0.18581,-0.16892 0.2759,-0.4054 0.2759,-0.70381 0,-0.29279 -0.0901,-0.52364 -0.27027,-0.69256 -0.18017,-0.17454 -0.42792,-0.259 -0.74885,-0.259 z m -0.67003,-0.28152 c -0.28153,-0.0676 -0.50112,-0.2027 -0.6644,-0.39977 -0.16329,-0.19707 -0.24211,-0.43355 -0.24211,-0.71507 0,-0.39414 0.14076,-0.70381 0.42228,-0.93466 0.28153,-0.22523 0.6644,-0.34347 1.15426,-0.34347 0.48985,0 0.87835,0.11824 1.15425,0.34347 0.28152,0.23085 0.41665,0.54052 0.41665,0.93466 0,0.28152 -0.0788,0.518 -0.23648,0.71507 -0.15765,0.19707 -0.38287,0.3322 -0.67003,0.39977 0.32657,0.0788 0.57432,0.22522 0.75449,0.43918 0.18018,0.21959 0.27027,0.48422 0.27027,0.7939 0,0.48422 -0.1464,0.8502 -0.43918,1.10357 -0.28716,0.25901 -0.70382,0.38288 -1.24997,0.38288 -0.54053,0 -0.95719,-0.12387 -1.24998,-0.38288 -0.29278,-0.25337 -0.43917,-0.61935 -0.43917,-1.10357 0,-0.30968 0.0901,-0.57431 0.27026,-0.7939 0.18018,-0.21396 0.43355,-0.36036 0.74886,-0.43918 z m -0.23649,-1.05291 c 0,0.25901 0.0788,0.45607 0.23649,0.59684 0.15765,0.14076 0.38287,0.21396 0.67003,0.21396 0.28715,0 0.51237,-0.0732 0.67002,-0.21396 0.16329,-0.14077 0.24212,-0.33783 0.24212,-0.59684 0,-0.25337 -0.0788,-0.45044 -0.24212,-0.59683 -0.15765,-0.14076 -0.38287,-0.21396 -0.67002,-0.21396 -0.28716,0 -0.51238,0.0732 -0.67003,0.21396 -0.15766,0.14639 -0.23649,0.34346 -0.23649,0.59683 z m 5.20259,1.33443 c -0.31531,0 -0.56305,0.0845 -0.74886,0.259 -0.18018,0.16892 -0.27026,0.39977 -0.27026,0.69256 0,0.29841 0.0901,0.53489 0.27026,0.70381 0.18581,0.16891 0.43355,0.25337 0.74886,0.25337 0.3153,0 0.56868,-0.0845 0.74885,-0.25337 0.18018,-0.16892 0.27027,-0.4054 0.27027,-0.70381 0,-0.29279 -0.0901,-0.52364 -0.26464,-0.69256 -0.18017,-0.17454 -0.43354,-0.259 -0.75448,-0.259 z m -0.67003,-0.28152 c -0.28153,-0.0676 -0.50112,-0.2027 -0.6644,-0.39977 -0.15766,-0.19707 -0.24211,-0.43355 -0.24211,-0.71507 0,-0.39414 0.14076,-0.70381 0.42228,-0.93466 0.28153,-0.22523 0.67003,-0.34347 1.15426,-0.34347 0.49548,0 0.87835,0.11824 1.15988,0.34347 0.27589,0.23085 0.41666,0.54052 0.41666,0.93466 0,0.28152 -0.0788,0.518 -0.23648,0.71507 -0.16329,0.19707 -0.38288,0.3322 -0.67003,0.39977 0.32093,0.0788 0.57431,0.22522 0.74885,0.43918 0.18018,0.21959 0.27027,0.48422 0.27027,0.7939 0,0.48422 -0.1464,0.8502 -0.43355,1.10357 -0.29279,0.25901 -0.70944,0.38288 -1.2556,0.38288 -0.54053,0 -0.95719,-0.12387 -1.24997,-0.38288 -0.29279,-0.25337 -0.43918,-0.61935 -0.43918,-1.10357 0,-0.30968 0.0901,-0.57431 0.27589,-0.7939 0.18018,-0.21396 0.42792,-0.36036 0.74323,-0.43918 z m -0.23648,-1.05291 c 0,0.25901 0.0788,0.45607 0.23648,0.59684 0.15765,0.14076 0.38287,0.21396 0.67003,0.21396 0.28715,0 0.51237,-0.0732 0.67566,-0.21396 0.15765,-0.14077 0.24211,-0.33783 0.24211,-0.59684 0,-0.25337 -0.0845,-0.45044 -0.24211,-0.59683 -0.16329,-0.14076 -0.38851,-0.21396 -0.67566,-0.21396 -0.28716,0 -0.51238,0.0732 -0.67003,0.21396 -0.15766,0.14639 -0.23648,0.34346 -0.23648,0.59683 z"
       style="fill:#ff7f00;fill-opacity:1;fill-rule:nonzero;stroke:none"
       id="path188"
       inkscape:connector-curvature="0" /><path
       style="fill:none;stroke:#666666;stroke-width:1;stroke-linecap:butt;stroke-linejoin:miter;stroke-miterlimit:4;stroke-opacity:1;stroke-dasharray:0.99999998, 2.99999993;stroke-dashoffset:0;marker-start:none"
       d="m 152.0142,52.134201 0.38004,119.331149"
       id="path5644"
       inkscape:connector-curvature="0"
       transform="matrix(1.0335784,0,0,1.0335784,-32.263149,-25.839459)" /><path
       d="m 52.036881,108.9752 0,-25.252791 m 0,12.623581 33.873088,0 0,-12.623581 48.332211,0 0,25.252791 -48.332211,0 0,-12.62921 m 48.332211,0 8.50206,0 m 0,-12.623581 0,25.252791 m -37.84259,-25.252791 0,25.252791"
       style="fill:#dc143c;fill-opacity:0.3;fill-rule:evenodd;stroke:none"
       id="path190"
       inkscape:connector-curvature="0" /><path
       style="fill:none;stroke:#666666;stroke-width:1;stroke-linecap:butt;stroke-linejoin:miter;stroke-miterlimit:4;stroke-opacity:1;stroke-dasharray:0.99999998, 2.99999993;stroke-dashoffset:0;marker-start:none"
       d="m 179.75679,51.37413 0,120.85129"
       id="path5646"
       inkscape:connector-curvature="0"
       transform="matrix(1.0335784,0,0,1.0335784,-32.263149,-25.839459)" /><path
       d="m 52.036881,108.9752 0,-25.252791 m 0,12.623581 33.873088,0 0,-12.623581 48.332211,0 0,25.252791 -48.332211,0 0,-12.62921 m 48.332211,0 8.50206,0 m 0,-12.623581 0,25.252791 m -37.84259,-25.252791 0,25.252791"
       style="fill:none;stroke:#dc143c;stroke-width:0.56304997;stroke-linecap:round;stroke-linejoin:miter;stroke-miterlimit:10;stroke-opacity:1;stroke-dasharray:none"
       id="path192"
       inkscape:connector-curvature="0" /><path
       style="fill:none;stroke:#4c4c4c;stroke-width:1;stroke-linecap:butt;stroke-linejoin:miter;stroke-miterlimit:4;stroke-opacity:1;stroke-dasharray:0.99999998, 2.99999993;stroke-dashoffset:0;marker-start:none"
       d="m 207.11935,50.614059 0.38003,121.231321"
       id="path5648"
       inkscape:connector-curvature="0"
       transform="matrix(1.0335784,0,0,1.0335784,-32.263149,-25.839459)" /><path
       d="m 96.074613,80.252043 2.33102,0 0,0.56305 -3.13056,0 0,-0.56305 c 0.24775,-0.259003 0.59121,-0.608094 1.03039,-1.052903 0.43917,-0.439179 0.70944,-0.726335 0.82205,-0.855836 0.21959,-0.236481 0.37161,-0.433549 0.45607,-0.602464 0.0845,-0.168915 0.12387,-0.332199 0.12387,-0.489854 0,-0.264633 -0.0901,-0.478592 -0.27589,-0.641876 -0.18581,-0.163285 -0.42229,-0.247742 -0.71508,-0.247742 -0.21396,0 -0.43355,0.03941 -0.6644,0.106979 -0.23085,0.0732 -0.47859,0.180176 -0.74322,0.33783 l 0,-0.68129 c 0.27026,-0.10698 0.518,-0.185807 0.74885,-0.242112 0.23085,-0.0563 0.44481,-0.08446 0.64188,-0.08446 0.50675,0 0.91777,0.129502 1.22182,0.382874 0.30405,0.259004 0.45607,0.596834 0.45607,1.024751 0,0.202699 -0.0394,0.394135 -0.11261,0.574312 -0.0788,0.180175 -0.21396,0.394134 -0.41666,0.641876 -0.0563,0.06194 -0.23085,0.247742 -0.52363,0.551789 -0.29842,0.309678 -0.70945,0.731965 -1.24998,1.278124 z m 5.748737,-2.094546 c 0.3153,0.0732 0.56305,0.213959 0.74322,0.427918 0.18018,0.213959 0.27027,0.478593 0.27027,0.793901 0,0.489853 -0.16892,0.867096 -0.50112,1.13173 -0.33783,0.264637 -0.81079,0.399767 -1.43015,0.399767 -0.20269,0 -0.41665,-0.0169 -0.63624,-0.0619 -0.21959,-0.0394 -0.444807,-0.101346 -0.670027,-0.185804 l 0,-0.641877 c 0.18017,0.10698 0.38287,0.185807 0.602457,0.242112 0.21959,0.05631 0.45044,0.08446 0.68692,0.08446 0.41666,0 0.7376,-0.07883 0.95719,-0.247742 0.21959,-0.163285 0.32657,-0.399766 0.32657,-0.720704 0,-0.287156 -0.10135,-0.512376 -0.30405,-0.67566 -0.20833,-0.163285 -0.48985,-0.247742 -0.84458,-0.247742 l -0.57994,0 0,-0.546159 0.60247,0 c 0.32657,0 0.57431,-0.06194 0.74885,-0.197067 0.18018,-0.129502 0.26464,-0.320939 0.26464,-0.568681 0,-0.247742 -0.0901,-0.444809 -0.26464,-0.579941 -0.18017,-0.135132 -0.43918,-0.202698 -0.77138,-0.202698 -0.19143,0 -0.3885,0.02252 -0.59683,0.06194 -0.20833,0.03378 -0.439177,0.09572 -0.686917,0.180176 l 0,-0.591202 c 0.25337,-0.0732 0.495477,-0.123871 0.715067,-0.157654 0.21959,-0.03941 0.42792,-0.05631 0.61936,-0.05631 0.51237,0 0.91214,0.11824 1.20493,0.34346 0.29278,0.230851 0.43917,0.540528 0.43917,0.934663 0,0.275895 -0.0732,0.506745 -0.23085,0.692552 -0.15765,0.191437 -0.37724,0.320938 -0.66439,0.388504 z m 2.27472,1.824282 0.69818,0 0,0.833314 -0.69818,0 0,-0.833314 z m 2.71953,0.270264 2.33103,0 0,0.56305 -3.13056,0 0,-0.56305 c 0.25337,-0.259003 0.59683,-0.608094 1.03038,-1.052903 0.43918,-0.439179 0.71507,-0.726335 0.82768,-0.855836 0.21396,-0.236481 0.36599,-0.433549 0.45044,-0.602464 0.0845,-0.168915 0.1295,-0.332199 0.1295,-0.489854 0,-0.264633 -0.0957,-0.478592 -0.28152,-0.641876 -0.18018,-0.163285 -0.42229,-0.247742 -0.71507,-0.247742 -0.20833,0 -0.43355,0.03941 -0.6644,0.106979 -0.23085,0.0732 -0.4786,0.180176 -0.74323,0.33783 l 0,-0.68129 c 0.27027,-0.10698 0.52364,-0.185807 0.75449,-0.242112 0.23085,-0.0563 0.44481,-0.08446 0.63624,-0.08446 0.51238,0 0.91778,0.129502 1.22182,0.382874 0.30405,0.259004 0.45607,0.596834 0.45607,1.024751 0,0.202699 -0.0338,0.394135 -0.11261,0.574312 -0.0732,0.180175 -0.21396,0.394134 -0.41102,0.641876 -0.0619,0.06194 -0.23648,0.247742 -0.52927,0.551789 -0.29279,0.309678 -0.70944,0.731965 -1.24997,1.278124 z m 3.74428,0.456071 0,-0.608094 c 0.16892,0.08446 0.34346,0.146392 0.51238,0.185806 0.16891,0.04504 0.33783,0.06194 0.50674,0.06194 0.43918,0 0.77701,-0.146393 1.00786,-0.44481 0.23085,-0.292786 0.36598,-0.743226 0.39414,-1.35132 -0.12387,0.197068 -0.28153,0.343461 -0.4786,0.44481 -0.19706,0.09572 -0.41665,0.146393 -0.65876,0.146393 -0.48986,0 -0.88399,-0.146393 -1.17115,-0.44481 -0.28715,-0.292786 -0.42792,-0.703812 -0.42792,-1.227449 0,-0.501114 0.1464,-0.906511 0.45044,-1.210557 0.29842,-0.309678 0.69819,-0.461701 1.19367,-0.461701 0.56868,0 1.00223,0.219589 1.30628,0.658768 0.30404,0.433549 0.45607,1.069795 0.45607,1.903109 0,0.777009 -0.18581,1.390734 -0.55742,1.858065 -0.36599,0.461701 -0.8671,0.692553 -1.48646,0.692553 -0.16891,0 -0.33783,-0.0169 -0.51237,-0.045 -0.16892,-0.0338 -0.34909,-0.0845 -0.5349,-0.15765 z m 1.3288,-2.083285 c 0.29842,0 0.5349,-0.101349 0.71507,-0.309678 0.17455,-0.202698 0.25901,-0.484223 0.25901,-0.844575 0,-0.349091 -0.0845,-0.630616 -0.25901,-0.833314 -0.18017,-0.208328 -0.41665,-0.309677 -0.71507,-0.309677 -0.29842,0 -0.5349,0.101349 -0.70944,0.309677 -0.16892,0.202698 -0.25901,0.484223 -0.25901,0.833314 0,0.360352 0.0901,0.641877 0.25901,0.844575 0.17454,0.208329 0.41102,0.309678 0.70944,0.309678 z"
       style="fill:#dc143c;fill-opacity:1;fill-rule:nonzero;stroke:none"
       id="path194"
       inkscape:connector-curvature="0" /><path
       style="fill:none;stroke:#666666;stroke-width:1;stroke-linecap:butt;stroke-linejoin:miter;stroke-miterlimit:4;stroke-opacity:1;stroke-dasharray:0.99999998, 2.99999993;stroke-dashoffset:0;marker-start:none"
       d="m 234.86194,51.754166 0,119.711184"
       id="path5650"
       inkscape:connector-curvature="0"
       transform="matrix(1.0335784,0,0,1.0335784,-32.263149,-25.839459)" /><path
       d="m 69.040991,71.098828 0,-25.252792 m 0,12.62358 46.631799,0 0,-12.623581 57.40295,0 0,25.252793 -57.40295,0 0,-12.629212 m 57.40295,0 27.78089,0 m 0,-12.623581 0,25.252793 m -42.24001,-25.252792 0,25.252792"
       style="fill:#0000ff;fill-opacity:0.3;fill-rule:evenodd;stroke:none"
       id="path196"
       inkscape:connector-curvature="0" /><path
       style="fill:none;stroke:#7f7f7f;stroke-width:1.08502328;stroke-linecap:butt;stroke-linejoin:miter;stroke-miterlimit:4;stroke-opacity:1;stroke-dasharray:1.08502326, 3.2550698;stroke-dashoffset:0;marker-start:none"
       d="m -3.1962092,152.93835 0,-127.233543"
       id="path5652"
       inkscape:connector-curvature="0" /><path
       d="m 69.040991,71.098828 0,-25.252792 m 0,12.62358 46.631799,0 0,-12.623581 57.40295,0 0,25.252793 -57.40295,0 0,-12.629212 m 57.40295,0 27.78089,0 m 0,-12.623581 0,25.252793 m -42.24001,-25.252792 0,25.252792"
       style="fill:none;stroke:#0000ff;stroke-width:0.56304997;stroke-linecap:round;stroke-linejoin:miter;stroke-miterlimit:10;stroke-opacity:1;stroke-dasharray:none"
       id="path198"
       inkscape:connector-curvature="0" /><path
       style="fill:none;stroke:#7f7f7f;stroke-width:1;stroke-linecap:butt;stroke-linejoin:miter;stroke-miterlimit:4;stroke-opacity:1;stroke-dasharray:0.99999998, 2.99999993;stroke-dashoffset:0;marker-start:none"
       d="m 261.46443,51.37413 c -0.38004,120.47125 0,120.47125 0,120.47125 l 0,-0.38003"
       id="path5654"
       inkscape:connector-curvature="0"
       transform="matrix(1.0335784,0,0,1.0335784,-32.263149,-25.839459)" /><path
       d="m 150.34995,42.409728 2.33103,0 0,0.56305 -3.13056,0 0,-0.56305 c 0.24775,-0.259003 0.59121,-0.608094 1.03039,-1.052903 0.43917,-0.439179 0.70944,-0.726335 0.82205,-0.855837 0.21959,-0.23648 0.37161,-0.433548 0.45607,-0.602463 0.0845,-0.168915 0.12387,-0.3322 0.12387,-0.489854 0,-0.264633 -0.0901,-0.478592 -0.27589,-0.641876 -0.18581,-0.163285 -0.42229,-0.247742 -0.71508,-0.247742 -0.21396,0 -0.43355,0.03941 -0.6644,0.106979 -0.23085,0.0732 -0.47859,0.180176 -0.74322,0.33783 l 0,-0.681291 c 0.27026,-0.106979 0.518,-0.185806 0.74885,-0.242111 0.23085,-0.05631 0.44481,-0.08446 0.64188,-0.08446 0.50675,0 0.91777,0.129502 1.22182,0.382874 0.30405,0.259003 0.45607,0.596833 0.45607,1.024751 0,0.202698 -0.0394,0.394135 -0.11261,0.574311 -0.0788,0.180176 -0.21396,0.394135 -0.41666,0.641877 -0.0563,0.06194 -0.23085,0.247742 -0.52363,0.551789 -0.29842,0.309678 -0.70945,0.731965 -1.24998,1.278124 z m 3.73303,-4.363637 2.61255,0 0,0.56305 -2.00446,0 0,1.204926 c 0.10135,-0.03378 0.19707,-0.06193 0.29279,-0.0732 0.10135,-0.01689 0.19143,-0.02252 0.28715,-0.02252 0.55179,0 0.99097,0.152024 1.31191,0.45044 0.32094,0.304047 0.48422,0.709443 0.48422,1.221819 0,0.534897 -0.16891,0.945924 -0.49548,1.238709 -0.3322,0.292787 -0.79953,0.439179 -1.39637,0.439179 -0.21396,0 -0.42228,-0.01689 -0.63624,-0.05067 -0.21396,-0.03378 -0.43918,-0.09009 -0.6644,-0.157654 l 0,-0.67003 c 0.19707,0.10698 0.40539,0.185807 0.61372,0.236481 0.21396,0.05068 0.43355,0.07883 0.67003,0.07883 0.37725,0 0.68129,-0.101349 0.90651,-0.298416 0.21959,-0.197068 0.3322,-0.472962 0.3322,-0.816423 0,-0.34346 -0.11261,-0.613724 -0.3322,-0.810792 -0.22522,-0.197067 -0.52926,-0.298416 -0.90651,-0.298416 -0.17454,0 -0.35472,0.01689 -0.5349,0.0563 -0.18017,0.03941 -0.36035,0.09572 -0.54052,0.180176 l 0,-2.47179 z m 4.29044,4.093373 0.69818,0 0,0.833314 -0.69818,0 0,-0.833314 z m 2.26346,0.270264 1.09232,0 0,-3.755543 -1.18804,0.236481 0,-0.608095 1.17677,-0.23648 0.67003,0 0,4.363637 1.09232,0 0,0.56305 -2.8434,0 0,-0.56305 z m 5.60798,-1.779238 c -0.31531,0 -0.56305,0.08446 -0.74886,0.259003 -0.18018,0.168915 -0.27026,0.399766 -0.27026,0.692552 0,0.298416 0.0901,0.534897 0.27026,0.703812 0.18581,0.168915 0.43355,0.253372 0.74886,0.253372 0.3153,0 0.56868,-0.08446 0.74885,-0.253372 0.18018,-0.168915 0.27027,-0.405396 0.27027,-0.703812 0,-0.292787 -0.0901,-0.523637 -0.26464,-0.692552 -0.18017,-0.174545 -0.43354,-0.259003 -0.75448,-0.259003 z m -0.67003,-0.281525 c -0.28153,-0.06757 -0.50112,-0.202698 -0.6644,-0.399765 -0.15766,-0.197068 -0.24211,-0.433549 -0.24211,-0.715074 0,-0.394135 0.14076,-0.703813 0.42228,-0.934663 0.28153,-0.22522 0.67003,-0.343461 1.15426,-0.343461 0.49548,0 0.87835,0.118241 1.15988,0.343461 0.27589,0.23085 0.41666,0.540528 0.41666,0.934663 0,0.281525 -0.0788,0.518006 -0.23648,0.715074 -0.16329,0.197067 -0.38288,0.332199 -0.67003,0.399765 0.32093,0.07883 0.57431,0.22522 0.74885,0.439179 0.18018,0.21959 0.27027,0.484223 0.27027,0.793901 0,0.484223 -0.1464,0.850205 -0.43355,1.103578 -0.29279,0.259003 -0.70944,0.382874 -1.2556,0.382874 -0.54053,0 -0.95719,-0.123871 -1.24997,-0.382874 -0.29279,-0.253373 -0.43918,-0.619355 -0.43918,-1.103578 0,-0.309678 0.0901,-0.574311 0.27589,-0.793901 0.18018,-0.213959 0.42792,-0.360352 0.74323,-0.439179 z m -0.23648,-1.052903 c 0,0.259003 0.0788,0.45607 0.23648,0.596833 0.15765,0.140762 0.38287,0.213959 0.67003,0.213959 0.28715,0 0.51237,-0.0732 0.67566,-0.213959 0.15765,-0.140763 0.24211,-0.33783 0.24211,-0.596833 0,-0.253373 -0.0845,-0.450441 -0.24211,-0.596833 -0.16329,-0.140763 -0.38851,-0.213959 -0.67566,-0.213959 -0.28716,0 -0.51238,0.0732 -0.67003,0.213959 -0.15766,0.146392 -0.23648,0.34346 -0.23648,0.596833 z"
       style="fill:#0000ff;fill-opacity:1;fill-rule:nonzero;stroke:none"
       id="path200"
       inkscape:connector-curvature="0" /><path
       inkscape:connector-curvature="0"
       id="path48-5"
       style="fill:none;stroke:#000000;stroke-width:0.679061;stroke-linecap:butt;stroke-linejoin:miter;stroke-miterlimit:10;stroke-opacity:1;stroke-dasharray:none;marker-start:url(#TriangleInM);marker-end:url(#TriangleOutM)"
       d="m -1.4282944,26.79349 237.9669644,0" /><path
       inkscape:connector-curvature="0"
       id="path50-9"
       style="fill:none;stroke:#000000;stroke-width:0.56304997;stroke-linecap:butt;stroke-linejoin:miter;stroke-miterlimit:10;stroke-opacity:1;stroke-dasharray:none"
       d="m 237.01913,27.07501 -1.68915,-1.97067" /><path
       inkscape:connector-curvature="0"
       id="path52-7"
       style="fill:none;stroke:#000000;stroke-width:0.56304997;stroke-linecap:butt;stroke-linejoin:miter;stroke-miterlimit:10;stroke-opacity:1;stroke-dasharray:none"
       d="m 237.01913,26.51196 -1.68915,1.97068" /><path
       inkscape:connector-curvature="0"
       id="path68-8"
       style="fill:none;stroke:#000000;stroke-width:0.56304997;stroke-linecap:butt;stroke-linejoin:miter;stroke-miterlimit:10;stroke-opacity:1;stroke-dasharray:none"
       d="m 11.759718,26.79349 0,2.2522" /><path
       inkscape:connector-curvature="0"
       id="path72-9"
       style="fill:none;stroke:#000000;stroke-width:0.56304997;stroke-linecap:butt;stroke-linejoin:miter;stroke-miterlimit:10;stroke-opacity:1;stroke-dasharray:none"
       d="m 40.103655,26.79349 0,2.2522" /><path
       inkscape:connector-curvature="0"
       id="path76-1"
       style="fill:none;stroke:#000000;stroke-width:0.56304997;stroke-linecap:butt;stroke-linejoin:miter;stroke-miterlimit:10;stroke-opacity:1;stroke-dasharray:none"
       d="m 68.453222,26.79349 0,2.2522" /><path
       inkscape:connector-curvature="0"
       id="path80-3"
       style="fill:none;stroke:#000000;stroke-width:0.56304997;stroke-linecap:butt;stroke-linejoin:miter;stroke-miterlimit:10;stroke-opacity:1;stroke-dasharray:none"
       d="m 96.797159,26.79349 0,2.2522" /><path
       inkscape:connector-curvature="0"
       id="path84-8"
       style="fill:none;stroke:#000000;stroke-width:0.56304997;stroke-linecap:butt;stroke-linejoin:miter;stroke-miterlimit:10;stroke-opacity:1;stroke-dasharray:none"
       d="m 125.14673,26.79349 0,2.2522" /><path
       inkscape:connector-curvature="0"
       id="path88-3"
       style="fill:none;stroke:#000000;stroke-width:0.56304997;stroke-linecap:butt;stroke-linejoin:miter;stroke-miterlimit:10;stroke-opacity:1;stroke-dasharray:none"
       d="m 153.49066,26.79349 0,2.2522" /><path
       inkscape:connector-curvature="0"
       id="path92-8"
       style="fill:none;stroke:#000000;stroke-width:0.56304997;stroke-linecap:butt;stroke-linejoin:miter;stroke-miterlimit:10;stroke-opacity:1;stroke-dasharray:none"
       d="m 181.84023,26.79349 0,2.2522" /><g
       id="g5865"
       transform="translate(0,-8.2686272)"><path
         d="m 10.064937,33.67959 1.936892,0 0,0.46733 -2.6069216,0 0,-0.46733 c 0.213959,-0.21396 0.5011145,-0.50675 0.8670966,-0.87836 0.360352,-0.37161 0.591203,-0.60809 0.681291,-0.71507 0.180176,-0.19707 0.304047,-0.36599 0.371613,-0.50112 0.0732,-0.14076 0.106979,-0.27589 0.106979,-0.41102 0,-0.21959 -0.07883,-0.39414 -0.23085,-0.5349 -0.152024,-0.13513 -0.349091,-0.2027 -0.596833,-0.2027 -0.174546,0 -0.360352,0.0281 -0.551789,0.0901 -0.1914371,0.0619 -0.3941351,0.15202 -0.6193551,0.27589 l 0,-0.56305 c 0.22522,-0.0845 0.4335485,-0.15202 0.6249861,-0.20269 0.191437,-0.0451 0.371613,-0.0676 0.534897,-0.0676 0.422288,0 0.765748,0.10698 1.019121,0.31531 0.253372,0.21396 0.382874,0.49548 0.382874,0.85583 0,0.16892 -0.03378,0.32657 -0.09572,0.4786 -0.06757,0.14639 -0.180176,0.32656 -0.34346,0.52926 -0.05067,0.0563 -0.197068,0.20833 -0.439179,0.4617 -0.247742,0.25901 -0.596833,0.61373 -1.041643,1.0698 z m 4.284811,-3.27132 c -0.281525,0 -0.489854,0.14076 -0.636247,0.42229 -0.140762,0.28152 -0.213959,0.70381 -0.213959,1.26686 0,0.56305 0.0732,0.98534 0.213959,1.26686 0.146393,0.28153 0.354722,0.42229 0.636247,0.42229 0.298416,0 0.512375,-0.14076 0.658768,-0.42229 0.140763,-0.28152 0.213959,-0.70381 0.213959,-1.26686 0,-0.56305 -0.0732,-0.98534 -0.213959,-1.26686 -0.146393,-0.28153 -0.360352,-0.42229 -0.658768,-0.42229 z m 0,-0.43918 c 0.467331,0 0.816422,0.18018 1.064164,0.54616 0.242112,0.36035 0.365983,0.88962 0.365983,1.58217 0,0.69255 -0.123871,1.22182 -0.365983,1.58217 -0.247742,0.36598 -0.596833,0.54616 -1.064164,0.54616 -0.456071,0 -0.805162,-0.18018 -1.047273,-0.54616 -0.247742,-0.36035 -0.365983,-0.88962 -0.365983,-1.58217 0,-0.69255 0.118241,-1.22182 0.365983,-1.58217 0.242111,-0.36598 0.591202,-0.54616 1.047273,-0.54616 z"
         style="fill:#000000;fill-opacity:1;fill-rule:nonzero;stroke:none"
         id="path66-2"
         inkscape:connector-curvature="0" /><path
         d="m 38.780487,33.67959 1.936892,0 0,0.46733 -2.606921,0 0,-0.46733 c 0.213959,-0.21396 0.501114,-0.50675 0.867096,-0.87836 0.360352,-0.37161 0.591203,-0.60809 0.681291,-0.71507 0.180176,-0.19707 0.304047,-0.36599 0.371613,-0.50112 0.0732,-0.14076 0.10698,-0.27589 0.10698,-0.41102 0,-0.21959 -0.07883,-0.39414 -0.230851,-0.5349 -0.152024,-0.13513 -0.349091,-0.2027 -0.596833,-0.2027 -0.174545,0 -0.360352,0.0281 -0.551789,0.0901 -0.191437,0.0619 -0.394135,0.15202 -0.619355,0.27589 l 0,-0.56305 c 0.22522,-0.0845 0.433549,-0.15202 0.624986,-0.20269 0.191437,-0.0451 0.371613,-0.0676 0.534897,-0.0676 0.422288,0 0.765748,0.10698 1.019121,0.31531 0.253372,0.21396 0.382874,0.49548 0.382874,0.85583 0,0.16892 -0.03378,0.32657 -0.09572,0.4786 -0.06757,0.14639 -0.180176,0.32656 -0.34346,0.52926 -0.05067,0.0563 -0.197068,0.20833 -0.439179,0.4617 -0.247742,0.25901 -0.596833,0.61373 -1.041643,1.0698 z m 3.198124,0 0.912141,0 0,-3.13056 -0.990968,0.19144 0,-0.50112 0.985338,-0.2027 0.551789,0 0,3.64294 0.90651,0 0,0.46733 -2.36481,0 0,-0.46733 z"
         style="fill:#000000;fill-opacity:1;fill-rule:nonzero;stroke:none"
         id="path70-0"
         inkscape:connector-curvature="0" /><path
         d="m 66.932987,33.67959 1.936892,0 0,0.46733 -2.606921,0 0,-0.46733 c 0.213959,-0.21396 0.501114,-0.50675 0.867097,-0.87836 0.360352,-0.37161 0.591202,-0.60809 0.68129,-0.71507 0.180176,-0.19707 0.304047,-0.36599 0.371613,-0.50112 0.0732,-0.14076 0.10698,-0.27589 0.10698,-0.41102 0,-0.21959 -0.07883,-0.39414 -0.230851,-0.5349 -0.152023,-0.13513 -0.349091,-0.2027 -0.596833,-0.2027 -0.174545,0 -0.360352,0.0281 -0.551789,0.0901 -0.191437,0.0619 -0.394135,0.15202 -0.619355,0.27589 l 0,-0.56305 c 0.22522,-0.0845 0.433548,-0.15202 0.624986,-0.20269 0.191436,-0.0451 0.371613,-0.0676 0.534897,-0.0676 0.422288,0 0.765748,0.10698 1.01912,0.31531 0.253373,0.21396 0.382875,0.49548 0.382875,0.85583 0,0.16892 -0.03378,0.32657 -0.09572,0.4786 -0.06757,0.14639 -0.180176,0.32656 -0.343461,0.52926 -0.05067,0.0563 -0.197067,0.20833 -0.439178,0.4617 -0.247743,0.25901 -0.596834,0.61373 -1.041643,1.0698 z m 3.580998,0 1.936892,0 0,0.46733 -2.601291,0 0,-0.46733 c 0.208329,-0.21396 0.495484,-0.50675 0.861467,-0.87836 0.360351,-0.37161 0.591202,-0.60809 0.686921,-0.71507 0.174545,-0.19707 0.298416,-0.36599 0.365982,-0.50112 0.0732,-0.14076 0.10698,-0.27589 0.10698,-0.41102 0,-0.21959 -0.0732,-0.39414 -0.230851,-0.5349 -0.152023,-0.13513 -0.349091,-0.2027 -0.596833,-0.2027 -0.174546,0 -0.360352,0.0281 -0.546159,0.0901 -0.191437,0.0619 -0.399765,0.15202 -0.624985,0.27589 l 0,-0.56305 c 0.22522,-0.0845 0.433548,-0.15202 0.624985,-0.20269 0.197068,-0.0451 0.371613,-0.0676 0.540528,-0.0676 0.422288,0 0.760118,0.10698 1.01349,0.31531 0.253373,0.21396 0.382874,0.49548 0.382874,0.85583 0,0.16892 -0.03378,0.32657 -0.09572,0.4786 -0.06757,0.14639 -0.180176,0.32656 -0.343461,0.52926 -0.04504,0.0563 -0.191437,0.20833 -0.439179,0.4617 -0.247742,0.25901 -0.591202,0.61373 -1.041642,1.0698 z"
         style="fill:#000000;fill-opacity:1;fill-rule:nonzero;stroke:none"
         id="path74-0"
         inkscape:connector-curvature="0" /><path
         d="m 95.085487,33.67959 1.936892,0 0,0.46733 -2.606921,0 0,-0.46733 c 0.213959,-0.21396 0.501114,-0.50675 0.867097,-0.87836 0.360352,-0.37161 0.591202,-0.60809 0.68129,-0.71507 0.180176,-0.19707 0.304047,-0.36599 0.371613,-0.50112 0.0732,-0.14076 0.10698,-0.27589 0.10698,-0.41102 0,-0.21959 -0.07883,-0.39414 -0.230851,-0.5349 -0.152023,-0.13513 -0.349091,-0.2027 -0.596833,-0.2027 -0.174545,0 -0.360352,0.0281 -0.551789,0.0901 -0.191437,0.0619 -0.394135,0.15202 -0.619355,0.27589 l 0,-0.56305 c 0.22522,-0.0845 0.433548,-0.15202 0.624986,-0.20269 0.191436,-0.0451 0.371613,-0.0676 0.534897,-0.0676 0.422288,0 0.765748,0.10698 1.01912,0.31531 0.253373,0.21396 0.382875,0.49548 0.382875,0.85583 0,0.16892 -0.03378,0.32657 -0.09572,0.4786 -0.06757,0.14639 -0.180176,0.32656 -0.343461,0.52926 -0.05067,0.0563 -0.197067,0.20833 -0.439178,0.4617 -0.247742,0.25901 -0.596833,0.61373 -1.041643,1.0698 z m 4.785925,-1.75109 c 0.264628,0.0619 0.472958,0.18018 0.624988,0.36036 0.14639,0.17454 0.21959,0.39976 0.21959,0.66439 0,0.39977 -0.13514,0.71508 -0.41666,0.9403 -0.2759,0.21959 -0.67566,0.3322 -1.188035,0.3322 -0.174546,0 -0.349091,-0.0169 -0.529267,-0.0507 -0.180176,-0.0394 -0.371614,-0.0844 -0.56305,-0.15202 l 0,-0.5349 c 0.152023,0.0845 0.320938,0.15203 0.506744,0.2027 0.180176,0.045 0.377244,0.0676 0.574311,0.0676 0.343461,0 0.608094,-0.0676 0.793901,-0.2027 0.180176,-0.14076 0.270266,-0.34346 0.270266,-0.60247 0,-0.24211 -0.0845,-0.43354 -0.253374,-0.56305 -0.168915,-0.13513 -0.405396,-0.20269 -0.703813,-0.20269 l -0.484223,0 0,-0.4617 0.501114,0 c 0.275895,0 0.484224,-0.0563 0.630617,-0.16329 0.14076,-0.11261 0.213959,-0.27026 0.213959,-0.47859 0,-0.2027 -0.0732,-0.36598 -0.22522,-0.47859 -0.152024,-0.11261 -0.360352,-0.16892 -0.636247,-0.16892 -0.152023,0 -0.320938,0.0113 -0.495484,0.045 -0.174545,0.0338 -0.365982,0.0845 -0.56868,0.15766 l 0,-0.49549 c 0.208328,-0.0563 0.405396,-0.10134 0.591202,-0.1295 0.185807,-0.0338 0.354722,-0.045 0.518006,-0.045 0.422288,0 0.754483,0.0957 1.002233,0.28715 0.24211,0.18581 0.36598,0.45044 0.36598,0.77701 0,0.23085 -0.0619,0.42229 -0.19144,0.57431 -0.1295,0.15766 -0.31531,0.26464 -0.557418,0.32094 z"
         style="fill:#000000;fill-opacity:1;fill-rule:nonzero;stroke:none"
         id="path78-2"
         inkscape:connector-curvature="0" /><path
         d="m 123.80104,33.67959 1.93689,0 0,0.46733 -2.60692,0 0,-0.46733 c 0.21396,-0.21396 0.50111,-0.50675 0.86709,-0.87836 0.36036,-0.37161 0.59121,-0.60809 0.68129,-0.71507 0.18018,-0.19707 0.30405,-0.36599 0.37162,-0.50112 0.0732,-0.14076 0.10698,-0.27589 0.10698,-0.41102 0,-0.21959 -0.0788,-0.39414 -0.23085,-0.5349 -0.15203,-0.13513 -0.34909,-0.2027 -0.59684,-0.2027 -0.17454,0 -0.36035,0.0281 -0.55179,0.0901 -0.19143,0.0619 -0.39413,0.15202 -0.61935,0.27589 l 0,-0.56305 c 0.22522,-0.0845 0.43355,-0.15202 0.62498,-0.20269 0.19144,-0.0451 0.37162,-0.0676 0.5349,-0.0676 0.42229,0 0.76575,0.10698 1.01912,0.31531 0.25338,0.21396 0.38288,0.49548 0.38288,0.85583 0,0.16892 -0.0338,0.32657 -0.0957,0.4786 -0.0676,0.14639 -0.18018,0.32656 -0.34346,0.52926 -0.0507,0.0563 -0.19707,0.20833 -0.43918,0.4617 -0.24774,0.25901 -0.59683,0.61373 -1.04164,1.0698 z m 4.62827,-3.15871 -1.39637,2.19026 1.39637,0 0,-2.19026 z m -0.1464,-0.48423 0.70382,0 0,2.67449 0.57994,0 0,0.46733 -0.57994,0 0,0.96845 -0.55742,0 0,-0.96845 -1.85244,0 0,-0.53489 1.70604,-2.60693 z"
         style="fill:#000000;fill-opacity:1;fill-rule:nonzero;stroke:none"
         id="path82-9"
         inkscape:connector-curvature="0" /><path
         d="m 151.95354,33.67959 1.93689,0 0,0.46733 -2.60692,0 0,-0.46733 c 0.21396,-0.21396 0.50111,-0.50675 0.86709,-0.87836 0.36036,-0.37161 0.59121,-0.60809 0.68129,-0.71507 0.18018,-0.19707 0.30405,-0.36599 0.37162,-0.50112 0.0732,-0.14076 0.10698,-0.27589 0.10698,-0.41102 0,-0.21959 -0.0788,-0.39414 -0.23085,-0.5349 -0.15203,-0.13513 -0.34909,-0.2027 -0.59684,-0.2027 -0.17454,0 -0.36035,0.0281 -0.55179,0.0901 -0.19143,0.0619 -0.39413,0.15202 -0.61935,0.27589 l 0,-0.56305 c 0.22522,-0.0845 0.43355,-0.15202 0.62498,-0.20269 0.19144,-0.0451 0.37162,-0.0676 0.5349,-0.0676 0.42229,0 0.76575,0.10698 1.01912,0.31531 0.25337,0.21396 0.38288,0.49548 0.38288,0.85583 0,0.16892 -0.0338,0.32657 -0.0957,0.4786 -0.0676,0.14639 -0.18018,0.32656 -0.34346,0.52926 -0.0507,0.0563 -0.19707,0.20833 -0.43918,0.4617 -0.24774,0.25901 -0.59683,0.61373 -1.04164,1.0698 z m 3.10803,-3.64294 2.18464,0 0,0.4786 -1.67226,0 0,1.00223 c 0.0788,-0.0282 0.16328,-0.0507 0.24211,-0.0619 0.0788,-0.0113 0.15765,-0.0169 0.24211,-0.0169 0.45607,0 0.81642,0.12387 1.08669,0.37161 0.26463,0.24774 0.39976,0.59121 0.39976,1.01912 0,0.44481 -0.14076,0.78827 -0.41102,1.03038 -0.27027,0.24212 -0.65877,0.36599 -1.16552,0.36599 -0.16891,0 -0.34346,-0.0169 -0.52363,-0.045 -0.18018,-0.0282 -0.36599,-0.0732 -0.55742,-0.1295 l 0,-0.55742 c 0.16891,0.0901 0.34346,0.15766 0.518,0.2027 0.17455,0.0394 0.36035,0.0619 0.55179,0.0619 0.32094,0 0.56868,-0.0845 0.75449,-0.24775 0.1858,-0.16891 0.27589,-0.39413 0.27589,-0.68129 0,-0.28152 -0.0901,-0.50674 -0.27589,-0.67566 -0.18581,-0.16891 -0.43355,-0.24774 -0.75449,-0.24774 -0.14639,0 -0.29278,0.0113 -0.43918,0.0451 -0.15202,0.0338 -0.30404,0.0844 -0.45607,0.15765 l 0,-2.07203 z"
         style="fill:#000000;fill-opacity:1;fill-rule:nonzero;stroke:none"
         id="path86-4"
         inkscape:connector-curvature="0" /><path
         d="m 180.10604,33.67959 1.93689,0 0,0.46733 -2.60692,0 0,-0.46733 c 0.21396,-0.21396 0.50111,-0.50675 0.86709,-0.87836 0.36036,-0.37161 0.59121,-0.60809 0.68129,-0.71507 0.18018,-0.19707 0.30405,-0.36599 0.37162,-0.50112 0.0732,-0.14076 0.10698,-0.27589 0.10698,-0.41102 0,-0.21959 -0.0788,-0.39414 -0.23085,-0.5349 -0.15203,-0.13513 -0.34909,-0.2027 -0.59684,-0.2027 -0.17454,0 -0.36035,0.0281 -0.55179,0.0901 -0.19143,0.0619 -0.39413,0.15202 -0.61935,0.27589 l 0,-0.56305 c 0.22522,-0.0845 0.43355,-0.15202 0.62498,-0.20269 0.19144,-0.0451 0.37162,-0.0676 0.5349,-0.0676 0.42229,0 0.76575,0.10698 1.01912,0.31531 0.25337,0.21396 0.38288,0.49548 0.38288,0.85583 0,0.16892 -0.0338,0.32657 -0.0957,0.4786 -0.0676,0.14639 -0.18018,0.32656 -0.34346,0.52926 -0.0507,0.0563 -0.19707,0.20833 -0.43918,0.4617 -0.24774,0.25901 -0.59683,0.61373 -1.04164,1.0698 z m 4.358,-1.80176 c -0.24774,0 -0.44481,0.0845 -0.5912,0.25337 -0.14639,0.16892 -0.21959,0.4054 -0.21959,0.69818 0,0.29842 0.0732,0.52927 0.21959,0.70382 0.14639,0.16891 0.34346,0.25337 0.5912,0.25337 0.25338,0 0.45044,-0.0845 0.59121,-0.25337 0.14639,-0.17455 0.21959,-0.4054 0.21959,-0.70382 0,-0.29278 -0.0732,-0.52926 -0.21959,-0.69818 -0.14077,-0.16891 -0.33783,-0.25337 -0.59121,-0.25337 z m 1.10921,-1.73983 0,0.50112 c -0.14076,-0.0676 -0.28152,-0.11824 -0.42792,-0.15202 -0.14639,-0.0338 -0.28152,-0.0507 -0.41665,-0.0507 -0.37162,0 -0.65314,0.11824 -0.84458,0.36598 -0.19707,0.24775 -0.30405,0.62499 -0.32657,1.1261 0.10698,-0.15765 0.24211,-0.27589 0.4054,-0.36598 0.16328,-0.0845 0.34346,-0.12387 0.5349,-0.12387 0.41102,0 0.73759,0.12387 0.9797,0.37161 0.23648,0.24774 0.36036,0.59121 0.36036,1.01912 0,0.42229 -0.12388,0.76012 -0.37725,1.01349 -0.24774,0.25338 -0.57994,0.38288 -0.9966,0.38288 -0.47296,0 -0.83894,-0.18018 -1.08668,-0.54616 -0.24775,-0.36035 -0.37162,-0.88962 -0.37162,-1.58217 0,-0.64751 0.15203,-1.15988 0.4617,-1.54839 0.30405,-0.3885 0.71508,-0.57994 1.23308,-0.57994 0.14077,0 0.28153,0.0113 0.42229,0.0394 0.14076,0.0282 0.29279,0.0676 0.45044,0.1295 z"
         style="fill:#000000;fill-opacity:1;fill-rule:nonzero;stroke:none"
         id="path90-3"
         inkscape:connector-curvature="0" /><path
         d="m 208.82159,33.67959 1.93689,0 0,0.46733 -2.60692,0 0,-0.46733 c 0.21396,-0.21396 0.50111,-0.50675 0.86709,-0.87836 0.36036,-0.37161 0.59121,-0.60809 0.68129,-0.71507 0.18018,-0.19707 0.30405,-0.36599 0.37162,-0.50112 0.0732,-0.14076 0.10698,-0.27589 0.10698,-0.41102 0,-0.21959 -0.0788,-0.39414 -0.23085,-0.5349 -0.15203,-0.13513 -0.34909,-0.2027 -0.59684,-0.2027 -0.17454,0 -0.36035,0.0281 -0.55179,0.0901 -0.19143,0.0619 -0.39413,0.15202 -0.61935,0.27589 l 0,-0.56305 c 0.22522,-0.0845 0.43355,-0.15202 0.62498,-0.20269 0.19144,-0.0451 0.37162,-0.0676 0.5349,-0.0676 0.42229,0 0.76575,0.10698 1.01912,0.31531 0.25338,0.21396 0.38288,0.49548 0.38288,0.85583 0,0.16892 -0.0338,0.32657 -0.0957,0.4786 -0.0676,0.14639 -0.18018,0.32656 -0.34346,0.52926 -0.0507,0.0563 -0.19707,0.20833 -0.43918,0.4617 -0.24774,0.25901 -0.59683,0.61373 -1.04164,1.0698 z m 2.96727,-3.64294 2.6407,0 0,0.23649 -1.49771,3.87378 -0.57994,0 1.40762,-3.63167 -1.97067,0 0,-0.4786 z"
         style="fill:#000000;fill-opacity:1;fill-rule:nonzero;stroke:none"
         id="path94-5"
         inkscape:connector-curvature="0" /></g><path
       inkscape:connector-curvature="0"
       id="path96-6"
       style="fill:none;stroke:#000000;stroke-width:0.56304997;stroke-linecap:butt;stroke-linejoin:miter;stroke-miterlimit:10;stroke-opacity:1;stroke-dasharray:none"
       d="m 210.18417,26.79349 0,2.2522" /></g></svg>