<?xml version="1.0" encoding="UTF-8" standalone="no"?>
<svg
   xmlns:dc="http://purl.org/dc/elements/1.1/"
   xmlns:cc="http://creativecommons.org/ns#"
   xmlns:rdf="http://www.w3.org/1999/02/22-rdf-syntax-ns#"
   xmlns:svg="http://www.w3.org/2000/svg"
   xmlns="http://www.w3.org/2000/svg"
   xmlns:sodipodi="http://sodipodi.sourceforge.net/DTD/sodipodi-0.dtd"
   xmlns:inkscape="http://www.inkscape.org/namespaces/inkscape"
   version="1.1"
   width="504"
   height="363"
   viewBox="0 0 504 363"
   preserveAspectRatio="defer"
   id="svg2"
   inkscape:version="0.48.4 r9939"
   sodipodi:docname="normalpdf.pdf">
  <metadata
     id="metadata72">
    <rdf:RDF>
      <cc:Work
         rdf:about="">
        <dc:format>image/svg+xml</dc:format>
        <dc:type
           rdf:resource="http://purl.org/dc/dcmitype/StillImage" />
        <dc:title>PEAnut probability distribution</dc:title>
      </cc:Work>
    </rdf:RDF>
  </metadata>
  <defs
     id="defs70" />
  <sodipodi:namedview
     pagecolor="#ffffff"
     bordercolor="#666666"
     borderopacity="1"
     objecttolerance="10"
     gridtolerance="10"
     guidetolerance="10"
     inkscape:pageopacity="0"
     inkscape:pageshadow="2"
     inkscape:window-width="1333"
     inkscape:window-height="744"
     id="namedview68"
     showgrid="false"
     showguides="true"
     inkscape:guide-bbox="true"
     inkscape:zoom="1.8388672"
     inkscape:cx="246.99918"
     inkscape:cy="57.032648"
     inkscape:window-x="33"
     inkscape:window-y="24"
     inkscape:window-maximized="1"
     inkscape:current-layer="svg2">
    <sodipodi:guide
       orientation="1,0"
       position="228.40148,277.34466"
       id="guide3817" />
  </sodipodi:namedview>
  <title
     id="title4">PEAnut probability distribution</title>
  <polygon
     fill="#ff0000"
     stroke="#ff0000"
     stroke-width="1px"
     points="299,101 302,109 304,117 307,125 310,133 313,142 316,150 319,159 322,167 325,175 328,183 331,191 334,199 337,207 340,214 343,221 346,228 349,234 352,241 355,247 358,252 361,258 364,263 364,322 299,322"
     id="polygon8"
     style="fill:#0066cc;fill-opacity:1;stroke-width:2.50000000000000000;stroke-miterlimit:4;stroke-dasharray:none;stroke:#a94300;stroke-opacity:1" />
  <path
     d="M 0 322 L 1 322 2 322 2 322 3 322 4 322 5 322 6 322 6 322 7 322 8 322 9 322 10 322 10 322 11 322 12 322 13 322 14 322 14 322 15 322 16 322 17 322 18 322 18 322 19 322 20 322 21 322 22 322 22 322 23 322 24 322 25 322 26 322 26 322 27 322 28 322 29 322 30 322 30 322 31 321 32 321 33 321 34 321 34 321 35 321 36 321 37 321 38 321 38 321 39 321 40 321 41 321 42 321 42 321 43 321 44 321 45 321 46 321 46 321 47 321 48 321 49 320 50 320 50 320 51 320 52 320 53 320 54 320 54 320 55 320 56 320 57 320 58 320 58 319 59 319 60 319 61 319 62 319 62 319 63 319 64 319 65 319 66 318 66 318 67 318 68 318 69 318 70 318 70 317 71 317 72 317 73 317 74 317 74 317 75 316 76 316 77 316 78 316 78 315 79 315 80 315 81 315 82 315 82 314 83 314 84 314 85 313 86 313 86 313 87 312 88 312 89 312 90 311 90 311 91 311 92 310 93 310 94 310 94 309 95 309 96 308 97 308 98 307 98 307 99 307 100 306 101 306 102 305 102 305 103 304 104 303 105 303 106 302 106 302 107 301 108 300 109 300 110 299 110 299 111 298 112 297 113 296 114 296 114 295 115 294 116 293 117 293 118 292 118 291 119 290 120 289 121 288 122 287 122 287 123 286 124 285 125 284 126 283 126 282 127 281 128 280 129 278 130 277 130 276 131 275 132 274 133 273 134 272 134 270 135 269 136 268 137 267 138 265 138 264 139 263 140 261 141 260 142 259 142 257 143 256 144 254 145 253 146 251 146 250 147 248 148 247 149 245 150 243 150 242 151 240 152 238 153 237 154 235 154 233 155 231 156 230 157 228 158 226 158 224 159 222 160 221 161 219 162 217 162 215 163 213 164 211 165 209 166 207 166 205 167 203 168 201 169 199 170 197 170 195 171 193 172 190 173 188 174 186 174 184 175 182 176 180 177 178 178 175 178 173 179 171 180 169 181 166 182 164 182 162 183 160 184 158 185 155 186 153 186 151 187 149 188 146 189 144 190 142 190 139 191 137 192 135 193 133 194 130 194 128 195 126 196 124 197 122 198 119 198 117 199 115 200 113 201 111 202 108 202 106 203 104 204 102 205 100 206 98 206 96 207 94 208 92 209 90 210 88 210 86 211 84 212 82 213 80 214 78 214 76 215 74 216 72 217 71 218 69 218 67 219 65 220 64 221 62 222 61 222 59 223 57 224 56 225 55 226 53 226 52 227 50 228 49 229 48 230 47 230 45 231 44 232 43 233 42 234 41 234 40 235 39 236 38 237 37 238 36 238 36 239 35 240 34 241 33 242 33 242 32 243 32 244 31 245 31 246 31 246 30 247 30 248 30 249 30 250 29 250 29 251 29 252 29 253 29 254 29 254 30 255 30 256 30 257 30 258 31 258 31 259 31 260 32 261 32 262 33 262 34 263 34 264 35 265 36 266 37 266 37 267 38 268 39 269 40 270 41 270 42 271 43 272 44 273 46 274 47 274 48 275 49 276 51 277 52 278 53 278 55 279 56 280 58 281 59 282 61 282 63 283 64 284 66 285 68 286 69 286 71 287 73 288 75 289 77 290 78 290 80 291 82 292 84 293 86 294 88 294 90 295 92 296 94 297 96 298 98 298 100 299 103 300 105 301 107 302 109 302 111 303 113 304 115 305 118 306 120 306 122 307 124 308 127 309 129 310 131 310 133 311 136 312 138 313 140 314 142 314 145 315 147 316 149 317 151 318 154 318 156 319 158 320 160 321 163 322 165 322 167 323 169 324 171 325 174 326 176 326 178 327 180 328 182 329 185 330 187 330 189 331 191 332 193 333 195 334 197 334 199 335 201 336 203 337 205 338 207 338 209 339 211 340 213 341 215 342 217 342 219 343 221 344 223 345 225 346 227 346 228 347 230 348 232 349 234 350 235 350 237 351 239 352 240 353 242 354 244 354 245 355 247 356 249 357 250 358 252 358 253 359 255 360 256 361 257 362 259 362 260 363 262 364 263 365 264 366 266 366 267 367 268 368 269 369 271 370 272 370 273 371 274 372 275 373 277 374 278 374 279 375 280 376 281 377 282 378 283 378 284 379 285 380 286 381 287 382 288 382 289 383 289 384 290 385 291 386 292 386 293 387 294 388 294 389 295 390 296 390 297 391 297 392 298 393 299 394 299 394 300 395 301 396 301 397 302 398 302 398 303 399 304 400 304 401 305 402 305 402 306 403 306 404 307 405 307 406 308 406 308 407 308 408 309 409 309 410 310 410 310 411 310 412 311 413 311 414 312 414 312 415 312 416 313 417 313 418 313 418 313 419 314 420 314 421 314 422 315 422 315 423 315 424 315 425 316 426 316 426 316 427 316 428 316 429 317 430 317 430 317 431 317 432 317 433 318 434 318 434 318 435 318 436 318 437 318 438 318 438 319 439 319 440 319 441 319 442 319 442 319 443 319 444 319 445 320 446 320 446 320 447 320 448 320 449 320 450 320 450 320 451 320 452 320 453 320 454 320 454 321 455 321 456 321 457 321 458 321 458 321 459 321 460 321 461 321 462 321 462 321 463 321 464 321 465 321 466 321 466 321 467 321 468 321 469 321 470 321 470 321 471 321 472 321 473 322 474 322 474 322 475 322 476 322 477 322 478 322 478 322 479 322 480 322 481 322 482 322 482 322 483 322 484 322 485 322 486 322 486 322 487 322 488 322 489 322 490 322 490 322 491 322 492 322 493 322 494 322 494 322 495 322 496 322 497 322 498 322 498 322 499 322 500 322 501 322 502 322 502 322"
     fill="none"
     stroke="#ff0000"
     stroke-width="1px"
     id="path10"
     style="stroke:#a94300;stroke-opacity:1;stroke-width:2.6;stroke-miterlimit:4;stroke-dasharray:none" />
  <line
     x1="1"
     y1="322"
     x2="502"
     y2="322"
     stroke="#000000"
     stroke-width="1px"
     id="line12" />
  <line
     x1="0"
     y1="327"
     x2="0"
     y2="317"
     stroke="#000000"
     stroke-width="1px"
     id="line14" />
  <line
     x1="63"
     y1="327"
     x2="63"
     y2="317"
     stroke="#000000"
     stroke-width="1px"
     id="line16" />
  <line
     x1="126"
     y1="327"
     x2="126"
     y2="317"
     stroke="#000000"
     stroke-width="1px"
     id="line18" />
  <line
     x1="189"
     y1="327"
     x2="189"
     y2="317"
     stroke="#000000"
     stroke-width="1px"
     id="line20" />
  <line
     x1="314"
     y1="327"
     x2="314"
     y2="317"
     stroke="#000000"
     stroke-width="1px"
     id="line22" />
  <line
     x1="377"
     y1="327"
     x2="377"
     y2="317"
     stroke="#000000"
     stroke-width="1px"
     id="line24" />
  <line
     x1="440"
     y1="327"
     x2="440"
     y2="317"
     stroke="#000000"
     stroke-width="1px"
     id="line26" />
  <line
     x1="503"
     y1="327"
     x2="503"
     y2="317"
     stroke="#000000"
     stroke-width="1px"
     id="line28" />
  <line
     x1="251"
     y1="362"
     x2="251"
     y2="0"
     stroke="#000000"
     stroke-width="1px"
     id="line30" />
  <line
     x1="246"
     y1="175"
     x2="256"
     y2="175"
     stroke="#000000"
     stroke-width="1px"
     id="line32" />
  <line
     x1="246"
     y1="29"
     x2="256"
     y2="29"
     stroke="#000000"
     stroke-width="1px"
     id="line34" />
  <text
     x="47"
     y="339"
     font-size="13"
     font-weight="400"
     id="text38"
     style="font-size:13px;font-weight:400;text-anchor:start;fill:#000000;font-family:Symbol">-3.0</text>
  <text
     x="112"
     y="339"
     font-size="13"
     font-weight="400"
     id="text42"
     style="font-size:13px;font-weight:400;text-anchor:start;fill:#000000;font-family:Symbol">-2.0</text>
  <text
     x="175"
     y="339"
     font-size="13"
     font-weight="400"
     id="text46"
     style="font-size:13px;font-weight:400;text-anchor:start;fill:#000000;font-family:Symbol">-1.0</text>
  <text
     x="305"
     y="339"
     font-size="13"
     font-weight="400"
     id="text50"
     style="font-size:13px;font-weight:400;text-anchor:start;fill:#000000;font-family:Symbol">1.0</text>
  <text
     x="368"
     y="339"
     font-size="13"
     font-weight="400"
     id="text54"
     style="font-size:13px;font-weight:400;text-anchor:start;fill:#000000;font-family:Symbol">2.0</text>
  <text
     x="431"
     y="339"
     font-size="13"
     font-weight="400"
     id="text58"
     style="font-size:13px;font-weight:400;text-anchor:start;fill:#000000;font-family:Symbol">3.0</text>
  <text
     x="228"
     y="171"
     font-size="13"
     font-weight="400"
     id="text62"
     style="font-size:13px;font-weight:400;text-anchor:start;fill:#000000;font-family:Symbol">0.2</text>
  <text
     x="234.22025"
     y="24.855532"
     font-size="13"
     font-weight="400"
     id="text66"
     transform="scale(0.97344283,1.0272817)"
     style="font-size:13.35466194px;font-weight:400;text-anchor:start;fill:#000000;font-family:Symbol">0.4</text>
</svg>
