<?xml version="1.0" encoding="UTF-8" standalone="no"?>
<!-- Created with Inkscape (http://www.inkscape.org/) -->

<svg
   xmlns:dc="http://purl.org/dc/elements/1.1/"
   xmlns:cc="http://creativecommons.org/ns#"
   xmlns:rdf="http://www.w3.org/1999/02/22-rdf-syntax-ns#"
   xmlns:svg="http://www.w3.org/2000/svg"
   xmlns="http://www.w3.org/2000/svg"
   xmlns:sodipodi="http://sodipodi.sourceforge.net/DTD/sodipodi-0.dtd"
   xmlns:inkscape="http://www.inkscape.org/namespaces/inkscape"
   id="svg2"
   version="1.1"
   inkscape:version="0.48.4 r9939"
   width="807.37549"
   height="678.63904"
   xml:space="preserve"
   sodipodi:docname="percen.pdf"><sodipodi:namedview
     pagecolor="#ffffff"
     bordercolor="#666666"
     borderopacity="1"
     objecttolerance="10"
     gridtolerance="10"
     guidetolerance="10"
     inkscape:pageopacity="0"
     inkscape:pageshadow="2"
     inkscape:window-width="1333"
     inkscape:window-height="744"
     id="namedview4"
     showgrid="false"
     inkscape:zoom="1.4984127"
     inkscape:cx="403.36845"
     inkscape:cy="420.21874"
     inkscape:window-x="33"
     inkscape:window-y="24"
     inkscape:window-maximized="1"
     inkscape:current-layer="g10"
     fit-margin-top="0"
     fit-margin-left="0"
     fit-margin-right="0"
     fit-margin-bottom="0" /><metadata
     id="metadata8"><rdf:RDF><cc:Work
         rdf:about=""><dc:format>image/svg+xml</dc:format><dc:type
           rdf:resource="http://purl.org/dc/dcmitype/StillImage" /><dc:title></dc:title></cc:Work></rdf:RDF></metadata><defs
     id="defs6"><clipPath
       clipPathUnits="userSpaceOnUse"
       id="clipPath140"><path
         d="m 0.641,503.801 525.961,0 0,-503.039 -525.961,0 0,503.039 z"
         id="path142"
         inkscape:connector-curvature="0" /></clipPath><clipPath
       clipPathUnits="userSpaceOnUse"
       id="clipPath150"><path
         d="m 520,465 7,0 0,6 -7,0 0,-6 z"
         id="path152"
         inkscape:connector-curvature="0" /></clipPath><clipPath
       clipPathUnits="userSpaceOnUse"
       id="clipPath166"><path
         d="m 520,460 7,0 0,6 -7,0 0,-6 z"
         id="path168"
         inkscape:connector-curvature="0" /></clipPath></defs><g
     id="g10"
     inkscape:groupmode="layer"
     inkscape:label="percen"
     transform="matrix(1.25,0,0,-1.25,9.2452132,697.02331)"><g
       id="g12"><path
         d="m 31.535,54.027 0.965,-1.324 53.371,36.184 53.367,36.066 -0.84,1.328 L 85.027,90.215 31.535,54.027"
         style="fill:#3771c8;fill-opacity:1;fill-rule:nonzero;stroke:none"
         id="path14"
         inkscape:connector-curvature="0" /><path
         d="m 298.613,258.789 1.68,0 0,-217.43 -1.68,0 0,217.43 z"
         style="fill:#a94300;fill-opacity:1;fill-rule:evenodd;stroke:none"
         id="path16"
         inkscape:connector-curvature="0" /><path
         d="m 34.438,258.805 264.438,0 0,-1.441 -264.438,0 0,1.441 z"
         style="fill:#a94300;fill-opacity:1;fill-rule:evenodd;stroke:none"
         id="path18"
         inkscape:connector-curvature="0" /><path
         d="m 517.121,63.477 1.918,0 0,-10.078 -1.918,0 0,10.078 z"
         style="fill:#000000;fill-opacity:1;fill-rule:evenodd;stroke:none"
         id="path20"
         inkscape:connector-curvature="0" /><path
         d="m 32.559,53.082 0,-1.441 74.39,0.238 74.539,0.242 74.387,0.238 74.539,0.243 74.387,0.238 74.539,0.242 74.39,0.238 74.536,0.121 0,1.559 L 553.73,54.879 479.34,54.641 404.801,54.398 330.414,54.16 255.875,53.801 181.488,53.559 106.949,53.32 32.559,53.082"
         style="fill:#000000;fill-opacity:1;fill-rule:nonzero;stroke:none"
         id="path22"
         inkscape:connector-curvature="0" /><path
         d="m 31.719,85.84 9,0 0,-1.801 -9,0 0,1.801 z"
         style="fill:#000000;fill-opacity:1;fill-rule:evenodd;stroke:none"
         id="path24"
         inkscape:connector-curvature="0" /><path
         d="m 31.719,120.52 9,0 0,-1.801 -9,0 0,1.801 z"
         style="fill:#000000;fill-opacity:1;fill-rule:evenodd;stroke:none"
         id="path26"
         inkscape:connector-curvature="0" /><path
         d="m 31.719,155.082 9,0 0,-1.684 -9,0 0,1.684 z"
         style="fill:#000000;fill-opacity:1;fill-rule:evenodd;stroke:none"
         id="path28"
         inkscape:connector-curvature="0" /><path
         d="m 31.719,189.641 9,0 0,-1.801 -9,0 0,1.801 z"
         style="fill:#000000;fill-opacity:1;fill-rule:evenodd;stroke:none"
         id="path30"
         inkscape:connector-curvature="0" /><path
         d="m 31.719,224.32 9,0 0,-1.801 -9,0 0,1.801 z"
         style="fill:#000000;fill-opacity:1;fill-rule:evenodd;stroke:none"
         id="path32"
         inkscape:connector-curvature="0" /><path
         d="m 31.719,258.879 9,0 0,-1.68 -9,0 0,1.68 z"
         style="fill:#000000;fill-opacity:1;fill-rule:evenodd;stroke:none"
         id="path34"
         inkscape:connector-curvature="0" /><path
         d="m 31.719,293.441 9,0 0,-1.801 -9,0 0,1.801 z"
         style="fill:#000000;fill-opacity:1;fill-rule:evenodd;stroke:none"
         id="path36"
         inkscape:connector-curvature="0" /><path
         d="m 31.719,328.121 9,0 0,-1.801 -9,0 0,1.801 z"
         style="fill:#000000;fill-opacity:1;fill-rule:evenodd;stroke:none"
         id="path38"
         inkscape:connector-curvature="0" /><path
         d="m 31.719,362.559 9,0 0,-1.68 -9,0 0,1.68 z"
         style="fill:#000000;fill-opacity:1;fill-rule:evenodd;stroke:none"
         id="path40"
         inkscape:connector-curvature="0" /><path
         d="m 30.871,398.469 9,0 0,-1.801 -9,0 0,1.801 z"
         style="fill:#000000;fill-opacity:1;fill-rule:evenodd;stroke:none"
         id="path42"
         inkscape:connector-curvature="0" /><path
         d="m 30.879,397.344 1.801,0 0,-345.723 -1.801,0 0,345.723 z"
         style="fill:#000000;fill-opacity:1;fill-rule:evenodd;stroke:none"
         id="path44"
         inkscape:connector-curvature="0" /><path
         d="m 129.879,122.801 0.601,-1.199 97.2,34.437 -0.602,1.082 -97.199,-34.32"
         style="fill:#3771c8;fill-opacity:1;fill-rule:nonzero;stroke:none"
         id="path46"
         inkscape:connector-curvature="0" /><path
         d="m 226.719,156.879 1.441,-0.598 48.602,68.758 48.718,68.641 -1.441,0.601 -48.598,-68.64 -48.722,-68.762"
         style="fill:#3771c8;fill-opacity:1;fill-rule:nonzero;stroke:none"
         id="path48"
         inkscape:connector-curvature="0" /><path
         d="m 227.68,156.039 0.359,0.121 0.121,0.121 -1.441,0.598 0.359,0.242 0.602,-1.082"
         style="fill:#000000;fill-opacity:1;fill-rule:nonzero;stroke:none"
         id="path50"
         inkscape:connector-curvature="0" /><path
         d="m 324.281,294.398 1.199,-0.718 48.719,51.601 48.602,51.481 -1.199,0.718 L 372.879,346 324.281,294.398"
         style="fill:#3771c8;fill-opacity:1;fill-rule:nonzero;stroke:none"
         id="path52"
         inkscape:connector-curvature="0" /><path
         d="m 324.039,294.281 0.242,0.117 1.199,-0.718 -1.441,0.601"
         style="fill:#000000;fill-opacity:1;fill-rule:nonzero;stroke:none"
         id="path54"
         inkscape:connector-curvature="0" /><path
         d="m 421.602,397.602 1.078,-0.961 97.441,68.64 -1.199,0.957 -97.32,-68.636"
         style="fill:#3771c8;fill-opacity:1;fill-rule:nonzero;stroke:none"
         id="path56"
         inkscape:connector-curvature="0" /><path
         d="m 421.602,397.48 0,0.122 1.078,-0.961 0.121,0.121 -1.199,0.718"
         style="fill:#000000;fill-opacity:1;fill-rule:nonzero;stroke:none"
         id="path58"
         inkscape:connector-curvature="0" /><path
         d="m 125.801,122.199 0,0.602 0.238,0.359 0.121,0.481 0.238,0.359 0.122,0.359 0.359,0.243 0.242,0.359 0.359,0.48 0.719,0.481 1.082,0.359 0.957,0.239 1.082,0.121 1.2,-0.121 0.96,-0.239 0.481,-0.242 0.598,-0.117 0.722,-0.481 0.36,-0.48 0.238,-0.359 0.359,-0.243 0.121,-0.359 0.243,-0.359 0.117,-0.481 0.121,-0.359 0,-0.961 -0.121,-0.481 -0.117,-0.359 -0.243,-0.359 -0.121,-0.36 -0.359,-0.359 -0.238,-0.363 -0.36,-0.36 -0.722,-0.48 -1.079,-0.36 -0.96,-0.238 -1.2,-0.121 -1.082,0.121 -0.957,0.238 -0.48,0.121 -0.602,0.239 -0.719,0.48 -0.359,0.36 -0.242,0.363 -0.359,0.359 -0.122,0.36 -0.238,0.359 -0.121,0.359 -0.238,0.481 0,0.359"
         style="fill:#000000;fill-opacity:1;fill-rule:evenodd;stroke:none"
         id="path60"
         inkscape:connector-curvature="0" /><path
         d="m 124.961,122.199 0.117,1.082 0.363,0.957 0.719,0.84 0.719,0.723 0.84,0.597 1.32,0.481 2.039,0.359 0.481,-1.199 -2.039,-0.359 -0.961,-0.239 -0.598,-0.601 -0.481,-0.481 -0.48,-0.597 -0.238,-0.723 -0.121,-0.961 -1.68,0.121"
         style="fill:#000000;fill-opacity:1;fill-rule:nonzero;stroke:none"
         id="path62"
         inkscape:connector-curvature="0" /><path
         d="m 131.559,127.238 2.16,-0.476 2.043,-0.84 0.718,-0.961 0.719,-0.84 0.481,-1.801 -1.68,-0.242 -0.359,1.684 -0.481,0.597 -0.359,0.481 -1.68,0.84 -2.043,0.359 0.481,1.199"
         style="fill:#000000;fill-opacity:1;fill-rule:nonzero;stroke:none"
         id="path64"
         inkscape:connector-curvature="0" /><path
         d="m 131.078,127.238 0.481,0 -0.481,-1.199 0.481,0 -0.481,1.199"
         style="fill:#000000;fill-opacity:1;fill-rule:nonzero;stroke:none"
         id="path66"
         inkscape:connector-curvature="0" /><path
         d="m 137.68,122.199 -0.121,-0.84 -0.36,-0.961 -0.719,-0.957 -0.718,-0.722 -0.961,-0.481 -1.082,-0.476 -2.16,-0.364 -0.481,1.204 2.16,0.359 0.602,0.238 0.84,0.36 0.48,0.722 0.481,0.598 0.238,0.723 0.121,0.718 1.68,-0.121"
         style="fill:#000000;fill-opacity:1;fill-rule:nonzero;stroke:none"
         id="path68"
         inkscape:connector-curvature="0" /><path
         d="m 137.68,122.32 0,-0.121 -1.68,0.121 0,-0.242 1.68,0.242"
         style="fill:#000000;fill-opacity:1;fill-rule:nonzero;stroke:none"
         id="path70"
         inkscape:connector-curvature="0" /><path
         d="m 131.078,117.398 -2.156,0.364 -1.922,0.957 -0.84,0.722 -0.719,0.957 -0.48,1.68 1.68,0.242 0.359,-1.558 0.48,-0.602 0.481,-0.359 1.559,-0.961 2.039,-0.238 -0.481,-1.204"
         style="fill:#000000;fill-opacity:1;fill-rule:nonzero;stroke:none"
         id="path72"
         inkscape:connector-curvature="0" /><path
         d="m 131.559,117.398 -0.481,0 0.481,1.204 -0.481,0 0.481,-1.204"
         style="fill:#000000;fill-opacity:1;fill-rule:nonzero;stroke:none"
         id="path74"
         inkscape:connector-curvature="0" /><path
         d="m 124.961,122.078 0,0.121 1.68,-0.121 0,0.242 -1.68,-0.242"
         style="fill:#000000;fill-opacity:1;fill-rule:nonzero;stroke:none"
         id="path76"
         inkscape:connector-curvature="0" /><path
         d="m 223.238,156.641 0,0.48 0.242,0.719 0.122,0.48 0.476,0.719 0.363,0.359 0.36,0.243 0.84,0.48 0.961,0.481 0.957,0.359 2.281,0 1.082,-0.359 0.476,-0.243 0.364,-0.238 0.84,-0.48 0.359,-0.243 0.238,-0.359 0.36,-0.359 0.242,-0.36 0.238,-0.48 0.121,-0.36 0,-0.359 0.121,-0.48 -0.121,-0.36 0,-0.48 -0.121,-0.36 -0.238,-0.48 -0.242,-0.359 -0.36,-0.364 -0.238,-0.359 -0.359,-0.238 -0.84,-0.481 -0.84,-0.359 -1.082,-0.242 -1.078,-0.239 -1.203,0.239 -0.957,0.242 -0.481,0.121 -0.48,0.238 -0.84,0.481 -0.36,0.238 -0.363,0.359 -0.238,0.364 -0.238,0.359 -0.122,0.48 -0.121,0.36 -0.121,0.48 0,0.36"
         style="fill:#000000;fill-opacity:1;fill-rule:evenodd;stroke:none"
         id="path78"
         inkscape:connector-curvature="0" /><path
         d="m 222.398,156.641 0.122,0.961 0.359,1.078 0.48,0.718 0.84,0.602 0.961,0.84 1.199,0.48 2.161,0.239 0.359,-1.321 -2.039,-0.238 -0.84,-0.238 -0.602,-0.602 -0.718,-0.48 -0.36,-0.481 -0.242,-0.84 -0.117,-0.839 -1.563,0.121"
         style="fill:#000000;fill-opacity:1;fill-rule:nonzero;stroke:none"
         id="path80"
         inkscape:connector-curvature="0" /><path
         d="m 228.879,161.559 2.281,-0.36 1.918,-1.078 0.844,-0.84 0.598,-0.722 0.48,-1.797 -1.559,-0.242 -0.48,1.679 -0.481,0.481 -0.359,0.48 -1.68,0.84 -1.921,0.238 0.359,1.321"
         style="fill:#000000;fill-opacity:1;fill-rule:nonzero;stroke:none"
         id="path82"
         inkscape:connector-curvature="0" /><path
         d="m 228.52,161.559 0.359,0 -0.359,-1.321 0.359,0 -0.359,1.321"
         style="fill:#000000;fill-opacity:1;fill-rule:nonzero;stroke:none"
         id="path84"
         inkscape:connector-curvature="0" /><path
         d="m 235,156.641 -0.121,-0.961 -0.359,-0.961 -0.598,-0.84 -0.844,-0.719 -0.957,-0.48 -0.961,-0.602 -2.281,-0.359 -0.359,1.32 2.16,0.359 0.601,0.243 0.719,0.359 0.48,0.602 0.481,0.718 0.238,0.602 0.242,0.84 1.559,-0.121"
         style="fill:#000000;fill-opacity:1;fill-rule:nonzero;stroke:none"
         id="path86"
         inkscape:connector-curvature="0" /><path
         d="m 235,156.762 0,-0.121 -1.559,0.121 0,-0.242 1.559,0.242"
         style="fill:#000000;fill-opacity:1;fill-rule:nonzero;stroke:none"
         id="path88"
         inkscape:connector-curvature="0" /><path
         d="m 228.52,151.719 -2.282,0.359 -1.918,1.082 -0.961,0.719 -0.48,0.84 -0.481,1.801 1.563,0.242 0.359,-1.684 0.36,-0.598 0.718,-0.359 1.442,-0.84 2.039,-0.242 -0.359,-1.32"
         style="fill:#000000;fill-opacity:1;fill-rule:nonzero;stroke:none"
         id="path90"
         inkscape:connector-curvature="0" /><path
         d="m 228.879,151.719 -0.359,0 0.359,1.32 -0.359,0 0.359,-1.32"
         style="fill:#000000;fill-opacity:1;fill-rule:nonzero;stroke:none"
         id="path92"
         inkscape:connector-curvature="0" /><path
         d="m 222.398,156.52 0,0.121 1.563,-0.121 0,0.242 -1.563,-0.242"
         style="fill:#000000;fill-opacity:1;fill-rule:nonzero;stroke:none"
         id="path94"
         inkscape:connector-curvature="0" /><path
         d="m 320.559,294.039 0,0.481 0.121,0.48 0.242,0.719 0.238,0.359 0.36,0.363 0.359,0.36 0.359,0.238 0.723,0.602 0.84,0.48 1.199,0.238 2.16,0 1.078,-0.238 0.364,-0.242 0.476,-0.238 0.961,-0.602 0.242,-0.238 0.36,-0.36 0.238,-0.363 0.242,-0.359 0.117,-0.36 0.242,-0.359 0,-1.801 -0.242,-0.359 -0.117,-0.36 -0.242,-0.359 -0.238,-0.48 -0.602,-0.602 -0.961,-0.48 -0.84,-0.36 -1.078,-0.238 -1.082,-0.121 -1.078,0.121 -1.199,0.238 -0.36,0.121 -0.48,0.239 -0.723,0.48 -0.359,0.242 -0.359,0.36 -0.36,0.48 -0.238,0.359 -0.242,0.719 -0.121,0.481 0,0.359"
         style="fill:#000000;fill-opacity:1;fill-rule:evenodd;stroke:none"
         id="path96"
         inkscape:connector-curvature="0" /><path
         d="m 319.719,294.039 0,1.082 0.961,1.68 0.84,0.719 0.96,0.718 1.079,0.481 2.16,0.242 0.359,-1.199 -2.039,-0.242 -0.719,-0.36 -0.718,-0.601 -0.481,-0.481 -0.359,-0.598 -0.481,-0.601 0,-0.957 -1.562,0.117"
         style="fill:#000000;fill-opacity:1;fill-rule:nonzero;stroke:none"
         id="path98"
         inkscape:connector-curvature="0" /><path
         d="m 326.078,298.961 2.402,-0.359 1.918,-0.961 0.84,-0.961 0.602,-0.84 0.359,-1.68 -1.558,-0.238 -0.243,1.558 -0.476,0.598 -0.602,0.481 -1.441,0.961 -2.16,0.242 0.359,1.199"
         style="fill:#000000;fill-opacity:1;fill-rule:nonzero;stroke:none"
         id="path100"
         inkscape:connector-curvature="0" /><path
         d="m 325.719,298.961 0.359,0 -0.359,-1.199 0.359,0 -0.359,1.199"
         style="fill:#000000;fill-opacity:1;fill-rule:nonzero;stroke:none"
         id="path102"
         inkscape:connector-curvature="0" /><path
         d="m 332.199,294.039 -0.121,-0.961 -0.238,-0.84 -0.602,-0.957 -0.84,-0.722 -0.957,-0.481 -0.961,-0.476 -2.402,-0.481 -0.359,1.32 2.281,0.36 0.602,0.238 0.597,0.359 0.723,0.723 0.476,0.598 0.122,0.601 0.121,0.84 1.558,-0.121"
         style="fill:#000000;fill-opacity:1;fill-rule:nonzero;stroke:none"
         id="path104"
         inkscape:connector-curvature="0" /><path
         d="m 332.199,294.16 0,-0.121 -1.558,0.121 0,-0.238 1.558,0.238"
         style="fill:#000000;fill-opacity:1;fill-rule:nonzero;stroke:none"
         id="path106"
         inkscape:connector-curvature="0" /><path
         d="m 325.719,289.121 -2.278,0.481 -1.8,0.957 -0.961,0.722 -0.481,0.957 -0.48,1.684 1.562,0.238 0.481,-1.558 0.359,-0.602 0.481,-0.48 1.437,-0.84 2.039,-0.239 -0.359,-1.32"
         style="fill:#000000;fill-opacity:1;fill-rule:nonzero;stroke:none"
         id="path108"
         inkscape:connector-curvature="0" /><path
         d="m 326.078,289.121 -0.359,0 0.359,1.32 -0.359,0 0.359,-1.32"
         style="fill:#000000;fill-opacity:1;fill-rule:nonzero;stroke:none"
         id="path110"
         inkscape:connector-curvature="0" /><path
         d="m 319.719,293.922 0,0.117 1.562,-0.117 0,0.238 -1.562,-0.238"
         style="fill:#000000;fill-opacity:1;fill-rule:nonzero;stroke:none"
         id="path112"
         inkscape:connector-curvature="0" /><path
         d="m 417.762,397.121 0.238,0.481 0,0.359 0.121,0.359 0.238,0.602 0.243,0.359 0.238,0.239 0.238,0.359 0.363,0.242 0.84,0.598 0.957,0.359 0.961,0.363 2.281,0 0.961,-0.363 0.481,-0.238 0.598,-0.121 0.718,-0.598 0.364,-0.242 0.597,-0.598 0.242,-0.359 0.118,-0.602 0.121,-0.359 0.242,-0.359 0,-0.84 -0.242,-0.481 -0.121,-0.359 -0.118,-0.481 -0.242,-0.363 -0.238,-0.359 -0.359,-0.36 -0.364,-0.238 -0.718,-0.48 -1.079,-0.36 -0.961,-0.359 -1.082,-0.121 -1.199,0.121 -0.961,0.359 -0.476,0.117 -0.481,0.243 -0.84,0.48 -0.363,0.238 -0.476,0.719 -0.243,0.363 -0.238,0.481 -0.121,0.359 0,0.481 -0.238,0.359"
         style="fill:#000000;fill-opacity:1;fill-rule:evenodd;stroke:none"
         id="path114"
         inkscape:connector-curvature="0" /><path
         d="m 416.922,397.121 0.117,0.957 0.481,1.082 0.601,0.719 0.719,0.723 0.961,0.597 1.199,0.602 2.039,0.359 0.481,-1.32 -2.04,-0.36 -0.718,-0.242 -0.84,-0.476 -0.481,-0.602 -0.363,-0.48 -0.359,-0.84 -0.117,-0.84 -1.68,0.121"
         style="fill:#000000;fill-opacity:1;fill-rule:nonzero;stroke:none"
         id="path116"
         inkscape:connector-curvature="0" /><path
         d="m 423.52,402.16 2.16,-0.48 2.039,-0.961 0.84,-0.957 0.722,-0.723 0.36,-1.801 -1.68,-0.238 -0.242,1.68 -0.481,0.48 -0.476,0.602 -1.684,0.718 -2.039,0.36 0.481,1.32"
         style="fill:#000000;fill-opacity:1;fill-rule:nonzero;stroke:none"
         id="path118"
         inkscape:connector-curvature="0" /><path
         d="m 423.039,402.16 0.481,0 -0.481,-1.32 0.481,0 -0.481,1.32"
         style="fill:#000000;fill-opacity:1;fill-rule:nonzero;stroke:none"
         id="path120"
         inkscape:connector-curvature="0" /><path
         d="m 429.641,397.121 -0.121,-0.961 -0.239,-0.961 -0.722,-0.84 -0.84,-0.718 -0.84,-0.481 -1.199,-0.601 -2.16,-0.36 -0.481,1.321 2.16,0.359 0.723,0.242 0.719,0.359 0.597,0.598 0.481,0.602 0.121,0.718 0.121,0.84 1.68,-0.117"
         style="fill:#000000;fill-opacity:1;fill-rule:nonzero;stroke:none"
         id="path122"
         inkscape:connector-curvature="0" /><path
         d="m 429.641,397.238 0,-0.117 -1.68,0.117 0,-0.238 1.68,0.238"
         style="fill:#000000;fill-opacity:1;fill-rule:nonzero;stroke:none"
         id="path124"
         inkscape:connector-curvature="0" /><path
         d="m 423.039,392.199 -2.16,0.36 -1.918,1.082 -0.84,0.718 -0.601,0.84 -0.598,1.801 1.68,0.238 0.476,-1.679 0.363,-0.598 0.481,-0.359 1.558,-0.84 2.04,-0.242 -0.481,-1.321"
         style="fill:#000000;fill-opacity:1;fill-rule:nonzero;stroke:none"
         id="path126"
         inkscape:connector-curvature="0" /><path
         d="m 423.52,392.199 -0.481,0 0.481,1.321 -0.481,0 0.481,-1.321"
         style="fill:#000000;fill-opacity:1;fill-rule:nonzero;stroke:none"
         id="path128"
         inkscape:connector-curvature="0" /><path
         d="m 416.922,397 0,0.121 1.68,-0.121 0,0.238 -1.68,-0.238"
         style="fill:#000000;fill-opacity:1;fill-rule:nonzero;stroke:none"
         id="path130"
         inkscape:connector-curvature="0" /><path
         d="m 515.199,465.879 0,0.359 0.242,0.961 0.239,0.36 0.121,0.363 0.597,0.598 0.364,0.359 0.957,0.48 0.84,0.481 0.961,0.238 1.199,0.121 1.082,-0.121 1.078,-0.238 0.48,-0.121 0.481,-0.36 0.719,-0.48 0.363,-0.359 0.238,-0.239 0.481,-0.359 0.238,-0.363 0.121,-0.36 0.121,-0.48 0.117,-0.481 0,-0.84 -0.117,-0.359 -0.121,-0.359 -0.121,-0.602 -0.238,-0.359 -0.481,-0.239 -0.238,-0.359 -0.363,-0.242 -0.719,-0.598 -0.961,-0.359 -1.078,-0.242 -2.281,0 -0.961,0.242 -0.481,0.238 -0.359,0.121 -0.957,0.598 -0.364,0.242 -0.238,0.359 -0.359,0.239 -0.121,0.359 -0.239,0.602 -0.242,0.718 0,0.481"
         style="fill:#000000;fill-opacity:1;fill-rule:evenodd;stroke:none"
         id="path132"
         inkscape:connector-curvature="0" /><path
         d="m 514.359,465.879 0.121,1.082 0.961,1.68 0.719,0.597 0.961,0.723 1.199,0.48 2.16,0.36 0.36,-1.321 -2.039,-0.359 -0.84,-0.242 -0.602,-0.481 -0.597,-0.476 -0.364,-0.602 -0.359,-0.718 -0.117,-0.84 -1.563,0.117"
         style="fill:#000000;fill-opacity:1;fill-rule:nonzero;stroke:none"
         id="path134"
         inkscape:connector-curvature="0" /></g><g
       id="g144"><g
         id="g146"><g
           id="g148"
           clip-path="url(#clipPath150)"><g
             id="g154"><path
               d="m 520.84,470.801 2.281,-0.481 1.918,-0.961 0.84,-0.839 0.601,-0.84 0.481,-1.68 -1.563,-0.238 -0.476,1.558 -0.481,0.602 -0.363,0.476 -1.68,0.723 -1.918,0.359 0.36,1.321"
               style="fill:#000000;fill-opacity:1;fill-rule:nonzero;stroke:none"
               id="path156"
               inkscape:connector-curvature="0" /></g></g></g></g><path
       d="m 520.48,470.801 0.36,0 -0.36,-1.321 0.36,0 -0.36,1.321"
       style="fill:#000000;fill-opacity:1;fill-rule:nonzero;stroke:none"
       id="path158"
       inkscape:connector-curvature="0" /><g
       id="g160"><g
         id="g162"><g
           id="g164"
           clip-path="url(#clipPath166)"><g
             id="g170"><path
               d="m 526.961,465.879 -0.121,-0.957 -0.36,-0.961 -0.601,-0.84 -0.84,-0.723 -0.84,-0.597 -1.078,-0.602 -2.281,-0.238 -0.36,1.32 2.161,0.239 0.718,0.242 0.602,0.476 0.48,0.602 0.481,0.719 0.238,0.601 0.238,0.84 1.563,-0.121"
               style="fill:#000000;fill-opacity:1;fill-rule:nonzero;stroke:none"
               id="path172"
               inkscape:connector-curvature="0" /><path
               d="m 526.961,466 0,-0.121 -1.563,0.121 0,-0.238 1.563,0.238"
               style="fill:#000000;fill-opacity:1;fill-rule:nonzero;stroke:none"
               id="path174"
               inkscape:connector-curvature="0" /></g></g></g></g><path
       d="m 520.48,460.961 -2.281,0.238 -1.918,1.199 -0.84,0.723 -0.48,0.84 -0.602,1.801 1.563,0.238 0.476,-1.559 0.364,-0.722 0.597,-0.36 1.442,-0.961 2.039,-0.117 -0.36,-1.32"
       style="fill:#000000;fill-opacity:1;fill-rule:nonzero;stroke:none"
       id="path176"
       inkscape:connector-curvature="0" /><path
       d="m 520.84,460.961 -0.36,0 0.36,1.32 -0.36,0 0.36,-1.32"
       style="fill:#000000;fill-opacity:1;fill-rule:nonzero;stroke:none"
       id="path178"
       inkscape:connector-curvature="0" /><path
       d="m 514.359,465.762 0,0.117 1.563,-0.117 0,0.238 -1.563,-0.238"
       style="fill:#000000;fill-opacity:1;fill-rule:nonzero;stroke:none"
       id="path180"
       inkscape:connector-curvature="0" /><path
       d="m 128.824,60.707 1.68,0 0,-8.641 -1.68,0 0,8.641 z"
       style="fill:#000000;fill-opacity:1;fill-rule:evenodd;stroke:none"
       id="path182"
       inkscape:connector-curvature="0" /><path
       d="m 226.289,61.086 1.797,0 0,-8.641 -1.797,0 0,8.641 z"
       style="fill:#000000;fill-opacity:1;fill-rule:evenodd;stroke:none"
       id="path184"
       inkscape:connector-curvature="0" /><path
       d="m 323.418,61.457 1.801,0 0,-8.641 -1.801,0 0,8.641 z"
       style="fill:#000000;fill-opacity:1;fill-rule:evenodd;stroke:none"
       id="path186"
       inkscape:connector-curvature="0" /><path
       d="m 421.094,61.836 1.68,0 0,-8.641 -1.68,0 0,8.641 z"
       style="fill:#000000;fill-opacity:1;fill-rule:evenodd;stroke:none"
       id="path188"
       inkscape:connector-curvature="0" /><path
       d="m 16.344,259.383 11.398,0 0,-0.961 -11.398,0 0,0.961 z"
       style="fill:#ffffff;fill-opacity:1;fill-rule:evenodd;stroke:none"
       id="path190"
       inkscape:connector-curvature="0" /><path
       d="m 16.719,243.879 11.402,0 0,-0.84 -11.402,0 0,0.84 z"
       style="fill:#ffffff;fill-opacity:1;fill-rule:evenodd;stroke:none"
       id="path192"
       inkscape:connector-curvature="0" /><path
       d="m 27.762,258.762 0.84,0 0,-15.242 -0.84,0 0,15.242 z"
       style="fill:#ffffff;fill-opacity:1;fill-rule:evenodd;stroke:none"
       id="path194"
       inkscape:connector-curvature="0" /><path
       d="m 28.121,243.039 0.481,0 0,0.481 -0.84,0 0.359,0.359 0,-0.84"
       style="fill:#ffffff;fill-opacity:1;fill-rule:nonzero;stroke:none"
       id="path196"
       inkscape:connector-curvature="0" /><path
       d="m 28.602,258.762 0,0.476 -0.481,0 0,-0.957 -0.359,0.481 0.84,0"
       style="fill:#ffffff;fill-opacity:1;fill-rule:nonzero;stroke:none"
       id="path198"
       inkscape:connector-curvature="0" /><path
       d="m 299.453,43.594 3.598,0 -3.598,-9 -3.48,9 3.48,0"
       style="fill:#a94300;fill-opacity:1;fill-rule:evenodd;stroke:none"
       id="path200"
       inkscape:connector-curvature="0" /><path
       d="m 31.238,433.602 8.883,0 0,-1.441 -8.883,0 0,1.441 z"
       style="fill:#000000;fill-opacity:1;fill-rule:evenodd;stroke:none"
       id="path202"
       inkscape:connector-curvature="0" /><path
       d="m 31.238,468.16 8.883,0 0,-1.559 -8.883,0 0,1.559 z"
       style="fill:#000000;fill-opacity:1;fill-rule:evenodd;stroke:none"
       id="path204"
       inkscape:connector-curvature="0" /><path
       d="m 30.77,502.98 8.879,0 0,-1.559 -8.879,0 0,1.559 z"
       style="fill:#000000;fill-opacity:1;fill-rule:evenodd;stroke:none"
       id="path206"
       inkscape:connector-curvature="0" /><g
       id="g208"><path
         d="m 30.844,398.395 1.761,0 -0.132,75.75 -0.274,75.582 -1.629,0 0.137,-75.582 0.137,-75.75"
         style="fill:#000000;fill-opacity:1;fill-rule:nonzero;stroke:none"
         id="path210"
         inkscape:connector-curvature="0" /><text
         transform="matrix(1,0,0,-1,12.835786,46.812847)"
         id="text212"><tspan
           style="font-size:25.60000038px;font-variant:normal;font-weight:normal;writing-mode:lr-tb;fill:#000000;fill-opacity:1;fill-rule:nonzero;stroke:none;font-family:TG Termes Math;-inkscape-font-specification:TGTermesMath-Regular"
           x="0"
           y="0"
           id="tspan214">0</tspan></text>
</g><g
       transform="matrix(0.69329409,0,0,-0.6442176,115.43521,103.08471)"
       id="g3298"><g
         style="font-style:normal;font-variant:normal;font-weight:normal;font-stretch:normal;letter-spacing:normal;word-spacing:normal;text-anchor:start;fill:none;stroke:#000000;stroke-linecap:butt;stroke-linejoin:miter;stroke-miterlimit:10.43299961;stroke-opacity:1;stroke-dasharray:none;stroke-dashoffset:0"
         id="content"
         transform="matrix(0.9,0,0,-0.9,-157.5,494.0625)"
         xml:space="preserve"
         stroke-miterlimit="10.433"
         font-style="normal"
         font-variant="normal"
         font-weight="normal"
         font-stretch="normal"
         font-size-adjust="none"
         letter-spacing="normal"
         word-spacing="normal"><path
           style="fill:#000000;stroke-width:0"
           inkscape:connector-curvature="0"
           d="m 457.75,400.12 -0.03,-0.15 -0.04,-0.15 -0.03,-0.14 -0.03,-0.13 -0.04,-0.13 -0.03,-0.11 -0.04,-0.12 -0.03,-0.1 -0.04,-0.1 -0.04,-0.09 -0.04,-0.09 -0.05,-0.08 -0.05,-0.07 -0.05,-0.07 -0.06,-0.07 -0.06,-0.06 -0.07,-0.05 -0.07,-0.05 -0.08,-0.04 -0.09,-0.04 -0.09,-0.04 -0.1,-0.03 -0.11,-0.03 -0.12,-0.02 -0.13,-0.02 -0.06,-0.01 -0.07,-0.01 -0.07,-0.01 -0.08,-0.01 -0.07,0 -0.08,-0.01 -0.08,0 -0.09,-0.01 -0.08,0 -0.09,0 -0.1,0 -0.09,0 -0.1,-0.01 -0.1,0 c -0.6,0 -1.14,0 -1.14,-0.93 0,-0.41 0.25,-0.61 0.64,-0.61 1.36,0 2.79,0.15 4.18,0.15 1.64,0 3.35,-0.15 4.94,-0.15 0.25,0 0.89,0 0.89,1 0,0.54 -0.5,0.54 -1.19,0.54 -2.5,0 -2.5,0.36 -2.5,0.8 0,0.61 2.1,8.72 2.46,9.97 0.64,-1.44 2.03,-3.19 4.58,-3.19 l -0.05,1.1 c -3.3,0 -3.94,4.14 -3.94,4.43 0,0.1 0,0.21 0.14,0.8 l 2.46,9.77 c 0.34,1.34 1.68,2.73 2.57,3.48 1.75,1.55 3.21,1.89 4.05,1.89 1.98,0 3.19,-1.73 3.19,-4.69 0,-2.93 -1.64,-8.65 -2.55,-10.56 -1.69,-3.48 -4.08,-5.12 -5.92,-5.12 l 0.05,-1.1 c 5.78,0 12,7.27 12,14.6 0,4.68 -2.83,7.96 -6.63,7.96 -2.48,0 -4.87,-1.78 -6.51,-3.73 -0.5,2.69 -2.65,3.73 -4.49,3.73 -2.3,0 -3.25,-1.93 -3.69,-2.82 -0.9,-1.71 -1.54,-4.69 -1.54,-4.85 0,-0.5 0.5,-0.5 0.59,-0.5 0.5,0 0.55,0.07 0.84,1.16 0.86,3.53 1.85,5.92 3.64,5.92 0.85,0 1.55,-0.39 1.55,-2.28 0,-1.16 -0.15,-1.7 -0.34,-2.55 z"
           id="path3301" /><path
           style="fill:#000000;stroke-width:0"
           inkscape:connector-curvature="0"
           d="m 491.51,421.9 0,0.01 0,0 0,0 0,0.01 0.01,0 0,0.01 0,0.01 0,0 0.01,0.01 0,0.01 0,0.01 0.01,0.02 0,0.02 0.01,0.02 0,0.02 0.01,0.02 0.01,0.02 0,0.03 0.01,0.02 0.01,0.05 0.01,0.04 0.01,0.03 0,0.02 0.01,0.02 0,0.02 0.01,0.02 0,0.02 0,0.02 0.01,0.01 0,0.01 0,0.01 0,0 0,0.01 0,0 0.01,0.01 0,0 0,0.01 0,0 0,0 0,0.01 0,0 c 0,0.19 -0.14,0.5 -0.56,0.5 -0.69,0 -3.58,-0.28 -4.46,-0.36 -0.28,-0.03 -0.76,-0.06 -0.76,-0.8 0,-0.48 0.48,-0.48 0.9,-0.48 1.68,0 1.68,-0.25 1.68,-0.53 0,-0.24 -0.08,-0.46 -0.15,-0.77 l -4.92,-19.72 c -0.17,-0.62 -0.17,-0.68 -0.17,-0.76 0,-0.52 0.42,-1.11 1.19,-1.11 0.94,0 1.39,0.69 1.61,1.45 0.06,0.14 1.56,6.28 1.7,6.77 2.47,-0.25 4.45,-1.05 4.45,-2.86 0,-0.17 0,-0.35 -0.06,-0.69 -0.14,-0.53 -0.14,-0.7 -0.14,-1.09 0,-2.47 2.02,-3.58 3.69,-3.58 3.39,0 4.44,5.29 4.44,5.33 0,0.45 -0.46,0.45 -0.57,0.45 -0.48,0 -0.53,-0.17 -0.7,-0.84 -0.41,-1.5 -1.36,-3.97 -3.06,-3.97 -0.94,0 -1.22,0.87 -1.22,1.81 0,0.59 0,0.66 0.2,1.56 0.05,0.11 0.19,0.7 0.19,1.1 0,3.09 -4.19,3.57 -5.66,3.68 1.02,0.63 2.3,1.78 2.89,2.3 1.79,1.67 3.54,3.31 5.47,3.31 0.42,0 0.88,-0.11 1.16,-0.45 -1.5,-0.25 -1.81,-1.42 -1.81,-1.95 0,-0.77 0.59,-1.29 1.39,-1.29 0.95,0 1.98,0.77 1.98,2.22 0,1.16 -0.83,2.44 -2.67,2.44 -1.98,0 -3.8,-1.42 -5.58,-3.06 -1.47,-1.39 -2.61,-2.47 -4.05,-3.06 z"
           id="path3303" /></g></g><path
       id="path3529"
       d="m 11.579841,266.58916 0.05311,0.20543 0.02656,0.0999 0.03186,0.0944 0.03187,0.0999 0.03718,0.0944 0.03718,0.0888 0.04249,0.0888 0.04249,0.0888 0.0478,0.0888 0.05311,0.0833 0.05311,0.0777 0.06373,0.0777 0.06373,0.0777 0.06904,0.0722 0.07966,0.0666 0.07966,0.0666 0.08498,0.0611 0.0956,0.0611 0.0956,0.0611 0.106218,0.05 0.11153,0.05 0.122152,0.05 0.122152,0.0389 0.138084,0.0389 0.138085,0.0389 0.148707,0.0278 0.159328,0.0278 0.164639,0.0222 0.175262,0.0222 0.185883,0.0167 0.0956,0.006 0.100908,0 c 0.132773,0 0.446119,0.0278 0.446119,0.55522 0,0.0278 0,0.30537 -0.3399,0.30537 -0.881617,0 -1.800411,-0.0888 -2.671406,-0.0888 -0.902861,0 -1.826966,0.0888 -2.708583,0.0888 -0.1540174,0 -0.4726742,0 -0.4726742,-0.55522 0,-0.30537 0.2655473,-0.30537 0.4726742,-0.30537 1.51362,-0.0222 1.805722,-0.60519 1.805722,-1.21038 0,-0.0888 -0.05311,-0.50525 -0.07966,-0.58298 L 7.9312205,254.52978 2.0785576,268.9655 c -0.2177488,0.4997 -0.2389925,0.52746 -0.8444404,0.52746 H -2.308284 c -0.5310946,0 -0.7753982,0 -0.7753982,-0.55522 0,-0.30537 0.2443036,-0.30537 0.7382216,-0.30537 0.1327736,0 1.80041077,0 1.80041077,-0.24985 L -4.087451,253.53039 c -0.2655473,-1.11044 -0.7116668,-1.99324 -2.8519782,-2.07097 -0.1699503,0 -0.4567414,-0.0278 -0.4567414,-0.55522 0,-0.19433 0.1327737,-0.30537 0.3452115,-0.30537 0.8497515,0 1.7685452,0.0888 2.6501623,0.0888 0.8975499,0 1.8482093,-0.0888 2.7192045,-0.0888 0.1327736,0 0.4726742,0 0.4726742,0.55522 0,0.27761 -0.2283707,0.30537 -0.5204728,0.30537 -1.5348634,0.05 -1.7526122,0.65516 -1.7526122,1.21038 0,0.19433 0.026555,0.33313 0.1115298,0.63295 l 3.48929175,14.61339 c 0.11152988,-0.16657 0.11152988,-0.21654 0.24430353,-0.49415 l 6.58557342,-16.2957 c 0.1858831,-0.47749 0.2602364,-0.52746 0.4992289,-0.52746 0.2921021,0 0.2921021,0.0888 0.4248758,0.58298 z"
       inkscape:connector-curvature="0"
       style="font-style:normal;font-variant:normal;font-weight:normal;font-stretch:normal;letter-spacing:normal;word-spacing:normal;text-anchor:start;fill:#000000;stroke:#000000;stroke-width:0;stroke-linecap:butt;stroke-linejoin:miter;stroke-miterlimit:10.43299961;stroke-opacity:1;stroke-dasharray:none;stroke-dashoffset:0" /><path
       id="path3531"
       d="m 18.654021,259.31578 0,0.006 0,0 0,0 0,0.006 0.0053,0 0,0.006 0,0.006 0,0 0.0053,0.006 0,0.006 0,0.006 0.0053,0.0111 0,0.0111 0.0053,0.0111 0,0.0111 0.0053,0.0111 0.0053,0.0111 0,0.0167 0.0053,0.0111 0.0053,0.0278 0.0053,0.0222 0.0053,0.0167 0,0.0111 0.0053,0.0111 0,0.0111 0.0053,0.0111 0,0.0111 0,0.0111 0.0053,0.006 0,0.006 0,0.006 0,0 0,0.006 0,0 0.0053,0.006 0,0 0,0.006 0,0 0,0 0,0.006 0,0 c 0,0.10549 -0.07435,0.27761 -0.297413,0.27761 -0.366455,0 -1.901318,-0.15546 -2.368682,-0.19988 -0.148706,-0.0166 -0.403632,-0.0333 -0.403632,-0.44417 0,-0.26651 0.254926,-0.26651 0.477985,-0.26651 0.892239,0 0.892239,-0.1388 0.892239,-0.29427 0,-0.13325 -0.04249,-0.2554 -0.07966,-0.42751 l -2.612985,-10.94894 c -0.09029,-0.34424 -0.09029,-0.37755 -0.09029,-0.42197 0,-0.28871 0.223059,-0.61629 0.632002,-0.61629 0.499229,0 0.738222,0.3831 0.855063,0.80507 0.03186,0.0777 0.828507,3.48678 0.90286,3.75883 1.311804,-0.1388 2.363372,-0.58298 2.363372,-1.58792 0,-0.0944 0,-0.19433 -0.03187,-0.38311 -0.07435,-0.29426 -0.07435,-0.38865 -0.07435,-0.60519 0,-1.37139 1.072811,-1.98768 1.959739,-1.98768 1.800411,0 2.35806,2.93711 2.35806,2.95932 0,0.24985 -0.244304,0.24985 -0.302724,0.24985 -0.254925,0 -0.28148,-0.0944 -0.371766,-0.46639 -0.217749,-0.83283 -0.722289,-2.20422 -1.62515,-2.20422 -0.499229,0 -0.647935,0.48304 -0.647935,1.00495 0,0.32758 0,0.36644 0.106219,0.86614 0.02655,0.0611 0.100908,0.38866 0.100908,0.61074 0,1.71563 -2.225287,1.98214 -3.005996,2.04321 0.541717,0.34979 1.221518,0.98829 1.534864,1.27701 0.950659,0.92722 1.880075,1.83778 2.905087,1.83778 0.22306,0 0.467363,-0.0611 0.61607,-0.24985 -0.796642,-0.13881 -0.961281,-0.78841 -0.961281,-1.08268 0,-0.42752 0.313345,-0.71624 0.738221,-0.71624 0.50454,0 1.051568,0.42752 1.051568,1.23259 0,0.64406 -0.440809,1.35474 -1.418023,1.35474 -1.051567,0 -2.01816,-0.78841 -2.963508,-1.69897 -0.780709,-0.77176 -1.386157,-1.3714 -2.150933,-1.69898 z"
       inkscape:connector-curvature="0"
       style="font-style:normal;font-variant:normal;font-weight:normal;font-stretch:normal;letter-spacing:normal;word-spacing:normal;text-anchor:start;fill:#000000;stroke:#000000;stroke-width:0;stroke-linecap:butt;stroke-linejoin:miter;stroke-miterlimit:10.43299961;stroke-opacity:1;stroke-dasharray:none;stroke-dashoffset:0" /><path
       id="path3529-4"
       d="m 21.183749,532.96673 0.05311,0.20543 0.02656,0.0999 0.03186,0.0944 0.03187,0.0999 0.03718,0.0944 0.03718,0.0888 0.04249,0.0888 0.04249,0.0888 0.0478,0.0888 0.05311,0.0833 0.05311,0.0777 0.06373,0.0777 0.06373,0.0777 0.06904,0.0722 0.07966,0.0666 0.07966,0.0666 0.08498,0.0611 0.0956,0.0611 0.0956,0.0611 0.106219,0.05 0.111529,0.05 0.122152,0.05 0.122152,0.0389 0.138084,0.0389 0.138086,0.0389 0.148706,0.0278 0.159328,0.0278 0.164639,0.0222 0.175263,0.0222 0.185882,0.0167 0.0956,0.006 0.100908,0 c 0.132774,0 0.446119,0.0278 0.446119,0.55522 -1.2e-5,0.0278 -1.2e-5,0.30537 -0.339912,0.30537 -0.881616,0 -1.800411,-0.0888 -2.671405,-0.0888 -0.902862,0 -1.826967,0.0888 -2.708583,0.0888 -0.154018,0 -0.472675,0 -0.472675,-0.55522 0,-0.30537 0.265547,-0.30537 0.472675,-0.30537 1.51362,-0.0222 1.805721,-0.60519 1.805721,-1.21038 0,-0.0888 -0.05311,-0.50525 -0.07966,-0.58298 l -2.958207,-12.30975 -5.852663,14.43572 c -0.217749,0.4997 -0.238992,0.52746 -0.84444,0.52746 H 7.2956252 c -0.5310946,0 -0.7753982,0 -0.7753982,-0.55522 0,-0.30537 0.2443036,-0.30537 0.7382216,-0.30537 0.1327736,0 1.8004108,0 1.8004108,-0.24985 L 5.5164582,519.90796 c -0.2655473,-1.11044 -0.7116668,-1.99324 -2.8519782,-2.07097 -0.1699503,0 -0.4567414,-0.0278 -0.4567414,-0.55522 0,-0.19433 0.1327737,-0.30537 0.3452115,-0.30537 0.8497516,0 1.7685453,0.0888 2.6501623,0.0888 0.8975499,0 1.8482093,-0.0888 2.7192045,-0.0888 0.1327736,0 0.4726742,0 0.4726742,0.55522 0,0.27761 -0.2283707,0.30537 -0.5204728,0.30537 -1.5348634,0.05 -1.7526122,0.65516 -1.7526122,1.21038 0,0.19433 0.026555,0.33313 0.1115298,0.63295 l 3.4892917,14.61339 c 0.11153,-0.16657 0.11153,-0.21654 0.2443036,-0.49415 l 6.5855738,-16.2957 c 0.185883,-0.47749 0.260236,-0.52746 0.499229,-0.52746 0.292102,0 0.292102,0.0888 0.424875,0.58298 z"
       inkscape:connector-curvature="0"
       style="font-style:normal;font-variant:normal;font-weight:normal;font-stretch:normal;letter-spacing:normal;word-spacing:normal;text-anchor:start;fill:#000000;stroke:#000000;stroke-width:0;stroke-linecap:butt;stroke-linejoin:miter;stroke-miterlimit:10.43299961;stroke-opacity:1;stroke-dasharray:none;stroke-dashoffset:0" /><text
       xml:space="preserve"
       style="font-size:25.60000038px;font-style:normal;font-variant:normal;font-weight:normal;font-stretch:normal;line-height:125%;letter-spacing:0px;word-spacing:0px;fill:#000000;fill-opacity:1;stroke:none;font-family:TG Termes Math;-inkscape-font-specification:TG Termes Math"
       x="583.01697"
       y="-31.49999"
       id="text3680"
       sodipodi:linespacing="125%"
       transform="scale(1,-1)"><tspan
         sodipodi:role="line"
         id="tspan3682"
         x="583.01697"
         y="-31.49999">X</tspan></text>
<path
       d="m 31.34437,543.81356 -5.51896,0 5.51896,13.80509 5.337967,-13.80509 -5.337967,0"
       style="fill:#000000;fill-opacity:1;fill-rule:evenodd;stroke:none"
       id="path200-3"
       inkscape:connector-curvature="0" /><path
       d="m 624.69915,54.367132 0,5.51896 13.80509,-5.51896 -13.80509,-5.33797 0,5.33797"
       style="fill:#000000;fill-opacity:1;fill-rule:evenodd;stroke:none"
       id="path200-3-1"
       inkscape:connector-curvature="0" /></g></svg>