<?xml version="1.0" encoding="UTF-8" standalone="no"?>
<!-- Created with Inkscape (http://www.inkscape.org/) -->

<svg
   xmlns:dc="http://purl.org/dc/elements/1.1/"
   xmlns:cc="http://creativecommons.org/ns#"
   xmlns:rdf="http://www.w3.org/1999/02/22-rdf-syntax-ns#"
   xmlns:svg="http://www.w3.org/2000/svg"
   xmlns="http://www.w3.org/2000/svg"
   xmlns:sodipodi="http://sodipodi.sourceforge.net/DTD/sodipodi-0.dtd"
   xmlns:inkscape="http://www.inkscape.org/namespaces/inkscape"
   id="svg2"
   version="1.1"
   inkscape:version="0.48.4 r9939"
   width="368.4115"
   height="265.7879"
   xml:space="preserve"
   sodipodi:docname="probabilidad.pdf"><sodipodi:namedview
     pagecolor="#ffffff"
     bordercolor="#666666"
     borderopacity="1"
     objecttolerance="10"
     gridtolerance="10"
     guidetolerance="10"
     inkscape:pageopacity="0"
     inkscape:pageshadow="2"
     inkscape:window-width="1333"
     inkscape:window-height="744"
     id="namedview4"
     showgrid="false"
     inkscape:zoom="2.8118028"
     inkscape:cx="284.97212"
     inkscape:cy="159.56711"
     inkscape:window-x="33"
     inkscape:window-y="24"
     inkscape:window-maximized="1"
     inkscape:current-layer="g7497"
     fit-margin-top="0"
     fit-margin-left="0"
     fit-margin-right="0"
     fit-margin-bottom="0" /><metadata
     id="metadata8"><rdf:RDF><cc:Work
         rdf:about=""><dc:format>image/svg+xml</dc:format><dc:type
           rdf:resource="http://purl.org/dc/dcmitype/StillImage" /><dc:title></dc:title></cc:Work></rdf:RDF></metadata><defs
     id="defs6"><clipPath
       id="clipPath98"
       clipPathUnits="userSpaceOnUse"><path
         id="path100"
         d="m 0.641,224.922 312.359,0 0,-224.281 -312.359,0 0,224.281 z"
         inkscape:connector-curvature="0" /></clipPath><clipPath
       id="clipPath108"
       clipPathUnits="userSpaceOnUse"><path
         id="path110"
         d="m 108,120 13,0 0,10 -13,0 0,-10 z"
         inkscape:connector-curvature="0" /></clipPath><clipPath
       id="clipPath140"
       clipPathUnits="userSpaceOnUse"><path
         id="path142"
         d="m 126,126 4,0 0,4 -4,0 0,-4 z"
         inkscape:connector-curvature="0" /></clipPath><clipPath
       id="clipPath156"
       clipPathUnits="userSpaceOnUse"><path
         id="path158"
         d="m 117,119 16,0 0,11 -16,0 0,-11 z"
         inkscape:connector-curvature="0" /></clipPath><clipPath
       id="clipPath188"
       clipPathUnits="userSpaceOnUse"><path
         id="path190"
         d="m 129,120 10,0 0,10 -10,0 0,-10 z"
         inkscape:connector-curvature="0" /></clipPath><clipPath
       id="clipPath204"
       clipPathUnits="userSpaceOnUse"><path
         id="path206"
         d="m 107,129 38,0 0,13 -38,0 0,-13 z"
         inkscape:connector-curvature="0" /></clipPath><clipPath
       id="clipPath308"
       clipPathUnits="userSpaceOnUse"><path
         id="path310"
         d="m 141,132 4,0 0,4 -4,0 0,-4 z"
         inkscape:connector-curvature="0" /></clipPath><clipPath
       id="clipPath324"
       clipPathUnits="userSpaceOnUse"><path
         id="path326"
         d="m 117,141 25,0 0,13 -25,0 0,-13 z"
         inkscape:connector-curvature="0" /></clipPath><clipPath
       id="clipPath396"
       clipPathUnits="userSpaceOnUse"><path
         id="path398"
         d="m 141,141 4,0 0,4 -4,0 0,-4 z"
         inkscape:connector-curvature="0" /></clipPath><clipPath
       id="clipPath412"
       clipPathUnits="userSpaceOnUse"><path
         id="path414"
         d="m 141,144 5,0 0,5 -5,0 0,-5 z"
         inkscape:connector-curvature="0" /></clipPath><clipPath
       id="clipPath632"
       clipPathUnits="userSpaceOnUse"><path
         id="path634"
         d="m 1.84,206.199 311.16,0 0,-28.801 -311.16,0 0,28.801 z"
         inkscape:connector-curvature="0" /></clipPath><clipPath
       id="clipPath642"
       clipPathUnits="userSpaceOnUse"><path
         id="path644"
         d="m 38,179 12,0 0,23 -12,0 0,-23 z"
         inkscape:connector-curvature="0" /></clipPath><clipPath
       id="clipPath656"
       clipPathUnits="userSpaceOnUse"><path
         id="path658"
         d="m 220.719,224.922 92.281,0 0,-16.32 -92.281,0 0,16.32 z"
         inkscape:connector-curvature="0" /></clipPath><clipPath
       id="clipPath666"
       clipPathUnits="userSpaceOnUse"><path
         id="path668"
         d="m 240,211 1,0 0,1 -1,0 0,-1 z"
         inkscape:connector-curvature="0" /></clipPath><clipPath
       id="clipPath676"
       clipPathUnits="userSpaceOnUse"><path
         id="path678"
         d="m 111.039,14.801 201.961,0 0,-14.16 -201.961,0 0,14.16 z"
         inkscape:connector-curvature="0" /></clipPath><clipPath
       id="clipPath686"
       clipPathUnits="userSpaceOnUse"><path
         id="path688"
         d="m 131,0 3,0 0,3 -3,0 0,-3 z"
         inkscape:connector-curvature="0" /></clipPath><clipPath
       id="clipPath700"
       clipPathUnits="userSpaceOnUse"><path
         id="path702"
         d="m 183.641,14.441 129.359,0 0,-13.801 -129.359,0 0,13.801 z"
         inkscape:connector-curvature="0" /></clipPath><clipPath
       id="clipPath710"
       clipPathUnits="userSpaceOnUse"><path
         id="path712"
         d="m 204,4 4,0 0,2 -4,0 0,-2 z"
         inkscape:connector-curvature="0" /></clipPath><clipPath
       id="clipPath724"
       clipPathUnits="userSpaceOnUse"><path
         id="path726"
         d="m 158.32,198.641 154.68,0 0,-19.082 -154.68,0 0,19.082 z"
         inkscape:connector-curvature="0" /></clipPath><clipPath
       id="clipPath734"
       clipPathUnits="userSpaceOnUse"><path
         id="path736"
         d="m 182,180 36,0 0,16 -36,0 0,-16 z"
         inkscape:connector-curvature="0" /></clipPath><clipPath
       id="clipPath748"
       clipPathUnits="userSpaceOnUse"><path
         id="path750"
         d="m 100.602,99.879 212.398,0 0,-19.078 -212.398,0 0,19.078 z"
         inkscape:connector-curvature="0" /></clipPath><clipPath
       id="clipPath758"
       clipPathUnits="userSpaceOnUse"><path
         id="path760"
         d="m 124,82 4,0 0,11 -4,0 0,-11 z"
         inkscape:connector-curvature="0" /></clipPath><clipPath
       id="clipPath772"
       clipPathUnits="userSpaceOnUse"><path
         id="path774"
         d="m 0.641,160.84 312.359,0 0,-19.078 -312.359,0 0,19.078 z"
         inkscape:connector-curvature="0" /></clipPath><clipPath
       id="clipPath782"
       clipPathUnits="userSpaceOnUse"><path
         id="path784"
         d="m 17,142 88,0 0,16 -88,0 0,-16 z"
         inkscape:connector-curvature="0" /></clipPath><clipPath
       id="clipPath796"
       clipPathUnits="userSpaceOnUse"><path
         id="path798"
         d="m 37.719,163.48 275.281,0 0,-9.719 -275.281,0 0,9.719 z"
         inkscape:connector-curvature="0" /></clipPath><clipPath
       id="clipPath806"
       clipPathUnits="userSpaceOnUse"><path
         id="path808"
         d="m 49,155 1,0 0,1 -1,0 0,-1 z"
         inkscape:connector-curvature="0" /></clipPath><clipPath
       id="clipPath816"
       clipPathUnits="userSpaceOnUse"><path
         id="path818"
         d="m 179.68,120.52 133.32,0 0,-19.078 -133.32,0 0,19.078 z"
         inkscape:connector-curvature="0" /></clipPath><clipPath
       id="clipPath826"
       clipPathUnits="userSpaceOnUse"><path
         id="path828"
         d="m 203,102 72,0 0,16 -72,0 0,-16 z"
         inkscape:connector-curvature="0" /></clipPath><clipPath
       id="clipPath840"
       clipPathUnits="userSpaceOnUse"><path
         id="path842"
         d="m 241.84,200.441 71.16,0 0,-19.082 -71.16,0 0,19.082 z"
         inkscape:connector-curvature="0" /></clipPath><clipPath
       id="clipPath850"
       clipPathUnits="userSpaceOnUse"><path
         id="path852"
         d="m 265,184 35,0 0,13 -35,0 0,-13 z"
         inkscape:connector-curvature="0" /></clipPath><clipPath
       id="clipPath864"
       clipPathUnits="userSpaceOnUse"><path
         id="path866"
         d="m 0.641,224.922 312.359,0 0,-224.281 -312.359,0 0,224.281 z"
         inkscape:connector-curvature="0" /></clipPath><clipPath
       id="clipPath874"
       clipPathUnits="userSpaceOnUse"><path
         id="path876"
         d="m 279,186 12,0 0,8 -12,0 0,-8 z"
         inkscape:connector-curvature="0" /></clipPath><clipPath
       id="clipPath888"
       clipPathUnits="userSpaceOnUse"><path
         id="path890"
         d="m 279.641,187.238 33.359,0 0,-12 -33.359,0 0,12 z"
         inkscape:connector-curvature="0" /></clipPath><clipPath
       id="clipPath898"
       clipPathUnits="userSpaceOnUse"><path
         id="path900"
         d="m 294,176 2,0 0,7 -2,0 0,-7 z"
         inkscape:connector-curvature="0" /></clipPath></defs><g
     transform="matrix(1.25,0,0,-1.25,-6.4927995,272.07298)"
     inkscape:label="probabilidad"
     inkscape:groupmode="layer"
     id="g10"><g
       style="fill:#0066cc;fill-opacity:1"
       id="g16"
       transform="translate(4.5522396,226.9916)"><path
         d="m 89.918,-48.078 3.961,0.359 3.84,0.481 3.84,0.597 3.839,0.84 3.84,0.723 3.723,0.957 3.84,0.84 3.719,0.961 3.601,0.84 3.598,0.839 3.601,0.719 3.481,0.723 3.48,0.597 3.36,0.364 3.238,0.238 3.242,0.121 3.117,-0.121 3,-0.48 3,-0.598 2.883,-0.961 2.758,-1.199 2.519,-1.563 2.524,-1.918 2.519,-2.402 2.278,-2.641 2.16,-3.238 1.922,-3.602 1.918,-4.078 1.801,-4.558 1.558,-5.16 1.442,-5.641 1.32,-6.242 1.082,-7.078 0.719,-6.36 0.359,-5.761 0,-5.282 -0.48,-4.679 -0.719,-4.2 -1.082,-3.839 -1.438,-3.239 -1.679,-2.883 -1.922,-2.519 -2.282,-2.16 -2.519,-1.68 -2.758,-1.437 -3,-1.204 -3.242,-0.839 -3.359,-0.598 -3.598,-0.359 -3.723,-0.243 -3.84,0 -4.078,0.243 -4.082,0.238 -4.32,0.359 -4.32,0.481 -4.321,0.601 -4.558,0.481 -4.442,0.597 -4.558,0.481 -4.559,0.601 -4.441,0.36 -4.559,0.359 -4.441,0.238 -9.481,0 -2.879,-0.117 -11.761,0 -1.797,0.117 -1.801,0 -5.402,0.364 -1.797,0.117 -1.801,0.121 -1.68,0.238 -1.679,0.242 -1.684,0.36 -1.559,0.242 -1.558,0.359 -1.442,0.36 -1.441,0.48 -1.316,0.481 -1.321,0.476 -1.199,0.602 -1.082,0.601 -0.961,0.719 -8.758,6.602 -7.679,6.238 -6.602,5.762 -5.641,5.519 -4.679,5.039 -3.84,4.801 -3,4.32 -2.039,4.079 -1.442,3.718 -0.597,3.481 0,3.121 0.718,2.879 1.321,2.64 1.918,2.403 2.402,2.16 2.879,2.039 3.359,1.68 3.84,1.558 4.082,1.442 4.438,1.199 4.801,1.082 4.921,0.957 5.278,0.723 5.281,0.718 5.52,0.719 5.519,0.481 11.281,0.96 11.039,0.719 10.559,0.723 z"
         style="fill:#0066cc;fill-opacity:1;stroke:#1f1a17;stroke-width:0.23999999;stroke-linecap:round;stroke-linejoin:round;stroke-miterlimit:10;stroke-opacity:1;stroke-dasharray:none"
         id="path18"
         inkscape:connector-curvature="0" /></g><path
       d="m 148,145 -1.801,-0.84 -0.84,1.68 1.801,0.84 L 148,145"
       style="fill:#1f1a17;fill-opacity:1;fill-rule:nonzero;stroke:none"
       id="path20"
       inkscape:connector-curvature="0" /><path
       d="m 151.238,138.16 -1.797,-0.84 -0.839,1.68 1.796,0.84 0.84,-1.68"
       style="fill:#1f1a17;fill-opacity:1;fill-rule:nonzero;stroke:none"
       id="path22"
       inkscape:connector-curvature="0" /><path
       d="m 154.48,131.441 -1.8,-0.839 -0.84,1.679 1.801,0.84 0.839,-1.68"
       style="fill:#1f1a17;fill-opacity:1;fill-rule:nonzero;stroke:none"
       id="path24"
       inkscape:connector-curvature="0" /><path
       d="m 157.602,124.602 -1.801,-0.84 -0.723,1.679 1.801,0.84 0.723,-1.679"
       style="fill:#1f1a17;fill-opacity:1;fill-rule:nonzero;stroke:none"
       id="path26"
       inkscape:connector-curvature="0" /><path
       d="m 160.84,117.879 -1.801,-0.84 -0.84,1.68 1.801,0.84 0.84,-1.68"
       style="fill:#1f1a17;fill-opacity:1;fill-rule:nonzero;stroke:none"
       id="path28"
       inkscape:connector-curvature="0" /><path
       d="m 164.078,111.039 -1.797,-0.84 -0.84,1.68 1.797,0.961 0.84,-1.801"
       style="fill:#1f1a17;fill-opacity:1;fill-rule:nonzero;stroke:none"
       id="path30"
       inkscape:connector-curvature="0" /><path
       d="m 167.32,104.32 -1.8,-0.84 -0.84,1.68 1.8,0.84 0.84,-1.68"
       style="fill:#1f1a17;fill-opacity:1;fill-rule:nonzero;stroke:none"
       id="path32"
       inkscape:connector-curvature="0" /><path
       d="m 170.441,97.602 -1.679,-0.84 -0.84,1.679 1.797,0.84 0.722,-1.679"
       style="fill:#1f1a17;fill-opacity:1;fill-rule:nonzero;stroke:none"
       id="path34"
       inkscape:connector-curvature="0" /><path
       d="m 173.68,90.762 -1.801,-0.844 -0.719,1.684 1.801,0.839 0.719,-1.679"
       style="fill:#1f1a17;fill-opacity:1;fill-rule:nonzero;stroke:none"
       id="path36"
       inkscape:connector-curvature="0" /><path
       d="m 176.922,84.039 -1.801,-0.84 -0.84,1.68 1.797,0.84 0.844,-1.68"
       style="fill:#1f1a17;fill-opacity:1;fill-rule:nonzero;stroke:none"
       id="path38"
       inkscape:connector-curvature="0" /><path
       d="m 180.16,77.199 -1.801,-0.84 -0.839,1.68 1.8,0.84 0.84,-1.68"
       style="fill:#1f1a17;fill-opacity:1;fill-rule:nonzero;stroke:none"
       id="path40"
       inkscape:connector-curvature="0" /><path
       d="m 183.398,70.48 -1.918,-0.839 -0.718,1.679 1.797,0.84 0.839,-1.68"
       style="fill:#1f1a17;fill-opacity:1;fill-rule:nonzero;stroke:none"
       id="path42"
       inkscape:connector-curvature="0" /><path
       d="m 186.52,63.641 -1.801,-0.84 -0.719,1.679 1.801,0.84 0.719,-1.679"
       style="fill:#1f1a17;fill-opacity:1;fill-rule:nonzero;stroke:none"
       id="path44"
       inkscape:connector-curvature="0" /><path
       d="m 189.762,56.918 -1.801,-0.836 -0.84,1.68 1.918,0.84 0.723,-1.684"
       style="fill:#1f1a17;fill-opacity:1;fill-rule:nonzero;stroke:none"
       id="path46"
       inkscape:connector-curvature="0" /><path
       d="m 193,50.082 -1.801,-0.844 -0.84,1.68 1.801,0.844 0.84,-1.68"
       style="fill:#1f1a17;fill-opacity:1;fill-rule:nonzero;stroke:none"
       id="path48"
       inkscape:connector-curvature="0" /><path
       d="m 196.238,43.359 -1.797,-0.839 -0.839,1.679 1.796,0.84 0.84,-1.68"
       style="fill:#1f1a17;fill-opacity:1;fill-rule:nonzero;stroke:none"
       id="path50"
       inkscape:connector-curvature="0" /><path
       d="m 199.359,36.52 -1.8,-0.84 -0.719,1.679 1.801,0.961 0.718,-1.8"
       style="fill:#1f1a17;fill-opacity:1;fill-rule:nonzero;stroke:none"
       id="path52"
       inkscape:connector-curvature="0" /><path
       d="m 202.602,29.801 -1.801,-0.84 -0.723,1.68 1.801,0.839 0.723,-1.679"
       style="fill:#1f1a17;fill-opacity:1;fill-rule:nonzero;stroke:none"
       id="path54"
       inkscape:connector-curvature="0" /><path
       d="m 206.199,32.199 -0.719,-10.801 -8.761,6.364 9.48,4.437 -0.719,-10.801 0.719,10.801"
       style="fill:#1f1a17;fill-opacity:1;fill-rule:evenodd;stroke:none"
       id="path56"
       inkscape:connector-curvature="0" /><g
       style="fill:#a94300;fill-opacity:1"
       transform="translate(-2.0906771,225.60354)"
       id="g422"><path
         inkscape:connector-curvature="0"
         id="path424"
         style="fill:#a94300;fill-opacity:1;stroke:#1f1a17;stroke-width:0.23999999;stroke-linecap:round;stroke-linejoin:round;stroke-miterlimit:10;stroke-opacity:1;stroke-dasharray:none"
         d="m 126.281,-70.879 -4.679,-3.359 -3.84,-3.242 -3.364,-3 -2.636,-3 -2.043,-2.758 -1.438,-2.641 -0.961,-2.402 -0.48,-2.278 0,-2.16 0.359,-1.922 0.723,-1.8 1.199,-1.559 1.32,-1.32 1.68,-1.078 1.918,-0.961 2.16,-0.719 2.281,-0.363 2.399,-0.239 2.402,0 2.52,0.36 2.519,0.601 2.52,0.84 2.398,1.078 2.403,1.442 2.16,1.679 2.039,2.039 1.801,2.282 1.558,2.64 1.321,3 0.96,3.239 0.598,3.718 0.242,3.961 -0.121,0.723 -0.121,0.719 -0.117,0.718 -0.242,0.602 -0.36,0.598 -0.359,0.601 -1.441,1.442 -0.598,0.476 -0.602,0.481 -0.718,0.363 -0.719,0.359 -0.723,0.36 -0.719,0.238 -0.718,0.242 -0.84,0.238 -0.844,0.243 -0.84,0.117 -0.718,0.242 -0.84,0.117 -0.84,0 -0.84,0.121 -1.68,0 -0.718,-0.121 -0.84,-0.117 -0.723,-0.121 -0.719,-0.121 -0.718,-0.239 -0.602,-0.121 -0.719,-0.238" /></g><path
       inkscape:connector-curvature="0"
       id="path426"
       style="fill:#1f1a17;fill-opacity:1;fill-rule:evenodd;stroke:none"
       d="m 242.922,207.641 -7.922,3.839 -0.238,-8.878 8.16,5.039 -6,0.597 6,-0.597" /><path
       inkscape:connector-curvature="0"
       id="path428"
       style="fill:#1f1a17;fill-opacity:1;fill-rule:evenodd;stroke:none"
       d="m 230.922,208.84 -0.602,0.84 8.16,5.16 1.079,-1.68 -8.161,-5.16 -0.476,0.84" /><path
       inkscape:connector-curvature="0"
       id="path430"
       style="fill:#1f1a17;fill-opacity:1;fill-rule:nonzero;stroke:none"
       d="m 285.879,131.199 -46.32,74.641 -1.68,-1.078 46.32,-74.641 1.68,1.078" /><path
       inkscape:connector-curvature="0"
       id="path432"
       style="fill:#1f1a17;fill-opacity:1;fill-rule:evenodd;stroke:none"
       d="m 289,133.359 -0.238,-8.879 -7.922,3.84 8.16,5.039 -2.16,-5.64 2.16,5.64" /><path
       inkscape:connector-curvature="0"
       id="path434"
       style="fill:#1f1a17;fill-opacity:1;fill-rule:evenodd;stroke:none"
       d="m 284.68,121.961 0.601,-0.84 8.16,5.039 -1.082,1.801 -8.16,-5.16 0.481,-0.84" /><path
       inkscape:connector-curvature="0"
       id="path436"
       style="fill:#1f1a17;fill-opacity:1;fill-rule:evenodd;stroke:none"
       d="m 83.082,23.801 -9.602,-5.281 9.602,-5.161 0,10.442 -9.602,-5.281 9.602,5.281" /><path
       inkscape:connector-curvature="0"
       id="path438"
       style="fill:#1f1a17;fill-opacity:1;fill-rule:evenodd;stroke:none"
       d="m 82.238,19.602 182.402,0 0,-2.043 -182.402,0 0,2.043 z" /><path
       inkscape:connector-curvature="0"
       id="path440"
       style="fill:#1f1a17;fill-opacity:1;fill-rule:evenodd;stroke:none"
       d="m 263.801,23.801 9.48,-5.281 -9.48,-5.161 0,10.442 9.48,-5.281 -9.48,5.281" /><path
       inkscape:connector-curvature="0"
       id="path442"
       style="fill:#1f1a17;fill-opacity:1;fill-rule:evenodd;stroke:none"
       d="m 133.84,21.398 2.039,0 0,-7.797 -2.039,0 0,7.797 z" /><path
       inkscape:connector-curvature="0"
       id="path444"
       style="fill:#1f1a17;fill-opacity:1;fill-rule:evenodd;stroke:none"
       d="m 204.52,21.398 2.039,0 0,-7.797 -2.039,0 0,7.797 z" /><path
       inkscape:connector-curvature="0"
       id="path446"
       style="fill:#1f1a17;fill-opacity:1;fill-rule:nonzero;stroke:none"
       d="m 138.879,157.359 -0.238,-0.121 -1.68,-0.718 -1.801,-0.84 0.84,-1.801 1.68,0.723 1.8,0.839 0.122,0 -0.723,1.918" /><path
       inkscape:connector-curvature="0"
       id="path448"
       style="fill:#1f1a17;fill-opacity:1;fill-rule:nonzero;stroke:none"
       d="m 144.52,159.52 -0.598,-0.122 -1.684,-0.718 -1.558,-0.602 0.84,-1.797 1.441,0.598 1.68,0.601 0.48,0.239 -0.601,1.801" /><path
       inkscape:connector-curvature="0"
       id="path450"
       style="fill:#1f1a17;fill-opacity:1;fill-rule:nonzero;stroke:none"
       d="m 150.16,161.559 -0.84,-0.239 -1.8,-0.601 -1.2,-0.481 0.719,-1.797 1.199,0.36 1.684,0.597 0.84,0.243 -0.602,1.918" /><path
       inkscape:connector-curvature="0"
       id="path452"
       style="fill:#1f1a17;fill-opacity:1;fill-rule:nonzero;stroke:none"
       d="m 155.922,163.48 -1.203,-0.48 -1.797,-0.48 -0.844,-0.36 0.602,-1.801 0.84,0.243 1.8,0.597 1.2,0.36 -0.598,1.921" /><path
       inkscape:connector-curvature="0"
       id="path454"
       style="fill:#1f1a17;fill-opacity:1;fill-rule:nonzero;stroke:none"
       d="m 161.68,165.039 -1.559,-0.359 -1.801,-0.602 -0.48,-0.117 0.601,-1.922 0.36,0.121 1.801,0.602 1.679,0.359 -0.601,1.918" /><path
       inkscape:connector-curvature="0"
       id="path456"
       style="fill:#1f1a17;fill-opacity:1;fill-rule:nonzero;stroke:none"
       d="m 167.559,166.48 -0.118,0 -1.8,-0.359 -1.922,-0.48 -0.117,-0.121 0.597,-1.918 0.121,0 1.801,0.476 1.801,0.481 0.117,0 -0.48,1.921" /><path
       inkscape:connector-curvature="0"
       id="path458"
       style="fill:#1f1a17;fill-opacity:1;fill-rule:nonzero;stroke:none"
       d="m 173.441,167.801 -0.48,-0.121 -1.801,-0.36 -1.68,-0.359 0.481,-1.922 1.559,0.359 1.8,0.364 0.481,0.117 -0.36,1.922" /><path
       inkscape:connector-curvature="0"
       id="path460"
       style="fill:#1f1a17;fill-opacity:1;fill-rule:nonzero;stroke:none"
       d="m 179.32,168.879 -0.84,-0.117 -1.8,-0.364 -1.2,-0.238 0.36,-1.922 1.199,0.242 1.801,0.36 0.84,0.121 -0.36,1.918" /><path
       inkscape:connector-curvature="0"
       id="path462"
       style="fill:#1f1a17;fill-opacity:1;fill-rule:nonzero;stroke:none"
       d="m 185.32,169.84 -1.199,-0.121 -1.922,-0.36 -0.84,-0.121 0.36,-1.918 0.84,0.121 1.8,0.239 1.321,0.242 -0.36,1.918" /><path
       inkscape:connector-curvature="0"
       id="path464"
       style="fill:#1f1a17;fill-opacity:1;fill-rule:nonzero;stroke:none"
       d="m 191.32,170.68 -1.679,-0.239 -1.801,-0.242 -0.481,0 0.243,-2.039 0.476,0.121 1.801,0.239 1.68,0.242 -0.239,1.918" /><path
       inkscape:connector-curvature="0"
       id="path466"
       style="fill:#1f1a17;fill-opacity:1;fill-rule:nonzero;stroke:none"
       d="m 197.32,171.398 -0.121,0 -1.918,-0.238 -1.922,-0.238 -0.121,0 0.242,-1.922 0.122,0 1.918,0.238 1.8,0.121 0.121,0 -0.121,2.039" /><path
       inkscape:connector-curvature="0"
       id="path468"
       style="fill:#1f1a17;fill-opacity:1;fill-rule:nonzero;stroke:none"
       d="m 203.32,172 -0.601,-0.121 -1.797,-0.117 -1.684,-0.121 0.242,-2.039 1.559,0.117 1.922,0.242 0.48,0 -0.121,2.039" /><path
       inkscape:connector-curvature="0"
       id="path470"
       style="fill:#1f1a17;fill-opacity:1;fill-rule:nonzero;stroke:none"
       d="m 209.32,172.48 -0.961,-0.121 -1.918,-0.121 -1.203,-0.117 0.242,-1.922 1.2,0 1.8,0.242 0.961,0 -0.121,2.039" /><path
       inkscape:connector-curvature="0"
       id="path472"
       style="fill:#1f1a17;fill-opacity:1;fill-rule:nonzero;stroke:none"
       d="m 215.199,172.84 -3.121,-0.238 -0.84,0 0.121,-2.043 0.84,0.121 3.121,0.121 -0.121,2.039" /><path
       inkscape:connector-curvature="0"
       id="path474"
       style="fill:#1f1a17;fill-opacity:1;fill-rule:nonzero;stroke:none"
       d="m 221.32,173.078 -1.8,0 -2.282,-0.117 0.121,-2.039 2.282,0.117 1.679,0 0,2.039" /><path
       inkscape:connector-curvature="0"
       id="path476"
       style="fill:#1f1a17;fill-opacity:1;fill-rule:nonzero;stroke:none"
       d="m 227.32,173.32 -0.359,0 -3.723,-0.121 0.121,-2.039 3.719,0.121 0.242,0 0,2.039" /><path
       inkscape:connector-curvature="0"
       id="path478"
       style="fill:#1f1a17;fill-opacity:1;fill-rule:nonzero;stroke:none"
       d="m 233.32,173.441 -2.64,0 -1.442,-0.121 0.121,-1.922 1.321,0 2.64,0.122 0,1.921" /><path
       inkscape:connector-curvature="0"
       id="path480"
       style="fill:#1f1a17;fill-opacity:1;fill-rule:nonzero;stroke:none"
       d="m 239.32,173.559 -1.32,0 -2.762,-0.118 0.121,-1.921 3.961,0 0,2.039" /><path
       inkscape:connector-curvature="0"
       id="path482"
       style="fill:#1f1a17;fill-opacity:1;fill-rule:nonzero;stroke:none"
       d="m 245.32,173.559 -3.961,0 0,-2.039 0.36,0 3.601,0.121 0,1.918" /><path
       inkscape:connector-curvature="0"
       id="path484"
       style="fill:#1f1a17;fill-opacity:1;fill-rule:nonzero;stroke:none"
       d="m 247.359,173.559 3.961,0 0,-1.918 -3.961,0 0,1.918 z" /><path
       inkscape:connector-curvature="0"
       id="path486"
       style="fill:#1f1a17;fill-opacity:1;fill-rule:evenodd;stroke:none"
       d="m 259.602,172.602 -13.922,6 0,-0.122 0.121,-0.121 0,-0.238 0.121,-0.121 0.117,-0.121 0,-0.238 0.121,0 0,-0.243 0.121,-0.117 0,-0.242 0.117,-0.117 0,-0.121 0.122,-0.121 0,-0.36 0.121,-0.121 0,-0.238 0.121,-0.121 0,-0.36 0.117,-0.121 0,-0.48 0.121,-0.117 0,-0.723 0.121,-0.117 0,-2.641 -0.121,-0.121 0,-0.719 -0.121,-0.121 0,-0.359 -0.117,-0.121 0,-0.36 -0.121,-0.121 0,-0.359 -0.121,0 0,-0.359 -0.122,-0.121 0,-0.239 -0.117,-0.121 0,-0.238 -0.121,-0.121 0,-0.121 -0.121,-0.121 0,-0.239 -0.117,0 0,-0.121 -0.121,-0.121 0,-0.117 -0.121,-0.121 0,-0.238 13.922,6" /><path
       inkscape:connector-curvature="0"
       id="path488"
       style="fill:#1f1a17;fill-opacity:1;fill-rule:nonzero;stroke:none"
       d="m 112,118.961 -1.922,-0.481 -0.476,1.801 2.039,0.481 0.359,-1.801" /><path
       inkscape:connector-curvature="0"
       id="path490"
       style="fill:#1f1a17;fill-opacity:1;fill-rule:nonzero;stroke:none"
       d="m 113.801,111.879 -1.922,-0.481 -0.481,1.801 1.922,0.481 0.481,-1.801" /><path
       inkscape:connector-curvature="0"
       id="path492"
       style="fill:#1f1a17;fill-opacity:1;fill-rule:nonzero;stroke:none"
       d="m 115.48,104.801 -1.921,-0.481 -0.481,1.801 2.043,0.481 0.359,-1.801" /><path
       inkscape:connector-curvature="0"
       id="path494"
       style="fill:#1f1a17;fill-opacity:1;fill-rule:nonzero;stroke:none"
       d="m 117.281,97.719 -1.922,-0.481 -0.48,1.801 1.922,0.359 0.48,-1.679" /><path
       inkscape:connector-curvature="0"
       id="path496"
       style="fill:#1f1a17;fill-opacity:1;fill-rule:nonzero;stroke:none"
       d="m 118.961,90.52 -1.922,-0.481 -0.48,1.801 2.043,0.48 0.359,-1.8" /><path
       inkscape:connector-curvature="0"
       id="path498"
       style="fill:#1f1a17;fill-opacity:1;fill-rule:nonzero;stroke:none"
       d="m 120.762,83.441 -1.922,-0.48 -0.481,1.801 1.922,0.476 0.481,-1.797" /><path
       inkscape:connector-curvature="0"
       id="path500"
       style="fill:#1f1a17;fill-opacity:1;fill-rule:nonzero;stroke:none"
       d="m 122.441,76.359 -1.921,-0.48 -0.481,1.801 2.039,0.48 0.363,-1.801" /><path
       inkscape:connector-curvature="0"
       id="path502"
       style="fill:#1f1a17;fill-opacity:1;fill-rule:nonzero;stroke:none"
       d="m 124.238,69.281 -1.918,-0.48 -0.48,1.801 1.922,0.359 0.476,-1.68" /><path
       inkscape:connector-curvature="0"
       id="path504"
       style="fill:#1f1a17;fill-opacity:1;fill-rule:nonzero;stroke:none"
       d="m 125.922,62.082 -1.922,-0.48 -0.48,1.796 2.039,0.481 0.363,-1.797" /><path
       inkscape:connector-curvature="0"
       id="path506"
       style="fill:#1f1a17;fill-opacity:1;fill-rule:nonzero;stroke:none"
       d="m 127.719,55 -1.918,-0.48 -0.481,1.8 1.918,0.481 0.481,-1.801" /><path
       inkscape:connector-curvature="0"
       id="path508"
       style="fill:#1f1a17;fill-opacity:1;fill-rule:nonzero;stroke:none"
       d="m 129.398,47.918 -1.918,-0.477 -0.48,1.797 2.039,0.481 0.359,-1.801" /><path
       inkscape:connector-curvature="0"
       id="path510"
       style="fill:#1f1a17;fill-opacity:1;fill-rule:nonzero;stroke:none"
       d="m 131.199,40.84 -1.918,-0.481 -0.48,1.801 1.918,0.36 0.48,-1.68" /><path
       inkscape:connector-curvature="0"
       id="path512"
       style="fill:#1f1a17;fill-opacity:1;fill-rule:nonzero;stroke:none"
       d="m 132.879,33.641 -1.918,-0.36 -0.481,1.68 2.04,0.48 0.359,-1.8" /><path
       inkscape:connector-curvature="0"
       id="path514"
       style="fill:#1f1a17;fill-opacity:1;fill-rule:evenodd;stroke:none"
       d="m 137.68,31.84 -2.758,-10.442 -7.32,7.922 10.078,2.52 -2.758,-10.442 2.758,10.442" /><path
       inkscape:connector-curvature="0"
       id="path536"
       style="fill:#1f1a17;fill-opacity:1;fill-rule:nonzero;stroke:none"
       d="m 261.641,182.199 -5.039,-17.879 1.918,-0.48 5.039,17.762 -1.918,0.597" /><path
       inkscape:connector-curvature="0"
       id="path538"
       style="fill:#1f1a17;fill-opacity:1;fill-rule:nonzero;stroke:none"
       d="m 168.879,21.16 -0.238,-0.242 -1.442,-0.836 0.961,-1.684 1.559,0.84 0.242,0.121 -1.082,1.801" /><path
       inkscape:connector-curvature="0"
       id="path540"
       style="fill:#1f1a17;fill-opacity:1;fill-rule:nonzero;stroke:none"
       d="m 172.359,23.199 -0.839,-0.48 -0.84,-0.598 0.961,-1.68 0.961,0.598 0.718,0.481 -0.961,1.679" /><path
       inkscape:connector-curvature="0"
       id="path542"
       style="fill:#1f1a17;fill-opacity:1;fill-rule:nonzero;stroke:none"
       d="m 175.602,25.359 -1.204,-0.839 -0.476,-0.239 1.078,-1.679 0.48,0.238 1.2,0.84 -1.078,1.679" /><path
       inkscape:connector-curvature="0"
       id="path544"
       style="fill:#1f1a17;fill-opacity:1;fill-rule:nonzero;stroke:none"
       d="m 178.84,27.641 -0.36,-0.243 -1.199,-0.839 1.078,-1.68 1.321,0.961 0.359,0.242 -1.199,1.559" /><path
       inkscape:connector-curvature="0"
       id="path546"
       style="fill:#1f1a17;fill-opacity:1;fill-rule:nonzero;stroke:none"
       d="m 182.078,30.039 -0.84,-0.598 -0.84,-0.601 1.204,-1.559 0.839,0.598 0.84,0.601 -1.203,1.559" /><path
       inkscape:connector-curvature="0"
       id="path548"
       style="fill:#1f1a17;fill-opacity:1;fill-rule:nonzero;stroke:none"
       d="m 185.078,32.559 -1.199,-1.079 -0.359,-0.121 1.32,-1.558 0.238,0.117 1.32,1.082 -1.32,1.559" /><path
       inkscape:connector-curvature="0"
       id="path550"
       style="fill:#1f1a17;fill-opacity:1;fill-rule:nonzero;stroke:none"
       d="m 188.078,35.199 -0.476,-0.48 -0.961,-0.84 1.32,-1.559 0.961,0.961 0.476,0.36 -1.32,1.558" /><path
       inkscape:connector-curvature="0"
       id="path552"
       style="fill:#1f1a17;fill-opacity:1;fill-rule:nonzero;stroke:none"
       d="m 191.078,37.84 -0.957,-0.84 -0.48,-0.48 1.32,-1.559 0.48,0.598 0.957,0.839 -1.32,1.442" /><path
       inkscape:connector-curvature="0"
       id="path554"
       style="fill:#1f1a17;fill-opacity:1;fill-rule:nonzero;stroke:none"
       d="m 193.961,40.602 -0.242,-0.122 -1.199,-1.199 0,-0.121 1.32,-1.441 1.441,1.441 -1.32,1.442" /><path
       inkscape:connector-curvature="0"
       id="path556"
       style="fill:#1f1a17;fill-opacity:1;fill-rule:nonzero;stroke:none"
       d="m 196.719,43.48 -0.598,-0.718 -0.84,-0.723 1.438,-1.437 0.722,0.839 0.719,0.598 -1.441,1.441" /><path
       inkscape:connector-curvature="0"
       id="path558"
       style="fill:#1f1a17;fill-opacity:1;fill-rule:nonzero;stroke:none"
       d="m 199.359,46.359 -0.961,-1.199 -0.359,-0.242 1.441,-1.438 0.36,0.36 1.082,1.199 -1.563,1.32" /><path
       inkscape:connector-curvature="0"
       id="path560"
       style="fill:#1f1a17;fill-opacity:1;fill-rule:nonzero;stroke:none"
       d="m 202,49.359 -0.238,-0.48 -1.082,-1.078 1.558,-1.321 0.961,1.079 0.36,0.48 -1.559,1.32" /><path
       inkscape:connector-curvature="0"
       id="path562"
       style="fill:#1f1a17;fill-opacity:1;fill-rule:nonzero;stroke:none"
       d="m 204.641,52.359 -0.84,-0.961 -0.481,-0.597 1.559,-1.321 0.48,0.719 0.719,0.84 -1.437,1.32" /><path
       inkscape:connector-curvature="0"
       id="path564"
       style="fill:#1f1a17;fill-opacity:1;fill-rule:nonzero;stroke:none"
       d="m 207.039,55.48 -0.117,-0.121 -0.961,-1.32 -0.121,-0.121 1.558,-1.316 0.122,0.117 1.082,1.32 0,0.121 -1.563,1.32" /><path
       inkscape:connector-curvature="0"
       id="path566"
       style="fill:#1f1a17;fill-opacity:1;fill-rule:nonzero;stroke:none"
       d="m 209.559,58.602 -0.598,-0.723 -0.602,-0.84 1.563,-1.199 0.719,0.84 0.48,0.718 -1.562,1.204" /><path
       inkscape:connector-curvature="0"
       id="path568"
       style="fill:#1f1a17;fill-opacity:1;fill-rule:nonzero;stroke:none"
       d="m 211.84,61.84 -0.84,-1.32 -0.238,-0.36 1.558,-1.078 0.239,0.359 0.961,1.2 -1.68,1.199" /><path
       inkscape:connector-curvature="0"
       id="path570"
       style="fill:#1f1a17;fill-opacity:1;fill-rule:nonzero;stroke:none"
       d="m 214.121,65.082 -0.242,-0.48 -0.84,-1.204 1.563,-1.078 0.839,1.078 0.36,0.481 -1.68,1.203" /><path
       inkscape:connector-curvature="0"
       id="path572"
       style="fill:#1f1a17;fill-opacity:1;fill-rule:nonzero;stroke:none"
       d="m 216.398,68.32 -0.718,-0.961 -0.36,-0.597 1.559,-1.203 0.48,0.601 0.719,1.078 -1.68,1.082" /><path
       inkscape:connector-curvature="0"
       id="path574"
       style="fill:#1f1a17;fill-opacity:1;fill-rule:nonzero;stroke:none"
       d="M 218.559,71.68 218.441,71.441 217.48,70 l 1.68,-1.082 0.961,1.441 0.117,0.243 -1.679,1.078" /><path
       inkscape:connector-curvature="0"
       id="path576"
       style="fill:#1f1a17;fill-opacity:1;fill-rule:nonzero;stroke:none"
       d="m 220.602,75.039 -0.961,-1.68 1.679,-0.961 0.481,0.723 0.597,0.961 -1.796,0.957" /><path
       inkscape:connector-curvature="0"
       id="path578"
       style="fill:#1f1a17;fill-opacity:1;fill-rule:nonzero;stroke:none"
       d="m 222.762,78.52 -0.121,-0.122 -0.84,-1.437 -0.121,-0.121 1.679,-1.078 0.121,0.117 0.84,1.441 0.121,0.239 -1.679,0.961" /><path
       inkscape:connector-curvature="0"
       id="path580"
       style="fill:#1f1a17;fill-opacity:1;fill-rule:nonzero;stroke:none"
       d="m 224.68,82 -0.481,-0.84 -0.48,-0.961 1.679,-0.961 0.602,0.961 0.359,0.719 L 224.68,82" /><path
       inkscape:connector-curvature="0"
       id="path582"
       style="fill:#1f1a17;fill-opacity:1;fill-rule:nonzero;stroke:none"
       d="m 226.602,85.48 0,-0.121 -0.84,-1.441 -0.121,-0.238 1.8,-0.961 0.118,0.242 0.722,1.437 0.117,0.122 -1.796,0.96" /><path
       inkscape:connector-curvature="0"
       id="path584"
       style="fill:#1f1a17;fill-opacity:1;fill-rule:nonzero;stroke:none"
       d="m 228.52,88.961 -0.481,-0.84 -0.48,-0.961 1.8,-0.84 0.481,0.84 0.359,0.84 -1.679,0.961" /><path
       inkscape:connector-curvature="0"
       id="path586"
       style="fill:#1f1a17;fill-opacity:1;fill-rule:nonzero;stroke:none"
       d="m 230.32,92.559 -0.84,-1.68 -0.121,-0.117 1.801,-0.961 0.121,0.238 0.84,1.563 -1.801,0.957" /><path
       inkscape:connector-curvature="0"
       id="path588"
       style="fill:#1f1a17;fill-opacity:1;fill-rule:nonzero;stroke:none"
       d="m 232.121,96.039 1.68,-0.84 -0.84,-1.801 -1.801,0.84 0.961,1.801" /><path
       inkscape:connector-curvature="0"
       id="path590"
       style="fill:#1f1a17;fill-opacity:1;fill-rule:nonzero;stroke:none"
       d="m 233.801,99.641 -0.242,-0.36 -0.598,-1.441 1.801,-0.84 0.597,1.441 0.243,0.36 -1.801,0.84" /><path
       inkscape:connector-curvature="0"
       id="path592"
       style="fill:#1f1a17;fill-opacity:1;fill-rule:nonzero;stroke:none"
       d="m 235.48,103.359 -0.601,-1.32 -0.238,-0.598 1.8,-0.839 0.239,0.597 0.601,1.321 -1.801,0.839" /><path
       inkscape:connector-curvature="0"
       id="path594"
       style="fill:#1f1a17;fill-opacity:1;fill-rule:nonzero;stroke:none"
       d="m 237.039,106.961 1.801,-0.84 -0.84,-1.801 -1.801,0.84 0.84,1.801" /><path
       inkscape:connector-curvature="0"
       id="path596"
       style="fill:#1f1a17;fill-opacity:1;fill-rule:nonzero;stroke:none"
       d="m 238.602,110.559 -0.122,-0.36 -0.601,-1.437 1.801,-0.723 0.601,1.441 0.239,0.36 -1.918,0.719" /><path
       inkscape:connector-curvature="0"
       id="path598"
       style="fill:#1f1a17;fill-opacity:1;fill-rule:nonzero;stroke:none"
       d="m 240.16,114.281 -0.601,-1.441 -0.118,-0.36 1.797,-0.839 0.121,0.48 0.602,1.438 -1.801,0.722" /><path
       inkscape:connector-curvature="0"
       id="path600"
       style="fill:#1f1a17;fill-opacity:1;fill-rule:nonzero;stroke:none"
       d="m 241.602,118 1.918,-0.719 -0.84,-1.922 -1.801,0.84 0.723,1.801" /><path
       inkscape:connector-curvature="0"
       id="path602"
       style="fill:#1f1a17;fill-opacity:1;fill-rule:nonzero;stroke:none"
       d="m 243.039,121.719 -0.359,-0.957 -0.36,-0.84 1.918,-0.723 0.364,0.84 0.359,0.961 -1.922,0.719" /><path
       inkscape:connector-curvature="0"
       id="path604"
       style="fill:#1f1a17;fill-opacity:1;fill-rule:nonzero;stroke:none"
       d="m 244.48,125.441 1.801,-0.722 -0.601,-1.797 -1.918,0.719 0.718,1.8" /><path
       inkscape:connector-curvature="0"
       id="path606"
       style="fill:#1f1a17;fill-opacity:1;fill-rule:nonzero;stroke:none"
       d="m 245.801,129.281 -0.36,-1.082 -0.363,-0.84 1.922,-0.718 0.359,0.961 0.36,0.957 -1.918,0.722" /><path
       inkscape:connector-curvature="0"
       id="path608"
       style="fill:#1f1a17;fill-opacity:1;fill-rule:nonzero;stroke:none"
       d="m 247.121,133 1.918,-0.719 -0.719,-1.801 -1.922,0.598 0.723,1.922" /><path
       inkscape:connector-curvature="0"
       id="path610"
       style="fill:#1f1a17;fill-opacity:1;fill-rule:nonzero;stroke:none"
       d="m 248.32,136.719 -0.48,-1.438 -0.121,-0.359 1.922,-0.723 0.121,0.481 0.476,1.441 -1.918,0.598" /><path
       inkscape:connector-curvature="0"
       id="path612"
       style="fill:#1f1a17;fill-opacity:1;fill-rule:nonzero;stroke:none"
       d="m 249.641,140.559 -0.36,-0.84 -0.242,-1.078 1.801,-0.602 0.359,1.082 0.36,0.84 -1.918,0.598" /><path
       inkscape:connector-curvature="0"
       id="path614"
       style="fill:#1f1a17;fill-opacity:1;fill-rule:nonzero;stroke:none"
       d="m 250.84,144.398 -0.121,-0.476 -0.481,-1.442 1.922,-0.601 0.36,1.441 0.121,0.481 -1.801,0.597" /><path
       inkscape:connector-curvature="0"
       id="path616"
       style="fill:#1f1a17;fill-opacity:1;fill-rule:nonzero;stroke:none"
       d="m 251.922,148.238 -0.121,-0.359 -0.36,-1.559 1.797,-0.601 0.481,1.562 0.121,0.36 -1.918,0.597" /><path
       inkscape:connector-curvature="0"
       id="path618"
       style="fill:#1f1a17;fill-opacity:1;fill-rule:nonzero;stroke:none"
       d="m 253.121,151.961 -0.242,-0.481 -0.359,-1.32 1.921,-0.601 0.36,1.32 0.238,0.601 -1.918,0.481" /><path
       inkscape:connector-curvature="0"
       id="path620"
       style="fill:#1f1a17;fill-opacity:1;fill-rule:nonzero;stroke:none"
       d="m 254.199,155.801 -0.359,-0.961 -0.238,-0.961 1.918,-0.481 0.242,0.84 0.359,1.082 -1.922,0.481" /><path
       inkscape:connector-curvature="0"
       id="path622"
       style="fill:#1f1a17;fill-opacity:1;fill-rule:nonzero;stroke:none"
       d="m 255.281,159.641 1.918,-0.481 -0.597,-1.922 -1.801,0.481 0.48,1.922" /><path
       inkscape:connector-curvature="0"
       id="path624"
       style="fill:#1f1a17;fill-opacity:1;fill-rule:nonzero;stroke:none"
       d="m 256.359,163.602 1.922,-0.602 -0.48,-1.922 -1.922,0.481 0.48,2.043" /><path
       inkscape:connector-curvature="0"
       id="path626"
       style="fill:#1f1a17;fill-opacity:1;fill-rule:evenodd;stroke:none"
       d="m 252.398,164.801 7.68,7.558 2.281,-10.558 -9.961,3 7.68,7.558 -7.68,-7.558" /><g
       id="g652"><g
         clip-path="url(#clipPath656)"
         id="g654"><g
           id="g660"><g
             id="g662"><g
               clip-path="url(#clipPath666)"
               id="g664"><g
                 id="g670" /></g></g></g></g></g><g
       id="g792"><g
         clip-path="url(#clipPath796)"
         id="g794"><g
           id="g800"><g
             id="g802"><g
               clip-path="url(#clipPath806)"
               id="g804"><g
                 id="g810" /></g></g></g></g></g><text
       transform="scale(1,-1)"
       sodipodi:linespacing="125%"
       id="text5786"
       y="-182.08958"
       x="68.852623"
       style="font-size:16px;font-style:italic;font-variant:normal;font-weight:bold;font-stretch:normal;line-height:125%;letter-spacing:0px;word-spacing:0px;fill:#000000;fill-opacity:1;stroke:none;font-family:Latin Modern Roman Slanted;-inkscape-font-specification:Latin Modern Roman Slanted Bold Italic"
       xml:space="preserve"><tspan
         y="-182.08958"
         x="68.852623"
         id="tspan5788"
         sodipodi:role="line">S</tspan></text>
<path
       id="path5994"
       d="m 28.451742,148.07554 -0.04048,-0.0696 -0.03835,-0.0673 -0.04048,-0.065 -0.04048,-0.0603 -0.03835,-0.058 -0.04048,-0.0534 -0.04048,-0.0511 -0.03835,-0.0487 -0.04048,-0.0464 -0.04048,-0.0418 -0.03835,-0.0395 -0.04048,-0.0371 -0.04048,-0.0348 -0.03835,-0.0325 -0.04048,-0.0302 -0.04048,-0.0279 -0.04048,-0.0255 -0.04048,-0.0232 -0.04048,-0.0209 -0.04048,-0.0209 -0.04048,-0.0162 -0.04261,-0.0163 -0.04048,-0.0162 -0.04261,-0.0116 -0.04048,-0.0116 -0.04261,-0.009 -0.04261,-0.009 -0.04048,-0.007 -0.08735,-0.0116 -0.08522,-0.007 c -0.129962,-0.0116 -0.223705,-0.0116 -0.223705,-0.23207 0,-0.0696 0.05326,-0.12764 0.136354,-0.12764 0.285491,0 0.615723,0.0371 0.911867,0.0371 0.349407,0 0.72225,-0.0371 1.063135,-0.0371 0.06179,0 0.2024,0 0.2024,0.22047 0,0.12764 -0.09587,0.13924 -0.170442,0.13924 -0.245011,0.0209 -0.498544,0.11604 -0.498544,0.4015 0,0.14156 0.06392,0.2692 0.147006,0.42701 l 0.807472,1.48297 h 2.663163 l -0.02983,0.35739 h -2.433067 l 2.094313,3.81765 0.338754,-3.81765 0.02983,-0.35739 c 0.02344,-0.24136 0.170443,-1.81483 0.170443,-1.93087 0,-0.34811 -0.551808,-0.38061 -0.76273,-0.38061 -0.149137,0 -0.255664,0 -0.255664,-0.23207 0,-0.12764 0.125701,-0.12764 0.149137,-0.12764 0.432498,0 0.892693,0.0371 1.325191,0.0371 0.266316,0 0.935303,-0.0371 1.201619,-0.0371 0.06392,0 0.189617,0 0.189617,0.23207 0,0.12764 -0.106526,0.12764 -0.24288,0.12764 -0.658334,0 -0.658334,0.0789 -0.692423,0.41542 l -0.645551,7.22451 c -0.02344,0.23208 -0.02344,0.27849 -0.2024,0.27849 -0.170443,0 -0.210923,-0.0789 -0.276969,-0.19494 z"
       inkscape:connector-curvature="0"
       style="font-style:normal;font-variant:normal;font-weight:normal;font-stretch:normal;letter-spacing:normal;word-spacing:normal;text-anchor:start;fill:#000000;stroke:#000000;stroke-width:0;stroke-linecap:butt;stroke-linejoin:miter;stroke-miterlimit:10.43299961;stroke-opacity:1;stroke-dasharray:none;stroke-dashoffset:0" /><path
       id="path5996"
       d="m 44.760958,150.52858 0.02983,0 0.03196,0 0.02983,0 0.01491,0.002 0.01704,0 0.01491,0.002 0.01491,0.002 0.01491,0.002 0.01491,0.002 0.01491,0.002 0.01278,0.005 0.01491,0.005 0.01278,0.005 0.01278,0.005 0.01278,0.007 0.01278,0.007 0.01065,0.009 0.01065,0.007 0.01065,0.0116 0.0085,0.009 0.0085,0.0116 0.0043,0.007 0.0043,0.007 0.0021,0.005 0.0043,0.007 0.0021,0.007 0.0021,0.009 0.0043,0.007 0.0021,0.009 0.0021,0.007 0.0021,0.009 0,0.009 0.0021,0.009 0,0.009 0.0021,0.009 0,0.009 0,0.0116 c 0,0.23208 -0.202401,0.23208 -0.349407,0.23208 h -6.357505 c -0.151268,0 -0.351538,0 -0.351538,-0.23208 0,-0.22743 0.20027,-0.22743 0.36006,-0.22743 z"
       inkscape:connector-curvature="0"
       style="font-style:normal;font-variant:normal;font-weight:normal;font-stretch:normal;letter-spacing:normal;word-spacing:normal;text-anchor:start;fill:#000000;stroke:#000000;stroke-width:0;stroke-linecap:butt;stroke-linejoin:miter;stroke-miterlimit:10.43299961;stroke-opacity:1;stroke-dasharray:none;stroke-dashoffset:0" /><path
       id="path5998"
       d="m 44.771611,148.28209 0.01278,0 0.01491,0 0.02983,0.002 0.02983,0 0.01491,0 0.01491,0.002 0.01491,0.002 0.01278,0 0.01491,0.002 0.01491,0.005 0.01491,0.002 0.01278,0.005 0.01491,0.005 0.01278,0.005 0.01278,0.005 0.01065,0.007 0.01278,0.007 0.01065,0.009 0.01065,0.009 0.01065,0.009 0.0085,0.0116 0.0043,0.005 0.0043,0.007 0.0043,0.005 0.0043,0.007 0.0021,0.007 0.0043,0.007 0.0021,0.007 0.0021,0.007 0.0043,0.009 0.0021,0.007 0.0021,0.009 0.0021,0.009 0,0.009 0.0021,0.009 0,0.009 0.0021,0.009 0,0.0116 0,0.009 c 0,0.23208 -0.202401,0.23208 -0.36006,0.23208 h -6.33833 c -0.15979,0 -0.36006,0 -0.36006,-0.23208 0,-0.23207 0.20027,-0.23207 0.351538,-0.23207 z"
       inkscape:connector-curvature="0"
       style="font-style:normal;font-variant:normal;font-weight:normal;font-stretch:normal;letter-spacing:normal;word-spacing:normal;text-anchor:start;fill:#000000;stroke:#000000;stroke-width:0;stroke-linecap:butt;stroke-linejoin:miter;stroke-miterlimit:10.43299961;stroke-opacity:1;stroke-dasharray:none;stroke-dashoffset:0" /><path
       id="path6000"
       d="m 53.811454,149.89037 -0.888431,-2.29987 c -0.03409,-0.0951 -0.05326,-0.13692 -0.05326,-0.14852 0,-0.072 0.178965,-0.2901 0.624246,-0.33651 0.106527,-0.0116 0.213053,-0.0232 0.213053,-0.2228 0,-0.13692 -0.127832,-0.13692 -0.15979,-0.13692 -0.434628,0 -0.890562,0.0371 -1.337973,0.0371 -0.266317,0 -0.92252,-0.0371 -1.186706,-0.0371 -0.06392,0 -0.193878,0 -0.193878,0.23208 0,0.12764 0.106526,0.12764 0.245011,0.12764 0.637028,0 0.700944,0.11603 0.796818,0.369 l 1.250622,3.22817 -2.239188,2.62477 -0.136354,0.12765 c -0.51985,0.61267 -1.018394,0.79601 -1.561679,0.82851 -0.136354,0.0116 -0.232228,0.0116 -0.232228,0.23207 0,0.0116 0,0.12764 0.138484,0.12764 0.317449,0 0.666856,-0.0371 0.994958,-0.0371 0.394148,0 0.809602,0.0371 1.188837,0.0371 0.06818,0 0.193878,0 0.193878,-0.23207 0,-0.11604 -0.106527,-0.12764 -0.125701,-0.12764 -0.09801,-0.009 -0.426107,-0.0325 -0.426107,-0.3574 0,-0.18566 0.15766,-0.37132 0.285491,-0.51985 l 1.08231,-1.25089 0.954478,-1.13021 1.071657,2.7617 c 0.04474,0.12764 0.05326,0.13925 0.05326,0.16478 0,0.0905 -0.20027,0.28545 -0.615724,0.33187 -0.117179,0.0116 -0.208792,0.0255 -0.208792,0.22279 0,0.13692 0.115049,0.13692 0.155529,0.13692 0.300405,0 1.04183,-0.0371 1.337973,-0.0371 0.266317,0 0.911868,0.0371 1.178184,0.0371 0.07457,0 0.204531,0 0.204531,-0.22047 0,-0.13924 -0.106526,-0.13924 -0.193878,-0.13924 -0.709467,-0.009 -0.732903,-0.0464 -0.911868,-0.50593 -0.413323,-1.07683 -1.12492,-2.88006 -1.367801,-3.57164 0.722251,-0.81227 1.834388,-2.18848 2.173142,-2.51106 0.308927,-0.27849 0.711598,-0.55466 1.348626,-0.58947 0.140615,-0.0116 0.232228,-0.0116 0.232228,-0.23208 0,-0.0116 0,-0.12764 -0.136354,-0.12764 -0.319579,0 -0.668986,0.0371 -0.997088,0.0371 -0.394149,0 -0.796819,-0.0371 -1.180314,-0.0371 -0.06179,0 -0.19814,0 -0.19814,0.23208 0,0.0789 0.05326,0.11603 0.125701,0.12764 0.09587,0.009 0.426107,0.0348 0.426107,0.35739 0,0.16478 -0.11718,0.31331 -0.202401,0.41774 z"
       inkscape:connector-curvature="0"
       style="font-style:normal;font-variant:normal;font-weight:normal;font-stretch:normal;letter-spacing:normal;word-spacing:normal;text-anchor:start;fill:#000000;stroke:#000000;stroke-width:0;stroke-linecap:butt;stroke-linejoin:miter;stroke-miterlimit:10.43299961;stroke-opacity:1;stroke-dasharray:none;stroke-dashoffset:0" /><path
       id="path6002"
       d="m 63.827081,152.74954 0.01065,0 0.01278,0 0.02343,0.002 0.02557,0 0.01278,0 0.01065,0.002 0.01278,0 0.01278,0.002 0.01278,0.002 0.01278,0.002 0.01065,0.002 0.01278,0.002 0.01065,0.005 0.01278,0.005 0.01065,0.005 0.01065,0.005 0.0085,0.007 0.01065,0.007 0.0085,0.007 0.0085,0.009 0.0085,0.009 0.0043,0.005 0.0021,0.005 0.0043,0.005 0.0021,0.007 0.0043,0.005 0.0021,0.007 0.0021,0.005 0.0021,0.007 0.0021,0.007 0.0021,0.007 0.0021,0.007 0.0021,0.007 0.0021,0.009 0,0.007 0.0021,0.007 0,0.009 0,0.009 0,0.009 c 0,0.19958 -0.170443,0.19958 -0.296144,0.19958 h -4.422983 c -0.12144,0 -0.298274,0 -0.298274,-0.19262 0,-0.20423 0.170442,-0.20423 0.298274,-0.20423 z"
       inkscape:connector-curvature="0"
       style="font-style:normal;font-variant:normal;font-weight:normal;font-stretch:normal;letter-spacing:normal;word-spacing:normal;text-anchor:start;fill:#000000;stroke:#000000;stroke-width:0;stroke-linecap:butt;stroke-linejoin:miter;stroke-miterlimit:10.43299961;stroke-opacity:1;stroke-dasharray:none;stroke-dashoffset:0" /><path
       id="path6004"
       d="m 67.412765,156.0659 0,0.009 0,0.009 0,0.009 0,0.009 0,0.009 0,0.009 0,0.009 -0.0021,0.007 0,0.009 0,0.007 0,0.007 0,0.007 -0.0021,0.007 0,0.007 0,0.007 -0.0021,0.005 0,0.007 -0.0021,0.005 0,0.005 -0.0021,0.007 -0.0021,0.009 -0.0021,0.009 -0.0043,0.007 -0.0043,0.007 -0.0043,0.007 -0.0064,0.007 -0.0043,0.005 -0.0064,0.005 -0.0085,0.002 -0.0064,0.005 -0.0085,0.002 -0.01065,0.002 -0.01065,0.002 -0.0043,0.002 -0.0064,0 -0.0064,0 -0.0064,0.002 -0.0064,0 -0.0064,0 -0.0064,0 -0.0064,0 -0.0085,0.002 -0.0064,0 -0.0085,0 -0.0064,0 -0.0085,0 -0.0085,0 -0.01065,0 -0.0085,0 -0.0085,0 -0.01065,0 c -0.475109,-0.51057 -1.148356,-0.51753 -1.455153,-0.51753 v -0.2901 c 0.181095,0 0.668987,0 1.075918,0.2228 v -4.12167 c 0,-0.2692 0,-0.37364 -0.741424,-0.37364 h -0.281231 v -0.29009 c 0.134224,0.007 1.046091,0.0325 1.32306,0.0325 0.230098,0 1.16327,-0.0255 1.327321,-0.0325 v 0.29009 h -0.283361 c -0.741424,0 -0.741424,0.10444 -0.741424,0.37364 z"
       inkscape:connector-curvature="0"
       style="font-style:normal;font-variant:normal;font-weight:normal;font-stretch:normal;letter-spacing:normal;word-spacing:normal;text-anchor:start;fill:#000000;stroke:#000000;stroke-width:0;stroke-linecap:butt;stroke-linejoin:miter;stroke-miterlimit:10.43299961;stroke-opacity:1;stroke-dasharray:none;stroke-dashoffset:0" /><path
       id="path6006"
       d="m 73.195026,143.97244 -0.0021,0.005 0,0.007 0,0.002 0,0.005 0,0.002 -0.0021,0.005 0,0.002 -0.0021,0.005 -0.0021,0.005 -0.0021,0.005 -0.0021,0.005 -0.0043,0.007 -0.0021,0.005 -0.0043,0.007 -0.0043,0.007 -0.0064,0.007 -0.0043,0.007 -0.0064,0.009 -0.0043,0.005 -0.0021,0.005 -0.0043,0.005 -0.0043,0.005 -0.0043,0.005 -0.0043,0.007 -0.0043,0.005 -0.0043,0.005 -0.0043,0.007 -0.0064,0.005 -0.0043,0.007 -0.0064,0.007 -0.0043,0.007 -0.0064,0.007 -0.0064,0.007 -0.0064,0.007 -0.0064,0.007 -0.0064,0.007 -0.0085,0.009 -0.0064,0.007 -0.0064,0.009 -0.0085,0.007 -0.0085,0.009 -0.0085,0.009 c -1.32519,1.45743 -1.663945,3.64126 -1.663945,5.40968 0,2.01209 0.40267,4.02651 1.706556,5.4677 0.138484,0.14157 0.138484,0.16477 0.138484,0.19959 0,0.0812 -0.04048,0.11371 -0.104396,0.11371 -0.106527,0 -1.061004,-0.78441 -1.687381,-2.25113 -0.543285,-1.2741 -0.668986,-2.55747 -0.668986,-3.52987 0,-0.90278 0.117179,-2.29755 0.698814,-3.60646 0.634898,-1.42262 1.551026,-2.17222 1.657553,-2.17222 0.06392,0 0.104396,0.0325 0.104396,0.11603 z"
       inkscape:connector-curvature="0"
       style="font-style:normal;font-variant:normal;font-weight:normal;font-stretch:normal;letter-spacing:normal;word-spacing:normal;text-anchor:start;fill:#000000;stroke:#000000;stroke-width:0;stroke-linecap:butt;stroke-linejoin:miter;stroke-miterlimit:10.43299961;stroke-opacity:1;stroke-dasharray:none;stroke-dashoffset:0" /><polygon
       transform="matrix(0.21305311,0,0,0.2320756,-70.498644,52.476639)"
       id="polygon6008"
       points="685.15,395.73 685.15,441.57 689.98,441.57 689.98,443.56 683.15,443.56 683.15,393.75 689.98,393.75 689.98,395.73 "
       style="font-style:normal;font-variant:normal;font-weight:normal;font-stretch:normal;letter-spacing:normal;word-spacing:normal;text-anchor:start;fill:#000000;stroke:#000000;stroke-width:0;stroke-linecap:butt;stroke-linejoin:miter;stroke-miterlimit:10.43299961;stroke-opacity:1;stroke-dasharray:none;stroke-dashoffset:0" /><path
       id="path6010"
       d="m 80.694496,151.11573 -0.01704,0.0394 -0.01918,0.0395 -0.01917,0.0371 -0.02131,0.0371 -0.0213,0.0371 -0.0213,0.0371 -0.02344,0.0348 -0.0213,0.0325 -0.02557,0.0348 -0.02344,0.0302 -0.02557,0.0325 -0.0277,0.0302 -0.0277,0.0279 -0.0277,0.0279 -0.0277,0.0255 -0.02983,0.0255 -0.03196,0.0255 -0.02983,0.0209 -0.03196,0.0232 -0.03409,0.0186 -0.03409,0.0186 -0.03409,0.0186 -0.03622,0.0139 -0.03622,0.0162 -0.03835,0.0116 -0.03835,0.0116 -0.03835,0.009 -0.04048,0.007 -0.04261,0.007 -0.04261,0.005 -0.04261,0.002 -0.04474,0 0.01065,-0.25296 c 0.688161,0 0.839429,-0.94687 0.839429,-1.01417 0,-0.0743 -0.01917,-0.14157 -0.02983,-0.19959 l -0.532633,-2.26737 c -0.05326,-0.20655 -0.05326,-0.22744 -0.213053,-0.42702 -0.466586,-0.63589 -0.903345,-0.81923 -1.199489,-0.81923 -0.528372,0 -0.67964,0.63357 -0.67964,1.08611 0,0.57787 0.340885,1.99817 0.583766,2.53195 0.330232,0.6823 0.809602,1.10932 1.231447,1.10932 l -0.01065,0.25296 c -1.239969,0 -2.556637,-1.69647 -2.556637,-3.38598 0,-1.08844 0.583765,-1.84964 1.412542,-1.84964 0.208792,0 0.741425,0.0487 1.378454,0.86796 0.08522,-0.48736 0.455933,-0.86796 0.96513,-0.86796 0.372843,0 0.615724,0.26456 0.786166,0.63588 0.178965,0.41542 0.31958,1.12325 0.31958,1.14414 0,0.11603 -0.09801,0.11603 -0.127832,0.11603 -0.106527,0 -0.115049,-0.0464 -0.149137,-0.20886 -0.178965,-0.75193 -0.372843,-1.43191 -0.805341,-1.43191 -0.285491,0 -0.31958,0.29938 -0.31958,0.53145 0,0.25529 0.01918,0.3458 0.136354,0.85636 0.11931,0.48504 0.138485,0.60108 0.236489,1.0397 l 0.379235,1.61757 c 0.0767,0.32258 0.0767,0.34811 0.0767,0.3922 0,0.19959 -0.129962,0.31563 -0.308927,0.31563 -0.253533,0 -0.413323,-0.25761 -0.447411,-0.51057 z"
       inkscape:connector-curvature="0"
       style="font-style:normal;font-variant:normal;font-weight:normal;font-stretch:normal;letter-spacing:normal;word-spacing:normal;text-anchor:start;fill:#000000;stroke:#000000;stroke-width:0;stroke-linecap:butt;stroke-linejoin:miter;stroke-miterlimit:10.43299961;stroke-opacity:1;stroke-dasharray:none;stroke-dashoffset:0" /><path
       id="path6012"
       d="m 84.488971,146.75735 0,0.0696 -0.0021,0.0696 -0.0043,0.0673 -0.0064,0.065 -0.0064,0.0627 -0.0085,0.0603 -0.0085,0.0603 -0.01065,0.0557 -0.01278,0.0557 -0.01278,0.0534 -0.01704,0.0511 -0.01491,0.0487 -0.01917,0.0464 -0.01705,0.0441 -0.0213,0.0441 -0.0213,0.0394 -0.02344,0.0371 -0.02344,0.0371 -0.02557,0.0325 -0.02557,0.0302 -0.0277,0.0302 -0.0277,0.0255 -0.02983,0.0232 -0.02983,0.0232 -0.03196,0.0186 -0.03409,0.0162 -0.03409,0.0139 -0.03409,0.0116 -0.03622,0.009 -0.03622,0.007 -0.03835,0.002 -0.03835,0.002 c -0.349407,0 -0.56246,-0.2901 -0.56246,-0.61268 0,-0.31098 0.213053,-0.61268 0.56246,-0.61268 0.127832,0 0.266316,0.0464 0.372843,0.14853 0.02983,0.0255 0.04474,0.0371 0.05326,0.0371 0.01065,0 0.02131,-0.0116 0.02131,-0.17406 0,-0.85636 -0.370713,-1.55026 -0.722251,-1.93087 -0.117179,-0.12532 -0.117179,-0.15085 -0.117179,-0.18334 0,-0.0835 0.05326,-0.12764 0.106527,-0.12764 0.117179,0 0.96513,0.88885 0.96513,2.24185 z"
       inkscape:connector-curvature="0"
       style="font-style:normal;font-variant:normal;font-weight:normal;font-stretch:normal;letter-spacing:normal;word-spacing:normal;text-anchor:start;fill:#000000;stroke:#000000;stroke-width:0;stroke-linecap:butt;stroke-linejoin:miter;stroke-miterlimit:10.43299961;stroke-opacity:1;stroke-dasharray:none;stroke-dashoffset:0" /><path
       id="path6014"
       d="m 89.574549,154.64328 0,0 0,0.002 0,0 0,0.002 0,0.005 0,0.002 0,0.005 0,0.005 -0.0021,0.005 0,0.005 -0.0021,0.005 0,0.005 -0.0021,0.005 -0.0021,0.007 -0.0021,0.005 -0.0021,0.007 -0.0043,0.005 -0.0021,0.007 -0.0043,0.005 -0.0043,0.005 -0.0043,0.007 -0.0043,0.002 -0.0021,0.002 -0.0021,0.002 -0.0043,0.002 -0.0021,0.002 -0.0043,0.002 -0.0021,0.002 -0.0043,0.002 -0.0043,0.002 -0.0021,0.002 -0.0043,0 -0.0043,0.002 -0.0043,0.002 -0.0043,0 -0.0043,0.002 -0.0064,0.002 -0.0043,0 -0.0064,0 -0.0043,0.002 -0.0064,0 -0.0043,0 -0.0064,0.002 -0.0064,0 -0.0064,0 c -0.247141,0 -1.018394,-0.0951 -1.295363,-0.11604 -0.08522,-0.0116 -0.2024,-0.0232 -0.2024,-0.23207 0,-0.13925 0.09587,-0.13925 0.255664,-0.13925 0.509196,0 0.530502,-0.0789 0.530502,-0.19494 0,-0.0836 -0.09587,-0.47576 -0.149137,-0.71711 l -0.869257,-3.76891 c -0.127832,-0.58019 -0.170443,-0.76585 -0.170443,-1.16734 0,-1.09772 0.562461,-1.81715 1.348627,-1.81715 v 0.25528 c -0.362191,0 -0.713728,0.31098 -0.713728,1.16734 0,0.22047 0,0.43862 0.170442,1.16734 l 0.234359,1.06523 c 0.06179,0.25528 0.06179,0.27617 0.159789,0.40381 0.517719,0.7496 0.997089,0.92366 1.274058,0.92366 0.383496,0 0.668987,-0.34347 0.668987,-1.08844 0,-0.67998 -0.353668,-2.00745 -0.543286,-2.45071 -0.349407,-0.77282 -0.839429,-1.18823 -1.250621,-1.18823 v -0.25528 c 1.250621,0 2.556637,1.722 2.556637,3.3883 0,1.0513 -0.56246,1.84732 -1.412542,1.84732 -0.485761,0 -0.92039,-0.33187 -1.239969,-0.69158 z"
       inkscape:connector-curvature="0"
       style="font-style:normal;font-variant:normal;font-weight:normal;font-stretch:normal;letter-spacing:normal;word-spacing:normal;text-anchor:start;fill:#000000;stroke:#000000;stroke-width:0;stroke-linecap:butt;stroke-linejoin:miter;stroke-miterlimit:10.43299961;stroke-opacity:1;stroke-dasharray:none;stroke-dashoffset:0" /><polygon
       transform="matrix(0.21305311,0,0,0.2320756,-70.498644,52.476639)"
       id="polygon6016"
       points="761.88,441.57 766.71,441.57 766.71,395.73 761.88,395.73 761.88,393.75 768.71,393.75 768.71,443.56 761.88,443.56 "
       style="font-style:normal;font-variant:normal;font-weight:normal;font-stretch:normal;letter-spacing:normal;word-spacing:normal;text-anchor:start;fill:#000000;stroke:#000000;stroke-width:0;stroke-linecap:butt;stroke-linejoin:miter;stroke-miterlimit:10.43299961;stroke-opacity:1;stroke-dasharray:none;stroke-dashoffset:0" /><path
       id="path6018"
       d="m 97.593868,149.63509 0,0.0859 0,0.0905 -0.0021,0.0905 -0.0043,0.0951 -0.0085,0.19494 -0.01278,0.20423 -0.01704,0.21351 -0.0213,0.22047 -0.02983,0.22511 -0.03409,0.2344 -0.04261,0.23672 -0.049,0.23903 -0.05752,0.24368 -0.06392,0.246 -0.07457,0.24832 -0.08309,0.24832 -0.04687,0.123 -0.04687,0.123 -0.05113,0.123 -0.05326,0.123 c -0.634898,1.42031 -1.546766,2.17223 -1.653292,2.17223 -0.06392,0 -0.106527,-0.0441 -0.106527,-0.11371 0,-0.0348 0,-0.058 0.19814,-0.26689 1.041829,-1.14181 1.649031,-2.98217 1.649031,-5.4004 0,-1.97496 -0.394148,-4.01027 -1.710817,-5.4677 -0.136354,-0.13693 -0.136354,-0.16246 -0.136354,-0.19495 0,-0.0696 0.04261,-0.11603 0.106527,-0.11603 0.106526,0 1.058874,0.78673 1.68738,2.25345 0.539025,1.26945 0.664726,2.55283 0.664726,3.52523 z"
       inkscape:connector-curvature="0"
       style="font-style:normal;font-variant:normal;font-weight:normal;font-stretch:normal;letter-spacing:normal;word-spacing:normal;text-anchor:start;fill:#000000;stroke:#000000;stroke-width:0;stroke-linecap:butt;stroke-linejoin:miter;stroke-miterlimit:10.43299961;stroke-opacity:1;stroke-dasharray:none;stroke-dashoffset:0" /><path
       id="path6000-4"
       d="m 131.36478,76.485132 -0.88843,2.29987 c -0.0341,0.0951 -0.0533,0.13692 -0.0533,0.14852 0,0.072 0.17896,0.2901 0.62424,0.33651 0.10653,0.0116 0.21306,0.0232 0.21306,0.2228 0,0.13692 -0.12784,0.13692 -0.15979,0.13692 -0.43463,0 -0.89057,-0.0371 -1.33798,-0.0371 -0.26631,0 -0.92252,0.0371 -1.1867,0.0371 -0.0639,0 -0.19388,0 -0.19388,-0.23208 0,-0.12764 0.10652,-0.12764 0.24501,-0.12764 0.63703,0 0.70094,-0.11603 0.79682,-0.369 l 1.25062,-3.22817 -2.23919,-2.62477 -0.13635,-0.12765 c -0.51985,-0.61267 -1.0184,-0.79601 -1.56168,-0.82851 -0.13636,-0.0116 -0.23223,-0.0116 -0.23223,-0.23207 0,-0.0116 0,-0.12764 0.13848,-0.12764 0.31745,0 0.66686,0.0371 0.99496,0.0371 0.39415,0 0.8096,-0.0371 1.18884,-0.0371 0.0682,0 0.19388,0 0.19388,0.23207 0,0.11604 -0.10653,0.12764 -0.1257,0.12764 -0.098,0.009 -0.42611,0.0325 -0.42611,0.3574 0,0.18566 0.15766,0.37132 0.28549,0.51985 l 1.08231,1.25089 0.95448,1.13021 1.07166,-2.7617 c 0.0447,-0.12764 0.0533,-0.13925 0.0533,-0.16478 0,-0.0905 -0.20027,-0.28545 -0.61573,-0.33187 -0.11718,-0.0116 -0.20879,-0.0255 -0.20879,-0.22279 0,-0.13692 0.11505,-0.13692 0.15553,-0.13692 0.3004,0 1.04183,0.0371 1.33797,0.0371 0.26632,0 0.91187,-0.0371 1.17819,-0.0371 0.0746,0 0.20453,0 0.20453,0.22047 0,0.13924 -0.10653,0.13924 -0.19388,0.13924 -0.70947,0.009 -0.7329,0.0464 -0.91187,0.50593 -0.41332,1.07683 -1.12492,2.88006 -1.3678,3.57164 0.72225,0.81227 1.83439,2.18848 2.17314,2.51106 0.30893,0.27849 0.7116,0.55466 1.34863,0.58947 0.14061,0.0116 0.23223,0.0116 0.23223,0.23208 0,0.0116 0,0.12764 -0.13636,0.12764 -0.31958,0 -0.66898,-0.0371 -0.99709,-0.0371 -0.39415,0 -0.79682,0.0371 -1.18031,0.0371 -0.0618,0 -0.19814,0 -0.19814,-0.23208 0,-0.0789 0.0533,-0.11603 0.1257,-0.12764 0.0959,-0.009 0.42611,-0.0348 0.42611,-0.35739 0,-0.16478 -0.11718,-0.31331 -0.2024,-0.41774 z"
       inkscape:connector-curvature="0"
       style="font-style:normal;font-variant:normal;font-weight:normal;font-stretch:normal;letter-spacing:normal;word-spacing:normal;text-anchor:start;fill:#000000;stroke:#000000;stroke-width:0;stroke-linecap:butt;stroke-linejoin:miter;stroke-miterlimit:10.43299961;stroke-opacity:1;stroke-dasharray:none;stroke-dashoffset:0" /><path
       id="path6010-3"
       d="m 135.6771,11.55352 -0.017,0.0394 -0.0192,0.0395 -0.0192,0.0371 -0.0213,0.0371 -0.0213,0.0371 -0.0213,0.0371 -0.0234,0.0348 -0.0213,0.0325 -0.0256,0.0348 -0.0234,0.0302 -0.0256,0.0325 -0.0277,0.0302 -0.0277,0.0279 -0.0277,0.0279 -0.0277,0.0255 -0.0298,0.0255 -0.032,0.0255 -0.0298,0.0209 -0.032,0.0232 -0.0341,0.0186 -0.0341,0.0186 -0.0341,0.0186 -0.0362,0.0139 -0.0362,0.0162 -0.0384,0.0116 -0.0384,0.0116 -0.0383,0.009 -0.0405,0.007 -0.0426,0.007 -0.0426,0.005 -0.0426,0.002 -0.0447,0 0.0106,-0.25296 c 0.68816,0 0.83943,-0.94687 0.83943,-1.01417 0,-0.0743 -0.0192,-0.14157 -0.0298,-0.19959 L 134.9889,8.5572297 c -0.0533,-0.20655 -0.0533,-0.22744 -0.21305,-0.42702 -0.46659,-0.63589 -0.90334,-0.81923 -1.19949,-0.81923 -0.52837,0 -0.67964,0.63357 -0.67964,1.08611 0,0.57787 0.34089,1.9981703 0.58377,2.5319503 0.33023,0.6823 0.8096,1.10932 1.23144,1.10932 l -0.0106,0.25296 c -1.23996,0 -2.55663,-1.69647 -2.55663,-3.3859803 0,-1.08844 0.58376,-1.84964 1.41254,-1.84964 0.20879,0 0.74142,0.0487 1.37845,0.86796 0.0852,-0.48736 0.45594,-0.86796 0.96513,-0.86796 0.37285,0 0.61573,0.26456 0.78617,0.63588 0.17896,0.41542 0.31958,1.12325 0.31958,1.14414 0,0.11603 -0.098,0.11603 -0.12783,0.11603 -0.10653,0 -0.11505,-0.0464 -0.14914,-0.20886 -0.17896,-0.75193 -0.37284,-1.43191 -0.80534,-1.43191 -0.28549,0 -0.31958,0.29938 -0.31958,0.53145 0,0.25529 0.0192,0.3458 0.13635,0.85636 0.11931,0.48504 0.13849,0.60108 0.23649,1.0397 l 0.37924,1.6175703 c 0.0767,0.32258 0.0767,0.34811 0.0767,0.3922 0,0.19959 -0.12996,0.31563 -0.30893,0.31563 -0.25353,0 -0.41332,-0.25761 -0.44741,-0.51057 z"
       inkscape:connector-curvature="0"
       style="font-style:normal;font-variant:normal;font-weight:normal;font-stretch:normal;letter-spacing:normal;word-spacing:normal;text-anchor:start;fill:#000000;stroke:#000000;stroke-width:0;stroke-linecap:butt;stroke-linejoin:miter;stroke-miterlimit:10.43299961;stroke-opacity:1;stroke-dasharray:none;stroke-dashoffset:0" /><path
       id="path6014-8"
       d="m 206.07334,13.054884 0,0 0,0.002 0,0 0,0.002 0,0.005 0,0.002 0,0.005 0,0.005 -0.002,0.005 0,0.005 -0.002,0.005 0,0.005 -0.002,0.005 -0.002,0.007 -0.002,0.005 -0.002,0.007 -0.004,0.005 -0.002,0.007 -0.004,0.005 -0.004,0.005 -0.004,0.007 -0.004,0.002 -0.002,0.002 -0.002,0.002 -0.004,0.002 -0.002,0.002 -0.004,0.002 -0.002,0.002 -0.004,0.002 -0.004,0.002 -0.002,0.002 -0.004,0 -0.004,0.002 -0.004,0.002 -0.004,0 -0.004,0.002 -0.006,0.002 -0.004,0 -0.006,0 -0.004,0.002 -0.006,0 -0.004,0 -0.006,0.002 -0.006,0 -0.006,0 c -0.24715,0 -1.01841,-0.0951 -1.29538,-0.11604 -0.0852,-0.0116 -0.2024,-0.0232 -0.2024,-0.23207 0,-0.13925 0.0959,-0.13925 0.25567,-0.13925 0.50919,0 0.5305,-0.0789 0.5305,-0.19494 0,-0.0836 -0.0959,-0.47576 -0.14914,-0.71711 l -0.86925,-3.7689097 c -0.12783,-0.58019 -0.17044,-0.76585 -0.17044,-1.16734 0,-1.0977201 0.56246,-1.8171501 1.34863,-1.8171501 v 0.25528 c -0.36219,0 -0.71373,0.31098 -0.71373,1.16734 0,0.2204701 0,0.4386201 0.17044,1.1673401 l 0.23436,1.06523 c 0.0618,0.25528 0.0618,0.27617 0.15979,0.40381 0.51772,0.7496 0.99709,0.9236597 1.27406,0.9236597 0.38349,0 0.66898,-0.3434697 0.66898,-1.0884397 0,-0.67998 -0.35366,-2.00745 -0.54328,-2.4507101 -0.34941,-0.77282 -0.83943,-1.18823 -1.25062,-1.18823 v -0.25528 c 1.25062,0 2.55663,1.7220001 2.55663,3.3883001 0,1.0513 -0.56246,1.8473197 -1.41254,1.8473197 -0.48576,0 -0.92039,-0.3318697 -1.23997,-0.6915797 z"
       inkscape:connector-curvature="0"
       style="font-style:normal;font-variant:normal;font-weight:normal;font-stretch:normal;letter-spacing:normal;word-spacing:normal;text-anchor:start;fill:#000000;stroke:#000000;stroke-width:0;stroke-linecap:butt;stroke-linejoin:miter;stroke-miterlimit:10.43299961;stroke-opacity:1;stroke-dasharray:none;stroke-dashoffset:0" /><g
       id="g7012"
       transform="matrix(0.44410534,0,0,-0.40290506,188.28758,150.0765)"><g
         word-spacing="normal"
         letter-spacing="normal"
         font-size-adjust="none"
         font-stretch="normal"
         font-weight="normal"
         font-variant="normal"
         font-style="normal"
         stroke-miterlimit="10.433"
         xml:space="preserve"
         transform="matrix(0.40178571,0,0,-0.40178571,-70.3125,293.4375)"
         id="content"
         style="font-style:normal;font-variant:normal;font-weight:normal;font-stretch:normal;letter-spacing:normal;word-spacing:normal;text-anchor:start;fill:none;stroke:#000000;stroke-linecap:butt;stroke-linejoin:miter;stroke-miterlimit:10.43299961;stroke-opacity:1;stroke-dasharray:none;stroke-dashoffset:0"><path
           id="path7015"
           d="m 470.61,421.95 0.21,1.28 3.39,13.56 c 0.43,1.74 0.54,1.89 2.68,1.89 h 4.79 c 4.14,0 6.78,-1.34 6.78,-4.78 0,-1.95 -1,-6.23 -2.94,-8.03 -2.5,-2.23 -5.48,-2.64 -7.69,-2.64 h -7.01 l -0.21,-1.28 h 8.47 c 7.08,0 14,5.17 14,10.75 0,3.84 -3.28,7.53 -9.81,7.53 h -16.14 c -0.95,0 -1.5,0 -1.5,-0.95 0,-0.6 0.45,-0.6 1.45,-0.6 0.64,0 1.55,-0.04 2.14,-0.09 0.8,-0.11 1.1,-0.25 1.1,-0.8 0,-0.2 -0.05,-0.36 -0.21,-0.95 l -6.67,-26.75 c -0.5,-1.95 -0.59,-2.34 -4.53,-2.34 -0.84,0 -1.39,0 -1.39,-0.96 0,-0.59 0.59,-0.59 0.73,-0.59 1.41,0 4.94,0.16 6.33,0.16 1.05,0 2.14,-0.07 3.19,-0.07 1.11,0 2.2,-0.09 3.25,-0.09 0.34,0 0.98,0 0.98,1 0,0.55 -0.43,0.55 -1.39,0.55 -1.84,0 -3.23,0 -3.23,0.89 0,0.29 0.09,0.54 0.14,0.84 z"
           inkscape:connector-curvature="0"
           style="fill:#000000;stroke-width:0" /><polygon
           id="polygon7017"
           points="500.39,393.75 507.22,393.75 507.22,395.73 502.39,395.73 502.39,441.57 507.22,441.57 507.22,443.56 500.39,443.56 "
           style="fill:#000000;stroke-width:0" /><path
           id="path7019"
           d="m 526.9,425.03 -0.09,0.17 -0.09,0.17 -0.09,0.16 -0.1,0.16 -0.09,0.16 -0.11,0.16 -0.1,0.15 -0.11,0.14 -0.12,0.15 -0.11,0.13 -0.12,0.14 -0.13,0.13 -0.12,0.12 -0.14,0.12 -0.13,0.11 -0.14,0.11 -0.14,0.11 -0.15,0.09 -0.15,0.1 -0.16,0.08 -0.16,0.08 -0.16,0.08 -0.17,0.06 -0.17,0.07 -0.18,0.05 -0.18,0.05 -0.18,0.04 -0.19,0.03 -0.2,0.03 -0.19,0.02 -0.21,0.01 -0.2,0 0.04,-1.09 c 3.24,0 3.94,-4.08 3.94,-4.37 0,-0.32 -0.09,-0.61 -0.14,-0.86 l -2.5,-9.77 c -0.25,-0.89 -0.25,-0.98 -1,-1.84 -2.19,-2.74 -4.23,-3.53 -5.63,-3.53 -2.48,0 -3.18,2.73 -3.18,4.68 0,2.49 1.59,8.61 2.73,10.91 1.55,2.94 3.8,4.78 5.78,4.78 l -0.04,1.09 c -5.83,0 -12,-7.31 -12,-14.59 0,-4.69 2.73,-7.97 6.62,-7.97 0.99,0 3.49,0.21 6.47,3.74 0.41,-2.1 2.14,-3.74 4.53,-3.74 1.75,0 2.89,1.14 3.69,2.74 0.84,1.79 1.5,4.84 1.5,4.93 0,0.5 -0.45,0.5 -0.6,0.5 -0.5,0 -0.54,-0.2 -0.7,-0.9 -0.84,-3.24 -1.75,-6.17 -3.78,-6.17 -1.34,0 -1.5,1.29 -1.5,2.29 0,1.1 0.1,1.49 0.64,3.69 0.56,2.09 0.66,2.59 1.11,4.48 l 1.78,6.97 c 0.36,1.39 0.36,1.5 0.36,1.69 0,0.86 -0.61,1.36 -1.45,1.36 -1.19,0 -1.94,-1.11 -2.09,-2.2 z"
           inkscape:connector-curvature="0"
           style="fill:#000000;stroke-width:0" /><path
           id="path7021"
           d="m 582.14,435.79 0.1,0.05 0.1,0.05 0.04,0.02 0.05,0.03 0.04,0.02 0.05,0.03 0.04,0.02 0.04,0.03 0.04,0.02 0.04,0.03 0.04,0.03 0.03,0.03 0.04,0.03 0.03,0.03 0.03,0.03 0.03,0.04 0.03,0.03 0.02,0.04 0.03,0.03 0.02,0.04 0.02,0.04 0.02,0.04 0.01,0.04 0.02,0.05 0.01,0.04 0.01,0.05 0.01,0.05 0.01,0.05 0,0.05 0,0.06 c 0,0.54 -0.41,1 -1,1 -0.25,0 -0.7,-0.21 -0.89,-0.3 l -27.56,-13 c -0.85,-0.41 -0.99,-0.75 -0.99,-1.16 0,-0.43 0.3,-0.79 0.99,-1.09 l 27.56,-12.95 c 0.64,-0.35 0.75,-0.35 0.89,-0.35 0.55,0 1,0.44 1,1 0,0.44 -0.2,0.74 -1.05,1.14 l -26.06,12.25 z"
           inkscape:connector-curvature="0"
           style="fill:#000000;stroke-width:0" /><path
           id="path7023"
           d="m 581.34,399.37 0.16,0 0.16,0 0.15,0.01 0.08,0 0.08,0.01 0.08,0 0.07,0.01 0.07,0.01 0.07,0.01 0.07,0.02 0.07,0.01 0.07,0.02 0.06,0.03 0.06,0.02 0.06,0.03 0.06,0.03 0.05,0.04 0.05,0.03 0.04,0.05 0.05,0.04 0.04,0.05 0.01,0.03 0.02,0.03 0.02,0.03 0.01,0.03 0.01,0.03 0.02,0.03 0.01,0.04 0.01,0.03 0.01,0.04 0.01,0.04 0,0.03 0.01,0.04 0,0.05 0.01,0.04 0,0.04 0,0.05 c 0,1 -1.05,1 -1.8,1 h -26.86 c -0.73,0 -1.78,0 -1.78,-1 0,-1 0.89,-1 1.74,-1 z"
           inkscape:connector-curvature="0"
           style="fill:#000000;stroke-width:0" /><path
           id="path7025"
           d="m 617.71,421.25 0.03,0.13 0.04,0.15 0.04,0.16 0.04,0.18 0.06,0.19 0.06,0.21 0.06,0.22 0.08,0.22 0.08,0.23 0.08,0.24 0.1,0.25 0.1,0.24 0.11,0.25 0.12,0.25 0.13,0.25 0.14,0.25 0.15,0.24 0.15,0.24 0.17,0.23 0.18,0.22 0.18,0.22 0.2,0.2 0.21,0.19 0.22,0.18 0.23,0.16 0.25,0.14 0.12,0.07 0.13,0.06 0.14,0.05 0.13,0.05 0.14,0.05 0.14,0.04 0.15,0.03 0.15,0.03 0.15,0.02 0.16,0.02 0.16,0.01 0.16,0 c 0.25,0 1.44,0 2.48,-0.64 -1.39,-0.25 -2.39,-1.5 -2.39,-2.69 0,-0.79 0.55,-1.75 1.89,-1.75 1.1,0 2.69,0.89 2.69,2.89 0,2.6 -2.94,3.28 -4.62,3.28 -2.9,0 -4.65,-2.64 -5.24,-3.78 -1.25,3.28 -3.94,3.78 -5.37,3.78 -5.19,0 -8.04,-6.42 -8.04,-7.67 0,-0.5 0.5,-0.5 0.61,-0.5 0.39,0 0.55,0.11 0.64,0.55 1.69,5.28 4.99,6.53 6.68,6.53 0.95,0 2.68,-0.44 2.68,-3.33 0,-1.54 -0.84,-4.89 -2.68,-11.86 -0.8,-3.09 -2.53,-5.18 -4.74,-5.18 -0.29,0 -1.44,0 -2.48,0.65 1.25,0.24 2.34,1.28 2.34,2.69 0,1.34 -1.09,1.73 -1.84,1.73 -1.5,0 -2.75,-1.29 -2.75,-2.89 0,-2.28 2.5,-3.28 4.69,-3.28 3.29,0 5.07,3.49 5.23,3.78 0.59,-1.84 2.39,-3.78 5.37,-3.78 5.15,0 7.99,6.42 7.99,7.67 0,0.5 -0.45,0.5 -0.61,0.5 -0.44,0 -0.55,-0.2 -0.64,-0.54 -1.64,-5.33 -5.03,-6.53 -6.63,-6.53 -1.95,0 -2.75,1.59 -2.75,3.29 0,1.1 0.3,2.19 0.86,4.38 z"
           inkscape:connector-curvature="0"
           style="fill:#000000;stroke-width:0" /><path
           id="path7027"
           d="m 676.93,435.79 0.1,0.05 0.1,0.05 0.05,0.02 0.04,0.03 0.05,0.02 0.04,0.03 0.05,0.02 0.04,0.03 0.04,0.02 0.04,0.03 0.03,0.03 0.04,0.03 0.03,0.03 0.04,0.03 0.03,0.03 0.03,0.04 0.02,0.03 0.03,0.04 0.02,0.03 0.03,0.04 0.02,0.04 0.01,0.04 0.02,0.04 0.02,0.05 0.01,0.04 0.01,0.05 0.01,0.05 0,0.05 0.01,0.05 0,0.06 c 0,0.54 -0.41,1 -1,1 -0.25,0 -0.71,-0.21 -0.89,-0.3 l -27.57,-13 c -0.84,-0.41 -0.98,-0.75 -0.98,-1.16 0,-0.43 0.3,-0.79 0.98,-1.09 L 676,409.39 c 0.64,-0.35 0.75,-0.35 0.89,-0.35 0.54,0 1,0.44 1,1 0,0.44 -0.21,0.74 -1.05,1.14 l -26.06,12.25 z"
           inkscape:connector-curvature="0"
           style="fill:#000000;stroke-width:0" /><path
           id="path7029"
           d="m 676.14,399.37 0.16,0 0.15,0 0.16,0.01 0.08,0 0.08,0.01 0.07,0 0.08,0.01 0.07,0.01 0.07,0.01 0.07,0.02 0.07,0.01 0.06,0.02 0.07,0.03 0.06,0.02 0.06,0.03 0.05,0.03 0.06,0.04 0.04,0.03 0.05,0.05 0.04,0.04 0.04,0.05 0.02,0.03 0.02,0.03 0.01,0.03 0.02,0.03 0.01,0.03 0.01,0.03 0.02,0.04 0.01,0.03 0.01,0.04 0,0.04 0.01,0.03 0.01,0.04 0,0.05 0,0.04 0.01,0.04 0,0.05 c 0,1 -1.05,1 -1.8,1 h -26.86 c -0.73,0 -1.78,0 -1.78,-1 0,-1 0.89,-1 1.73,-1 z"
           inkscape:connector-curvature="0"
           style="fill:#000000;stroke-width:0" /><path
           id="path7031"
           d="m 707.77,440.23 0,0 0,0.01 0,0 0,0.01 0,0.02 0,0.01 0,0.02 0,0.02 -0.01,0.02 0,0.02 -0.01,0.02 0,0.02 -0.01,0.02 -0.01,0.03 -0.01,0.02 -0.01,0.03 -0.02,0.02 -0.01,0.03 -0.02,0.02 -0.02,0.02 -0.02,0.03 -0.02,0.01 -0.01,0.01 -0.01,0.01 -0.01,0.01 -0.02,0.01 -0.01,0.01 -0.02,0.01 -0.02,0.01 -0.01,0.01 -0.02,0.01 -0.02,0 -0.02,0.01 -0.02,0.01 -0.02,0 -0.02,0.01 -0.03,0.01 -0.02,0 -0.02,0 -0.03,0.01 -0.02,0 -0.03,0 -0.03,0.01 -0.03,0 -0.03,0 c -1.15,0 -4.78,-0.41 -6.08,-0.5 -0.4,-0.05 -0.95,-0.1 -0.95,-1 0,-0.6 0.45,-0.6 1.2,-0.6 2.4,0 2.49,-0.34 2.49,-0.84 0,-0.36 -0.45,-2.05 -0.7,-3.09 l -4.08,-16.24 c -0.6,-2.5 -0.8,-3.3 -0.8,-5.03 0,-4.73 2.64,-7.83 6.33,-7.83 v 1.1 c -1.7,0 -3.34,1.34 -3.34,5.03 0,0.95 0,1.89 0.79,5.03 l 1.1,4.59 c 0.29,1.1 0.29,1.19 0.75,1.74 2.43,3.23 4.68,3.98 5.98,3.98 1.8,0 3.14,-1.48 3.14,-4.69 0,-2.93 -1.66,-8.65 -2.55,-10.56 -1.64,-3.33 -3.93,-5.12 -5.87,-5.12 v -1.1 c 5.87,0 12,7.42 12,14.6 0,4.53 -2.64,7.96 -6.63,7.96 -2.28,0 -4.32,-1.43 -5.82,-2.98 z"
           inkscape:connector-curvature="0"
           style="fill:#000000;stroke-width:0" /><polygon
           id="polygon7033"
           points="725.15,393.75 725.15,443.56 718.32,443.56 718.32,441.57 723.15,441.57 723.15,395.73 718.32,395.73 718.32,393.75 "
           style="fill:#000000;stroke-width:0" /><path
           id="path7035"
           d="m 745.41,418.65 0,0.37 0,0.39 -0.01,0.39 -0.01,0.41 -0.04,0.84 -0.06,0.88 -0.09,0.92 -0.1,0.95 -0.14,0.97 -0.16,1.01 -0.2,1.02 -0.23,1.03 -0.26,1.05 -0.31,1.06 -0.35,1.07 -0.39,1.07 -0.21,0.53 -0.23,0.53 -0.24,0.53 -0.25,0.53 c -2.98,6.12 -7.26,9.36 -7.76,9.36 -0.3,0 -0.5,-0.19 -0.5,-0.49 0,-0.15 0,-0.25 0.93,-1.15 4.9,-4.92 7.74,-12.85 7.74,-23.27 0,-8.51 -1.84,-17.28 -8.03,-23.56 -0.64,-0.59 -0.64,-0.7 -0.64,-0.84 0,-0.3 0.2,-0.5 0.5,-0.5 0.5,0 4.97,3.39 7.92,9.71 2.53,5.47 3.12,11 3.12,15.19 z"
           inkscape:connector-curvature="0"
           style="fill:#000000;stroke-width:0" /></g></g><g
       transform="matrix(0.46418656,0,0,-0.40290506,133.94187,233.72391)"
       id="g7495"><g
         style="font-style:normal;font-variant:normal;font-weight:normal;font-stretch:normal;letter-spacing:normal;word-spacing:normal;text-anchor:start;fill:none;stroke:#000000;stroke-linecap:butt;stroke-linejoin:miter;stroke-miterlimit:10.43299961;stroke-opacity:1;stroke-dasharray:none;stroke-dashoffset:0"
         id="g7497"
         transform="matrix(0.40178571,0,0,-0.40178571,-70.3125,293.4375)"
         xml:space="preserve"
         stroke-miterlimit="10.433"
         font-style="normal"
         font-variant="normal"
         font-weight="normal"
         font-stretch="normal"
         font-size-adjust="none"
         letter-spacing="normal"
         word-spacing="normal"><path
           style="fill:#000000;stroke-width:0"
           inkscape:connector-curvature="0"
           d="m 533.15635,392.07163 0.21,1.28 3.39,13.56 c 0.43,1.74 0.54,1.89 2.68,1.89 h 4.79 c 4.14,0 6.78,-1.34 6.78,-4.78 0,-1.95 -1,-6.23 -2.94,-8.03 -2.5,-2.23 -5.48,-2.64 -7.69,-2.64 h -7.01 l -0.21,-1.28 h 8.47 c 7.08,0 14,5.17 14,10.75 0,3.84 -3.28,7.53 -9.81,7.53 h -16.14 c -0.95,0 -1.5,0 -1.5,-0.95 0,-0.6 0.45,-0.6 1.45,-0.6 0.64,0 1.55,-0.04 2.14,-0.09 0.8,-0.11 1.1,-0.25 1.1,-0.8 0,-0.2 -0.05,-0.36 -0.21,-0.95 l -6.67,-26.75 c -0.5,-1.95 -0.59,-2.34 -4.53,-2.34 -0.84,0 -1.39,0 -1.39,-0.96 0,-0.59 0.59,-0.59 0.73,-0.59 1.41,0 4.94,0.16 6.33,0.16 1.05,0 2.14,-0.07 3.19,-0.07 1.11,0 2.2,-0.09 3.25,-0.09 0.34,0 0.98,0 0.98,1 0,0.55 -0.43,0.55 -1.39,0.55 -1.84,0 -3.23,0 -3.23,0.89 0,0.29 0.09,0.54 0.14,0.84 z"
           id="path7499" /><polygon
           transform="translate(62.546345,-29.878366)"
           style="fill:#000000;stroke-width:0"
           points="500.39,393.75 507.22,393.75 507.22,395.73 502.39,395.73 502.39,441.57 507.22,441.57 507.22,443.56 500.39,443.56 "
           id="polygon7501" /><path
           style="fill:#000000;stroke-width:0"
           inkscape:connector-curvature="0"
           d="m 579.78635,382.05163 -0.19,-0.3 -0.19,-0.29 -0.18,-0.28 -0.19,-0.26 -0.19,-0.25 -0.18,-0.23 -0.19,-0.22 -0.19,-0.21 -0.18,-0.2 -0.19,-0.18 -0.18,-0.17 -0.19,-0.16 -0.19,-0.15 -0.19,-0.14 -0.19,-0.13 -0.18,-0.12 -0.19,-0.11 -0.19,-0.1 -0.19,-0.09 -0.19,-0.09 -0.2,-0.07 -0.19,-0.07 -0.19,-0.07 -0.2,-0.05 -0.19,-0.05 -0.2,-0.04 -0.2,-0.04 -0.2,-0.03 -0.4,-0.05 -0.41,-0.03 c -0.61,-0.05 -1.04,-0.05 -1.04,-1 0,-0.3 0.25,-0.55 0.64,-0.55 1.34,0 2.89,0.16 4.28,0.16 1.64,0 3.39,-0.16 4.98,-0.16 0.3,0 0.96,0 0.96,0.95 0,0.55 -0.46,0.6 -0.8,0.6 -1.16,0.09 -2.35,0.5 -2.35,1.73 0,0.61 0.3,1.16 0.69,1.84 l 3.8,6.39 h 12.5 l -0.14,1.54 h -11.42 l 9.82,16.45 1.6,-16.45 0.14,-1.54 c 0.11,-1.04 0.8,-7.82 0.8,-8.32 0,-1.5 -2.6,-1.64 -3.58,-1.64 -0.71,0 -1.21,0 -1.21,-1 0,-0.55 0.6,-0.55 0.71,-0.55 2.03,0 4.19,0.16 6.22,0.16 1.25,0 4.39,-0.16 5.64,-0.16 0.3,0 0.89,0 0.89,1 0,0.55 -0.5,0.55 -1.14,0.55 -3.1,0 -3.1,0.34 -3.25,1.79 l -3.03,31.13 c -0.11,1 -0.11,1.2 -0.96,1.2 -0.79,0 -0.98,-0.34 -1.29,-0.84 z"
           id="path7503" /><polygon
           transform="translate(62.546345,-29.878366)"
           style="fill:#000000;stroke-width:0"
           points="553.55,393.75 553.55,443.56 546.73,443.56 546.73,441.57 551.55,441.57 551.55,395.73 546.73,395.73 546.73,393.75 "
           id="polygon7505" /><g
           id="g7980"
           transform="matrix(2.1964471,0,0,-2.4863796,582.77396,750.01697)"><g
             word-spacing="normal"
             letter-spacing="normal"
             font-size-adjust="none"
             font-stretch="normal"
             font-weight="normal"
             font-variant="normal"
             font-style="normal"
             stroke-miterlimit="10.433"
             xml:space="preserve"
             transform="matrix(0.40178571,0,0,-0.40178571,-70.3125,293.4375)"
             id="g7982"
             style="font-style:normal;font-variant:normal;font-weight:normal;font-stretch:normal;letter-spacing:normal;word-spacing:normal;text-anchor:start;fill:none;stroke:#000000;stroke-linecap:butt;stroke-linejoin:miter;stroke-miterlimit:10.43299961;stroke-opacity:1;stroke-dasharray:none;stroke-dashoffset:0"><path
               id="path7984"
               d="m 470.61,421.95 0.21,1.28 3.39,13.56 c 0.43,1.74 0.54,1.89 2.68,1.89 h 4.79 c 4.14,0 6.78,-1.34 6.78,-4.78 0,-1.95 -1,-6.23 -2.94,-8.03 -2.5,-2.23 -5.48,-2.64 -7.69,-2.64 h -7.01 l -0.21,-1.28 h 8.47 c 7.08,0 14,5.17 14,10.75 0,3.84 -3.28,7.53 -9.81,7.53 h -16.14 c -0.95,0 -1.5,0 -1.5,-0.95 0,-0.6 0.45,-0.6 1.45,-0.6 0.64,0 1.55,-0.04 2.14,-0.09 0.8,-0.11 1.1,-0.25 1.1,-0.8 0,-0.2 -0.05,-0.36 -0.21,-0.95 l -6.67,-26.75 c -0.5,-1.95 -0.59,-2.34 -4.53,-2.34 -0.84,0 -1.39,0 -1.39,-0.96 0,-0.59 0.59,-0.59 0.73,-0.59 1.41,0 4.94,0.16 6.33,0.16 1.05,0 2.14,-0.07 3.19,-0.07 1.11,0 2.2,-0.09 3.25,-0.09 0.34,0 0.98,0 0.98,1 0,0.55 -0.43,0.55 -1.39,0.55 -1.84,0 -3.23,0 -3.23,0.89 0,0.29 0.09,0.54 0.14,0.84 z"
               inkscape:connector-curvature="0"
               style="fill:#000000;stroke-width:0" /><path
               id="path7986"
               d="m 542.49,427.32 0.16,0 0.17,0.01 0.16,0 0.08,0 0.08,0.01 0.07,0.01 0.08,0 0.07,0.01 0.08,0.02 0.07,0.01 0.07,0.02 0.07,0.02 0.06,0.02 0.07,0.02 0.06,0.03 0.05,0.03 0.06,0.04 0.05,0.04 0.05,0.04 0.04,0.05 0.04,0.05 0.02,0.02 0.02,0.03 0.01,0.03 0.02,0.03 0.01,0.03 0.01,0.03 0.02,0.04 0.01,0.03 0.01,0.04 0.01,0.04 0,0.04 0.01,0.04 0,0.04 0.01,0.04 0,0.05 0,0.04 c 0,0.99 -0.89,0.99 -1.74,0.99 H 512.8 c -0.84,0 -1.75,0 -1.75,-0.99 0,-1 1,-1 1.8,-1 z"
               inkscape:connector-curvature="0"
               style="fill:#000000;stroke-width:0" /><path
               id="path7988"
               d="m 542.55,408 0.16,0 0.16,0 0.16,0 0.08,0.01 0.07,0 0.08,0.01 0.07,0.01 0.07,0.01 0.07,0.01 0.07,0.01 0.07,0.02 0.07,0.02 0.06,0.02 0.06,0.03 0.06,0.02 0.05,0.04 0.05,0.03 0.05,0.04 0.05,0.04 0.04,0.05 0.04,0.05 0.01,0.02 0.02,0.03 0.02,0.03 0.01,0.03 0.01,0.03 0.02,0.04 0.01,0.03 0.01,0.04 0.01,0.03 0.01,0.04 0,0.04 0.01,0.04 0,0.04 0.01,0.05 0,0.04 0,0.05 c 0,0.98 -0.94,0.98 -1.8,0.98 h -29.64 c -0.8,0 -1.8,0 -1.8,-0.98 0,-1 0.91,-1 1.75,-1 z"
               inkscape:connector-curvature="0"
               style="fill:#000000;stroke-width:0" /><path
               id="path7990"
               d="m 542.55,417.65 0.16,0 0.16,0 0.16,0.01 0.08,0 0.07,0.01 0.08,0 0.07,0.01 0.07,0.01 0.07,0.01 0.07,0.02 0.07,0.02 0.07,0.02 0.06,0.02 0.06,0.02 0.06,0.03 0.05,0.03 0.05,0.04 0.05,0.03 0.05,0.05 0.04,0.04 0.04,0.05 0.01,0.03 0.02,0.03 0.02,0.03 0.01,0.03 0.01,0.03 0.02,0.03 0.01,0.04 0.01,0.03 0.01,0.04 0.01,0.04 0,0.04 0.01,0.04 0,0.04 0.01,0.04 0,0.05 0,0.04 c 0,1 -0.89,1 -1.74,1 H 512.8 c -0.84,0 -1.75,0 -1.75,-1 0,-1 0.91,-1 1.75,-1 z"
               inkscape:connector-curvature="0"
               style="fill:#000000;stroke-width:0" /><path
               id="path7992"
               d="m 575.97,421.95 0.2,1.28 3.39,13.56 c 0.44,1.74 0.55,1.89 2.69,1.89 h 4.78 c 4.14,0 6.78,-1.34 6.78,-4.78 0,-1.95 -1,-6.23 -2.93,-8.03 -2.5,-2.23 -5.49,-2.64 -7.69,-2.64 h -7.02 l -0.2,-1.28 h 8.47 c 7.08,0 14,5.17 14,10.75 0,3.84 -3.28,7.53 -9.82,7.53 h -16.14 c -0.95,0 -1.5,0 -1.5,-0.95 0,-0.6 0.46,-0.6 1.46,-0.6 0.64,0 1.54,-0.04 2.14,-0.09 0.8,-0.11 1.09,-0.25 1.09,-0.8 0,-0.2 -0.05,-0.36 -0.2,-0.95 l -6.67,-26.75 c -0.5,-1.95 -0.6,-2.34 -4.53,-2.34 -0.85,0 -1.39,0 -1.39,-0.96 0,-0.59 0.59,-0.59 0.73,-0.59 1.41,0 4.94,0.16 6.33,0.16 1.04,0 2.14,-0.07 3.18,-0.07 1.11,0 2.21,-0.09 3.26,-0.09 0.34,0 0.98,0 0.98,1 0,0.55 -0.44,0.55 -1.39,0.55 -1.85,0 -3.24,0 -3.24,0.89 0,0.29 0.1,0.54 0.15,0.84 z"
               inkscape:connector-curvature="0"
               style="fill:#000000;stroke-width:0" /><path
               id="path7994"
               d="m 612.3,412.07 3.31,3.32 c 4.45,4.39 5.81,5.75 8.95,5.92 0.46,0.03 0.88,0.03 0.88,0.73 0,0.41 -0.39,0.52 -0.5,0.52 -1,0 -2.22,-0.14 -3.27,-0.14 -0.9,0 -3.14,0.14 -4.05,0.14 -0.28,0 -0.7,-0.11 -0.7,-0.77 0,-0.03 0,-0.45 0.53,-0.48 0.32,-0.03 1.19,-0.11 1.19,-0.88 0,-0.51 -0.53,-1.07 -0.87,-1.42 -0.29,-0.25 -4.71,-4.56 -6,-5.89 l -3.52,6.83 c -0.06,0.11 -0.17,0.34 -0.17,0.48 0,0.25 0.65,0.8 1.84,0.88 0.25,0 0.74,0.03 0.74,0.76 0,0.04 -0.04,0.49 -0.6,0.49 -0.73,0 -1.59,-0.11 -2.33,-0.11 -0.73,0 -1.53,-0.03 -2.26,-0.03 -0.59,0 -1.44,0 -2.06,0.03 -0.6,0.05 -1.32,0.11 -1.88,0.11 -0.17,0 -0.73,0 -0.73,-0.77 0,-0.48 0.45,-0.48 1.01,-0.48 2.02,0 2.19,-0.35 2.53,-1.05 l 4.89,-9.62 -1.95,-1.94 c -0.67,-0.64 -2.3,-2.2 -2.94,-2.86 -4.25,-4.22 -5.67,-5.69 -8.81,-5.83 -0.48,-0.03 -0.86,-0.03 -0.86,-0.76 0,-0.14 0.1,-0.49 0.49,-0.49 1,0 2.18,0.14 3.23,0.14 0.59,0 1.47,0 2.06,-0.03 0.63,-0.05 1.39,-0.11 1.99,-0.11 0.17,0 0.73,0 0.73,0.74 0,0.48 -0.42,0.51 -0.64,0.51 -0.34,0.05 -1.08,0.14 -1.08,0.88 0,0.56 0.46,1.01 1.22,1.78 l 7.08,6.94 4.22,-8.27 c 0.17,-0.34 0.2,-0.42 0.2,-0.45 0,-0.21 -0.62,-0.77 -1.84,-0.88 -0.31,-0.03 -0.77,-0.03 -0.77,-0.76 0,-0.04 0.03,-0.49 0.6,-0.49 0.73,0 1.61,0.11 2.32,0.11 0.74,0 1.55,0.03 2.27,0.03 0.59,0 1.44,0 2.06,-0.03 0.6,-0.05 1.33,-0.11 1.88,-0.11 0.17,0 0.73,0 0.73,0.77 0,0.48 -0.45,0.48 -1,0.48 -2.03,0 -2.2,0.39 -2.51,0.99 z"
               inkscape:connector-curvature="0"
               style="fill:#000000;stroke-width:0" /></g></g><text
           xml:space="preserve"
           style="font-size:67.300354px;font-style:normal;font-variant:normal;font-weight:normal;font-stretch:normal;line-height:125%;letter-spacing:0px;word-spacing:0px;fill:#000000;fill-opacity:1;stroke:none;font-family:TG Termes Math;-inkscape-font-specification:TG Termes Math"
           x="731.80096"
           y="-600.72766"
           id="text8238"
           sodipodi:linespacing="125%"
           transform="scale(1.0239773,-0.97658413)"><tspan
             sodipodi:role="line"
             id="tspan8240"
             x="731.80096"
             y="-600.72766">0</tspan></text>
<text
           xml:space="preserve"
           style="font-size:83.86914825px;font-style:normal;font-variant:normal;font-weight:normal;font-stretch:normal;line-height:125%;letter-spacing:0px;word-spacing:0px;fill:#000000;fill-opacity:1;stroke:none;font-family:TG Termes Math;-inkscape-font-specification:TG Termes Math"
           x="891.85345"
           y="-52.73484"
           id="text8242"
           sodipodi:linespacing="125%"
           transform="scale(1.1514404,-0.86847742)"><tspan
             sodipodi:role="line"
             id="tspan8244"
             x="891.85345"
             y="-52.73484">1</tspan></text>
</g></g></g></svg>