<?xml version="1.0" encoding="UTF-8" standalone="no"?>
<!-- Created with Inkscape (http://www.inkscape.org/) -->

<svg
   xmlns:dc="http://purl.org/dc/elements/1.1/"
   xmlns:cc="http://creativecommons.org/ns#"
   xmlns:rdf="http://www.w3.org/1999/02/22-rdf-syntax-ns#"
   xmlns:svg="http://www.w3.org/2000/svg"
   xmlns="http://www.w3.org/2000/svg"
   xmlns:sodipodi="http://sodipodi.sourceforge.net/DTD/sodipodi-0.dtd"
   xmlns:inkscape="http://www.inkscape.org/namespaces/inkscape"
   id="svg2985"
   version="1.1"
   inkscape:version="0.48.4 r9939"
   width="804.73633"
   height="417.77748"
   xml:space="preserve"
   sodipodi:docname="simea1.pdf"><metadata
     id="metadata2991"><rdf:RDF><cc:Work
         rdf:about=""><dc:format>image/svg+xml</dc:format><dc:type
           rdf:resource="http://purl.org/dc/dcmitype/StillImage" /><dc:title></dc:title></cc:Work></rdf:RDF></metadata><defs
     id="defs2989" /><sodipodi:namedview
     pagecolor="#ffffff"
     bordercolor="#666666"
     borderopacity="1"
     objecttolerance="10"
     gridtolerance="10"
     guidetolerance="10"
     inkscape:pageopacity="0"
     inkscape:pageshadow="2"
     inkscape:window-width="1333"
     inkscape:window-height="744"
     id="namedview2987"
     showgrid="false"
     inkscape:zoom="2.4532783"
     inkscape:cx="180.7359"
     inkscape:cy="24.736681"
     inkscape:window-x="33"
     inkscape:window-y="24"
     inkscape:window-maximized="1"
     inkscape:current-layer="g2993" /><g
     id="g2993"
     inkscape:groupmode="layer"
     inkscape:label="simea1"
     transform="matrix(1.25,0,0,-1.25,0,417.77748)"><path
       inkscape:connector-curvature="0"
       id="path3009"
       style="fill:#0066cc;fill-opacity:0.93582901;fill-rule:nonzero;stroke:none"
       d="m 364.832,25.8 -0.164,280.621 28.168,-0.242 -0.32,-82.887 29.054,-0.164 -0.242,-55.847 27.438,-0.082 0,-57.301 28.812,-0.082 0.082,-55.852 140.754,0 -0.16,-28.086 L 364.832,25.8 z" /><path
       inkscape:connector-curvature="0"
       id="path2997"
       style="fill:#0066cc;fill-opacity:0.85026700000000000;fill-rule:nonzero;stroke:none;stroke-width:0.08;stroke-miterlimit:4;stroke-dasharray:none"
       d="m 145.211,26.081 1.289,141.024 28.477,0.16 -0.227,-58.16 55.742,0.422 -0.344,-56.368 56.879,0.231 -0.113,-27.535 -141.703,0.226 z" /><path
       inkscape:connector-curvature="0"
       id="path2999"
       style="fill:none;stroke:none;stroke-width:0.79920000000000002;stroke-linecap:butt;stroke-linejoin:miter;stroke-miterlimit:4;stroke-opacity:1;stroke-dasharray:none"
       d="m 145.211,26.081 1.289,141.024 28.477,0.16 -0.227,-58.16 55.742,0.422 -0.344,-56.368 56.879,0.231 -0.113,-27.535 -141.703,0.226 z" /><path
       inkscape:connector-curvature="0"
       id="path3001"
       style="fill:#0066cc;fill-opacity:0.66310197000000004;fill-rule:nonzero;stroke:none;stroke-width:0.08;stroke-miterlimit:4;stroke-dasharray:none"
       d="m 6.051,26.902 0.113,26.82 55.652,-0.598 0.141,55.688 55.801,0.297 0.176,57.984 c -3.329,0.188 23.343,-0.019 28.351,-0.035 l -0.816,-79.762 0,-61.336 -75.223,0.039 -20.062,-0.019 0.066,0 -44.199,0.922 z" /><g
       transform="matrix(1,0,0,-1,0,334.22198)"
       id="g3003"
       style="stroke:none"><path
         inkscape:connector-curvature="0"
         id="path3005"
         style="fill:none;stroke:none;stroke-width:0.80000000999999998;stroke-linecap:butt;stroke-linejoin:miter;stroke-miterlimit:4;stroke-opacity:1;stroke-dasharray:none"
         d="m 6.051,307.32 0.113,-26.82 55.652,0.598 0.141,-55.688 55.801,-0.297 0.176,-57.984 c -3.329,-0.188 23.343,0.019 28.351,0.035 l -0.816,79.762 0,61.336 -75.223,-0.039 -20.062,0.019 0.066,0 -44.199,-0.922 z" /></g><path
       inkscape:connector-curvature="0"
       id="path3007"
       style="fill:none;stroke:#000000;stroke-width:1.98581195;stroke-linecap:butt;stroke-linejoin:miter;stroke-miterlimit:4;stroke-opacity:1;stroke-dasharray:none"
       d="m 1.238,26.382 c 0,115.887 -0.246,204.281 -0.246,306.848" /><g
       transform="matrix(1,0,0,-1,0,334.22198)"
       id="g3011"
       style="stroke-width:0.08;stroke-miterlimit:4;stroke-dasharray:none"><path
         inkscape:connector-curvature="0"
         id="path3013"
         style="fill:none;stroke:#000000;stroke-width:0.08;stroke-linecap:butt;stroke-linejoin:miter;stroke-miterlimit:4;stroke-opacity:1;stroke-dasharray:none"
         d="m 364.832,308.422 -0.164,-280.621 28.168,0.242 -0.32,82.887 29.054,0.164 -0.242,55.847 27.438,0.082 0,57.301 28.812,0.082 0.082,55.852 140.754,0 -0.16,28.086 -253.422,0.078 z" /></g><g
       transform="matrix(1,0,0,-1,0,334.22198)"
       id="g3015"><path
         inkscape:connector-curvature="0"
         id="path3017"
         style="fill:none;stroke:#a94300;stroke-width:1.60000002;stroke-linecap:butt;stroke-linejoin:miter;stroke-miterlimit:4;stroke-opacity:1;stroke-dasharray:none"
         d="m 426.492,167.348 1.293,140.754" /></g><g
       transform="matrix(1,0,0,-1.1506097,-0.97828283,381.06376)"
       id="g3019"><path
         inkscape:connector-curvature="0"
         id="path3021"
         style="fill:none;stroke:#000000;stroke-width:2;stroke-linecap:butt;stroke-linejoin:miter;stroke-miterlimit:4;stroke-opacity:1;stroke-dasharray:none"
         d="m 1,307.684 302.172,1.062" /></g><g
       transform="matrix(1,0,0,-1,0,334.22198)"
       id="g3023"><path
         inkscape:connector-curvature="0"
         id="path3025"
         style="fill:none;stroke:#000000;stroke-width:2;stroke-linecap:butt;stroke-linejoin:miter;stroke-miterlimit:4;stroke-opacity:1;stroke-dasharray:none"
         d="M 642.789,308.102 336.746,308.746 336.098,1.41" /></g><path
       inkscape:connector-curvature="0"
       id="path3027"
       style="fill:none;stroke:#a94300;stroke-width:1.60000002;stroke-linecap:butt;stroke-linejoin:miter;stroke-miterlimit:4;stroke-opacity:1;stroke-dasharray:none"
       d="m 561.969,53.73 c 0.015,51.019 -15.149,104.379 -37.446,158.832" /><g
       transform="matrix(0.4095,-1,1,0.4095,0,334.22198)"
       id="g3029"><path
         inkscape:connector-curvature="0"
         id="path3031"
         style="fill:#000000;fill-opacity:1;fill-rule:evenodd;stroke:#000000;stroke-width:0.74033099;stroke-linecap:butt;stroke-linejoin:miter;stroke-miterlimit:4;stroke-opacity:1;stroke-dasharray:none"
         d="m 294.056,406.53 2.964,-2.96 -10.367,2.96 10.366,2.962 -2.963,-2.962 z" /></g><g
       transform="matrix(1,0,0,-1,0,334.22198)"
       id="g3033"><path
         inkscape:connector-curvature="0"
         id="path3035"
         style="fill:none;stroke:#a94300;stroke-width:1.60000002;stroke-linecap:butt;stroke-linejoin:miter;stroke-miterlimit:4;stroke-opacity:1;stroke-dasharray:none"
         d="m 146.273,166.957 -1.289,141.789" /></g><text
       id="text3037"
       transform="scale(1,-1)"
       x="504.92343"
       y="-217.48415"><tspan
         id="tspan3039"
         sodipodi:role="line"
         y="-217.48415"
         x="504.92343 515.5954 523.5954 528.0434"
         style="font-size:16px;font-variant:normal;font-weight:normal;writing-mode:lr-tb;fill:#000000;fill-opacity:1;fill-rule:nonzero;stroke:none;font-family:TG Termes Math;-inkscape-font-specification:TGTermesMath-Regular">Cola</tspan></text>
<path
       inkscape:connector-curvature="0"
       id="path3041"
       style="fill:#000000;fill-opacity:1;fill-rule:nonzero;stroke:none"
       d="m 151.508,20.995 -0.199,-0.164 -0.2,-0.156 -0.203,-0.152 -0.203,-0.141 -0.203,-0.137 -0.207,-0.125 -0.207,-0.117 -0.207,-0.101 -0.106,-0.051 -0.101,-0.051 -0.106,-0.043 -0.105,-0.039 -0.102,-0.039 -0.109,-0.039 -0.102,-0.027 -0.105,-0.032 -0.102,-0.027 -0.105,-0.02 -0.106,-0.023 -0.101,-0.012 -0.106,-0.011 -0.101,-0.012 -0.106,-0.008 -0.101,0 c -0.863,0 -1.488,0.363 -2.235,0.797 -0.632,0.367 -1.296,0.73 -2.16,0.73 -0.539,0 -1.097,-0.168 -1.57,-0.386 -0.434,-0.215 -0.867,-0.453 -1.23,-0.754 l -1.161,-0.949 0.301,-0.364 c 1.055,0.879 2.195,1.528 3.289,1.528 0.867,0 1.496,-0.364 2.246,-0.797 0.625,-0.367 1.285,-0.731 2.153,-0.731 0.539,0 1.101,0.172 1.578,0.387 0.422,0.215 0.855,0.453 1.219,0.758 l 1.167,0.945 -0.304,0.363 z" /><path
       inkscape:connector-curvature="0"
       id="path3043"
       style="fill:#000000;fill-opacity:1;fill-rule:nonzero;stroke:none"
       d="m 144.699,8.851 -1.808,4.285 c -0.063,0.176 -0.106,0.254 -0.106,0.277 0,0.133 0.367,0.539 1.27,0.625 0.215,0.024 0.433,0.043 0.433,0.418 0,0.254 -0.265,0.254 -0.324,0.254 -0.887,0 -1.812,-0.07 -2.715,-0.07 -0.539,0 -1.871,0.07 -2.414,0.07 -0.125,0 -0.387,0 -0.387,-0.433 0,-0.239 0.215,-0.239 0.497,-0.239 1.293,0 1.417,-0.214 1.617,-0.687 l 2.535,-6.012 -4.543,-4.887 -0.274,-0.238 c -1.054,-1.14 -2.07,-1.484 -3.168,-1.543 -0.277,-0.023 -0.476,-0.023 -0.476,-0.433 0,-0.024 0,-0.239 0.285,-0.239 0.641,0 1.348,0.071 2.02,0.071 0.797,0 1.64,-0.071 2.41,-0.071 0.133,0 0.394,0 0.394,0.434 0,0.215 -0.218,0.238 -0.261,0.238 -0.192,0.016 -0.864,0.059 -0.864,0.664 0,0.348 0.325,0.692 0.582,0.969 l 2.192,2.328 1.941,2.106 2.176,-5.145 c 0.086,-0.234 0.109,-0.258 0.109,-0.305 0,-0.168 -0.406,-0.531 -1.25,-0.617 -0.238,-0.023 -0.429,-0.047 -0.429,-0.418 0,-0.254 0.238,-0.254 0.32,-0.254 0.609,0 2.113,0.071 2.715,0.071 0.539,0 1.851,-0.071 2.39,-0.071 0.153,0 0.411,0 0.411,0.41 0,0.262 -0.215,0.262 -0.387,0.262 -1.442,0.016 -1.488,0.086 -1.852,0.942 -0.84,2.004 -2.281,5.363 -2.773,6.652 1.465,1.512 3.715,4.074 4.406,4.676 0.629,0.519 1.445,1.035 2.738,1.097 0.282,0.024 0.469,0.024 0.469,0.434 0,0.023 0,0.238 -0.277,0.238 -0.645,0 -1.356,-0.07 -2.024,-0.07 -0.797,0 -1.613,0.07 -2.39,0.07 -0.133,0 -0.407,0 -0.407,-0.433 0,-0.145 0.106,-0.215 0.258,-0.239 0.196,-0.015 0.864,-0.062 0.864,-0.664 0,-0.308 -0.239,-0.582 -0.414,-0.777 l -3.489,-3.746 z" /><path
       inkscape:connector-curvature="0"
       id="path3045"
       style="fill:#000000;fill-opacity:1;fill-rule:nonzero;stroke:none"
       d="m 435.109,22.534 -0.199,-0.164 -0.199,-0.156 -0.203,-0.152 -0.203,-0.145 -0.203,-0.133 -0.207,-0.125 -0.207,-0.117 -0.208,-0.101 -0.105,-0.055 -0.102,-0.047 -0.105,-0.043 -0.102,-0.039 -0.105,-0.039 -0.109,-0.039 -0.102,-0.031 -0.105,-0.028 -0.102,-0.027 -0.105,-0.019 -0.102,-0.024 -0.106,-0.012 -0.101,-0.015 -0.211,-0.016 -0.102,0 c -0.859,0 -1.488,0.363 -2.234,0.797 -0.633,0.367 -1.297,0.73 -2.156,0.73 -0.543,0 -1.102,-0.171 -1.574,-0.386 -0.434,-0.215 -0.868,-0.453 -1.231,-0.758 l -1.16,-0.945 0.301,-0.364 c 1.054,0.879 2.195,1.528 3.289,1.528 0.867,0 1.496,-0.364 2.246,-0.797 0.625,-0.367 1.285,-0.731 2.152,-0.731 0.539,0 1.102,0.168 1.578,0.387 0.422,0.215 0.856,0.453 1.219,0.754 l 1.172,0.949 -0.309,0.363 z" /><path
       inkscape:connector-curvature="0"
       id="path3047"
       style="fill:#000000;fill-opacity:1;fill-rule:nonzero;stroke:none"
       d="m 428.301,10.39 -1.805,4.285 c -0.066,0.176 -0.109,0.254 -0.109,0.277 0,0.133 0.367,0.54 1.269,0.625 0.219,0.024 0.434,0.043 0.434,0.415 0,0.257 -0.266,0.257 -0.324,0.257 -0.887,0 -1.813,-0.07 -2.715,-0.07 -0.539,0 -1.871,0.07 -2.41,0.07 -0.129,0 -0.391,0 -0.391,-0.433 0,-0.239 0.215,-0.239 0.496,-0.239 1.293,0 1.418,-0.214 1.617,-0.687 l 2.539,-6.012 -4.543,-4.89 -0.277,-0.239 c -1.055,-1.14 -2.07,-1.48 -3.168,-1.543 -0.277,-0.019 -0.476,-0.019 -0.476,-0.429 0,-0.024 0,-0.239 0.285,-0.239 0.64,0 1.347,0.071 2.019,0.071 0.797,0 1.641,-0.071 2.41,-0.071 0.137,0 0.395,0 0.395,0.434 0,0.215 -0.215,0.234 -0.258,0.234 -0.195,0.02 -0.867,0.063 -0.867,0.668 0,0.344 0.324,0.692 0.586,0.969 l 2.191,2.328 1.942,2.106 2.171,-5.145 c 0.086,-0.238 0.11,-0.258 0.11,-0.305 0,-0.168 -0.406,-0.531 -1.25,-0.621 -0.238,-0.019 -0.43,-0.047 -0.43,-0.414 0,-0.254 0.238,-0.254 0.32,-0.254 0.61,0 2.114,0.071 2.715,0.071 0.543,0 1.852,-0.071 2.391,-0.071 0.152,0 0.41,0 0.41,0.411 0,0.257 -0.215,0.257 -0.387,0.257 -1.441,0.02 -1.488,0.09 -1.851,0.946 -0.84,2.004 -2.281,5.363 -2.774,6.652 1.465,1.512 3.715,4.074 4.407,4.676 0.629,0.519 1.445,1.031 2.738,1.097 0.281,0.024 0.469,0.024 0.469,0.434 0,0.02 0,0.238 -0.274,0.238 -0.648,0 -1.359,-0.07 -2.027,-0.07 -0.797,0 -1.613,0.07 -2.391,0.07 -0.129,0 -0.406,0 -0.406,-0.433 0,-0.149 0.106,-0.215 0.258,-0.239 0.195,-0.015 0.863,-0.066 0.863,-0.664 0,-0.308 -0.234,-0.586 -0.414,-0.781 l -3.488,-3.742 z" /></g></svg>