<?xml version="1.0" encoding="UTF-8" standalone="no"?>
<!-- Created with Inkscape (http://www.inkscape.org/) -->

<svg
   xmlns:dc="http://purl.org/dc/elements/1.1/"
   xmlns:cc="http://creativecommons.org/ns#"
   xmlns:rdf="http://www.w3.org/1999/02/22-rdf-syntax-ns#"
   xmlns:svg="http://www.w3.org/2000/svg"
   xmlns="http://www.w3.org/2000/svg"
   xmlns:sodipodi="http://sodipodi.sourceforge.net/DTD/sodipodi-0.dtd"
   xmlns:inkscape="http://www.inkscape.org/namespaces/inkscape"
   id="svg2"
   version="1.1"
   inkscape:version="0.48.4 r9939"
   width="405.97412"
   height="284.83536"
   xml:space="preserve"
   sodipodi:docname="Variab.pdf"><metadata
     id="metadata8"><rdf:RDF><cc:Work
         rdf:about=""><dc:format>image/svg+xml</dc:format><dc:type
           rdf:resource="http://purl.org/dc/dcmitype/StillImage" /><dc:title></dc:title></cc:Work></rdf:RDF></metadata><defs
     id="defs6"><marker
       inkscape:stockid="Arrow1Lend"
       orient="auto"
       refY="0"
       refX="0"
       id="Arrow1Lend"
       style="overflow:visible"><path
         id="path3809"
         d="M 0,0 5,-5 -12.5,0 5,5 0,0 z"
         style="fill-rule:evenodd;stroke:#000000;stroke-width:1pt"
         transform="matrix(-0.8,0,0,-0.8,-10,0)"
         inkscape:connector-curvature="0" /></marker><marker
       inkscape:stockid="Arrow1Mend"
       orient="auto"
       refY="0"
       refX="0"
       id="Arrow1Mend"
       style="overflow:visible"><path
         id="path3815"
         d="M 0,0 5,-5 -12.5,0 5,5 0,0 z"
         style="fill-rule:evenodd;stroke:#000000;stroke-width:1pt"
         transform="matrix(-0.4,0,0,-0.4,-4,0)"
         inkscape:connector-curvature="0" /></marker></defs><sodipodi:namedview
     pagecolor="#ffffff"
     bordercolor="#666666"
     borderopacity="1"
     objecttolerance="10"
     gridtolerance="10"
     guidetolerance="10"
     inkscape:pageopacity="0"
     inkscape:pageshadow="2"
     inkscape:window-width="1333"
     inkscape:window-height="744"
     id="namedview4"
     showgrid="false"
     inkscape:zoom="1.9170425"
     inkscape:cx="225.24952"
     inkscape:cy="139.75438"
     inkscape:window-x="33"
     inkscape:window-y="24"
     inkscape:window-maximized="1"
     inkscape:current-layer="g10"
     fit-margin-top="0"
     fit-margin-left="0"
     fit-margin-right="0"
     fit-margin-bottom="0" /><g
     id="g10"
     inkscape:groupmode="layer"
     inkscape:label="Variab"
     transform="matrix(1.25,0,0,-1.25,-5.7379991,291.09499)"><path
       sodipodi:type="arc"
       style="opacity:0.75185188;fill:#0066cc;fill-opacity:1;stroke:none"
       id="path3012"
       sodipodi:cx="118.9332"
       sodipodi:cy="173.5668"
       sodipodi:rx="58.423328"
       sodipodi:ry="116.84666"
       d="m 177.35653,173.5668 c 0,64.53263 -26.15702,116.84666 -58.42333,116.84666 -32.266316,0 -58.423331,-52.31403 -58.423331,-116.84666 0,-64.53262 26.157015,-116.846654 58.423331,-116.846654 32.26631,0 58.42333,52.314034 58.42333,116.846654 z"
       transform="matrix(0.87142857,0,0,-0.83928572,-48.139629,248.74758)" /><path
       sodipodi:type="arc"
       style="opacity:0.75185188;fill:#0066cc;fill-opacity:1;stroke:none"
       id="path3012-3"
       sodipodi:cx="118.9332"
       sodipodi:cy="173.5668"
       sodipodi:rx="58.423328"
       sodipodi:ry="116.84666"
       d="m 177.35653,173.5668 c 0,64.53263 -26.15702,116.84666 -58.42333,116.84666 -32.266316,0 -58.423331,-52.31403 -58.423331,-116.84666 0,-64.53262 26.157015,-116.846654 58.423331,-116.846654 32.26631,0 58.42333,52.314034 58.42333,116.846654 z"
       transform="matrix(0.87142856,0,0,-0.83928568,174.81616,255.42264)" /><path
       style="fill:none;stroke:#000000;stroke-width:0.79606909px;stroke-linecap:butt;stroke-linejoin:miter;stroke-opacity:1;marker-end:url(#Arrow1Lend)"
       d="m 56.334815,201.14155 c 70.199365,14.80492 137.013355,11.1541 202.816345,0.41747"
       id="path3800"
       inkscape:connector-curvature="0"
       sodipodi:nodetypes="cc" /><path
       transform="matrix(0.8,0,0,-0.8,95.355217,219.60283)"
       sodipodi:type="arc"
       style="opacity:0.75185188;fill:#000000;fill-opacity:1;stroke:none"
       id="path4432-1"
       sodipodi:cx="214.65356"
       sodipodi:cy="58.024235"
       sodipodi:rx="3.3906395"
       sodipodi:ry="3.3906395"
       d="m 218.0442,58.024235 c 0,1.872598 -1.51804,3.390639 -3.39064,3.390639 -1.87259,0 -3.39064,-1.518041 -3.39064,-3.390639 0,-1.872599 1.51805,-3.39064 3.39064,-3.39064 1.8726,0 3.39064,1.518041 3.39064,3.39064 z" /><path
       transform="matrix(0.8,0,0,-0.8,95.355217,183.71421)"
       sodipodi:type="arc"
       style="opacity:0.75185188;fill:#000000;fill-opacity:1;stroke:none"
       id="path4432-6"
       sodipodi:cx="214.65356"
       sodipodi:cy="58.024235"
       sodipodi:rx="3.3906395"
       sodipodi:ry="3.3906395"
       d="m 218.0442,58.024235 c 0,1.872598 -1.51804,3.390639 -3.39064,3.390639 -1.87259,0 -3.39064,-1.518041 -3.39064,-3.390639 0,-1.872599 1.51805,-3.39064 3.39064,-3.39064 1.8726,0 3.39064,1.518041 3.39064,3.39064 z" /><path
       transform="matrix(0.8,0,0,-0.8,95.355217,146.57367)"
       sodipodi:type="arc"
       style="opacity:0.75185188;fill:#000000;fill-opacity:1;stroke:none"
       id="path4432-0"
       sodipodi:cx="214.65356"
       sodipodi:cy="58.024235"
       sodipodi:rx="3.3906395"
       sodipodi:ry="3.3906395"
       d="m 218.0442,58.024235 c 0,1.872598 -1.51804,3.390639 -3.39064,3.390639 -1.87259,0 -3.39064,-1.518041 -3.39064,-3.390639 0,-1.872599 1.51805,-3.39064 3.39064,-3.39064 1.8726,0 3.39064,1.518041 3.39064,3.39064 z" /><path
       transform="matrix(0.8,0,0,-0.8,95.355217,110.68505)"
       sodipodi:type="arc"
       style="opacity:0.75185188;fill:#000000;fill-opacity:1;stroke:none"
       id="path4432-8"
       sodipodi:cx="214.65356"
       sodipodi:cy="58.024235"
       sodipodi:rx="3.3906395"
       sodipodi:ry="3.3906395"
       d="m 218.0442,58.024235 c 0,1.872598 -1.51804,3.390639 -3.39064,3.390639 -1.87259,0 -3.39064,-1.518041 -3.39064,-3.390639 0,-1.872599 1.51805,-3.39064 3.39064,-3.39064 1.8726,0 3.39064,1.518041 3.39064,3.39064 z" /><path
       transform="matrix(0.8,0,0,-0.8,-108.29181,79.38684)"
       sodipodi:type="arc"
       style="opacity:0.75185188;fill:#000000;fill-opacity:1;stroke:none"
       id="path4432-65"
       sodipodi:cx="214.65356"
       sodipodi:cy="58.024235"
       sodipodi:rx="3.3906395"
       sodipodi:ry="3.3906395"
       d="m 218.0442,58.024235 c 0,1.872598 -1.51804,3.390639 -3.39064,3.390639 -1.87259,0 -3.39064,-1.518041 -3.39064,-3.390639 0,-1.872599 1.51805,-3.39064 3.39064,-3.39064 1.8726,0 3.39064,1.518041 3.39064,3.39064 z" /><path
       transform="matrix(0.8,0,0,-0.8,-107.8745,98.165767)"
       sodipodi:type="arc"
       style="opacity:0.75185188;fill:#000000;fill-opacity:1;stroke:none"
       id="path4432-08"
       sodipodi:cx="214.65356"
       sodipodi:cy="58.024235"
       sodipodi:rx="3.3906395"
       sodipodi:ry="3.3906395"
       d="m 218.0442,58.024235 c 0,1.872598 -1.51804,3.390639 -3.39064,3.390639 -1.87259,0 -3.39064,-1.518041 -3.39064,-3.390639 0,-1.872599 1.51805,-3.39064 3.39064,-3.39064 1.8726,0 3.39064,1.518041 3.39064,3.39064 z" /><path
       transform="matrix(0.8,0,0,-0.8,-107.03988,117.77931)"
       sodipodi:type="arc"
       style="opacity:0.75185188;fill:#000000;fill-opacity:1;stroke:none"
       id="path4432-3"
       sodipodi:cx="214.65356"
       sodipodi:cy="58.024235"
       sodipodi:rx="3.3906395"
       sodipodi:ry="3.3906395"
       d="m 218.0442,58.024235 c 0,1.872598 -1.51804,3.390639 -3.39064,3.390639 -1.87259,0 -3.39064,-1.518041 -3.39064,-3.390639 0,-1.872599 1.51805,-3.39064 3.39064,-3.39064 1.8726,0 3.39064,1.518041 3.39064,3.39064 z" /><path
       transform="matrix(0.8,0,0,-0.8,-107.45719,136.97555)"
       sodipodi:type="arc"
       style="opacity:0.75185188;fill:#000000;fill-opacity:1;stroke:none"
       id="path4432-07"
       sodipodi:cx="214.65356"
       sodipodi:cy="58.024235"
       sodipodi:rx="3.3906395"
       sodipodi:ry="3.3906395"
       d="m 218.0442,58.024235 c 0,1.872598 -1.51804,3.390639 -3.39064,3.390639 -1.87259,0 -3.39064,-1.518041 -3.39064,-3.390639 0,-1.872599 1.51805,-3.39064 3.39064,-3.39064 1.8726,0 3.39064,1.518041 3.39064,3.39064 z" /><path
       transform="matrix(0.8,0,0,-0.8,-106.62257,157.0064)"
       sodipodi:type="arc"
       style="opacity:0.75185188;fill:#000000;fill-opacity:1;stroke:none"
       id="path4432-5"
       sodipodi:cx="214.65356"
       sodipodi:cy="58.024235"
       sodipodi:rx="3.3906395"
       sodipodi:ry="3.3906395"
       d="m 218.0442,58.024235 c 0,1.872598 -1.51804,3.390639 -3.39064,3.390639 -1.87259,0 -3.39064,-1.518041 -3.39064,-3.390639 0,-1.872599 1.51805,-3.39064 3.39064,-3.39064 1.8726,0 3.39064,1.518041 3.39064,3.39064 z" /><path
       transform="matrix(0.8,0,0,-0.8,-108.70912,176.61995)"
       sodipodi:type="arc"
       style="opacity:0.75185188;fill:#000000;fill-opacity:1;stroke:none"
       id="path4432-64"
       sodipodi:cx="214.65356"
       sodipodi:cy="58.024235"
       sodipodi:rx="3.3906395"
       sodipodi:ry="3.3906395"
       d="m 218.0442,58.024235 c 0,1.872598 -1.51804,3.390639 -3.39064,3.390639 -1.87259,0 -3.39064,-1.518041 -3.39064,-3.390639 0,-1.872599 1.51805,-3.39064 3.39064,-3.39064 1.8726,0 3.39064,1.518041 3.39064,3.39064 z" /><path
       transform="matrix(0.8,0,0,-0.8,-108.29181,197.06811)"
       sodipodi:type="arc"
       style="opacity:0.75185188;fill:#000000;fill-opacity:1;stroke:none"
       id="path4432-12"
       sodipodi:cx="214.65356"
       sodipodi:cy="58.024235"
       sodipodi:rx="3.3906395"
       sodipodi:ry="3.3906395"
       d="m 218.0442,58.024235 c 0,1.872598 -1.51804,3.390639 -3.39064,3.390639 -1.87259,0 -3.39064,-1.518041 -3.39064,-3.390639 0,-1.872599 1.51805,-3.39064 3.39064,-3.39064 1.8726,0 3.39064,1.518041 3.39064,3.39064 z" /><path
       transform="matrix(0.8,0,0,-0.8,-106.62257,216.26435)"
       sodipodi:type="arc"
       style="opacity:0.75185188;fill:#000000;fill-opacity:1;stroke:none"
       id="path4432-9"
       sodipodi:cx="214.65356"
       sodipodi:cy="58.024235"
       sodipodi:rx="3.3906395"
       sodipodi:ry="3.3906395"
       d="m 218.0442,58.024235 c 0,1.872598 -1.51804,3.390639 -3.39064,3.390639 -1.87259,0 -3.39064,-1.518041 -3.39064,-3.390639 0,-1.872599 1.51805,-3.39064 3.39064,-3.39064 1.8726,0 3.39064,1.518041 3.39064,3.39064 z" /><path
       style="fill:none;stroke:#000000;stroke-width:0.79701471px;stroke-linecap:butt;stroke-linejoin:miter;stroke-opacity:1;marker-end:url(#Arrow1Mend)"
       d="m 65.933406,170.67808 198.229974,2.08837"
       id="path4529"
       inkscape:connector-curvature="0" /><path
       style="fill:none;stroke:#000000;stroke-width:0.79035598px;stroke-linecap:butt;stroke-linejoin:miter;stroke-opacity:1;marker-end:url(#Arrow1Mend)"
       d="M 64.678148,150.23624 262.50729,140.62935"
       id="path4531"
       inkscape:connector-curvature="0"
       sodipodi:nodetypes="cc" /><path
       style="fill:none;stroke:#000000;stroke-width:0.77762949px;stroke-linecap:butt;stroke-linejoin:miter;stroke-opacity:1;marker-end:url(#Arrow1Mend)"
       d="m 62.585237,130.18937 201.199983,6.69636"
       id="path4533"
       inkscape:connector-curvature="0"
       sodipodi:nodetypes="cc" /><path
       style="fill:none;stroke:#000000;stroke-width:0.72450984px;stroke-linecap:butt;stroke-linejoin:miter;stroke-opacity:1;marker-end:url(#Arrow1Mend)"
       d="M 63.393296,110.54927 262.95698,133.69568"
       id="path4535"
       inkscape:connector-curvature="0" /><path
       style="fill:none;stroke:#000000;stroke-width:1px;stroke-linecap:butt;stroke-linejoin:miter;stroke-opacity:1;marker-end:url(#Arrow1Mend)"
       d="M 82.940259,179.3048 328.10958,165.74225"
       id="path4537"
       inkscape:connector-curvature="0"
       transform="matrix(0.8,0,0,-0.8,0,234)"
       sodipodi:nodetypes="cc" /><path
       style="fill:none;stroke:#000000;stroke-width:1px;stroke-linecap:butt;stroke-linejoin:miter;stroke-opacity:1;marker-end:url(#Arrow1Mend)"
       d="M 81.896986,203.3001 321.84994,170.43697"
       id="path4539"
       inkscape:connector-curvature="0"
       transform="matrix(0.8,0,0,-0.8,0,234)"
       sodipodi:nodetypes="cc" /><path
       style="fill:none;stroke:#000000;stroke-width:0.7885192px;stroke-linecap:butt;stroke-linejoin:miter;stroke-opacity:1;marker-end:url(#Arrow1Mend)"
       d="M 63.84261,51.323324 262.51002,96.404171"
       id="path4541"
       inkscape:connector-curvature="0"
       sodipodi:nodetypes="cc" /><path
       style="fill:none;stroke:#000000;stroke-width:0.79116052px;stroke-linecap:butt;stroke-linejoin:miter;stroke-opacity:1;marker-end:url(#Arrow1Mend)"
       d="M 62.174693,32.963028 262.92254,63.852585"
       id="path4543"
       inkscape:connector-curvature="0" /><text
       xml:space="preserve"
       style="font-size:16px;font-style:normal;font-variant:normal;font-weight:normal;font-stretch:normal;line-height:125%;letter-spacing:0px;word-spacing:0px;fill:#000000;fill-opacity:1;stroke:none;font-family:Latin Modern Roman;-inkscape-font-specification:Latin Modern Roman"
       x="40.06171"
       y="-206.15089"
       id="text4545"
       sodipodi:linespacing="125%"
       transform="scale(1,-1)"><tspan
         sodipodi:role="line"
         id="tspan4547"
         x="40.06171"
         y="-206.15089"
         style="font-size:25.60000038px;font-style:italic;font-weight:bold;-inkscape-font-specification:'Latin Modern Roman, Bold Italic'">S</tspan></text>
<text
       xml:space="preserve"
       style="font-size:16px;font-style:normal;font-variant:normal;font-weight:normal;font-stretch:normal;line-height:125%;letter-spacing:0px;word-spacing:0px;fill:#000000;fill-opacity:1;stroke:none;font-family:Latin Modern Roman;-inkscape-font-specification:Latin Modern Roman"
       x="145.08873"
       y="-215.31439"
       id="text4545-9"
       sodipodi:linespacing="125%"
       transform="scale(1,-1)"><tspan
         sodipodi:role="line"
         id="tspan4547-2"
         x="145.08873"
         y="-215.31439"
         style="font-size:25.60000038px;font-style:italic;font-weight:bold;-inkscape-font-specification:'Latin Modern Roman, Bold Italic'">X</tspan></text>
<text
       xml:space="preserve"
       style="font-size:16px;font-style:normal;font-variant:normal;font-weight:normal;font-stretch:normal;line-height:125%;letter-spacing:0px;word-spacing:0px;fill:#000000;fill-opacity:1;stroke:none;font-family:Latin Modern Roman;-inkscape-font-specification:Latin Modern Roman"
       x="266.10846"
       y="-213.64516"
       id="text4545-1"
       sodipodi:linespacing="125%"
       transform="scale(1,-1)"><tspan
         sodipodi:role="line"
         id="tspan4547-4"
         x="266.10846"
         y="-213.64516"
         style="font-size:25.60000038px;font-style:italic;font-weight:bold;-inkscape-font-specification:'Latin Modern Roman, Bold Italic'">R</tspan></text>
<text
       xml:space="preserve"
       style="font-size:8.2588377px;font-style:normal;font-variant:normal;font-weight:normal;font-stretch:normal;line-height:125%;letter-spacing:0px;word-spacing:0px;fill:#000000;fill-opacity:1;stroke:none;font-family:Latin Modern Roman;-inkscape-font-specification:Latin Modern Roman"
       x="290.40607"
       y="-205.64038"
       id="text4545-9-9"
       sodipodi:linespacing="125%"
       transform="scale(0.98366749,-1.0166037)"><tspan
         sodipodi:role="line"
         id="tspan4547-2-3"
         x="290.40607"
         y="-205.64038"
         style="font-size:13.21413994px;font-style:italic;font-weight:bold;-inkscape-font-specification:'Latin Modern Roman, Bold Italic'">X</tspan></text>
<text
       xml:space="preserve"
       style="font-size:16px;font-style:normal;font-variant:normal;font-weight:normal;font-stretch:normal;line-height:125%;letter-spacing:0px;word-spacing:0px;fill:#000000;fill-opacity:1;stroke:none;font-family:TG Termes Math;-inkscape-font-specification:TG Termes Math"
       x="39.644405"
       y="-166.08917"
       id="text4600"
       sodipodi:linespacing="125%"
       transform="scale(1,-1)"><tspan
         sodipodi:role="line"
         id="tspan4602"
         x="39.644405"
         y="-166.08917"
         style="font-family:Latin Modern Roman;-inkscape-font-specification:Latin Modern Roman">ccc</tspan></text>
<text
       xml:space="preserve"
       style="font-size:16px;font-style:normal;font-variant:normal;font-weight:normal;font-stretch:normal;line-height:125%;letter-spacing:0px;word-spacing:0px;fill:#000000;fill-opacity:1;stroke:none;font-family:TG Termes Math;-inkscape-font-specification:TG Termes Math"
       x="38.55677"
       y="-146.73541"
       id="text4600-8"
       sodipodi:linespacing="125%"
       transform="scale(1,-1)"><tspan
         sodipodi:role="line"
         id="tspan4602-7"
         x="38.55677"
         y="-146.73541"
         style="font-family:Latin Modern Roman;-inkscape-font-specification:Latin Modern Roman">ccs</tspan></text>
<text
       xml:space="preserve"
       style="font-size:16px;font-style:normal;font-variant:normal;font-weight:normal;font-stretch:normal;line-height:125%;letter-spacing:0px;word-spacing:0px;fill:#000000;fill-opacity:1;stroke:none;font-family:TG Termes Math;-inkscape-font-specification:TG Termes Math"
       x="38.974075"
       y="-125.86995"
       id="text4600-9"
       sodipodi:linespacing="125%"
       transform="scale(1,-1)"><tspan
         sodipodi:role="line"
         id="tspan4602-5"
         x="38.974075"
         y="-125.86995"
         style="font-family:Latin Modern Roman;-inkscape-font-specification:Latin Modern Roman">csc</tspan></text>
<text
       xml:space="preserve"
       style="font-size:16px;font-style:normal;font-variant:normal;font-weight:normal;font-stretch:normal;line-height:125%;letter-spacing:0px;word-spacing:0px;fill:#000000;fill-opacity:1;stroke:none;font-family:TG Termes Math;-inkscape-font-specification:TG Termes Math"
       x="38.974079"
       y="-106.67371"
       id="text4600-1"
       sodipodi:linespacing="125%"
       transform="scale(1,-1)"><tspan
         sodipodi:role="line"
         id="tspan4602-53"
         x="38.974079"
         y="-106.67371"
         style="font-family:Latin Modern Roman;-inkscape-font-specification:Latin Modern Roman">scc</tspan></text>
<text
       xml:space="preserve"
       style="font-size:16px;font-style:normal;font-variant:normal;font-weight:normal;font-stretch:normal;line-height:125%;letter-spacing:0px;word-spacing:0px;fill:#000000;fill-opacity:1;stroke:none;font-family:TG Termes Math;-inkscape-font-specification:TG Termes Math"
       x="40.643314"
       y="-87.47747"
       id="text4600-19"
       sodipodi:linespacing="125%"
       transform="scale(1,-1)"><tspan
         sodipodi:role="line"
         id="tspan4602-1"
         x="40.643314"
         y="-87.47747"
         style="font-family:Latin Modern Roman;-inkscape-font-specification:Latin Modern Roman">scs</tspan></text>
<text
       xml:space="preserve"
       style="font-size:16px;font-style:normal;font-variant:normal;font-weight:normal;font-stretch:normal;line-height:125%;letter-spacing:0px;word-spacing:0px;fill:#000000;fill-opacity:1;stroke:none;font-family:TG Termes Math;-inkscape-font-specification:TG Termes Math"
       x="41.060623"
       y="-68.281227"
       id="text4600-5"
       sodipodi:linespacing="125%"
       transform="scale(1,-1)"><tspan
         sodipodi:role="line"
         id="tspan4602-3"
         x="41.060623"
         y="-68.281227"
         style="font-family:Latin Modern Roman;-inkscape-font-specification:Latin Modern Roman">ssc</tspan></text>
<text
       xml:space="preserve"
       style="font-size:16px;font-style:normal;font-variant:normal;font-weight:normal;font-stretch:normal;line-height:125%;letter-spacing:0px;word-spacing:0px;fill:#000000;fill-opacity:1;stroke:none;font-family:TG Termes Math;-inkscape-font-specification:TG Termes Math"
       x="39.391384"
       y="-46.581142"
       id="text4600-81"
       sodipodi:linespacing="125%"
       transform="scale(1,-1)"><tspan
         sodipodi:role="line"
         id="tspan4602-14"
         x="39.391384"
         y="-46.581142"
         style="font-family:Latin Modern Roman;-inkscape-font-specification:Latin Modern Roman">css</tspan></text>
<text
       xml:space="preserve"
       style="font-size:16px;font-style:normal;font-variant:normal;font-weight:normal;font-stretch:normal;line-height:125%;letter-spacing:0px;word-spacing:0px;fill:#000000;fill-opacity:1;stroke:none;font-family:TG Termes Math;-inkscape-font-specification:TG Termes Math"
       x="40.226009"
       y="-29.054132"
       id="text4600-94"
       sodipodi:linespacing="125%"
       transform="scale(1,-1)"><tspan
         sodipodi:role="line"
         id="tspan4602-31"
         x="40.226009"
         y="-29.054132"
         style="font-family:Latin Modern Roman;-inkscape-font-specification:Latin Modern Roman">sss</tspan></text>
<text
       xml:space="preserve"
       style="font-size:16px;font-style:normal;font-variant:normal;font-weight:normal;font-stretch:normal;line-height:125%;letter-spacing:0px;word-spacing:0px;fill:#000000;fill-opacity:1;stroke:none;font-family:TG Termes Math;-inkscape-font-specification:TG Termes Math"
       x="270.99814"
       y="-168.0182"
       id="text4600-15"
       sodipodi:linespacing="125%"
       transform="scale(1,-1)"><tspan
         sodipodi:role="line"
         id="tspan4602-50"
         x="270.99814"
         y="-168.0182"
         style="font-family:Latin Modern Roman;-inkscape-font-specification:Latin Modern Roman">0</tspan></text>
<text
       xml:space="preserve"
       style="font-size:16px;font-style:normal;font-variant:normal;font-weight:normal;font-stretch:normal;line-height:125%;letter-spacing:0px;word-spacing:0px;fill:#000000;fill-opacity:1;stroke:none;font-family:TG Termes Math;-inkscape-font-specification:TG Termes Math"
       x="269.76303"
       y="-132.14282"
       id="text4600-15-3"
       sodipodi:linespacing="125%"
       transform="scale(1,-1)"><tspan
         sodipodi:role="line"
         id="tspan4602-50-7"
         x="269.76303"
         y="-132.14282"
         style="font-family:Latin Modern Roman;-inkscape-font-specification:Latin Modern Roman">1</tspan></text>
<text
       xml:space="preserve"
       style="font-size:16px;font-style:normal;font-variant:normal;font-weight:normal;font-stretch:normal;line-height:125%;letter-spacing:0px;word-spacing:0px;fill:#000000;fill-opacity:1;stroke:none;font-family:TG Termes Math;-inkscape-font-specification:TG Termes Math"
       x="272.26688"
       y="-96.254211"
       id="text4600-15-1"
       sodipodi:linespacing="125%"
       transform="scale(1,-1)"><tspan
         sodipodi:role="line"
         id="tspan4602-50-8"
         x="272.26688"
         y="-96.254211"
         style="font-family:Latin Modern Roman;-inkscape-font-specification:Latin Modern Roman">2</tspan></text>
<text
       xml:space="preserve"
       style="font-size:16px;font-style:normal;font-variant:normal;font-weight:normal;font-stretch:normal;line-height:125%;letter-spacing:0px;word-spacing:0px;fill:#000000;fill-opacity:1;stroke:none;font-family:TG Termes Math;-inkscape-font-specification:TG Termes Math"
       x="270.59763"
       y="-59.948277"
       id="text4600-15-7"
       sodipodi:linespacing="125%"
       transform="scale(1,-1)"><tspan
         sodipodi:role="line"
         id="tspan4602-50-3"
         x="270.59763"
         y="-59.948277"
         style="font-family:Latin Modern Roman;-inkscape-font-specification:Latin Modern Roman">3</tspan></text>
</g></svg>